%TF.GenerationSoftware,KiCad,Pcbnew,9.0.7*%
%TF.CreationDate,2026-05-24T23:03:32-04:00*%
%TF.ProjectId,POV-card-v1,504f562d-6361-4726-942d-76312e6b6963,rev?*%
%TF.SameCoordinates,Original*%
%TF.FileFunction,Soldermask,Top*%
%TF.FilePolarity,Negative*%
%FSLAX46Y46*%
G04 Gerber Fmt 4.6, Leading zero omitted, Abs format (unit mm)*
G04 Created by KiCad (PCBNEW 9.0.7) date 2026-05-24 23:03:32*
%MOMM*%
%LPD*%
G01*
G04 APERTURE LIST*
G04 Aperture macros list*
%AMRoundRect*
0 Rectangle with rounded corners*
0 $1 Rounding radius*
0 $2 $3 $4 $5 $6 $7 $8 $9 X,Y pos of 4 corners*
0 Add a 4 corners polygon primitive as box body*
4,1,4,$2,$3,$4,$5,$6,$7,$8,$9,$2,$3,0*
0 Add four circle primitives for the rounded corners*
1,1,$1+$1,$2,$3*
1,1,$1+$1,$4,$5*
1,1,$1+$1,$6,$7*
1,1,$1+$1,$8,$9*
0 Add four rect primitives between the rounded corners*
20,1,$1+$1,$2,$3,$4,$5,0*
20,1,$1+$1,$4,$5,$6,$7,0*
20,1,$1+$1,$6,$7,$8,$9,0*
20,1,$1+$1,$8,$9,$2,$3,0*%
%AMFreePoly0*
4,1,14,0.230680,0.111820,0.364320,-0.021820,0.377500,-0.053640,0.377500,-0.080000,0.364320,-0.111820,0.332500,-0.125000,-0.332500,-0.125000,-0.364320,-0.111820,-0.377500,-0.080000,-0.377500,0.080000,-0.364320,0.111820,-0.332500,0.125000,0.198860,0.125000,0.230680,0.111820,0.230680,0.111820,$1*%
%AMFreePoly1*
4,1,14,0.364320,0.111820,0.377500,0.080000,0.377500,0.053640,0.364320,0.021820,0.230680,-0.111820,0.198860,-0.125000,-0.332500,-0.125000,-0.364320,-0.111820,-0.377500,-0.080000,-0.377500,0.080000,-0.364320,0.111820,-0.332500,0.125000,0.332500,0.125000,0.364320,0.111820,0.364320,0.111820,$1*%
%AMFreePoly2*
4,1,14,0.111820,0.364320,0.125000,0.332500,0.125000,-0.332500,0.111820,-0.364320,0.080000,-0.377500,-0.080000,-0.377500,-0.111820,-0.364320,-0.125000,-0.332500,-0.125000,0.198860,-0.111820,0.230680,0.021820,0.364320,0.053640,0.377500,0.080000,0.377500,0.111820,0.364320,0.111820,0.364320,$1*%
%AMFreePoly3*
4,1,14,-0.021820,0.364320,0.111820,0.230680,0.125000,0.198860,0.125000,-0.332500,0.111820,-0.364320,0.080000,-0.377500,-0.080000,-0.377500,-0.111820,-0.364320,-0.125000,-0.332500,-0.125000,0.332500,-0.111820,0.364320,-0.080000,0.377500,-0.053640,0.377500,-0.021820,0.364320,-0.021820,0.364320,$1*%
%AMFreePoly4*
4,1,14,0.364320,0.111820,0.377500,0.080000,0.377500,-0.080000,0.364320,-0.111820,0.332500,-0.125000,-0.198860,-0.125000,-0.230680,-0.111820,-0.364320,0.021820,-0.377500,0.053640,-0.377500,0.080000,-0.364320,0.111820,-0.332500,0.125000,0.332500,0.125000,0.364320,0.111820,0.364320,0.111820,$1*%
%AMFreePoly5*
4,1,14,0.364320,0.111820,0.377500,0.080000,0.377500,-0.080000,0.364320,-0.111820,0.332500,-0.125000,-0.332500,-0.125000,-0.364320,-0.111820,-0.377500,-0.080000,-0.377500,-0.053640,-0.364320,-0.021820,-0.230680,0.111820,-0.198860,0.125000,0.332500,0.125000,0.364320,0.111820,0.364320,0.111820,$1*%
%AMFreePoly6*
4,1,14,0.111820,0.364320,0.125000,0.332500,0.125000,-0.198860,0.111820,-0.230680,-0.021820,-0.364320,-0.053640,-0.377500,-0.080000,-0.377500,-0.111820,-0.364320,-0.125000,-0.332500,-0.125000,0.332500,-0.111820,0.364320,-0.080000,0.377500,0.080000,0.377500,0.111820,0.364320,0.111820,0.364320,$1*%
%AMFreePoly7*
4,1,14,0.111820,0.364320,0.125000,0.332500,0.125000,-0.332500,0.111820,-0.364320,0.080000,-0.377500,0.053640,-0.377500,0.021820,-0.364320,-0.111820,-0.230680,-0.125000,-0.198860,-0.125000,0.332500,-0.111820,0.364320,-0.080000,0.377500,0.080000,0.377500,0.111820,0.364320,0.111820,0.364320,$1*%
%AMFreePoly8*
4,1,9,3.862500,-0.866500,0.737500,-0.866500,0.737500,-0.450000,-0.737500,-0.450000,-0.737500,0.450000,0.737500,0.450000,0.737500,0.866500,3.862500,0.866500,3.862500,-0.866500,3.862500,-0.866500,$1*%
G04 Aperture macros list end*
%ADD10C,0.100000*%
%ADD11C,0.000000*%
%ADD12RoundRect,0.218750X0.218750X0.256250X-0.218750X0.256250X-0.218750X-0.256250X0.218750X-0.256250X0*%
%ADD13RoundRect,0.140000X-0.170000X0.140000X-0.170000X-0.140000X0.170000X-0.140000X0.170000X0.140000X0*%
%ADD14RoundRect,0.140000X0.170000X-0.140000X0.170000X0.140000X-0.170000X0.140000X-0.170000X-0.140000X0*%
%ADD15RoundRect,0.135000X0.185000X-0.135000X0.185000X0.135000X-0.185000X0.135000X-0.185000X-0.135000X0*%
%ADD16RoundRect,0.135000X-0.185000X0.135000X-0.185000X-0.135000X0.185000X-0.135000X0.185000X0.135000X0*%
%ADD17R,0.280000X0.850000*%
%ADD18R,0.850000X0.280000*%
%ADD19C,2.374900*%
%ADD20C,0.990600*%
%ADD21C,0.787400*%
%ADD22RoundRect,0.135000X0.135000X0.185000X-0.135000X0.185000X-0.135000X-0.185000X0.135000X-0.185000X0*%
%ADD23RoundRect,0.140000X0.140000X0.170000X-0.140000X0.170000X-0.140000X-0.170000X0.140000X-0.170000X0*%
%ADD24RoundRect,0.240000X-1.260000X1.260000X-1.260000X-1.260000X1.260000X-1.260000X1.260000X1.260000X0*%
%ADD25C,18.000000*%
%ADD26FreePoly0,0.000000*%
%ADD27RoundRect,0.062500X-0.375000X-0.062500X0.375000X-0.062500X0.375000X0.062500X-0.375000X0.062500X0*%
%ADD28FreePoly1,0.000000*%
%ADD29FreePoly2,0.000000*%
%ADD30RoundRect,0.062500X-0.062500X-0.375000X0.062500X-0.375000X0.062500X0.375000X-0.062500X0.375000X0*%
%ADD31FreePoly3,0.000000*%
%ADD32FreePoly4,0.000000*%
%ADD33FreePoly5,0.000000*%
%ADD34FreePoly6,0.000000*%
%ADD35FreePoly7,0.000000*%
%ADD36R,0.375000X0.350000*%
%ADD37R,0.350000X0.375000*%
%ADD38RoundRect,0.140000X-0.140000X-0.170000X0.140000X-0.170000X0.140000X0.170000X-0.140000X0.170000X0*%
%ADD39RoundRect,0.135000X-0.135000X-0.185000X0.135000X-0.185000X0.135000X0.185000X-0.135000X0.185000X0*%
%ADD40R,1.000000X0.750000*%
%ADD41RoundRect,0.150000X-0.587500X-0.150000X0.587500X-0.150000X0.587500X0.150000X-0.587500X0.150000X0*%
%ADD42RoundRect,0.150000X0.512500X0.150000X-0.512500X0.150000X-0.512500X-0.150000X0.512500X-0.150000X0*%
%ADD43RoundRect,0.150000X-0.150000X0.512500X-0.150000X-0.512500X0.150000X-0.512500X0.150000X0.512500X0*%
%ADD44RoundRect,0.150000X-0.150000X0.587500X-0.150000X-0.587500X0.150000X-0.587500X0.150000X0.587500X0*%
%ADD45RoundRect,0.225000X0.425000X0.225000X-0.425000X0.225000X-0.425000X-0.225000X0.425000X-0.225000X0*%
%ADD46FreePoly8,180.000000*%
%ADD47RoundRect,0.240000X1.260000X-1.260000X1.260000X1.260000X-1.260000X1.260000X-1.260000X-1.260000X0*%
%ADD48O,2.200000X1.100000*%
%ADD49O,2.500000X1.100000*%
%ADD50C,0.650000*%
%ADD51R,1.240000X0.600000*%
%ADD52R,1.240000X0.300000*%
G04 APERTURE END LIST*
D10*
X240300000Y-66750000D02*
X270000000Y-66750000D01*
X270000000Y-123850000D01*
X240300000Y-123850000D01*
X240300000Y-66750000D01*
G36*
X240300000Y-66750000D02*
G01*
X270000000Y-66750000D01*
X270000000Y-123850000D01*
X240300000Y-123850000D01*
X240300000Y-66750000D01*
G37*
D11*
G36*
X139100000Y-104900000D02*
G01*
X129800000Y-114200000D01*
X115300000Y-114200000D01*
X115300000Y-111300000D01*
X128400000Y-111300000D01*
X139100000Y-100600000D01*
X139100000Y-104900000D01*
G37*
G36*
X167700000Y-76400000D02*
G01*
X148300000Y-95900000D01*
X148300000Y-91600000D01*
X167700000Y-72200000D01*
X167700000Y-76400000D01*
G37*
%TO.C,U3*%
G36*
X147513500Y-84163185D02*
G01*
X145293700Y-84163185D01*
X145293700Y-81936185D01*
X147513500Y-81936185D01*
X147513500Y-84163185D01*
G37*
%TO.C,U5*%
G36*
X147513500Y-121513500D02*
G01*
X145293700Y-121513500D01*
X145293700Y-119286500D01*
X147513500Y-119286500D01*
X147513500Y-121513500D01*
G37*
%TD*%
D12*
%TO.C,D21*%
X142500000Y-112274180D03*
X140925000Y-112274180D03*
%TD*%
D13*
%TO.C,C4*%
X148700000Y-112020000D03*
X148700000Y-112980000D03*
%TD*%
D12*
%TO.C,D5*%
X142500000Y-74854836D03*
X140925000Y-74854836D03*
%TD*%
D14*
%TO.C,C11*%
X149700000Y-83560000D03*
X149700000Y-82600000D03*
%TD*%
D15*
%TO.C,R2*%
X132500000Y-137410000D03*
X132500000Y-136390000D03*
%TD*%
D12*
%TO.C,D30*%
X142500000Y-133322561D03*
X140925000Y-133322561D03*
%TD*%
D16*
%TO.C,R1*%
X146400000Y-125290000D03*
X146400000Y-126310000D03*
%TD*%
D17*
%TO.C,U3*%
X147650000Y-81074685D03*
X147150001Y-81074685D03*
X146650000Y-81074685D03*
X146150000Y-81074685D03*
X145649999Y-81074685D03*
X145150000Y-81074685D03*
D18*
X144425000Y-81799370D03*
X144425000Y-82299496D03*
X144425000Y-82799622D03*
X144425000Y-83299748D03*
X144425000Y-83799874D03*
X144425000Y-84300000D03*
D17*
X145150000Y-85024685D03*
X145649999Y-85024685D03*
X146150000Y-85024685D03*
X146650000Y-85024685D03*
X147150001Y-85024685D03*
X147650000Y-85024685D03*
D18*
X148375000Y-84300000D03*
X148375000Y-83799874D03*
X148375000Y-83299748D03*
X148375000Y-82799622D03*
X148375000Y-82299496D03*
X148375000Y-81799370D03*
%TD*%
D12*
%TO.C,D16*%
X142500000Y-100580635D03*
X140925000Y-100580635D03*
%TD*%
D19*
%TO.C,J1*%
X164824000Y-100820000D03*
D20*
X162284000Y-100820000D03*
D19*
X159744000Y-100820000D03*
X164824000Y-103995000D03*
X159744000Y-103995000D03*
D20*
X163300000Y-105900000D03*
X161268000Y-105900000D03*
D21*
X161649000Y-102090000D03*
X162919000Y-102090000D03*
X161649000Y-103360000D03*
X162919000Y-103360000D03*
X161649000Y-104630000D03*
X162919000Y-104630000D03*
%TD*%
D12*
%TO.C,D6*%
X142500000Y-77193545D03*
X140925000Y-77193545D03*
%TD*%
%TO.C,D32*%
X142500000Y-138000000D03*
X140925000Y-138000000D03*
%TD*%
%TO.C,D19*%
X142500000Y-107596762D03*
X140925000Y-107596762D03*
%TD*%
%TO.C,D28*%
X142500000Y-128645143D03*
X140925000Y-128645143D03*
%TD*%
%TO.C,D8*%
X142500000Y-81870963D03*
X140925000Y-81870963D03*
%TD*%
%TO.C,D12*%
X142500000Y-91225799D03*
X140925000Y-91225799D03*
%TD*%
D22*
%TO.C,R5*%
X138610000Y-130300000D03*
X137590000Y-130300000D03*
%TD*%
D12*
%TO.C,D3*%
X142500000Y-70177418D03*
X140925000Y-70177418D03*
%TD*%
%TO.C,D17*%
X142500000Y-102919344D03*
X140925000Y-102919344D03*
%TD*%
D23*
%TO.C,C3*%
X133830000Y-139000000D03*
X132870000Y-139000000D03*
%TD*%
D12*
%TO.C,D22*%
X142500000Y-114612889D03*
X140925000Y-114612889D03*
%TD*%
%TO.C,D31*%
X142500000Y-135661270D03*
X140925000Y-135661270D03*
%TD*%
%TO.C,D9*%
X142500000Y-84209672D03*
X140925000Y-84209672D03*
%TD*%
D24*
%TO.C,BT2*%
X157500000Y-117000000D03*
X157500000Y-139000000D03*
D25*
X157500000Y-128000000D03*
%TD*%
D26*
%TO.C,U6*%
X150102500Y-111200000D03*
D27*
X150162500Y-111700000D03*
X150162500Y-112200000D03*
X150162500Y-112700000D03*
X150162500Y-113200000D03*
X150162500Y-113700000D03*
D28*
X150102500Y-114200000D03*
D29*
X150600000Y-114697500D03*
D30*
X151100000Y-114637500D03*
X151600000Y-114637500D03*
X152100000Y-114637500D03*
X152600000Y-114637500D03*
X153100000Y-114637500D03*
D31*
X153600000Y-114697500D03*
D32*
X154097500Y-114200000D03*
D27*
X154037500Y-113700000D03*
X154037500Y-113200000D03*
X154037500Y-112700000D03*
X154037500Y-112200000D03*
X154037500Y-111700000D03*
D33*
X154097500Y-111200000D03*
D34*
X153600000Y-110702500D03*
D30*
X153100000Y-110762500D03*
X152600000Y-110762500D03*
X152100000Y-110762500D03*
X151600000Y-110762500D03*
X151100000Y-110762500D03*
D35*
X150600000Y-110702500D03*
%TD*%
D36*
%TO.C,U1*%
X151637500Y-116422500D03*
X151637500Y-116922500D03*
X151637500Y-117422500D03*
X151637500Y-117922500D03*
D37*
X152150000Y-117935000D03*
X152650000Y-117935000D03*
D36*
X153162500Y-117922500D03*
X153162500Y-117422500D03*
X153162500Y-116922500D03*
X153162500Y-116422500D03*
D37*
X152650000Y-116410000D03*
X152150000Y-116410000D03*
%TD*%
D38*
%TO.C,C2*%
X146920000Y-133000000D03*
X147880000Y-133000000D03*
%TD*%
D23*
%TO.C,C7*%
X155180000Y-116700000D03*
X154220000Y-116700000D03*
%TD*%
D12*
%TO.C,D26*%
X142500000Y-123967725D03*
X140925000Y-123967725D03*
%TD*%
D13*
%TO.C,C1*%
X149900000Y-137120000D03*
X149900000Y-138080000D03*
%TD*%
D39*
%TO.C,R3*%
X134390000Y-134400000D03*
X135410000Y-134400000D03*
%TD*%
D12*
%TO.C,D25*%
X142500000Y-121629016D03*
X140925000Y-121629016D03*
%TD*%
D40*
%TO.C,SW1*%
X133200000Y-113025000D03*
X139200000Y-113025000D03*
X133200000Y-116775000D03*
X139200000Y-116775000D03*
%TD*%
D41*
%TO.C,Q1*%
X135262500Y-136450000D03*
X135262500Y-138350000D03*
X137137500Y-137400000D03*
%TD*%
D12*
%TO.C,D4*%
X142500000Y-72516127D03*
X140925000Y-72516127D03*
%TD*%
D42*
%TO.C,U4*%
X158337500Y-113350000D03*
X158337500Y-112400000D03*
X158337500Y-111450000D03*
X156062500Y-111450000D03*
X156062500Y-112400000D03*
X156062500Y-113350000D03*
%TD*%
D17*
%TO.C,U5*%
X147650000Y-118425000D03*
X147150001Y-118425000D03*
X146650000Y-118425000D03*
X146150000Y-118425000D03*
X145649999Y-118425000D03*
X145150000Y-118425000D03*
D18*
X144425000Y-119149685D03*
X144425000Y-119649811D03*
X144425000Y-120149937D03*
X144425000Y-120650063D03*
X144425000Y-121150189D03*
X144425000Y-121650315D03*
D17*
X145150000Y-122375000D03*
X145649999Y-122375000D03*
X146150000Y-122375000D03*
X146650000Y-122375000D03*
X147150001Y-122375000D03*
X147650000Y-122375000D03*
D18*
X148375000Y-121650315D03*
X148375000Y-121150189D03*
X148375000Y-120650063D03*
X148375000Y-120149937D03*
X148375000Y-119649811D03*
X148375000Y-119149685D03*
%TD*%
D12*
%TO.C,D11*%
X142500000Y-88887090D03*
X140925000Y-88887090D03*
%TD*%
%TO.C,D1*%
X142500000Y-65500000D03*
X140925000Y-65500000D03*
%TD*%
D14*
%TO.C,C6*%
X133600000Y-137380000D03*
X133600000Y-136420000D03*
%TD*%
D43*
%TO.C,U2*%
X155850000Y-106862500D03*
X154900000Y-106862500D03*
X153950000Y-106862500D03*
X153950000Y-109137500D03*
X154900000Y-109137500D03*
X155850000Y-109137500D03*
%TD*%
D12*
%TO.C,D18*%
X142500000Y-105258053D03*
X140925000Y-105258053D03*
%TD*%
D38*
%TO.C,C9*%
X157720000Y-108400000D03*
X158680000Y-108400000D03*
%TD*%
D12*
%TO.C,D7*%
X142500000Y-79532254D03*
X140925000Y-79532254D03*
%TD*%
D14*
%TO.C,C8*%
X149600000Y-120380000D03*
X149600000Y-119420000D03*
%TD*%
D12*
%TO.C,D27*%
X142500000Y-126306434D03*
X140925000Y-126306434D03*
%TD*%
%TO.C,D10*%
X142500000Y-86548381D03*
X140925000Y-86548381D03*
%TD*%
%TO.C,D13*%
X142500000Y-93564508D03*
X140925000Y-93564508D03*
%TD*%
D23*
%TO.C,C10*%
X158280000Y-110100000D03*
X157320000Y-110100000D03*
%TD*%
D12*
%TO.C,D20*%
X142500000Y-109935471D03*
X140925000Y-109935471D03*
%TD*%
D39*
%TO.C,R4*%
X149590000Y-84500000D03*
X150610000Y-84500000D03*
%TD*%
D12*
%TO.C,D23*%
X142500000Y-116951598D03*
X140925000Y-116951598D03*
%TD*%
D44*
%TO.C,Q2*%
X138650000Y-131962500D03*
X136750000Y-131962500D03*
X137700000Y-133837500D03*
%TD*%
D12*
%TO.C,D14*%
X142500000Y-95903217D03*
X140925000Y-95903217D03*
%TD*%
D45*
%TO.C,U7*%
X148450000Y-137562500D03*
D46*
X148362500Y-136062500D03*
D45*
X148450000Y-134562500D03*
%TD*%
D12*
%TO.C,D15*%
X142500000Y-98241926D03*
X140925000Y-98241926D03*
%TD*%
D13*
%TO.C,C5*%
X150450000Y-117170000D03*
X150450000Y-118130000D03*
%TD*%
D12*
%TO.C,D2*%
X142500000Y-67838709D03*
X140925000Y-67838709D03*
%TD*%
D47*
%TO.C,BT1*%
X125500000Y-139000000D03*
X125500000Y-117000000D03*
D25*
X125500000Y-128000000D03*
%TD*%
D48*
%TO.C,J2*%
X165275000Y-116820000D03*
D49*
X161075000Y-116820000D03*
D50*
X161595000Y-115390000D03*
X161595000Y-109610000D03*
D51*
X160475000Y-115700000D03*
X160475000Y-114900000D03*
D52*
X160475000Y-113750000D03*
X160475000Y-112750000D03*
X160475000Y-112250000D03*
X160475000Y-111250000D03*
D51*
X160475000Y-110100000D03*
X160475000Y-109300000D03*
X160475000Y-109300000D03*
X160475000Y-110100000D03*
D52*
X160475000Y-110750000D03*
X160475000Y-111750000D03*
X160475000Y-113250000D03*
X160475000Y-114250000D03*
D51*
X160475000Y-114900000D03*
X160475000Y-115700000D03*
D49*
X161075000Y-108180000D03*
D48*
X165275000Y-108180000D03*
%TD*%
D12*
%TO.C,D29*%
X142500000Y-130983852D03*
X140925000Y-130983852D03*
%TD*%
%TO.C,D24*%
X142500000Y-119290307D03*
X140925000Y-119290307D03*
%TD*%
G36*
X164904979Y-57100679D02*
G01*
X165983569Y-57247759D01*
X166013900Y-57259035D01*
X166985934Y-57890857D01*
X167008748Y-57914315D01*
X167541916Y-58786772D01*
X167552094Y-58815361D01*
X167699321Y-59895020D01*
X167700000Y-59905018D01*
X167700000Y-76469348D01*
X167678326Y-76521674D01*
X148426326Y-95773674D01*
X148374000Y-95795348D01*
X148321674Y-95773674D01*
X148300000Y-95721348D01*
X148300000Y-91837757D01*
X148874000Y-91837757D01*
X148874000Y-92581163D01*
X148888340Y-92595503D01*
X149194464Y-92800049D01*
X149548275Y-92870426D01*
X149902085Y-92800049D01*
X150208209Y-92595503D01*
X150303968Y-92499744D01*
X150508514Y-92193620D01*
X150578892Y-91839810D01*
X150508514Y-91485999D01*
X150303968Y-91179875D01*
X150208209Y-91084116D01*
X149902085Y-90879571D01*
X149843783Y-90867973D01*
X148874000Y-91837757D01*
X148300000Y-91837757D01*
X148300000Y-91630652D01*
X148321674Y-91578326D01*
X149532449Y-90367551D01*
X150344205Y-90367551D01*
X150355803Y-90425853D01*
X150560348Y-90731977D01*
X150656107Y-90827736D01*
X150962231Y-91032282D01*
X151316042Y-91102659D01*
X151669852Y-91032282D01*
X151975976Y-90827736D01*
X152071735Y-90731977D01*
X152276281Y-90425853D01*
X152346658Y-90072043D01*
X152276281Y-89718232D01*
X152071735Y-89412108D01*
X151975976Y-89316349D01*
X151669852Y-89111804D01*
X151611551Y-89100206D01*
X150344205Y-90367551D01*
X149532449Y-90367551D01*
X151300215Y-88599785D01*
X152111972Y-88599785D01*
X152123570Y-88658086D01*
X152328115Y-88964210D01*
X152423874Y-89059969D01*
X152729998Y-89264515D01*
X153083809Y-89334893D01*
X153437619Y-89264515D01*
X153743743Y-89059969D01*
X153839502Y-88964210D01*
X154044048Y-88658086D01*
X154114425Y-88304276D01*
X154044048Y-87950465D01*
X153839502Y-87644341D01*
X153743743Y-87548582D01*
X153437619Y-87344037D01*
X153379318Y-87332439D01*
X152111972Y-88599785D01*
X151300215Y-88599785D01*
X153000000Y-86900000D01*
X153000000Y-86536509D01*
X153820959Y-86536509D01*
X153891336Y-86890319D01*
X154095882Y-87196443D01*
X154191641Y-87292202D01*
X154497765Y-87496748D01*
X154851576Y-87567126D01*
X155205386Y-87496748D01*
X155511510Y-87292202D01*
X155607269Y-87196443D01*
X155811815Y-86890319D01*
X155882192Y-86536509D01*
X155811815Y-86182698D01*
X155607269Y-85876574D01*
X155511510Y-85780815D01*
X155205386Y-85576270D01*
X154851576Y-85505892D01*
X154497765Y-85576270D01*
X154191641Y-85780815D01*
X154095882Y-85876574D01*
X153891336Y-86182698D01*
X153820959Y-86536509D01*
X153000000Y-86536509D01*
X153000000Y-84768742D01*
X155588726Y-84768742D01*
X155659103Y-85122552D01*
X155863649Y-85428676D01*
X155959408Y-85524435D01*
X156265532Y-85728981D01*
X156619343Y-85799359D01*
X156973153Y-85728981D01*
X157279277Y-85524435D01*
X157375036Y-85428676D01*
X157579582Y-85122552D01*
X157649959Y-84768742D01*
X157579582Y-84414931D01*
X157375036Y-84108808D01*
X157279277Y-84013048D01*
X156973153Y-83808503D01*
X156619343Y-83738125D01*
X156265532Y-83808503D01*
X155959408Y-84013048D01*
X155863649Y-84108808D01*
X155659103Y-84414931D01*
X155588726Y-84768742D01*
X153000000Y-84768742D01*
X153000000Y-83000975D01*
X153820959Y-83000975D01*
X153891336Y-83354785D01*
X154095882Y-83660909D01*
X154191641Y-83756668D01*
X154497765Y-83961214D01*
X154851576Y-84031592D01*
X155205386Y-83961214D01*
X155511510Y-83756668D01*
X155607269Y-83660909D01*
X155811815Y-83354785D01*
X155882192Y-83000975D01*
X157356493Y-83000975D01*
X157426870Y-83354785D01*
X157631416Y-83660909D01*
X157727175Y-83756668D01*
X158033299Y-83961214D01*
X158387110Y-84031592D01*
X158740920Y-83961214D01*
X159047044Y-83756668D01*
X159142803Y-83660909D01*
X159347349Y-83354785D01*
X159417726Y-83000975D01*
X159347349Y-82647164D01*
X159142803Y-82341041D01*
X159047044Y-82245282D01*
X158740920Y-82040736D01*
X158387110Y-81970358D01*
X158033299Y-82040736D01*
X157727175Y-82245282D01*
X157631416Y-82341041D01*
X157426870Y-82647164D01*
X157356493Y-83000975D01*
X155882192Y-83000975D01*
X155811815Y-82647164D01*
X155607269Y-82341041D01*
X155511510Y-82245282D01*
X155205386Y-82040736D01*
X154851576Y-81970358D01*
X154497765Y-82040736D01*
X154191641Y-82245282D01*
X154095882Y-82341041D01*
X153891336Y-82647164D01*
X153820959Y-83000975D01*
X153000000Y-83000975D01*
X153000000Y-81400000D01*
X151891101Y-80291101D01*
X152702860Y-80291101D01*
X153476206Y-81064447D01*
X153492247Y-81088455D01*
X153568367Y-81272226D01*
X153574000Y-81300544D01*
X153574000Y-82102320D01*
X153743743Y-81988901D01*
X153839502Y-81893142D01*
X154044048Y-81587018D01*
X154114425Y-81233208D01*
X155588726Y-81233208D01*
X155659103Y-81587018D01*
X155863649Y-81893142D01*
X155959408Y-81988901D01*
X156265532Y-82193447D01*
X156619343Y-82263825D01*
X156973153Y-82193447D01*
X157279277Y-81988901D01*
X157375036Y-81893142D01*
X157579582Y-81587018D01*
X157649959Y-81233208D01*
X159124260Y-81233208D01*
X159194637Y-81587018D01*
X159399183Y-81893142D01*
X159494942Y-81988901D01*
X159801066Y-82193447D01*
X160154877Y-82263825D01*
X160508687Y-82193447D01*
X160814811Y-81988901D01*
X160910570Y-81893142D01*
X161115115Y-81587018D01*
X161185493Y-81233208D01*
X161115115Y-80879397D01*
X160910570Y-80573274D01*
X160814811Y-80477515D01*
X160508687Y-80272969D01*
X160154877Y-80202591D01*
X159801066Y-80272969D01*
X159494942Y-80477515D01*
X159399183Y-80573274D01*
X159194637Y-80879397D01*
X159124260Y-81233208D01*
X157649959Y-81233208D01*
X157579582Y-80879397D01*
X157375036Y-80573274D01*
X157279277Y-80477515D01*
X156973153Y-80272969D01*
X156619343Y-80202591D01*
X156265532Y-80272969D01*
X155959408Y-80477515D01*
X155863649Y-80573274D01*
X155659103Y-80879397D01*
X155588726Y-81233208D01*
X154114425Y-81233208D01*
X154044048Y-80879397D01*
X153839502Y-80573274D01*
X153743743Y-80477515D01*
X153437619Y-80272969D01*
X153083809Y-80202591D01*
X152729998Y-80272969D01*
X152702860Y-80291101D01*
X151891101Y-80291101D01*
X151065441Y-79465441D01*
X153820959Y-79465441D01*
X153891336Y-79819251D01*
X154095882Y-80125375D01*
X154191641Y-80221134D01*
X154497765Y-80425680D01*
X154851576Y-80496058D01*
X155205386Y-80425680D01*
X155511510Y-80221134D01*
X155607269Y-80125375D01*
X155811815Y-79819251D01*
X155882192Y-79465441D01*
X157356493Y-79465441D01*
X157426870Y-79819251D01*
X157631416Y-80125375D01*
X157727175Y-80221134D01*
X158033299Y-80425680D01*
X158387110Y-80496058D01*
X158740920Y-80425680D01*
X159047044Y-80221134D01*
X159142803Y-80125375D01*
X159347349Y-79819251D01*
X159417726Y-79465441D01*
X160892027Y-79465441D01*
X160962404Y-79819251D01*
X161166950Y-80125375D01*
X161262709Y-80221134D01*
X161568833Y-80425680D01*
X161922644Y-80496058D01*
X162276454Y-80425680D01*
X162582578Y-80221134D01*
X162678337Y-80125375D01*
X162882882Y-79819251D01*
X162953260Y-79465441D01*
X162882882Y-79111630D01*
X162678337Y-78805507D01*
X162582578Y-78709748D01*
X162276454Y-78505202D01*
X161922644Y-78434824D01*
X161568833Y-78505202D01*
X161262709Y-78709748D01*
X161166950Y-78805507D01*
X160962404Y-79111630D01*
X160892027Y-79465441D01*
X159417726Y-79465441D01*
X159347349Y-79111630D01*
X159142803Y-78805507D01*
X159047044Y-78709748D01*
X158740920Y-78505202D01*
X158387110Y-78434824D01*
X158033299Y-78505202D01*
X157727175Y-78709748D01*
X157631416Y-78805507D01*
X157426870Y-79111630D01*
X157356493Y-79465441D01*
X155882192Y-79465441D01*
X155811815Y-79111630D01*
X155607269Y-78805507D01*
X155511510Y-78709748D01*
X155205386Y-78505202D01*
X154851576Y-78434824D01*
X154497765Y-78505202D01*
X154191641Y-78709748D01*
X154095882Y-78805507D01*
X153891336Y-79111630D01*
X153820959Y-79465441D01*
X151065441Y-79465441D01*
X149297674Y-77697674D01*
X152053192Y-77697674D01*
X152123570Y-78051485D01*
X152328115Y-78357608D01*
X152423874Y-78453367D01*
X152729998Y-78657913D01*
X153083809Y-78728291D01*
X153437619Y-78657913D01*
X153743743Y-78453367D01*
X153839502Y-78357608D01*
X154044048Y-78051485D01*
X154114425Y-77697674D01*
X155588726Y-77697674D01*
X155659103Y-78051485D01*
X155863649Y-78357608D01*
X155959408Y-78453367D01*
X156265532Y-78657913D01*
X156619343Y-78728291D01*
X156973153Y-78657913D01*
X157279277Y-78453367D01*
X157375036Y-78357608D01*
X157579582Y-78051485D01*
X157649959Y-77697674D01*
X159124260Y-77697674D01*
X159194637Y-78051485D01*
X159399183Y-78357608D01*
X159494942Y-78453367D01*
X159801066Y-78657913D01*
X160154877Y-78728291D01*
X160508687Y-78657913D01*
X160814811Y-78453367D01*
X160910570Y-78357608D01*
X161115115Y-78051485D01*
X161185493Y-77697674D01*
X162659793Y-77697674D01*
X162730171Y-78051485D01*
X162934717Y-78357608D01*
X163030476Y-78453367D01*
X163336600Y-78657913D01*
X163690411Y-78728291D01*
X164044221Y-78657913D01*
X164350345Y-78453367D01*
X164446104Y-78357608D01*
X164650649Y-78051485D01*
X164721027Y-77697674D01*
X164650649Y-77343863D01*
X164446104Y-77037740D01*
X164350345Y-76941981D01*
X164044221Y-76737435D01*
X163690411Y-76667057D01*
X163336600Y-76737435D01*
X163030476Y-76941981D01*
X162934717Y-77037740D01*
X162730171Y-77343863D01*
X162659793Y-77697674D01*
X161185493Y-77697674D01*
X161115115Y-77343863D01*
X160910570Y-77037740D01*
X160814811Y-76941981D01*
X160508687Y-76737435D01*
X160154877Y-76667057D01*
X159801066Y-76737435D01*
X159494942Y-76941981D01*
X159399183Y-77037740D01*
X159194637Y-77343863D01*
X159124260Y-77697674D01*
X157649959Y-77697674D01*
X157579582Y-77343863D01*
X157375036Y-77037740D01*
X157279277Y-76941981D01*
X156973153Y-76737435D01*
X156619343Y-76667057D01*
X156265532Y-76737435D01*
X155959408Y-76941981D01*
X155863649Y-77037740D01*
X155659103Y-77343863D01*
X155588726Y-77697674D01*
X154114425Y-77697674D01*
X154044048Y-77343863D01*
X153839502Y-77037740D01*
X153743743Y-76941981D01*
X153437619Y-76737435D01*
X153083809Y-76667057D01*
X152729998Y-76737435D01*
X152423874Y-76941981D01*
X152328115Y-77037740D01*
X152123570Y-77343863D01*
X152053192Y-77697674D01*
X149297674Y-77697674D01*
X147529907Y-75929907D01*
X150285425Y-75929907D01*
X150355803Y-76283718D01*
X150560348Y-76589841D01*
X150656107Y-76685600D01*
X150962231Y-76890146D01*
X151316042Y-76960524D01*
X151669852Y-76890146D01*
X151975976Y-76685600D01*
X152071735Y-76589841D01*
X152276281Y-76283718D01*
X152346658Y-75929907D01*
X153820959Y-75929907D01*
X153891336Y-76283718D01*
X154095882Y-76589841D01*
X154191641Y-76685600D01*
X154497765Y-76890146D01*
X154851576Y-76960524D01*
X155205386Y-76890146D01*
X155511510Y-76685600D01*
X155607269Y-76589841D01*
X155811815Y-76283718D01*
X155882192Y-75929907D01*
X157356493Y-75929907D01*
X157426870Y-76283718D01*
X157631416Y-76589841D01*
X157727175Y-76685600D01*
X158033299Y-76890146D01*
X158387110Y-76960524D01*
X158740920Y-76890146D01*
X159047044Y-76685600D01*
X159142803Y-76589841D01*
X159347349Y-76283718D01*
X159417726Y-75929907D01*
X160892027Y-75929907D01*
X160962404Y-76283718D01*
X161166950Y-76589841D01*
X161262709Y-76685600D01*
X161568833Y-76890146D01*
X161922644Y-76960524D01*
X162276454Y-76890146D01*
X162582578Y-76685600D01*
X162678337Y-76589841D01*
X162882882Y-76283718D01*
X162953260Y-75929907D01*
X164427560Y-75929907D01*
X164497938Y-76283718D01*
X164702484Y-76589841D01*
X164798243Y-76685600D01*
X165104367Y-76890146D01*
X165458178Y-76960524D01*
X165811988Y-76890146D01*
X166118112Y-76685600D01*
X166213871Y-76589841D01*
X166418416Y-76283718D01*
X166488794Y-75929907D01*
X166418416Y-75576096D01*
X166213871Y-75269973D01*
X166118112Y-75174214D01*
X165811988Y-74969668D01*
X165458178Y-74899290D01*
X165104367Y-74969668D01*
X164798243Y-75174214D01*
X164702484Y-75269973D01*
X164497938Y-75576096D01*
X164427560Y-75929907D01*
X162953260Y-75929907D01*
X162882882Y-75576096D01*
X162678337Y-75269973D01*
X162582578Y-75174214D01*
X162276454Y-74969668D01*
X161922644Y-74899290D01*
X161568833Y-74969668D01*
X161262709Y-75174214D01*
X161166950Y-75269973D01*
X160962404Y-75576096D01*
X160892027Y-75929907D01*
X159417726Y-75929907D01*
X159347349Y-75576096D01*
X159142803Y-75269973D01*
X159047044Y-75174214D01*
X158740920Y-74969668D01*
X158387110Y-74899290D01*
X158033299Y-74969668D01*
X157727175Y-75174214D01*
X157631416Y-75269973D01*
X157426870Y-75576096D01*
X157356493Y-75929907D01*
X155882192Y-75929907D01*
X155811815Y-75576096D01*
X155607269Y-75269973D01*
X155511510Y-75174214D01*
X155205386Y-74969668D01*
X154851576Y-74899290D01*
X154497765Y-74969668D01*
X154191641Y-75174214D01*
X154095882Y-75269973D01*
X153891336Y-75576096D01*
X153820959Y-75929907D01*
X152346658Y-75929907D01*
X152276281Y-75576096D01*
X152071735Y-75269973D01*
X151975976Y-75174214D01*
X151669852Y-74969668D01*
X151316042Y-74899290D01*
X150962231Y-74969668D01*
X150656107Y-75174214D01*
X150560348Y-75269973D01*
X150355803Y-75576096D01*
X150285425Y-75929907D01*
X147529907Y-75929907D01*
X145762140Y-74162140D01*
X148517658Y-74162140D01*
X148588036Y-74515951D01*
X148792581Y-74822074D01*
X148888340Y-74917833D01*
X149194464Y-75122379D01*
X149548275Y-75192757D01*
X149902085Y-75122379D01*
X150208209Y-74917833D01*
X150303968Y-74822074D01*
X150508514Y-74515951D01*
X150578892Y-74162140D01*
X152053192Y-74162140D01*
X152123570Y-74515951D01*
X152328115Y-74822074D01*
X152423874Y-74917833D01*
X152729998Y-75122379D01*
X153083809Y-75192757D01*
X153437619Y-75122379D01*
X153743743Y-74917833D01*
X153839502Y-74822074D01*
X154044048Y-74515951D01*
X154114425Y-74162140D01*
X155588726Y-74162140D01*
X155659103Y-74515951D01*
X155863649Y-74822074D01*
X155959408Y-74917833D01*
X156265532Y-75122379D01*
X156619343Y-75192757D01*
X156973153Y-75122379D01*
X157279277Y-74917833D01*
X157375036Y-74822074D01*
X157579582Y-74515951D01*
X157649959Y-74162140D01*
X159124260Y-74162140D01*
X159194637Y-74515951D01*
X159399183Y-74822074D01*
X159494942Y-74917833D01*
X159801066Y-75122379D01*
X160154877Y-75192757D01*
X160508687Y-75122379D01*
X160814811Y-74917833D01*
X160910570Y-74822074D01*
X161115115Y-74515951D01*
X161185493Y-74162140D01*
X162659793Y-74162140D01*
X162730171Y-74515951D01*
X162934717Y-74822074D01*
X163030476Y-74917833D01*
X163336600Y-75122379D01*
X163690411Y-75192757D01*
X164044221Y-75122379D01*
X164350345Y-74917833D01*
X164446104Y-74822074D01*
X164650649Y-74515951D01*
X164721027Y-74162140D01*
X166195327Y-74162140D01*
X166265705Y-74515951D01*
X166470251Y-74822074D01*
X166566010Y-74917833D01*
X166872134Y-75122379D01*
X167126000Y-75172876D01*
X167126000Y-73151403D01*
X166872134Y-73201901D01*
X166566010Y-73406447D01*
X166470251Y-73502206D01*
X166265705Y-73808329D01*
X166195327Y-74162140D01*
X164721027Y-74162140D01*
X164650649Y-73808329D01*
X164446104Y-73502206D01*
X164350345Y-73406447D01*
X164044221Y-73201901D01*
X163690411Y-73131523D01*
X163336600Y-73201901D01*
X163030476Y-73406447D01*
X162934717Y-73502206D01*
X162730171Y-73808329D01*
X162659793Y-74162140D01*
X161185493Y-74162140D01*
X161115115Y-73808329D01*
X160910570Y-73502206D01*
X160814811Y-73406447D01*
X160508687Y-73201901D01*
X160154877Y-73131523D01*
X159801066Y-73201901D01*
X159494942Y-73406447D01*
X159399183Y-73502206D01*
X159194637Y-73808329D01*
X159124260Y-74162140D01*
X157649959Y-74162140D01*
X157579582Y-73808329D01*
X157375036Y-73502206D01*
X157279277Y-73406447D01*
X156973153Y-73201901D01*
X156619343Y-73131523D01*
X156265532Y-73201901D01*
X155959408Y-73406447D01*
X155863649Y-73502206D01*
X155659103Y-73808329D01*
X155588726Y-74162140D01*
X154114425Y-74162140D01*
X154044048Y-73808329D01*
X153839502Y-73502206D01*
X153743743Y-73406447D01*
X153437619Y-73201901D01*
X153083809Y-73131523D01*
X152729998Y-73201901D01*
X152423874Y-73406447D01*
X152328115Y-73502206D01*
X152123570Y-73808329D01*
X152053192Y-74162140D01*
X150578892Y-74162140D01*
X150508514Y-73808329D01*
X150303968Y-73502206D01*
X150208209Y-73406447D01*
X149902085Y-73201901D01*
X149548275Y-73131523D01*
X149194464Y-73201901D01*
X148888340Y-73406447D01*
X148792581Y-73502206D01*
X148588036Y-73808329D01*
X148517658Y-74162140D01*
X145762140Y-74162140D01*
X145221674Y-73621674D01*
X145200000Y-73569348D01*
X145200000Y-72394374D01*
X146749891Y-72394374D01*
X146820269Y-72748184D01*
X147024814Y-73054307D01*
X147120573Y-73150066D01*
X147426697Y-73354612D01*
X147780508Y-73424990D01*
X148134318Y-73354612D01*
X148440442Y-73150066D01*
X148536201Y-73054307D01*
X148740747Y-72748184D01*
X148811125Y-72394374D01*
X150285425Y-72394374D01*
X150355803Y-72748184D01*
X150560348Y-73054307D01*
X150656107Y-73150066D01*
X150962231Y-73354612D01*
X151316042Y-73424990D01*
X151669852Y-73354612D01*
X151975976Y-73150066D01*
X152071735Y-73054307D01*
X152276281Y-72748184D01*
X152346658Y-72394374D01*
X153820959Y-72394374D01*
X153891336Y-72748184D01*
X154095882Y-73054307D01*
X154191641Y-73150066D01*
X154497765Y-73354612D01*
X154851576Y-73424990D01*
X155205386Y-73354612D01*
X155511510Y-73150066D01*
X155607269Y-73054307D01*
X155811815Y-72748184D01*
X155882192Y-72394374D01*
X157356493Y-72394374D01*
X157426870Y-72748184D01*
X157631416Y-73054307D01*
X157727175Y-73150066D01*
X158033299Y-73354612D01*
X158387110Y-73424990D01*
X158740920Y-73354612D01*
X159047044Y-73150066D01*
X159142803Y-73054307D01*
X159347349Y-72748184D01*
X159417726Y-72394374D01*
X160892027Y-72394374D01*
X160962404Y-72748184D01*
X161166950Y-73054307D01*
X161262709Y-73150066D01*
X161568833Y-73354612D01*
X161922644Y-73424990D01*
X162276454Y-73354612D01*
X162582578Y-73150066D01*
X162678337Y-73054307D01*
X162882882Y-72748184D01*
X162953260Y-72394374D01*
X164427560Y-72394374D01*
X164497938Y-72748184D01*
X164702484Y-73054307D01*
X164798243Y-73150066D01*
X165104367Y-73354612D01*
X165458178Y-73424990D01*
X165811988Y-73354612D01*
X166118112Y-73150066D01*
X166213871Y-73054307D01*
X166418416Y-72748184D01*
X166488794Y-72394374D01*
X166418416Y-72040563D01*
X166213871Y-71734439D01*
X166118112Y-71638680D01*
X165811988Y-71434134D01*
X165458178Y-71363756D01*
X165104367Y-71434134D01*
X164798243Y-71638680D01*
X164702484Y-71734439D01*
X164497938Y-72040563D01*
X164427560Y-72394374D01*
X162953260Y-72394374D01*
X162882882Y-72040563D01*
X162678337Y-71734439D01*
X162582578Y-71638680D01*
X162276454Y-71434134D01*
X161922644Y-71363756D01*
X161568833Y-71434134D01*
X161262709Y-71638680D01*
X161166950Y-71734439D01*
X160962404Y-72040563D01*
X160892027Y-72394374D01*
X159417726Y-72394374D01*
X159347349Y-72040563D01*
X159142803Y-71734439D01*
X159047044Y-71638680D01*
X158740920Y-71434134D01*
X158387110Y-71363756D01*
X158033299Y-71434134D01*
X157727175Y-71638680D01*
X157631416Y-71734439D01*
X157426870Y-72040563D01*
X157356493Y-72394374D01*
X155882192Y-72394374D01*
X155811815Y-72040563D01*
X155607269Y-71734439D01*
X155511510Y-71638680D01*
X155205386Y-71434134D01*
X154851576Y-71363756D01*
X154497765Y-71434134D01*
X154191641Y-71638680D01*
X154095882Y-71734439D01*
X153891336Y-72040563D01*
X153820959Y-72394374D01*
X152346658Y-72394374D01*
X152276281Y-72040563D01*
X152071735Y-71734439D01*
X151975976Y-71638680D01*
X151669852Y-71434134D01*
X151316042Y-71363756D01*
X150962231Y-71434134D01*
X150656107Y-71638680D01*
X150560348Y-71734439D01*
X150355803Y-72040563D01*
X150285425Y-72394374D01*
X148811125Y-72394374D01*
X148740747Y-72040563D01*
X148536201Y-71734439D01*
X148440442Y-71638680D01*
X148134318Y-71434134D01*
X147780508Y-71363756D01*
X147426697Y-71434134D01*
X147120573Y-71638680D01*
X147024814Y-71734439D01*
X146820269Y-72040563D01*
X146749891Y-72394374D01*
X145200000Y-72394374D01*
X145200000Y-69643478D01*
X145774000Y-69643478D01*
X145774000Y-71609733D01*
X146012741Y-71657223D01*
X146366551Y-71586845D01*
X146672675Y-71382299D01*
X146768434Y-71286540D01*
X146972980Y-70980417D01*
X147043358Y-70626607D01*
X148517658Y-70626607D01*
X148588036Y-70980417D01*
X148792581Y-71286540D01*
X148888340Y-71382299D01*
X149194464Y-71586845D01*
X149548275Y-71657223D01*
X149902085Y-71586845D01*
X150208209Y-71382299D01*
X150303968Y-71286540D01*
X150508514Y-70980417D01*
X150578892Y-70626607D01*
X152053192Y-70626607D01*
X152123570Y-70980417D01*
X152328115Y-71286540D01*
X152423874Y-71382299D01*
X152729998Y-71586845D01*
X153083809Y-71657223D01*
X153437619Y-71586845D01*
X153743743Y-71382299D01*
X153839502Y-71286540D01*
X154044048Y-70980417D01*
X154114425Y-70626607D01*
X155588726Y-70626607D01*
X155659103Y-70980417D01*
X155863649Y-71286540D01*
X155959408Y-71382299D01*
X156265532Y-71586845D01*
X156619343Y-71657223D01*
X156973153Y-71586845D01*
X157279277Y-71382299D01*
X157375036Y-71286540D01*
X157579582Y-70980417D01*
X157649959Y-70626607D01*
X159124260Y-70626607D01*
X159194637Y-70980417D01*
X159399183Y-71286540D01*
X159494942Y-71382299D01*
X159801066Y-71586845D01*
X160154877Y-71657223D01*
X160508687Y-71586845D01*
X160814811Y-71382299D01*
X160910570Y-71286540D01*
X161115115Y-70980417D01*
X161185493Y-70626607D01*
X162659793Y-70626607D01*
X162730171Y-70980417D01*
X162934717Y-71286540D01*
X163030476Y-71382299D01*
X163336600Y-71586845D01*
X163690411Y-71657223D01*
X164044221Y-71586845D01*
X164350345Y-71382299D01*
X164446104Y-71286540D01*
X164650649Y-70980417D01*
X164721027Y-70626607D01*
X166195327Y-70626607D01*
X166265705Y-70980417D01*
X166470251Y-71286540D01*
X166566010Y-71382299D01*
X166872134Y-71586845D01*
X167126000Y-71637342D01*
X167126000Y-69615869D01*
X166872134Y-69666367D01*
X166566010Y-69870913D01*
X166470251Y-69966672D01*
X166265705Y-70272796D01*
X166195327Y-70626607D01*
X164721027Y-70626607D01*
X164650649Y-70272796D01*
X164446104Y-69966672D01*
X164350345Y-69870913D01*
X164044221Y-69666367D01*
X163690411Y-69595989D01*
X163336600Y-69666367D01*
X163030476Y-69870913D01*
X162934717Y-69966672D01*
X162730171Y-70272796D01*
X162659793Y-70626607D01*
X161185493Y-70626607D01*
X161115115Y-70272796D01*
X160910570Y-69966672D01*
X160814811Y-69870913D01*
X160508687Y-69666367D01*
X160154877Y-69595989D01*
X159801066Y-69666367D01*
X159494942Y-69870913D01*
X159399183Y-69966672D01*
X159194637Y-70272796D01*
X159124260Y-70626607D01*
X157649959Y-70626607D01*
X157579582Y-70272796D01*
X157375036Y-69966672D01*
X157279277Y-69870913D01*
X156973153Y-69666367D01*
X156619343Y-69595989D01*
X156265532Y-69666367D01*
X155959408Y-69870913D01*
X155863649Y-69966672D01*
X155659103Y-70272796D01*
X155588726Y-70626607D01*
X154114425Y-70626607D01*
X154044048Y-70272796D01*
X153839502Y-69966672D01*
X153743743Y-69870913D01*
X153437619Y-69666367D01*
X153083809Y-69595989D01*
X152729998Y-69666367D01*
X152423874Y-69870913D01*
X152328115Y-69966672D01*
X152123570Y-70272796D01*
X152053192Y-70626607D01*
X150578892Y-70626607D01*
X150508514Y-70272796D01*
X150303968Y-69966672D01*
X150208209Y-69870913D01*
X149902085Y-69666367D01*
X149548275Y-69595989D01*
X149194464Y-69666367D01*
X148888340Y-69870913D01*
X148792581Y-69966672D01*
X148588036Y-70272796D01*
X148517658Y-70626607D01*
X147043358Y-70626607D01*
X146972980Y-70272796D01*
X146768434Y-69966672D01*
X146672675Y-69870913D01*
X146366551Y-69666367D01*
X146012740Y-69595989D01*
X145774000Y-69643478D01*
X145200000Y-69643478D01*
X145200000Y-68858840D01*
X146749891Y-68858840D01*
X146820269Y-69212650D01*
X147024814Y-69518773D01*
X147120573Y-69614533D01*
X147426697Y-69819078D01*
X147780508Y-69889456D01*
X148134318Y-69819078D01*
X148440442Y-69614533D01*
X148536201Y-69518773D01*
X148740747Y-69212650D01*
X148811125Y-68858840D01*
X150285425Y-68858840D01*
X150355803Y-69212650D01*
X150560348Y-69518773D01*
X150656107Y-69614533D01*
X150962231Y-69819078D01*
X151316042Y-69889456D01*
X151669852Y-69819078D01*
X151975976Y-69614533D01*
X152071735Y-69518773D01*
X152276281Y-69212650D01*
X152346658Y-68858840D01*
X153820959Y-68858840D01*
X153891336Y-69212650D01*
X154095882Y-69518773D01*
X154191641Y-69614533D01*
X154497765Y-69819078D01*
X154851576Y-69889456D01*
X155205386Y-69819078D01*
X155511510Y-69614533D01*
X155607269Y-69518773D01*
X155811815Y-69212650D01*
X155882192Y-68858840D01*
X157356493Y-68858840D01*
X157426870Y-69212650D01*
X157631416Y-69518773D01*
X157727175Y-69614533D01*
X158033299Y-69819078D01*
X158387110Y-69889456D01*
X158740920Y-69819078D01*
X159047044Y-69614533D01*
X159142803Y-69518773D01*
X159347349Y-69212650D01*
X159417726Y-68858840D01*
X160892027Y-68858840D01*
X160962404Y-69212650D01*
X161166950Y-69518773D01*
X161262709Y-69614533D01*
X161568833Y-69819078D01*
X161922644Y-69889456D01*
X162276454Y-69819078D01*
X162582578Y-69614533D01*
X162678337Y-69518773D01*
X162882882Y-69212650D01*
X162953260Y-68858840D01*
X164427560Y-68858840D01*
X164497938Y-69212650D01*
X164702484Y-69518773D01*
X164798243Y-69614533D01*
X165104367Y-69819078D01*
X165458178Y-69889456D01*
X165811988Y-69819078D01*
X166118112Y-69614533D01*
X166213871Y-69518773D01*
X166418416Y-69212650D01*
X166488794Y-68858840D01*
X166418416Y-68505029D01*
X166213871Y-68198905D01*
X166118112Y-68103146D01*
X165811988Y-67898600D01*
X165458178Y-67828222D01*
X165104367Y-67898600D01*
X164798243Y-68103146D01*
X164702484Y-68198905D01*
X164497938Y-68505029D01*
X164427560Y-68858840D01*
X162953260Y-68858840D01*
X162882882Y-68505029D01*
X162678337Y-68198905D01*
X162582578Y-68103146D01*
X162276454Y-67898600D01*
X161922644Y-67828222D01*
X161568833Y-67898600D01*
X161262709Y-68103146D01*
X161166950Y-68198905D01*
X160962404Y-68505029D01*
X160892027Y-68858840D01*
X159417726Y-68858840D01*
X159347349Y-68505029D01*
X159142803Y-68198905D01*
X159047044Y-68103146D01*
X158740920Y-67898600D01*
X158387110Y-67828222D01*
X158033299Y-67898600D01*
X157727175Y-68103146D01*
X157631416Y-68198905D01*
X157426870Y-68505029D01*
X157356493Y-68858840D01*
X155882192Y-68858840D01*
X155811815Y-68505029D01*
X155607269Y-68198905D01*
X155511510Y-68103146D01*
X155205386Y-67898600D01*
X154851576Y-67828222D01*
X154497765Y-67898600D01*
X154191641Y-68103146D01*
X154095882Y-68198905D01*
X153891336Y-68505029D01*
X153820959Y-68858840D01*
X152346658Y-68858840D01*
X152276281Y-68505029D01*
X152071735Y-68198905D01*
X151975976Y-68103146D01*
X151669852Y-67898600D01*
X151316042Y-67828222D01*
X150962231Y-67898600D01*
X150656107Y-68103146D01*
X150560348Y-68198905D01*
X150355803Y-68505029D01*
X150285425Y-68858840D01*
X148811125Y-68858840D01*
X148740747Y-68505029D01*
X148536201Y-68198905D01*
X148440442Y-68103146D01*
X148134318Y-67898600D01*
X147780508Y-67828222D01*
X147426697Y-67898600D01*
X147120573Y-68103146D01*
X147024814Y-68198905D01*
X146820269Y-68505029D01*
X146749891Y-68858840D01*
X145200000Y-68858840D01*
X145200000Y-66107944D01*
X145774000Y-66107944D01*
X145774000Y-68074199D01*
X146012741Y-68121689D01*
X146366551Y-68051311D01*
X146672675Y-67846766D01*
X146768434Y-67751007D01*
X146972980Y-67444883D01*
X147043358Y-67091073D01*
X148517658Y-67091073D01*
X148588036Y-67444883D01*
X148792581Y-67751007D01*
X148888340Y-67846766D01*
X149194464Y-68051311D01*
X149548275Y-68121689D01*
X149902085Y-68051311D01*
X150208209Y-67846766D01*
X150303968Y-67751007D01*
X150508514Y-67444883D01*
X150578892Y-67091073D01*
X152053192Y-67091073D01*
X152123570Y-67444883D01*
X152328115Y-67751007D01*
X152423874Y-67846766D01*
X152729998Y-68051311D01*
X153083809Y-68121689D01*
X153437619Y-68051311D01*
X153743743Y-67846766D01*
X153839502Y-67751007D01*
X154044048Y-67444883D01*
X154114425Y-67091073D01*
X155588726Y-67091073D01*
X155659103Y-67444883D01*
X155863649Y-67751007D01*
X155959408Y-67846766D01*
X156265532Y-68051311D01*
X156619343Y-68121689D01*
X156973153Y-68051311D01*
X157279277Y-67846766D01*
X157375036Y-67751007D01*
X157579582Y-67444883D01*
X157649959Y-67091073D01*
X159124260Y-67091073D01*
X159194637Y-67444883D01*
X159399183Y-67751007D01*
X159494942Y-67846766D01*
X159801066Y-68051311D01*
X160154877Y-68121689D01*
X160508687Y-68051311D01*
X160814811Y-67846766D01*
X160910570Y-67751007D01*
X161115115Y-67444883D01*
X161185493Y-67091073D01*
X162659793Y-67091073D01*
X162730171Y-67444883D01*
X162934717Y-67751007D01*
X163030476Y-67846766D01*
X163336600Y-68051311D01*
X163690411Y-68121689D01*
X164044221Y-68051311D01*
X164350345Y-67846766D01*
X164446104Y-67751007D01*
X164650649Y-67444883D01*
X164721027Y-67091073D01*
X166195327Y-67091073D01*
X166265705Y-67444883D01*
X166470251Y-67751007D01*
X166566010Y-67846766D01*
X166872134Y-68051311D01*
X167126000Y-68101808D01*
X167126000Y-66080335D01*
X166872134Y-66130833D01*
X166566010Y-66335379D01*
X166470251Y-66431138D01*
X166265705Y-66737262D01*
X166195327Y-67091073D01*
X164721027Y-67091073D01*
X164650649Y-66737262D01*
X164446104Y-66431138D01*
X164350345Y-66335379D01*
X164044221Y-66130833D01*
X163690411Y-66060455D01*
X163336600Y-66130833D01*
X163030476Y-66335379D01*
X162934717Y-66431138D01*
X162730171Y-66737262D01*
X162659793Y-67091073D01*
X161185493Y-67091073D01*
X161115115Y-66737262D01*
X160910570Y-66431138D01*
X160814811Y-66335379D01*
X160508687Y-66130833D01*
X160154877Y-66060455D01*
X159801066Y-66130833D01*
X159494942Y-66335379D01*
X159399183Y-66431138D01*
X159194637Y-66737262D01*
X159124260Y-67091073D01*
X157649959Y-67091073D01*
X157579582Y-66737262D01*
X157375036Y-66431138D01*
X157279277Y-66335379D01*
X156973153Y-66130833D01*
X156619343Y-66060455D01*
X156265532Y-66130833D01*
X155959408Y-66335379D01*
X155863649Y-66431138D01*
X155659103Y-66737262D01*
X155588726Y-67091073D01*
X154114425Y-67091073D01*
X154044048Y-66737262D01*
X153839502Y-66431138D01*
X153743743Y-66335379D01*
X153437619Y-66130833D01*
X153083809Y-66060455D01*
X152729998Y-66130833D01*
X152423874Y-66335379D01*
X152328115Y-66431138D01*
X152123570Y-66737262D01*
X152053192Y-67091073D01*
X150578892Y-67091073D01*
X150508514Y-66737262D01*
X150303968Y-66431138D01*
X150208209Y-66335379D01*
X149902085Y-66130833D01*
X149548275Y-66060455D01*
X149194464Y-66130833D01*
X148888340Y-66335379D01*
X148792581Y-66431138D01*
X148588036Y-66737262D01*
X148517658Y-67091073D01*
X147043358Y-67091073D01*
X146972980Y-66737262D01*
X146768434Y-66431138D01*
X146672675Y-66335379D01*
X146366551Y-66130833D01*
X146012740Y-66060455D01*
X145774000Y-66107944D01*
X145200000Y-66107944D01*
X145200000Y-65323306D01*
X146749891Y-65323306D01*
X146820269Y-65677116D01*
X147024814Y-65983240D01*
X147120573Y-66078999D01*
X147426697Y-66283544D01*
X147780508Y-66353922D01*
X148134318Y-66283544D01*
X148440442Y-66078999D01*
X148536201Y-65983240D01*
X148740747Y-65677116D01*
X148811125Y-65323306D01*
X150285425Y-65323306D01*
X150355803Y-65677116D01*
X150560348Y-65983240D01*
X150656107Y-66078999D01*
X150962231Y-66283544D01*
X151316042Y-66353922D01*
X151669852Y-66283544D01*
X151975976Y-66078999D01*
X152071735Y-65983240D01*
X152276281Y-65677116D01*
X152346658Y-65323306D01*
X153820959Y-65323306D01*
X153891336Y-65677116D01*
X154095882Y-65983240D01*
X154191641Y-66078999D01*
X154497765Y-66283544D01*
X154851576Y-66353922D01*
X155205386Y-66283544D01*
X155511510Y-66078999D01*
X155607269Y-65983240D01*
X155811815Y-65677116D01*
X155882192Y-65323306D01*
X157356493Y-65323306D01*
X157426870Y-65677116D01*
X157631416Y-65983240D01*
X157727175Y-66078999D01*
X158033299Y-66283544D01*
X158387110Y-66353922D01*
X158740920Y-66283544D01*
X159047044Y-66078999D01*
X159142803Y-65983240D01*
X159347349Y-65677116D01*
X159417726Y-65323306D01*
X160892027Y-65323306D01*
X160962404Y-65677116D01*
X161166950Y-65983240D01*
X161262709Y-66078999D01*
X161568833Y-66283544D01*
X161922644Y-66353922D01*
X162276454Y-66283544D01*
X162582578Y-66078999D01*
X162678337Y-65983240D01*
X162882882Y-65677116D01*
X162953260Y-65323306D01*
X164427560Y-65323306D01*
X164497938Y-65677116D01*
X164702484Y-65983240D01*
X164798243Y-66078999D01*
X165104367Y-66283544D01*
X165458178Y-66353922D01*
X165811988Y-66283544D01*
X166118112Y-66078999D01*
X166213871Y-65983240D01*
X166418416Y-65677116D01*
X166488794Y-65323306D01*
X166418416Y-64969495D01*
X166213871Y-64663371D01*
X166118112Y-64567612D01*
X165811988Y-64363066D01*
X165458178Y-64292688D01*
X165104367Y-64363066D01*
X164798243Y-64567612D01*
X164702484Y-64663371D01*
X164497938Y-64969495D01*
X164427560Y-65323306D01*
X162953260Y-65323306D01*
X162882882Y-64969495D01*
X162678337Y-64663371D01*
X162582578Y-64567612D01*
X162276454Y-64363066D01*
X161922644Y-64292688D01*
X161568833Y-64363066D01*
X161262709Y-64567612D01*
X161166950Y-64663371D01*
X160962404Y-64969495D01*
X160892027Y-65323306D01*
X159417726Y-65323306D01*
X159347349Y-64969495D01*
X159142803Y-64663371D01*
X159047044Y-64567612D01*
X158740920Y-64363066D01*
X158387110Y-64292688D01*
X158033299Y-64363066D01*
X157727175Y-64567612D01*
X157631416Y-64663371D01*
X157426870Y-64969495D01*
X157356493Y-65323306D01*
X155882192Y-65323306D01*
X155811815Y-64969495D01*
X155607269Y-64663371D01*
X155511510Y-64567612D01*
X155205386Y-64363066D01*
X154851576Y-64292688D01*
X154497765Y-64363066D01*
X154191641Y-64567612D01*
X154095882Y-64663371D01*
X153891336Y-64969495D01*
X153820959Y-65323306D01*
X152346658Y-65323306D01*
X152276281Y-64969495D01*
X152071735Y-64663371D01*
X151975976Y-64567612D01*
X151669852Y-64363066D01*
X151316042Y-64292688D01*
X150962231Y-64363066D01*
X150656107Y-64567612D01*
X150560348Y-64663371D01*
X150355803Y-64969495D01*
X150285425Y-65323306D01*
X148811125Y-65323306D01*
X148740747Y-64969495D01*
X148536201Y-64663371D01*
X148440442Y-64567612D01*
X148134318Y-64363066D01*
X147780508Y-64292688D01*
X147426697Y-64363066D01*
X147120573Y-64567612D01*
X147024814Y-64663371D01*
X146820269Y-64969495D01*
X146749891Y-65323306D01*
X145200000Y-65323306D01*
X145200000Y-63917964D01*
X148593793Y-63917964D01*
X148792581Y-64215473D01*
X148888340Y-64311232D01*
X149194464Y-64515777D01*
X149548275Y-64586155D01*
X149902085Y-64515777D01*
X150208209Y-64311232D01*
X150303968Y-64215473D01*
X150508514Y-63909349D01*
X150578892Y-63555539D01*
X152053192Y-63555539D01*
X152123570Y-63909349D01*
X152328115Y-64215473D01*
X152423874Y-64311232D01*
X152729998Y-64515777D01*
X153083809Y-64586155D01*
X153437619Y-64515777D01*
X153743743Y-64311232D01*
X153839502Y-64215473D01*
X154044048Y-63909349D01*
X154114425Y-63555539D01*
X155588726Y-63555539D01*
X155659103Y-63909349D01*
X155863649Y-64215473D01*
X155959408Y-64311232D01*
X156265532Y-64515777D01*
X156619343Y-64586155D01*
X156973153Y-64515777D01*
X157279277Y-64311232D01*
X157375036Y-64215473D01*
X157579582Y-63909349D01*
X157649959Y-63555539D01*
X159124260Y-63555539D01*
X159194637Y-63909349D01*
X159399183Y-64215473D01*
X159494942Y-64311232D01*
X159801066Y-64515777D01*
X160154877Y-64586155D01*
X160508687Y-64515777D01*
X160814811Y-64311232D01*
X160910570Y-64215473D01*
X161115115Y-63909349D01*
X161185493Y-63555539D01*
X162659793Y-63555539D01*
X162730171Y-63909349D01*
X162934717Y-64215473D01*
X163030476Y-64311232D01*
X163336600Y-64515777D01*
X163690411Y-64586155D01*
X164044221Y-64515777D01*
X164350345Y-64311232D01*
X164446104Y-64215473D01*
X164650649Y-63909349D01*
X164721027Y-63555539D01*
X166195327Y-63555539D01*
X166265705Y-63909349D01*
X166470251Y-64215473D01*
X166566010Y-64311232D01*
X166872134Y-64515777D01*
X167126000Y-64566274D01*
X167126000Y-62544802D01*
X166872134Y-62595299D01*
X166566010Y-62799845D01*
X166470251Y-62895604D01*
X166265705Y-63201728D01*
X166195327Y-63555539D01*
X164721027Y-63555539D01*
X164650649Y-63201728D01*
X164446104Y-62895604D01*
X164350345Y-62799845D01*
X164044221Y-62595299D01*
X163690411Y-62524922D01*
X163336600Y-62595299D01*
X163030476Y-62799845D01*
X162934717Y-62895604D01*
X162730171Y-63201728D01*
X162659793Y-63555539D01*
X161185493Y-63555539D01*
X161115115Y-63201728D01*
X160910570Y-62895604D01*
X160814811Y-62799845D01*
X160508687Y-62595299D01*
X160154877Y-62524922D01*
X159801066Y-62595299D01*
X159494942Y-62799845D01*
X159399183Y-62895604D01*
X159194637Y-63201728D01*
X159124260Y-63555539D01*
X157649959Y-63555539D01*
X157579582Y-63201728D01*
X157375036Y-62895604D01*
X157279277Y-62799845D01*
X156973153Y-62595299D01*
X156619343Y-62524922D01*
X156265532Y-62595299D01*
X155959408Y-62799845D01*
X155863649Y-62895604D01*
X155659103Y-63201728D01*
X155588726Y-63555539D01*
X154114425Y-63555539D01*
X154044048Y-63201728D01*
X153839502Y-62895604D01*
X153743743Y-62799845D01*
X153437619Y-62595299D01*
X153083809Y-62524922D01*
X152729998Y-62595299D01*
X152423874Y-62799845D01*
X152328115Y-62895604D01*
X152123570Y-63201728D01*
X152053192Y-63555539D01*
X150578892Y-63555539D01*
X150508514Y-63201728D01*
X150303968Y-62895604D01*
X150208209Y-62799845D01*
X149910701Y-62601056D01*
X148593793Y-63917964D01*
X145200000Y-63917964D01*
X145200000Y-63574000D01*
X145221674Y-63521674D01*
X145274000Y-63500000D01*
X148200000Y-63500000D01*
X149549803Y-62150197D01*
X150361560Y-62150197D01*
X150560348Y-62447706D01*
X150656107Y-62543465D01*
X150962231Y-62748010D01*
X151316042Y-62818388D01*
X151669852Y-62748010D01*
X151975976Y-62543465D01*
X152071735Y-62447706D01*
X152276281Y-62141582D01*
X152346658Y-61787772D01*
X153820959Y-61787772D01*
X153891336Y-62141582D01*
X154095882Y-62447706D01*
X154191641Y-62543465D01*
X154497765Y-62748010D01*
X154851576Y-62818388D01*
X155205386Y-62748010D01*
X155511510Y-62543465D01*
X155607269Y-62447706D01*
X155811815Y-62141582D01*
X155882192Y-61787772D01*
X157356493Y-61787772D01*
X157426870Y-62141582D01*
X157631416Y-62447706D01*
X157727175Y-62543465D01*
X158033299Y-62748010D01*
X158387110Y-62818388D01*
X158740920Y-62748010D01*
X159047044Y-62543465D01*
X159142803Y-62447706D01*
X159347349Y-62141582D01*
X159417726Y-61787772D01*
X160892027Y-61787772D01*
X160962404Y-62141582D01*
X161166950Y-62447706D01*
X161262709Y-62543465D01*
X161568833Y-62748010D01*
X161922644Y-62818388D01*
X162276454Y-62748010D01*
X162582578Y-62543465D01*
X162678337Y-62447706D01*
X162882882Y-62141582D01*
X162953260Y-61787772D01*
X164427560Y-61787772D01*
X164497938Y-62141582D01*
X164702484Y-62447706D01*
X164798243Y-62543465D01*
X165104367Y-62748010D01*
X165458178Y-62818388D01*
X165811988Y-62748010D01*
X166118112Y-62543465D01*
X166213871Y-62447706D01*
X166418416Y-62141582D01*
X166488794Y-61787772D01*
X166418416Y-61433961D01*
X166213871Y-61127837D01*
X166118112Y-61032078D01*
X165811988Y-60827532D01*
X165458178Y-60757155D01*
X165104367Y-60827532D01*
X164798243Y-61032078D01*
X164702484Y-61127837D01*
X164497938Y-61433961D01*
X164427560Y-61787772D01*
X162953260Y-61787772D01*
X162882882Y-61433961D01*
X162678337Y-61127837D01*
X162582578Y-61032078D01*
X162276454Y-60827532D01*
X161922644Y-60757155D01*
X161568833Y-60827532D01*
X161262709Y-61032078D01*
X161166950Y-61127837D01*
X160962404Y-61433961D01*
X160892027Y-61787772D01*
X159417726Y-61787772D01*
X159347349Y-61433961D01*
X159142803Y-61127837D01*
X159047044Y-61032078D01*
X158740920Y-60827532D01*
X158387110Y-60757155D01*
X158033299Y-60827532D01*
X157727175Y-61032078D01*
X157631416Y-61127837D01*
X157426870Y-61433961D01*
X157356493Y-61787772D01*
X155882192Y-61787772D01*
X155811815Y-61433961D01*
X155607269Y-61127837D01*
X155511510Y-61032078D01*
X155205386Y-60827532D01*
X154851576Y-60757155D01*
X154497765Y-60827532D01*
X154191641Y-61032078D01*
X154095882Y-61127837D01*
X153891336Y-61433961D01*
X153820959Y-61787772D01*
X152346658Y-61787772D01*
X152276281Y-61433961D01*
X152071735Y-61127837D01*
X151975976Y-61032078D01*
X151669852Y-60827532D01*
X151374000Y-60768684D01*
X151374000Y-60999456D01*
X151368367Y-61027774D01*
X151292247Y-61211545D01*
X151276206Y-61235553D01*
X150361560Y-62150197D01*
X149549803Y-62150197D01*
X150800000Y-60900000D01*
X150800000Y-60020005D01*
X152053192Y-60020005D01*
X152123570Y-60373815D01*
X152328115Y-60679939D01*
X152423874Y-60775698D01*
X152729998Y-60980244D01*
X153083809Y-61050621D01*
X153437619Y-60980244D01*
X153743743Y-60775698D01*
X153839502Y-60679939D01*
X154044048Y-60373815D01*
X154114425Y-60020005D01*
X155588726Y-60020005D01*
X155659103Y-60373815D01*
X155863649Y-60679939D01*
X155959408Y-60775698D01*
X156265532Y-60980244D01*
X156619343Y-61050621D01*
X156973153Y-60980244D01*
X157279277Y-60775698D01*
X157375036Y-60679939D01*
X157579582Y-60373815D01*
X157649959Y-60020005D01*
X159124260Y-60020005D01*
X159194637Y-60373815D01*
X159399183Y-60679939D01*
X159494942Y-60775698D01*
X159801066Y-60980244D01*
X160154877Y-61050621D01*
X160508687Y-60980244D01*
X160814811Y-60775698D01*
X160910570Y-60679939D01*
X161115115Y-60373815D01*
X161185493Y-60020005D01*
X162659793Y-60020005D01*
X162730171Y-60373815D01*
X162934717Y-60679939D01*
X163030476Y-60775698D01*
X163336600Y-60980244D01*
X163690411Y-61050621D01*
X164044221Y-60980244D01*
X164350345Y-60775698D01*
X164446104Y-60679939D01*
X164650649Y-60373815D01*
X164721027Y-60020005D01*
X166195327Y-60020005D01*
X166265705Y-60373815D01*
X166470251Y-60679939D01*
X166566010Y-60775698D01*
X166872134Y-60980244D01*
X167126000Y-61030740D01*
X167126000Y-59938951D01*
X167002571Y-59033819D01*
X166872134Y-59059765D01*
X166566010Y-59264311D01*
X166470251Y-59360070D01*
X166265705Y-59666194D01*
X166195327Y-60020005D01*
X164721027Y-60020005D01*
X164650649Y-59666194D01*
X164446104Y-59360070D01*
X164350345Y-59264311D01*
X164044221Y-59059765D01*
X163690411Y-58989388D01*
X163336600Y-59059765D01*
X163030476Y-59264311D01*
X162934717Y-59360070D01*
X162730171Y-59666194D01*
X162659793Y-60020005D01*
X161185493Y-60020005D01*
X161115115Y-59666194D01*
X160910570Y-59360070D01*
X160814811Y-59264311D01*
X160508687Y-59059765D01*
X160154877Y-58989388D01*
X159801066Y-59059765D01*
X159494942Y-59264311D01*
X159399183Y-59360070D01*
X159194637Y-59666194D01*
X159124260Y-60020005D01*
X157649959Y-60020005D01*
X157579582Y-59666194D01*
X157375036Y-59360070D01*
X157279277Y-59264311D01*
X156973153Y-59059765D01*
X156619343Y-58989388D01*
X156265532Y-59059765D01*
X155959408Y-59264311D01*
X155863649Y-59360070D01*
X155659103Y-59666194D01*
X155588726Y-60020005D01*
X154114425Y-60020005D01*
X154044048Y-59666194D01*
X153839502Y-59360070D01*
X153743743Y-59264311D01*
X153437619Y-59059765D01*
X153083809Y-58989388D01*
X152729998Y-59059765D01*
X152423874Y-59264311D01*
X152328115Y-59360070D01*
X152123570Y-59666194D01*
X152053192Y-60020005D01*
X150800000Y-60020005D01*
X150800000Y-59271325D01*
X151374000Y-59271325D01*
X151669852Y-59212477D01*
X151975976Y-59007931D01*
X152071735Y-58912172D01*
X152276281Y-58606048D01*
X152346658Y-58252238D01*
X153820959Y-58252238D01*
X153891336Y-58606048D01*
X154095882Y-58912172D01*
X154191641Y-59007931D01*
X154497765Y-59212477D01*
X154851576Y-59282854D01*
X155205386Y-59212477D01*
X155511510Y-59007931D01*
X155607269Y-58912172D01*
X155811815Y-58606048D01*
X155882192Y-58252238D01*
X157356493Y-58252238D01*
X157426870Y-58606048D01*
X157631416Y-58912172D01*
X157727175Y-59007931D01*
X158033299Y-59212477D01*
X158387110Y-59282854D01*
X158740920Y-59212477D01*
X159047044Y-59007931D01*
X159142803Y-58912172D01*
X159347349Y-58606048D01*
X159417726Y-58252238D01*
X160892027Y-58252238D01*
X160962404Y-58606048D01*
X161166950Y-58912172D01*
X161262709Y-59007931D01*
X161568833Y-59212477D01*
X161922644Y-59282854D01*
X162276454Y-59212477D01*
X162582578Y-59007931D01*
X162678337Y-58912172D01*
X162882882Y-58606048D01*
X162953260Y-58252238D01*
X164427560Y-58252238D01*
X164497938Y-58606048D01*
X164702484Y-58912172D01*
X164798243Y-59007931D01*
X165104367Y-59212477D01*
X165458178Y-59282854D01*
X165811988Y-59212477D01*
X166118112Y-59007931D01*
X166213871Y-58912172D01*
X166418416Y-58606048D01*
X166488780Y-58252308D01*
X165795009Y-57801357D01*
X164861047Y-57674000D01*
X164647897Y-57674000D01*
X164497938Y-57898427D01*
X164427560Y-58252238D01*
X162953260Y-58252238D01*
X162882882Y-57898427D01*
X162732925Y-57674000D01*
X161112363Y-57674000D01*
X160962404Y-57898427D01*
X160892027Y-58252238D01*
X159417726Y-58252238D01*
X159347349Y-57898427D01*
X159197391Y-57674000D01*
X157576829Y-57674000D01*
X157426870Y-57898427D01*
X157356493Y-58252238D01*
X155882192Y-58252238D01*
X155811815Y-57898427D01*
X155661857Y-57674000D01*
X154041295Y-57674000D01*
X153891336Y-57898427D01*
X153820959Y-58252238D01*
X152346658Y-58252238D01*
X152276281Y-57898427D01*
X152126323Y-57674000D01*
X151374000Y-57674000D01*
X151374000Y-59271325D01*
X150800000Y-59271325D01*
X150800000Y-57174000D01*
X150821674Y-57121674D01*
X150874000Y-57100000D01*
X164894981Y-57100000D01*
X164904979Y-57100679D01*
G37*
G36*
X132178326Y-57121674D02*
G01*
X132200000Y-57174000D01*
X132200000Y-60900000D01*
X134800000Y-63500000D01*
X139126000Y-63500000D01*
X139178326Y-63521674D01*
X139200000Y-63574000D01*
X139200000Y-105019348D01*
X139178326Y-105071674D01*
X129821674Y-114428326D01*
X129769348Y-114450000D01*
X115374000Y-114450000D01*
X115321674Y-114428326D01*
X115300000Y-114376000D01*
X115300000Y-113020448D01*
X118043645Y-113020448D01*
X118114023Y-113374259D01*
X118318569Y-113680382D01*
X118414328Y-113776141D01*
X118563777Y-113876000D01*
X119584748Y-113876000D01*
X119734196Y-113776141D01*
X119829955Y-113680382D01*
X120034501Y-113374259D01*
X120104879Y-113020448D01*
X121579179Y-113020448D01*
X121649557Y-113374259D01*
X121854103Y-113680382D01*
X121949862Y-113776141D01*
X122099311Y-113876000D01*
X123120282Y-113876000D01*
X123269730Y-113776141D01*
X123365489Y-113680382D01*
X123570035Y-113374259D01*
X123640413Y-113020448D01*
X125114713Y-113020448D01*
X125185091Y-113374259D01*
X125389637Y-113680382D01*
X125485396Y-113776141D01*
X125634845Y-113876000D01*
X126655816Y-113876000D01*
X126805264Y-113776141D01*
X126901023Y-113680382D01*
X127105569Y-113374259D01*
X127175947Y-113020448D01*
X128650247Y-113020448D01*
X128720625Y-113374259D01*
X128925170Y-113680382D01*
X129020929Y-113776141D01*
X129170378Y-113876000D01*
X129562242Y-113876000D01*
X130662754Y-112775486D01*
X130641103Y-112666638D01*
X130436557Y-112360514D01*
X130340798Y-112264755D01*
X130034674Y-112060209D01*
X129680864Y-111989831D01*
X129327053Y-112060209D01*
X129020929Y-112264755D01*
X128925170Y-112360514D01*
X128720625Y-112666637D01*
X128650247Y-113020448D01*
X127175947Y-113020448D01*
X127105569Y-112666637D01*
X126901023Y-112360514D01*
X126805264Y-112264755D01*
X126499140Y-112060209D01*
X126145330Y-111989831D01*
X125791519Y-112060209D01*
X125485396Y-112264755D01*
X125389637Y-112360514D01*
X125185091Y-112666637D01*
X125114713Y-113020448D01*
X123640413Y-113020448D01*
X123570035Y-112666637D01*
X123365489Y-112360514D01*
X123269730Y-112264755D01*
X122963607Y-112060209D01*
X122609796Y-111989831D01*
X122255985Y-112060209D01*
X121949862Y-112264755D01*
X121854103Y-112360514D01*
X121649557Y-112666637D01*
X121579179Y-113020448D01*
X120104879Y-113020448D01*
X120034501Y-112666637D01*
X119829955Y-112360514D01*
X119734196Y-112264755D01*
X119428073Y-112060209D01*
X119074262Y-111989831D01*
X118720451Y-112060209D01*
X118414328Y-112264755D01*
X118318569Y-112360514D01*
X118114023Y-112666637D01*
X118043645Y-113020448D01*
X115300000Y-113020448D01*
X115300000Y-111252681D01*
X116275878Y-111252681D01*
X116346256Y-111606492D01*
X116550802Y-111912615D01*
X116646561Y-112008374D01*
X116952685Y-112212920D01*
X117306496Y-112283298D01*
X117660306Y-112212920D01*
X117966429Y-112008374D01*
X118062188Y-111912615D01*
X118266734Y-111606492D01*
X118337112Y-111252681D01*
X119811412Y-111252681D01*
X119881790Y-111606492D01*
X120086336Y-111912615D01*
X120182095Y-112008374D01*
X120488218Y-112212920D01*
X120842029Y-112283298D01*
X121195840Y-112212920D01*
X121501963Y-112008374D01*
X121597722Y-111912615D01*
X121802268Y-111606492D01*
X121872646Y-111252681D01*
X123346946Y-111252681D01*
X123417324Y-111606492D01*
X123621870Y-111912615D01*
X123717629Y-112008374D01*
X124023752Y-112212920D01*
X124377563Y-112283298D01*
X124731373Y-112212920D01*
X125037497Y-112008374D01*
X125133256Y-111912615D01*
X125337802Y-111606492D01*
X125408180Y-111252681D01*
X126882480Y-111252681D01*
X126952858Y-111606492D01*
X127157403Y-111912615D01*
X127253163Y-112008374D01*
X127559286Y-112212920D01*
X127913097Y-112283298D01*
X128266907Y-112212920D01*
X128573031Y-112008374D01*
X128668790Y-111912615D01*
X128873336Y-111606492D01*
X128943714Y-111252681D01*
X130418014Y-111252681D01*
X130488392Y-111606492D01*
X130692937Y-111912615D01*
X130788696Y-112008374D01*
X131094821Y-112212920D01*
X131203669Y-112234571D01*
X132430521Y-111007719D01*
X132408870Y-110898871D01*
X132204324Y-110592747D01*
X132108565Y-110496988D01*
X131802441Y-110292442D01*
X131448631Y-110222064D01*
X131094820Y-110292442D01*
X130788696Y-110496988D01*
X130692937Y-110592747D01*
X130488392Y-110898870D01*
X130418014Y-111252681D01*
X128943714Y-111252681D01*
X128873336Y-110898870D01*
X128668790Y-110592747D01*
X128573031Y-110496988D01*
X128266907Y-110292442D01*
X127913097Y-110222064D01*
X127559286Y-110292442D01*
X127253163Y-110496988D01*
X127157403Y-110592747D01*
X126952858Y-110898870D01*
X126882480Y-111252681D01*
X125408180Y-111252681D01*
X125337802Y-110898870D01*
X125133256Y-110592747D01*
X125037497Y-110496988D01*
X124731373Y-110292442D01*
X124377563Y-110222064D01*
X124023752Y-110292442D01*
X123717629Y-110496988D01*
X123621870Y-110592747D01*
X123417324Y-110898870D01*
X123346946Y-111252681D01*
X121872646Y-111252681D01*
X121802268Y-110898870D01*
X121597722Y-110592747D01*
X121501963Y-110496988D01*
X121195840Y-110292442D01*
X120842029Y-110222064D01*
X120488218Y-110292442D01*
X120182095Y-110496988D01*
X120086336Y-110592747D01*
X119881790Y-110898870D01*
X119811412Y-111252681D01*
X118337112Y-111252681D01*
X118266734Y-110898870D01*
X118062188Y-110592747D01*
X117966429Y-110496988D01*
X117660306Y-110292442D01*
X117306496Y-110222064D01*
X116952685Y-110292442D01*
X116646561Y-110496988D01*
X116550802Y-110592747D01*
X116346256Y-110898870D01*
X116275878Y-111252681D01*
X115300000Y-111252681D01*
X115300000Y-109484914D01*
X118043645Y-109484914D01*
X118114023Y-109838725D01*
X118318569Y-110144848D01*
X118414328Y-110240607D01*
X118720451Y-110445153D01*
X119074262Y-110515531D01*
X119428073Y-110445153D01*
X119734196Y-110240607D01*
X119829955Y-110144848D01*
X120034501Y-109838725D01*
X120104879Y-109484914D01*
X121579179Y-109484914D01*
X121649557Y-109838725D01*
X121854103Y-110144848D01*
X121949862Y-110240607D01*
X122255985Y-110445153D01*
X122609796Y-110515531D01*
X122963607Y-110445153D01*
X123269730Y-110240607D01*
X123365489Y-110144848D01*
X123570035Y-109838725D01*
X123640413Y-109484914D01*
X125114713Y-109484914D01*
X125185091Y-109838725D01*
X125389637Y-110144848D01*
X125485396Y-110240607D01*
X125791519Y-110445153D01*
X126145330Y-110515531D01*
X126499140Y-110445153D01*
X126805264Y-110240607D01*
X126901023Y-110144848D01*
X127105569Y-109838725D01*
X127175947Y-109484914D01*
X128650247Y-109484914D01*
X128720625Y-109838725D01*
X128925170Y-110144848D01*
X129020929Y-110240607D01*
X129327053Y-110445153D01*
X129680864Y-110515531D01*
X130034674Y-110445153D01*
X130340798Y-110240607D01*
X130436557Y-110144848D01*
X130641103Y-109838725D01*
X130711481Y-109484914D01*
X132185781Y-109484914D01*
X132256159Y-109838725D01*
X132460704Y-110144848D01*
X132556463Y-110240607D01*
X132862588Y-110445153D01*
X132971436Y-110466804D01*
X134198288Y-109239952D01*
X134176637Y-109131104D01*
X133972091Y-108824980D01*
X133876332Y-108729221D01*
X133570208Y-108524675D01*
X133216398Y-108454297D01*
X132862587Y-108524675D01*
X132556463Y-108729221D01*
X132460704Y-108824980D01*
X132256159Y-109131103D01*
X132185781Y-109484914D01*
X130711481Y-109484914D01*
X130641103Y-109131103D01*
X130436557Y-108824980D01*
X130340798Y-108729221D01*
X130034674Y-108524675D01*
X129680864Y-108454297D01*
X129327053Y-108524675D01*
X129020929Y-108729221D01*
X128925170Y-108824980D01*
X128720625Y-109131103D01*
X128650247Y-109484914D01*
X127175947Y-109484914D01*
X127105569Y-109131103D01*
X126901023Y-108824980D01*
X126805264Y-108729221D01*
X126499140Y-108524675D01*
X126145330Y-108454297D01*
X125791519Y-108524675D01*
X125485396Y-108729221D01*
X125389637Y-108824980D01*
X125185091Y-109131103D01*
X125114713Y-109484914D01*
X123640413Y-109484914D01*
X123570035Y-109131103D01*
X123365489Y-108824980D01*
X123269730Y-108729221D01*
X122963607Y-108524675D01*
X122609796Y-108454297D01*
X122255985Y-108524675D01*
X121949862Y-108729221D01*
X121854103Y-108824980D01*
X121649557Y-109131103D01*
X121579179Y-109484914D01*
X120104879Y-109484914D01*
X120034501Y-109131103D01*
X119829955Y-108824980D01*
X119734196Y-108729221D01*
X119428073Y-108524675D01*
X119074262Y-108454297D01*
X118720451Y-108524675D01*
X118414328Y-108729221D01*
X118318569Y-108824980D01*
X118114023Y-109131103D01*
X118043645Y-109484914D01*
X115300000Y-109484914D01*
X115300000Y-107717148D01*
X116275878Y-107717148D01*
X116346256Y-108070958D01*
X116550802Y-108377081D01*
X116646561Y-108472840D01*
X116952685Y-108677386D01*
X117306496Y-108747764D01*
X117660306Y-108677386D01*
X117966429Y-108472840D01*
X118062188Y-108377081D01*
X118266734Y-108070958D01*
X118337112Y-107717148D01*
X119811412Y-107717148D01*
X119881790Y-108070958D01*
X120086336Y-108377081D01*
X120182095Y-108472840D01*
X120488218Y-108677386D01*
X120842029Y-108747764D01*
X121195840Y-108677386D01*
X121501963Y-108472840D01*
X121597722Y-108377081D01*
X121802268Y-108070958D01*
X121872646Y-107717148D01*
X123346946Y-107717148D01*
X123417324Y-108070958D01*
X123621870Y-108377081D01*
X123717629Y-108472840D01*
X124023752Y-108677386D01*
X124377563Y-108747764D01*
X124731373Y-108677386D01*
X125037497Y-108472840D01*
X125133256Y-108377081D01*
X125337802Y-108070958D01*
X125408180Y-107717148D01*
X126882480Y-107717148D01*
X126952858Y-108070958D01*
X127157403Y-108377081D01*
X127253163Y-108472840D01*
X127559286Y-108677386D01*
X127913097Y-108747764D01*
X128266907Y-108677386D01*
X128573031Y-108472840D01*
X128668790Y-108377081D01*
X128873336Y-108070958D01*
X128943714Y-107717148D01*
X130418014Y-107717148D01*
X130488392Y-108070958D01*
X130692937Y-108377081D01*
X130788696Y-108472840D01*
X131094820Y-108677386D01*
X131448631Y-108747764D01*
X131802441Y-108677386D01*
X132108565Y-108472840D01*
X132204324Y-108377081D01*
X132408870Y-108070958D01*
X132479248Y-107717148D01*
X133953548Y-107717148D01*
X134023926Y-108070958D01*
X134228471Y-108377081D01*
X134324230Y-108472840D01*
X134630355Y-108677386D01*
X134739203Y-108699037D01*
X135966055Y-107472185D01*
X135944404Y-107363338D01*
X135739858Y-107057213D01*
X135644099Y-106961454D01*
X135337975Y-106756908D01*
X134984165Y-106686530D01*
X134630354Y-106756908D01*
X134324230Y-106961454D01*
X134228471Y-107057213D01*
X134023926Y-107363337D01*
X133953548Y-107717148D01*
X132479248Y-107717148D01*
X132408870Y-107363337D01*
X132204324Y-107057213D01*
X132108565Y-106961454D01*
X131802441Y-106756908D01*
X131448631Y-106686530D01*
X131094820Y-106756908D01*
X130788696Y-106961454D01*
X130692937Y-107057213D01*
X130488392Y-107363337D01*
X130418014Y-107717148D01*
X128943714Y-107717148D01*
X128873336Y-107363337D01*
X128668790Y-107057213D01*
X128573031Y-106961454D01*
X128266907Y-106756908D01*
X127913097Y-106686530D01*
X127559286Y-106756908D01*
X127253163Y-106961454D01*
X127157403Y-107057213D01*
X126952858Y-107363337D01*
X126882480Y-107717148D01*
X125408180Y-107717148D01*
X125337802Y-107363337D01*
X125133256Y-107057213D01*
X125037497Y-106961454D01*
X124731373Y-106756908D01*
X124377563Y-106686530D01*
X124023752Y-106756908D01*
X123717629Y-106961454D01*
X123621870Y-107057213D01*
X123417324Y-107363337D01*
X123346946Y-107717148D01*
X121872646Y-107717148D01*
X121802268Y-107363337D01*
X121597722Y-107057213D01*
X121501963Y-106961454D01*
X121195840Y-106756908D01*
X120842029Y-106686530D01*
X120488218Y-106756908D01*
X120182095Y-106961454D01*
X120086336Y-107057213D01*
X119881790Y-107363337D01*
X119811412Y-107717148D01*
X118337112Y-107717148D01*
X118266734Y-107363337D01*
X118062188Y-107057213D01*
X117966429Y-106961454D01*
X117660306Y-106756908D01*
X117306496Y-106686530D01*
X116952685Y-106756908D01*
X116646561Y-106961454D01*
X116550802Y-107057213D01*
X116346256Y-107363337D01*
X116275878Y-107717148D01*
X115300000Y-107717148D01*
X115300000Y-105949381D01*
X118043645Y-105949381D01*
X118114023Y-106303191D01*
X118318569Y-106609314D01*
X118414328Y-106705073D01*
X118720451Y-106909619D01*
X119074262Y-106979997D01*
X119428073Y-106909619D01*
X119734196Y-106705073D01*
X119829955Y-106609314D01*
X120034501Y-106303191D01*
X120104879Y-105949381D01*
X121579179Y-105949381D01*
X121649557Y-106303191D01*
X121854103Y-106609314D01*
X121949862Y-106705073D01*
X122255985Y-106909619D01*
X122609796Y-106979997D01*
X122963607Y-106909619D01*
X123269730Y-106705073D01*
X123365489Y-106609314D01*
X123570035Y-106303191D01*
X123640413Y-105949381D01*
X125114713Y-105949381D01*
X125185091Y-106303191D01*
X125389637Y-106609314D01*
X125485396Y-106705073D01*
X125791519Y-106909619D01*
X126145330Y-106979997D01*
X126499140Y-106909619D01*
X126805264Y-106705073D01*
X126901023Y-106609314D01*
X127105569Y-106303191D01*
X127175947Y-105949381D01*
X128650247Y-105949381D01*
X128720625Y-106303191D01*
X128925170Y-106609314D01*
X129020929Y-106705073D01*
X129327053Y-106909619D01*
X129680864Y-106979997D01*
X130034674Y-106909619D01*
X130340798Y-106705073D01*
X130436557Y-106609314D01*
X130641103Y-106303191D01*
X130711481Y-105949381D01*
X132185781Y-105949381D01*
X132256159Y-106303191D01*
X132460704Y-106609314D01*
X132556463Y-106705073D01*
X132862587Y-106909619D01*
X133216398Y-106979997D01*
X133570208Y-106909619D01*
X133876332Y-106705073D01*
X133972091Y-106609314D01*
X134176637Y-106303191D01*
X134247014Y-105949381D01*
X135721315Y-105949381D01*
X135791692Y-106303191D01*
X135996238Y-106609314D01*
X136091997Y-106705073D01*
X136398122Y-106909619D01*
X136506970Y-106931270D01*
X137733822Y-105704418D01*
X137712171Y-105595571D01*
X137507625Y-105289446D01*
X137411866Y-105193687D01*
X137105742Y-104989141D01*
X136751932Y-104918763D01*
X136398121Y-104989141D01*
X136091997Y-105193687D01*
X135996238Y-105289446D01*
X135791692Y-105595570D01*
X135721315Y-105949381D01*
X134247014Y-105949381D01*
X134176637Y-105595570D01*
X133972091Y-105289446D01*
X133876332Y-105193687D01*
X133570208Y-104989141D01*
X133216398Y-104918763D01*
X132862587Y-104989141D01*
X132556463Y-105193687D01*
X132460704Y-105289446D01*
X132256159Y-105595570D01*
X132185781Y-105949381D01*
X130711481Y-105949381D01*
X130641103Y-105595570D01*
X130436557Y-105289446D01*
X130340798Y-105193687D01*
X130034674Y-104989141D01*
X129680864Y-104918763D01*
X129327053Y-104989141D01*
X129020929Y-105193687D01*
X128925170Y-105289446D01*
X128720625Y-105595570D01*
X128650247Y-105949381D01*
X127175947Y-105949381D01*
X127105569Y-105595570D01*
X126901023Y-105289446D01*
X126805264Y-105193687D01*
X126499140Y-104989141D01*
X126145330Y-104918763D01*
X125791519Y-104989141D01*
X125485396Y-105193687D01*
X125389637Y-105289446D01*
X125185091Y-105595570D01*
X125114713Y-105949381D01*
X123640413Y-105949381D01*
X123570035Y-105595570D01*
X123365489Y-105289446D01*
X123269730Y-105193687D01*
X122963607Y-104989141D01*
X122609796Y-104918763D01*
X122255985Y-104989141D01*
X121949862Y-105193687D01*
X121854103Y-105289446D01*
X121649557Y-105595570D01*
X121579179Y-105949381D01*
X120104879Y-105949381D01*
X120034501Y-105595570D01*
X119829955Y-105289446D01*
X119734196Y-105193687D01*
X119428073Y-104989141D01*
X119074262Y-104918763D01*
X118720451Y-104989141D01*
X118414328Y-105193687D01*
X118318569Y-105289446D01*
X118114023Y-105595570D01*
X118043645Y-105949381D01*
X115300000Y-105949381D01*
X115300000Y-104181614D01*
X116275878Y-104181614D01*
X116346256Y-104535424D01*
X116550802Y-104841547D01*
X116646561Y-104937306D01*
X116952685Y-105141852D01*
X117306496Y-105212230D01*
X117660306Y-105141852D01*
X117966429Y-104937306D01*
X118062188Y-104841547D01*
X118266734Y-104535424D01*
X118337112Y-104181614D01*
X119811412Y-104181614D01*
X119881790Y-104535424D01*
X120086336Y-104841547D01*
X120182095Y-104937306D01*
X120488218Y-105141852D01*
X120842029Y-105212230D01*
X121195840Y-105141852D01*
X121501963Y-104937306D01*
X121597722Y-104841547D01*
X121802268Y-104535424D01*
X121872646Y-104181614D01*
X123346946Y-104181614D01*
X123417324Y-104535424D01*
X123621870Y-104841547D01*
X123717629Y-104937306D01*
X124023752Y-105141852D01*
X124377563Y-105212230D01*
X124731373Y-105141852D01*
X125037497Y-104937306D01*
X125133256Y-104841547D01*
X125337802Y-104535424D01*
X125408180Y-104181614D01*
X126882480Y-104181614D01*
X126952858Y-104535424D01*
X127157403Y-104841547D01*
X127253163Y-104937306D01*
X127559286Y-105141852D01*
X127913097Y-105212230D01*
X128266907Y-105141852D01*
X128573031Y-104937306D01*
X128668790Y-104841547D01*
X128873336Y-104535424D01*
X128943714Y-104181614D01*
X130418014Y-104181614D01*
X130488392Y-104535424D01*
X130692937Y-104841547D01*
X130788696Y-104937306D01*
X131094820Y-105141852D01*
X131448631Y-105212230D01*
X131802441Y-105141852D01*
X132108565Y-104937306D01*
X132204324Y-104841547D01*
X132408870Y-104535424D01*
X132479248Y-104181614D01*
X133953548Y-104181614D01*
X134023926Y-104535424D01*
X134228471Y-104841547D01*
X134324230Y-104937306D01*
X134630354Y-105141852D01*
X134984165Y-105212230D01*
X135337975Y-105141852D01*
X135644099Y-104937306D01*
X135739858Y-104841547D01*
X135944404Y-104535424D01*
X136014781Y-104181614D01*
X137489082Y-104181614D01*
X137559459Y-104535424D01*
X137764005Y-104841547D01*
X137859764Y-104937306D01*
X138165889Y-105141852D01*
X138274737Y-105163503D01*
X138626000Y-104812241D01*
X138626000Y-103172140D01*
X138519699Y-103150996D01*
X138165888Y-103221374D01*
X137859764Y-103425920D01*
X137764005Y-103521679D01*
X137559459Y-103827803D01*
X137489082Y-104181614D01*
X136014781Y-104181614D01*
X135944404Y-103827803D01*
X135739858Y-103521679D01*
X135644099Y-103425920D01*
X135337975Y-103221374D01*
X134984165Y-103150996D01*
X134630354Y-103221374D01*
X134324230Y-103425920D01*
X134228471Y-103521679D01*
X134023926Y-103827803D01*
X133953548Y-104181614D01*
X132479248Y-104181614D01*
X132408870Y-103827803D01*
X132204324Y-103521679D01*
X132108565Y-103425920D01*
X131802441Y-103221374D01*
X131448631Y-103150996D01*
X131094820Y-103221374D01*
X130788696Y-103425920D01*
X130692937Y-103521679D01*
X130488392Y-103827803D01*
X130418014Y-104181614D01*
X128943714Y-104181614D01*
X128873336Y-103827803D01*
X128668790Y-103521679D01*
X128573031Y-103425920D01*
X128266907Y-103221374D01*
X127913097Y-103150996D01*
X127559286Y-103221374D01*
X127253163Y-103425920D01*
X127157403Y-103521679D01*
X126952858Y-103827803D01*
X126882480Y-104181614D01*
X125408180Y-104181614D01*
X125337802Y-103827803D01*
X125133256Y-103521679D01*
X125037497Y-103425920D01*
X124731373Y-103221374D01*
X124377563Y-103150996D01*
X124023752Y-103221374D01*
X123717629Y-103425920D01*
X123621870Y-103521679D01*
X123417324Y-103827803D01*
X123346946Y-104181614D01*
X121872646Y-104181614D01*
X121802268Y-103827803D01*
X121597722Y-103521679D01*
X121501963Y-103425920D01*
X121195840Y-103221374D01*
X120842029Y-103150996D01*
X120488218Y-103221374D01*
X120182095Y-103425920D01*
X120086336Y-103521679D01*
X119881790Y-103827803D01*
X119811412Y-104181614D01*
X118337112Y-104181614D01*
X118266734Y-103827803D01*
X118062188Y-103521679D01*
X117966429Y-103425920D01*
X117660306Y-103221374D01*
X117306496Y-103150996D01*
X116952685Y-103221374D01*
X116646561Y-103425920D01*
X116550802Y-103521679D01*
X116346256Y-103827803D01*
X116275878Y-104181614D01*
X115300000Y-104181614D01*
X115300000Y-102413847D01*
X118043645Y-102413847D01*
X118114023Y-102767657D01*
X118318569Y-103073780D01*
X118414328Y-103169540D01*
X118720451Y-103374085D01*
X119074262Y-103444463D01*
X119428073Y-103374085D01*
X119734196Y-103169540D01*
X119829955Y-103073780D01*
X120034501Y-102767657D01*
X120104879Y-102413847D01*
X121579179Y-102413847D01*
X121649557Y-102767657D01*
X121854103Y-103073780D01*
X121949862Y-103169540D01*
X122255985Y-103374085D01*
X122609796Y-103444463D01*
X122963607Y-103374085D01*
X123269730Y-103169540D01*
X123365489Y-103073780D01*
X123570035Y-102767657D01*
X123640413Y-102413847D01*
X125114713Y-102413847D01*
X125185091Y-102767657D01*
X125389637Y-103073780D01*
X125485396Y-103169540D01*
X125791519Y-103374085D01*
X126145330Y-103444463D01*
X126499140Y-103374085D01*
X126805264Y-103169540D01*
X126901023Y-103073780D01*
X127105569Y-102767657D01*
X127175947Y-102413847D01*
X128650247Y-102413847D01*
X128720625Y-102767657D01*
X128925170Y-103073780D01*
X129020929Y-103169540D01*
X129327053Y-103374085D01*
X129680864Y-103444463D01*
X130034674Y-103374085D01*
X130340798Y-103169540D01*
X130436557Y-103073780D01*
X130641103Y-102767657D01*
X130711481Y-102413847D01*
X132185781Y-102413847D01*
X132256159Y-102767657D01*
X132460704Y-103073780D01*
X132556463Y-103169540D01*
X132862587Y-103374085D01*
X133216398Y-103444463D01*
X133570208Y-103374085D01*
X133876332Y-103169540D01*
X133972091Y-103073780D01*
X134176637Y-102767657D01*
X134247014Y-102413847D01*
X135721315Y-102413847D01*
X135791692Y-102767657D01*
X135996238Y-103073780D01*
X136091997Y-103169540D01*
X136398121Y-103374085D01*
X136751932Y-103444463D01*
X137105742Y-103374085D01*
X137411866Y-103169540D01*
X137507625Y-103073780D01*
X137712171Y-102767657D01*
X137782548Y-102413847D01*
X137712171Y-102060036D01*
X137507625Y-101753912D01*
X137411866Y-101658153D01*
X137105742Y-101453607D01*
X136751932Y-101383229D01*
X136398121Y-101453607D01*
X136091997Y-101658153D01*
X135996238Y-101753912D01*
X135791692Y-102060036D01*
X135721315Y-102413847D01*
X134247014Y-102413847D01*
X134176637Y-102060036D01*
X133972091Y-101753912D01*
X133876332Y-101658153D01*
X133570208Y-101453607D01*
X133216398Y-101383229D01*
X132862587Y-101453607D01*
X132556463Y-101658153D01*
X132460704Y-101753912D01*
X132256159Y-102060036D01*
X132185781Y-102413847D01*
X130711481Y-102413847D01*
X130641103Y-102060036D01*
X130436557Y-101753912D01*
X130340798Y-101658153D01*
X130034674Y-101453607D01*
X129680864Y-101383229D01*
X129327053Y-101453607D01*
X129020929Y-101658153D01*
X128925170Y-101753912D01*
X128720625Y-102060036D01*
X128650247Y-102413847D01*
X127175947Y-102413847D01*
X127105569Y-102060036D01*
X126901023Y-101753912D01*
X126805264Y-101658153D01*
X126499140Y-101453607D01*
X126145330Y-101383229D01*
X125791519Y-101453607D01*
X125485396Y-101658153D01*
X125389637Y-101753912D01*
X125185091Y-102060036D01*
X125114713Y-102413847D01*
X123640413Y-102413847D01*
X123570035Y-102060036D01*
X123365489Y-101753912D01*
X123269730Y-101658153D01*
X122963607Y-101453607D01*
X122609796Y-101383229D01*
X122255985Y-101453607D01*
X121949862Y-101658153D01*
X121854103Y-101753912D01*
X121649557Y-102060036D01*
X121579179Y-102413847D01*
X120104879Y-102413847D01*
X120034501Y-102060036D01*
X119829955Y-101753912D01*
X119734196Y-101658153D01*
X119428073Y-101453607D01*
X119074262Y-101383229D01*
X118720451Y-101453607D01*
X118414328Y-101658153D01*
X118318569Y-101753912D01*
X118114023Y-102060036D01*
X118043645Y-102413847D01*
X115300000Y-102413847D01*
X115300000Y-100646080D01*
X116275878Y-100646080D01*
X116346256Y-100999890D01*
X116550802Y-101306014D01*
X116646561Y-101401773D01*
X116952685Y-101606318D01*
X117306496Y-101676696D01*
X117660306Y-101606318D01*
X117966429Y-101401773D01*
X118062188Y-101306014D01*
X118266734Y-100999890D01*
X118337112Y-100646080D01*
X119811412Y-100646080D01*
X119881790Y-100999890D01*
X120086336Y-101306014D01*
X120182095Y-101401773D01*
X120488218Y-101606318D01*
X120842029Y-101676696D01*
X121195840Y-101606318D01*
X121501963Y-101401773D01*
X121597722Y-101306014D01*
X121802268Y-100999890D01*
X121872646Y-100646080D01*
X123346946Y-100646080D01*
X123417324Y-100999890D01*
X123621870Y-101306014D01*
X123717629Y-101401773D01*
X124023752Y-101606318D01*
X124377563Y-101676696D01*
X124731373Y-101606318D01*
X125037497Y-101401773D01*
X125133256Y-101306014D01*
X125337802Y-100999890D01*
X125408180Y-100646080D01*
X126882480Y-100646080D01*
X126952858Y-100999890D01*
X127157403Y-101306014D01*
X127253163Y-101401773D01*
X127559286Y-101606318D01*
X127913097Y-101676696D01*
X128266907Y-101606318D01*
X128573031Y-101401773D01*
X128668790Y-101306014D01*
X128873336Y-100999890D01*
X128943714Y-100646080D01*
X130418014Y-100646080D01*
X130488392Y-100999890D01*
X130692937Y-101306014D01*
X130788696Y-101401773D01*
X131094820Y-101606318D01*
X131448631Y-101676696D01*
X131802441Y-101606318D01*
X132108565Y-101401773D01*
X132204324Y-101306014D01*
X132408870Y-100999890D01*
X132479248Y-100646080D01*
X133953548Y-100646080D01*
X134023926Y-100999890D01*
X134228471Y-101306014D01*
X134324230Y-101401773D01*
X134630354Y-101606318D01*
X134984165Y-101676696D01*
X135337975Y-101606318D01*
X135644099Y-101401773D01*
X135739858Y-101306014D01*
X135944404Y-100999890D01*
X136014781Y-100646080D01*
X137489082Y-100646080D01*
X137559459Y-100999890D01*
X137764005Y-101306014D01*
X137859764Y-101401773D01*
X138165888Y-101606318D01*
X138519698Y-101676696D01*
X138626000Y-101655551D01*
X138626000Y-99636606D01*
X138519699Y-99615462D01*
X138165888Y-99685840D01*
X137859764Y-99890386D01*
X137764005Y-99986145D01*
X137559459Y-100292269D01*
X137489082Y-100646080D01*
X136014781Y-100646080D01*
X135944404Y-100292269D01*
X135739858Y-99986145D01*
X135644099Y-99890386D01*
X135337975Y-99685840D01*
X134984165Y-99615462D01*
X134630354Y-99685840D01*
X134324230Y-99890386D01*
X134228471Y-99986145D01*
X134023926Y-100292269D01*
X133953548Y-100646080D01*
X132479248Y-100646080D01*
X132408870Y-100292269D01*
X132204324Y-99986145D01*
X132108565Y-99890386D01*
X131802441Y-99685840D01*
X131448631Y-99615462D01*
X131094820Y-99685840D01*
X130788696Y-99890386D01*
X130692937Y-99986145D01*
X130488392Y-100292269D01*
X130418014Y-100646080D01*
X128943714Y-100646080D01*
X128873336Y-100292269D01*
X128668790Y-99986145D01*
X128573031Y-99890386D01*
X128266907Y-99685840D01*
X127913097Y-99615462D01*
X127559286Y-99685840D01*
X127253163Y-99890386D01*
X127157403Y-99986145D01*
X126952858Y-100292269D01*
X126882480Y-100646080D01*
X125408180Y-100646080D01*
X125337802Y-100292269D01*
X125133256Y-99986145D01*
X125037497Y-99890386D01*
X124731373Y-99685840D01*
X124377563Y-99615462D01*
X124023752Y-99685840D01*
X123717629Y-99890386D01*
X123621870Y-99986145D01*
X123417324Y-100292269D01*
X123346946Y-100646080D01*
X121872646Y-100646080D01*
X121802268Y-100292269D01*
X121597722Y-99986145D01*
X121501963Y-99890386D01*
X121195840Y-99685840D01*
X120842029Y-99615462D01*
X120488218Y-99685840D01*
X120182095Y-99890386D01*
X120086336Y-99986145D01*
X119881790Y-100292269D01*
X119811412Y-100646080D01*
X118337112Y-100646080D01*
X118266734Y-100292269D01*
X118062188Y-99986145D01*
X117966429Y-99890386D01*
X117660306Y-99685840D01*
X117306496Y-99615462D01*
X116952685Y-99685840D01*
X116646561Y-99890386D01*
X116550802Y-99986145D01*
X116346256Y-100292269D01*
X116275878Y-100646080D01*
X115300000Y-100646080D01*
X115300000Y-98878313D01*
X118043645Y-98878313D01*
X118114023Y-99232123D01*
X118318569Y-99538247D01*
X118414328Y-99634006D01*
X118720451Y-99838551D01*
X119074262Y-99908929D01*
X119428073Y-99838551D01*
X119734196Y-99634006D01*
X119829955Y-99538247D01*
X120034501Y-99232123D01*
X120104879Y-98878313D01*
X121579179Y-98878313D01*
X121649557Y-99232123D01*
X121854103Y-99538247D01*
X121949862Y-99634006D01*
X122255985Y-99838551D01*
X122609796Y-99908929D01*
X122963607Y-99838551D01*
X123269730Y-99634006D01*
X123365489Y-99538247D01*
X123570035Y-99232123D01*
X123640413Y-98878313D01*
X125114713Y-98878313D01*
X125185091Y-99232123D01*
X125389637Y-99538247D01*
X125485396Y-99634006D01*
X125791519Y-99838551D01*
X126145330Y-99908929D01*
X126499140Y-99838551D01*
X126805264Y-99634006D01*
X126901023Y-99538247D01*
X127105569Y-99232123D01*
X127175947Y-98878313D01*
X128650247Y-98878313D01*
X128720625Y-99232123D01*
X128925170Y-99538247D01*
X129020929Y-99634006D01*
X129327053Y-99838551D01*
X129680864Y-99908929D01*
X130034674Y-99838551D01*
X130340798Y-99634006D01*
X130436557Y-99538247D01*
X130641103Y-99232123D01*
X130711481Y-98878313D01*
X132185781Y-98878313D01*
X132256159Y-99232123D01*
X132460704Y-99538247D01*
X132556463Y-99634006D01*
X132862587Y-99838551D01*
X133216398Y-99908929D01*
X133570208Y-99838551D01*
X133876332Y-99634006D01*
X133972091Y-99538247D01*
X134176637Y-99232123D01*
X134247014Y-98878313D01*
X135721315Y-98878313D01*
X135791692Y-99232123D01*
X135996238Y-99538247D01*
X136091997Y-99634006D01*
X136398121Y-99838551D01*
X136751932Y-99908929D01*
X137105742Y-99838551D01*
X137411866Y-99634006D01*
X137507625Y-99538247D01*
X137712171Y-99232123D01*
X137782548Y-98878313D01*
X137712171Y-98524502D01*
X137507625Y-98218378D01*
X137411866Y-98122619D01*
X137105742Y-97918073D01*
X136751932Y-97847695D01*
X136398121Y-97918073D01*
X136091997Y-98122619D01*
X135996238Y-98218378D01*
X135791692Y-98524502D01*
X135721315Y-98878313D01*
X134247014Y-98878313D01*
X134176637Y-98524502D01*
X133972091Y-98218378D01*
X133876332Y-98122619D01*
X133570208Y-97918073D01*
X133216398Y-97847695D01*
X132862587Y-97918073D01*
X132556463Y-98122619D01*
X132460704Y-98218378D01*
X132256159Y-98524502D01*
X132185781Y-98878313D01*
X130711481Y-98878313D01*
X130641103Y-98524502D01*
X130436557Y-98218378D01*
X130340798Y-98122619D01*
X130034674Y-97918073D01*
X129680864Y-97847695D01*
X129327053Y-97918073D01*
X129020929Y-98122619D01*
X128925170Y-98218378D01*
X128720625Y-98524502D01*
X128650247Y-98878313D01*
X127175947Y-98878313D01*
X127105569Y-98524502D01*
X126901023Y-98218378D01*
X126805264Y-98122619D01*
X126499140Y-97918073D01*
X126145330Y-97847695D01*
X125791519Y-97918073D01*
X125485396Y-98122619D01*
X125389637Y-98218378D01*
X125185091Y-98524502D01*
X125114713Y-98878313D01*
X123640413Y-98878313D01*
X123570035Y-98524502D01*
X123365489Y-98218378D01*
X123269730Y-98122619D01*
X122963607Y-97918073D01*
X122609796Y-97847695D01*
X122255985Y-97918073D01*
X121949862Y-98122619D01*
X121854103Y-98218378D01*
X121649557Y-98524502D01*
X121579179Y-98878313D01*
X120104879Y-98878313D01*
X120034501Y-98524502D01*
X119829955Y-98218378D01*
X119734196Y-98122619D01*
X119428073Y-97918073D01*
X119074262Y-97847695D01*
X118720451Y-97918073D01*
X118414328Y-98122619D01*
X118318569Y-98218378D01*
X118114023Y-98524502D01*
X118043645Y-98878313D01*
X115300000Y-98878313D01*
X115300000Y-97110546D01*
X116275878Y-97110546D01*
X116346256Y-97464356D01*
X116550802Y-97770480D01*
X116646561Y-97866239D01*
X116952685Y-98070784D01*
X117306496Y-98141162D01*
X117660306Y-98070784D01*
X117966429Y-97866239D01*
X118062188Y-97770480D01*
X118266734Y-97464356D01*
X118337112Y-97110546D01*
X119811412Y-97110546D01*
X119881790Y-97464356D01*
X120086336Y-97770480D01*
X120182095Y-97866239D01*
X120488218Y-98070784D01*
X120842029Y-98141162D01*
X121195840Y-98070784D01*
X121501963Y-97866239D01*
X121597722Y-97770480D01*
X121802268Y-97464356D01*
X121872646Y-97110546D01*
X123346946Y-97110546D01*
X123417324Y-97464356D01*
X123621870Y-97770480D01*
X123717629Y-97866239D01*
X124023752Y-98070784D01*
X124377563Y-98141162D01*
X124731373Y-98070784D01*
X125037497Y-97866239D01*
X125133256Y-97770480D01*
X125337802Y-97464356D01*
X125408180Y-97110546D01*
X126882480Y-97110546D01*
X126952858Y-97464356D01*
X127157403Y-97770480D01*
X127253163Y-97866239D01*
X127559286Y-98070784D01*
X127913097Y-98141162D01*
X128266907Y-98070784D01*
X128573031Y-97866239D01*
X128668790Y-97770480D01*
X128873336Y-97464356D01*
X128943714Y-97110546D01*
X130418014Y-97110546D01*
X130488392Y-97464356D01*
X130692937Y-97770480D01*
X130788696Y-97866239D01*
X131094820Y-98070784D01*
X131448631Y-98141162D01*
X131802441Y-98070784D01*
X132108565Y-97866239D01*
X132204324Y-97770480D01*
X132408870Y-97464356D01*
X132479248Y-97110546D01*
X133953548Y-97110546D01*
X134023926Y-97464356D01*
X134228471Y-97770480D01*
X134324230Y-97866239D01*
X134630354Y-98070784D01*
X134984165Y-98141162D01*
X135337975Y-98070784D01*
X135644099Y-97866239D01*
X135739858Y-97770480D01*
X135944404Y-97464356D01*
X136014781Y-97110546D01*
X137489082Y-97110546D01*
X137559459Y-97464356D01*
X137764005Y-97770480D01*
X137859764Y-97866239D01*
X138165888Y-98070784D01*
X138519698Y-98141162D01*
X138626000Y-98120017D01*
X138626000Y-96101073D01*
X138519699Y-96079929D01*
X138165888Y-96150306D01*
X137859764Y-96354852D01*
X137764005Y-96450611D01*
X137559459Y-96756735D01*
X137489082Y-97110546D01*
X136014781Y-97110546D01*
X135944404Y-96756735D01*
X135739858Y-96450611D01*
X135644099Y-96354852D01*
X135337975Y-96150306D01*
X134984165Y-96079929D01*
X134630354Y-96150306D01*
X134324230Y-96354852D01*
X134228471Y-96450611D01*
X134023926Y-96756735D01*
X133953548Y-97110546D01*
X132479248Y-97110546D01*
X132408870Y-96756735D01*
X132204324Y-96450611D01*
X132108565Y-96354852D01*
X131802441Y-96150306D01*
X131448631Y-96079929D01*
X131094820Y-96150306D01*
X130788696Y-96354852D01*
X130692937Y-96450611D01*
X130488392Y-96756735D01*
X130418014Y-97110546D01*
X128943714Y-97110546D01*
X128873336Y-96756735D01*
X128668790Y-96450611D01*
X128573031Y-96354852D01*
X128266907Y-96150306D01*
X127913097Y-96079929D01*
X127559286Y-96150306D01*
X127253163Y-96354852D01*
X127157403Y-96450611D01*
X126952858Y-96756735D01*
X126882480Y-97110546D01*
X125408180Y-97110546D01*
X125337802Y-96756735D01*
X125133256Y-96450611D01*
X125037497Y-96354852D01*
X124731373Y-96150306D01*
X124377563Y-96079929D01*
X124023752Y-96150306D01*
X123717629Y-96354852D01*
X123621870Y-96450611D01*
X123417324Y-96756735D01*
X123346946Y-97110546D01*
X121872646Y-97110546D01*
X121802268Y-96756735D01*
X121597722Y-96450611D01*
X121501963Y-96354852D01*
X121195840Y-96150306D01*
X120842029Y-96079929D01*
X120488218Y-96150306D01*
X120182095Y-96354852D01*
X120086336Y-96450611D01*
X119881790Y-96756735D01*
X119811412Y-97110546D01*
X118337112Y-97110546D01*
X118266734Y-96756735D01*
X118062188Y-96450611D01*
X117966429Y-96354852D01*
X117660306Y-96150306D01*
X117306496Y-96079929D01*
X116952685Y-96150306D01*
X116646561Y-96354852D01*
X116550802Y-96450611D01*
X116346256Y-96756735D01*
X116275878Y-97110546D01*
X115300000Y-97110546D01*
X115300000Y-95342779D01*
X118043645Y-95342779D01*
X118114023Y-95696589D01*
X118318569Y-96002713D01*
X118414328Y-96098472D01*
X118720451Y-96303017D01*
X119074262Y-96373395D01*
X119428073Y-96303017D01*
X119734196Y-96098472D01*
X119829955Y-96002713D01*
X120034501Y-95696589D01*
X120104879Y-95342779D01*
X121579179Y-95342779D01*
X121649557Y-95696589D01*
X121854103Y-96002713D01*
X121949862Y-96098472D01*
X122255985Y-96303017D01*
X122609796Y-96373395D01*
X122963607Y-96303017D01*
X123269730Y-96098472D01*
X123365489Y-96002713D01*
X123570035Y-95696589D01*
X123640413Y-95342779D01*
X125114713Y-95342779D01*
X125185091Y-95696589D01*
X125389637Y-96002713D01*
X125485396Y-96098472D01*
X125791519Y-96303017D01*
X126145330Y-96373395D01*
X126499140Y-96303017D01*
X126805264Y-96098472D01*
X126901023Y-96002713D01*
X127105569Y-95696589D01*
X127175947Y-95342779D01*
X128650247Y-95342779D01*
X128720625Y-95696589D01*
X128925170Y-96002713D01*
X129020929Y-96098472D01*
X129327053Y-96303017D01*
X129680864Y-96373395D01*
X130034674Y-96303017D01*
X130340798Y-96098472D01*
X130436557Y-96002713D01*
X130641103Y-95696589D01*
X130711481Y-95342779D01*
X132185781Y-95342779D01*
X132256159Y-95696589D01*
X132460704Y-96002713D01*
X132556463Y-96098472D01*
X132862587Y-96303017D01*
X133216398Y-96373395D01*
X133570208Y-96303017D01*
X133876332Y-96098472D01*
X133972091Y-96002713D01*
X134176637Y-95696589D01*
X134247014Y-95342779D01*
X135721315Y-95342779D01*
X135791692Y-95696589D01*
X135996238Y-96002713D01*
X136091997Y-96098472D01*
X136398121Y-96303017D01*
X136751932Y-96373395D01*
X137105742Y-96303017D01*
X137411866Y-96098472D01*
X137507625Y-96002713D01*
X137712171Y-95696589D01*
X137782548Y-95342779D01*
X137712171Y-94988968D01*
X137507625Y-94682844D01*
X137411866Y-94587085D01*
X137105742Y-94382539D01*
X136751932Y-94312162D01*
X136398121Y-94382539D01*
X136091997Y-94587085D01*
X135996238Y-94682844D01*
X135791692Y-94988968D01*
X135721315Y-95342779D01*
X134247014Y-95342779D01*
X134176637Y-94988968D01*
X133972091Y-94682844D01*
X133876332Y-94587085D01*
X133570208Y-94382539D01*
X133216398Y-94312162D01*
X132862587Y-94382539D01*
X132556463Y-94587085D01*
X132460704Y-94682844D01*
X132256159Y-94988968D01*
X132185781Y-95342779D01*
X130711481Y-95342779D01*
X130641103Y-94988968D01*
X130436557Y-94682844D01*
X130340798Y-94587085D01*
X130034674Y-94382539D01*
X129680864Y-94312162D01*
X129327053Y-94382539D01*
X129020929Y-94587085D01*
X128925170Y-94682844D01*
X128720625Y-94988968D01*
X128650247Y-95342779D01*
X127175947Y-95342779D01*
X127105569Y-94988968D01*
X126901023Y-94682844D01*
X126805264Y-94587085D01*
X126499140Y-94382539D01*
X126145330Y-94312162D01*
X125791519Y-94382539D01*
X125485396Y-94587085D01*
X125389637Y-94682844D01*
X125185091Y-94988968D01*
X125114713Y-95342779D01*
X123640413Y-95342779D01*
X123570035Y-94988968D01*
X123365489Y-94682844D01*
X123269730Y-94587085D01*
X122963607Y-94382539D01*
X122609796Y-94312162D01*
X122255985Y-94382539D01*
X121949862Y-94587085D01*
X121854103Y-94682844D01*
X121649557Y-94988968D01*
X121579179Y-95342779D01*
X120104879Y-95342779D01*
X120034501Y-94988968D01*
X119829955Y-94682844D01*
X119734196Y-94587085D01*
X119428073Y-94382539D01*
X119074262Y-94312162D01*
X118720451Y-94382539D01*
X118414328Y-94587085D01*
X118318569Y-94682844D01*
X118114023Y-94988968D01*
X118043645Y-95342779D01*
X115300000Y-95342779D01*
X115300000Y-93575012D01*
X116275878Y-93575012D01*
X116346256Y-93928822D01*
X116550802Y-94234946D01*
X116646561Y-94330705D01*
X116952685Y-94535251D01*
X117306496Y-94605628D01*
X117660306Y-94535251D01*
X117966429Y-94330705D01*
X118062188Y-94234946D01*
X118266734Y-93928822D01*
X118337112Y-93575012D01*
X119811412Y-93575012D01*
X119881790Y-93928822D01*
X120086336Y-94234946D01*
X120182095Y-94330705D01*
X120488218Y-94535251D01*
X120842029Y-94605628D01*
X121195840Y-94535251D01*
X121501963Y-94330705D01*
X121597722Y-94234946D01*
X121802268Y-93928822D01*
X121872646Y-93575012D01*
X123346946Y-93575012D01*
X123417324Y-93928822D01*
X123621870Y-94234946D01*
X123717629Y-94330705D01*
X124023752Y-94535251D01*
X124377563Y-94605628D01*
X124731373Y-94535251D01*
X125037497Y-94330705D01*
X125133256Y-94234946D01*
X125337802Y-93928822D01*
X125408180Y-93575012D01*
X126882480Y-93575012D01*
X126952858Y-93928822D01*
X127157403Y-94234946D01*
X127253163Y-94330705D01*
X127559286Y-94535251D01*
X127913097Y-94605628D01*
X128266907Y-94535251D01*
X128573031Y-94330705D01*
X128668790Y-94234946D01*
X128873336Y-93928822D01*
X128943714Y-93575012D01*
X130418014Y-93575012D01*
X130488392Y-93928822D01*
X130692937Y-94234946D01*
X130788696Y-94330705D01*
X131094820Y-94535251D01*
X131448631Y-94605628D01*
X131802441Y-94535251D01*
X132108565Y-94330705D01*
X132204324Y-94234946D01*
X132408870Y-93928822D01*
X132479248Y-93575012D01*
X133953548Y-93575012D01*
X134023926Y-93928822D01*
X134228471Y-94234946D01*
X134324230Y-94330705D01*
X134630354Y-94535251D01*
X134984165Y-94605628D01*
X135337975Y-94535251D01*
X135644099Y-94330705D01*
X135739858Y-94234946D01*
X135944404Y-93928822D01*
X136014781Y-93575012D01*
X137489082Y-93575012D01*
X137559459Y-93928822D01*
X137764005Y-94234946D01*
X137859764Y-94330705D01*
X138165888Y-94535251D01*
X138519698Y-94605628D01*
X138626000Y-94584483D01*
X138626000Y-92565539D01*
X138519699Y-92544395D01*
X138165888Y-92614772D01*
X137859764Y-92819318D01*
X137764005Y-92915077D01*
X137559459Y-93221201D01*
X137489082Y-93575012D01*
X136014781Y-93575012D01*
X135944404Y-93221201D01*
X135739858Y-92915077D01*
X135644099Y-92819318D01*
X135337975Y-92614772D01*
X134984165Y-92544395D01*
X134630354Y-92614772D01*
X134324230Y-92819318D01*
X134228471Y-92915077D01*
X134023926Y-93221201D01*
X133953548Y-93575012D01*
X132479248Y-93575012D01*
X132408870Y-93221201D01*
X132204324Y-92915077D01*
X132108565Y-92819318D01*
X131802441Y-92614772D01*
X131448631Y-92544395D01*
X131094820Y-92614772D01*
X130788696Y-92819318D01*
X130692937Y-92915077D01*
X130488392Y-93221201D01*
X130418014Y-93575012D01*
X128943714Y-93575012D01*
X128873336Y-93221201D01*
X128668790Y-92915077D01*
X128573031Y-92819318D01*
X128266907Y-92614772D01*
X127913097Y-92544395D01*
X127559286Y-92614772D01*
X127253163Y-92819318D01*
X127157403Y-92915077D01*
X126952858Y-93221201D01*
X126882480Y-93575012D01*
X125408180Y-93575012D01*
X125337802Y-93221201D01*
X125133256Y-92915077D01*
X125037497Y-92819318D01*
X124731373Y-92614772D01*
X124377563Y-92544395D01*
X124023752Y-92614772D01*
X123717629Y-92819318D01*
X123621870Y-92915077D01*
X123417324Y-93221201D01*
X123346946Y-93575012D01*
X121872646Y-93575012D01*
X121802268Y-93221201D01*
X121597722Y-92915077D01*
X121501963Y-92819318D01*
X121195840Y-92614772D01*
X120842029Y-92544395D01*
X120488218Y-92614772D01*
X120182095Y-92819318D01*
X120086336Y-92915077D01*
X119881790Y-93221201D01*
X119811412Y-93575012D01*
X118337112Y-93575012D01*
X118266734Y-93221201D01*
X118062188Y-92915077D01*
X117966429Y-92819318D01*
X117660306Y-92614772D01*
X117306496Y-92544395D01*
X116952685Y-92614772D01*
X116646561Y-92819318D01*
X116550802Y-92915077D01*
X116346256Y-93221201D01*
X116275878Y-93575012D01*
X115300000Y-93575012D01*
X115300000Y-91807245D01*
X118043645Y-91807245D01*
X118114023Y-92161055D01*
X118318569Y-92467179D01*
X118414328Y-92562938D01*
X118720451Y-92767484D01*
X119074262Y-92837861D01*
X119428073Y-92767484D01*
X119734196Y-92562938D01*
X119829955Y-92467179D01*
X120034501Y-92161055D01*
X120104879Y-91807245D01*
X121579179Y-91807245D01*
X121649557Y-92161055D01*
X121854103Y-92467179D01*
X121949862Y-92562938D01*
X122255985Y-92767484D01*
X122609796Y-92837861D01*
X122963607Y-92767484D01*
X123269730Y-92562938D01*
X123365489Y-92467179D01*
X123570035Y-92161055D01*
X123640413Y-91807245D01*
X125114713Y-91807245D01*
X125185091Y-92161055D01*
X125389637Y-92467179D01*
X125485396Y-92562938D01*
X125791519Y-92767484D01*
X126145330Y-92837861D01*
X126499140Y-92767484D01*
X126805264Y-92562938D01*
X126901023Y-92467179D01*
X127105569Y-92161055D01*
X127175947Y-91807245D01*
X128650247Y-91807245D01*
X128720625Y-92161055D01*
X128925170Y-92467179D01*
X129020929Y-92562938D01*
X129327053Y-92767484D01*
X129680864Y-92837861D01*
X130034674Y-92767484D01*
X130340798Y-92562938D01*
X130436557Y-92467179D01*
X130641103Y-92161055D01*
X130711481Y-91807245D01*
X132185781Y-91807245D01*
X132256159Y-92161055D01*
X132460704Y-92467179D01*
X132556463Y-92562938D01*
X132862587Y-92767484D01*
X133216398Y-92837861D01*
X133570208Y-92767484D01*
X133876332Y-92562938D01*
X133972091Y-92467179D01*
X134176637Y-92161055D01*
X134247014Y-91807245D01*
X135721315Y-91807245D01*
X135791692Y-92161055D01*
X135996238Y-92467179D01*
X136091997Y-92562938D01*
X136398121Y-92767484D01*
X136751932Y-92837861D01*
X137105742Y-92767484D01*
X137411866Y-92562938D01*
X137507625Y-92467179D01*
X137712171Y-92161055D01*
X137782548Y-91807245D01*
X137712171Y-91453434D01*
X137507625Y-91147310D01*
X137411866Y-91051551D01*
X137105742Y-90847005D01*
X136751932Y-90776628D01*
X136398121Y-90847005D01*
X136091997Y-91051551D01*
X135996238Y-91147310D01*
X135791692Y-91453434D01*
X135721315Y-91807245D01*
X134247014Y-91807245D01*
X134176637Y-91453434D01*
X133972091Y-91147310D01*
X133876332Y-91051551D01*
X133570208Y-90847005D01*
X133216398Y-90776628D01*
X132862587Y-90847005D01*
X132556463Y-91051551D01*
X132460704Y-91147310D01*
X132256159Y-91453434D01*
X132185781Y-91807245D01*
X130711481Y-91807245D01*
X130641103Y-91453434D01*
X130436557Y-91147310D01*
X130340798Y-91051551D01*
X130034674Y-90847005D01*
X129680864Y-90776628D01*
X129327053Y-90847005D01*
X129020929Y-91051551D01*
X128925170Y-91147310D01*
X128720625Y-91453434D01*
X128650247Y-91807245D01*
X127175947Y-91807245D01*
X127105569Y-91453434D01*
X126901023Y-91147310D01*
X126805264Y-91051551D01*
X126499140Y-90847005D01*
X126145330Y-90776628D01*
X125791519Y-90847005D01*
X125485396Y-91051551D01*
X125389637Y-91147310D01*
X125185091Y-91453434D01*
X125114713Y-91807245D01*
X123640413Y-91807245D01*
X123570035Y-91453434D01*
X123365489Y-91147310D01*
X123269730Y-91051551D01*
X122963607Y-90847005D01*
X122609796Y-90776628D01*
X122255985Y-90847005D01*
X121949862Y-91051551D01*
X121854103Y-91147310D01*
X121649557Y-91453434D01*
X121579179Y-91807245D01*
X120104879Y-91807245D01*
X120034501Y-91453434D01*
X119829955Y-91147310D01*
X119734196Y-91051551D01*
X119428073Y-90847005D01*
X119074262Y-90776628D01*
X118720451Y-90847005D01*
X118414328Y-91051551D01*
X118318569Y-91147310D01*
X118114023Y-91453434D01*
X118043645Y-91807245D01*
X115300000Y-91807245D01*
X115300000Y-90039478D01*
X116275878Y-90039478D01*
X116346256Y-90393288D01*
X116550802Y-90699412D01*
X116646561Y-90795171D01*
X116952685Y-90999717D01*
X117306496Y-91070094D01*
X117660306Y-90999717D01*
X117966429Y-90795171D01*
X118062188Y-90699412D01*
X118266734Y-90393288D01*
X118337112Y-90039478D01*
X119811412Y-90039478D01*
X119881790Y-90393288D01*
X120086336Y-90699412D01*
X120182095Y-90795171D01*
X120488218Y-90999717D01*
X120842029Y-91070094D01*
X121195840Y-90999717D01*
X121501963Y-90795171D01*
X121597722Y-90699412D01*
X121802268Y-90393288D01*
X121872646Y-90039478D01*
X123346946Y-90039478D01*
X123417324Y-90393288D01*
X123621870Y-90699412D01*
X123717629Y-90795171D01*
X124023752Y-90999717D01*
X124377563Y-91070094D01*
X124731373Y-90999717D01*
X125037497Y-90795171D01*
X125133256Y-90699412D01*
X125337802Y-90393288D01*
X125408180Y-90039478D01*
X126882480Y-90039478D01*
X126952858Y-90393288D01*
X127157403Y-90699412D01*
X127253163Y-90795171D01*
X127559286Y-90999717D01*
X127913097Y-91070094D01*
X128266907Y-90999717D01*
X128573031Y-90795171D01*
X128668790Y-90699412D01*
X128873336Y-90393288D01*
X128943714Y-90039478D01*
X130418014Y-90039478D01*
X130488392Y-90393288D01*
X130692937Y-90699412D01*
X130788696Y-90795171D01*
X131094820Y-90999717D01*
X131448631Y-91070094D01*
X131802441Y-90999717D01*
X132108565Y-90795171D01*
X132204324Y-90699412D01*
X132408870Y-90393288D01*
X132479248Y-90039478D01*
X133953548Y-90039478D01*
X134023926Y-90393288D01*
X134228471Y-90699412D01*
X134324230Y-90795171D01*
X134630354Y-90999717D01*
X134984165Y-91070094D01*
X135337975Y-90999717D01*
X135644099Y-90795171D01*
X135739858Y-90699412D01*
X135944404Y-90393288D01*
X136014781Y-90039478D01*
X137489082Y-90039478D01*
X137559459Y-90393288D01*
X137764005Y-90699412D01*
X137859764Y-90795171D01*
X138165888Y-90999717D01*
X138519698Y-91070094D01*
X138626000Y-91048949D01*
X138626000Y-89030005D01*
X138519699Y-89008861D01*
X138165888Y-89079238D01*
X137859764Y-89283784D01*
X137764005Y-89379543D01*
X137559459Y-89685667D01*
X137489082Y-90039478D01*
X136014781Y-90039478D01*
X135944404Y-89685667D01*
X135739858Y-89379543D01*
X135644099Y-89283784D01*
X135337975Y-89079238D01*
X134984165Y-89008861D01*
X134630354Y-89079238D01*
X134324230Y-89283784D01*
X134228471Y-89379543D01*
X134023926Y-89685667D01*
X133953548Y-90039478D01*
X132479248Y-90039478D01*
X132408870Y-89685667D01*
X132204324Y-89379543D01*
X132108565Y-89283784D01*
X131802441Y-89079238D01*
X131448631Y-89008861D01*
X131094820Y-89079238D01*
X130788696Y-89283784D01*
X130692937Y-89379543D01*
X130488392Y-89685667D01*
X130418014Y-90039478D01*
X128943714Y-90039478D01*
X128873336Y-89685667D01*
X128668790Y-89379543D01*
X128573031Y-89283784D01*
X128266907Y-89079238D01*
X127913097Y-89008861D01*
X127559286Y-89079238D01*
X127253163Y-89283784D01*
X127157403Y-89379543D01*
X126952858Y-89685667D01*
X126882480Y-90039478D01*
X125408180Y-90039478D01*
X125337802Y-89685667D01*
X125133256Y-89379543D01*
X125037497Y-89283784D01*
X124731373Y-89079238D01*
X124377563Y-89008861D01*
X124023752Y-89079238D01*
X123717629Y-89283784D01*
X123621870Y-89379543D01*
X123417324Y-89685667D01*
X123346946Y-90039478D01*
X121872646Y-90039478D01*
X121802268Y-89685667D01*
X121597722Y-89379543D01*
X121501963Y-89283784D01*
X121195840Y-89079238D01*
X120842029Y-89008861D01*
X120488218Y-89079238D01*
X120182095Y-89283784D01*
X120086336Y-89379543D01*
X119881790Y-89685667D01*
X119811412Y-90039478D01*
X118337112Y-90039478D01*
X118266734Y-89685667D01*
X118062188Y-89379543D01*
X117966429Y-89283784D01*
X117660306Y-89079238D01*
X117306496Y-89008861D01*
X116952685Y-89079238D01*
X116646561Y-89283784D01*
X116550802Y-89379543D01*
X116346256Y-89685667D01*
X116275878Y-90039478D01*
X115300000Y-90039478D01*
X115300000Y-88271711D01*
X118043645Y-88271711D01*
X118114023Y-88625521D01*
X118318569Y-88931645D01*
X118414328Y-89027404D01*
X118720451Y-89231950D01*
X119074262Y-89302327D01*
X119428073Y-89231950D01*
X119734196Y-89027404D01*
X119829955Y-88931645D01*
X120034501Y-88625521D01*
X120104879Y-88271711D01*
X121579179Y-88271711D01*
X121649557Y-88625521D01*
X121854103Y-88931645D01*
X121949862Y-89027404D01*
X122255985Y-89231950D01*
X122609796Y-89302327D01*
X122963607Y-89231950D01*
X123269730Y-89027404D01*
X123365489Y-88931645D01*
X123570035Y-88625521D01*
X123640413Y-88271711D01*
X125114713Y-88271711D01*
X125185091Y-88625521D01*
X125389637Y-88931645D01*
X125485396Y-89027404D01*
X125791519Y-89231950D01*
X126145330Y-89302327D01*
X126499140Y-89231950D01*
X126805264Y-89027404D01*
X126901023Y-88931645D01*
X127105569Y-88625521D01*
X127175947Y-88271711D01*
X128650247Y-88271711D01*
X128720625Y-88625521D01*
X128925170Y-88931645D01*
X129020929Y-89027404D01*
X129327053Y-89231950D01*
X129680864Y-89302327D01*
X130034674Y-89231950D01*
X130340798Y-89027404D01*
X130436557Y-88931645D01*
X130641103Y-88625521D01*
X130711481Y-88271711D01*
X132185781Y-88271711D01*
X132256159Y-88625521D01*
X132460704Y-88931645D01*
X132556463Y-89027404D01*
X132862587Y-89231950D01*
X133216398Y-89302327D01*
X133570208Y-89231950D01*
X133876332Y-89027404D01*
X133972091Y-88931645D01*
X134176637Y-88625521D01*
X134247014Y-88271711D01*
X135721315Y-88271711D01*
X135791692Y-88625521D01*
X135996238Y-88931645D01*
X136091997Y-89027404D01*
X136398121Y-89231950D01*
X136751932Y-89302327D01*
X137105742Y-89231950D01*
X137411866Y-89027404D01*
X137507625Y-88931645D01*
X137712171Y-88625521D01*
X137782548Y-88271711D01*
X137712171Y-87917900D01*
X137507625Y-87611776D01*
X137411866Y-87516017D01*
X137105742Y-87311472D01*
X136751932Y-87241094D01*
X136398121Y-87311472D01*
X136091997Y-87516017D01*
X135996238Y-87611776D01*
X135791692Y-87917900D01*
X135721315Y-88271711D01*
X134247014Y-88271711D01*
X134176637Y-87917900D01*
X133972091Y-87611776D01*
X133876332Y-87516017D01*
X133570208Y-87311472D01*
X133216398Y-87241094D01*
X132862587Y-87311472D01*
X132556463Y-87516017D01*
X132460704Y-87611776D01*
X132256159Y-87917900D01*
X132185781Y-88271711D01*
X130711481Y-88271711D01*
X130641103Y-87917900D01*
X130436557Y-87611776D01*
X130340798Y-87516017D01*
X130034674Y-87311472D01*
X129680864Y-87241094D01*
X129327053Y-87311472D01*
X129020929Y-87516017D01*
X128925170Y-87611776D01*
X128720625Y-87917900D01*
X128650247Y-88271711D01*
X127175947Y-88271711D01*
X127105569Y-87917900D01*
X126901023Y-87611776D01*
X126805264Y-87516017D01*
X126499140Y-87311472D01*
X126145330Y-87241094D01*
X125791519Y-87311472D01*
X125485396Y-87516017D01*
X125389637Y-87611776D01*
X125185091Y-87917900D01*
X125114713Y-88271711D01*
X123640413Y-88271711D01*
X123570035Y-87917900D01*
X123365489Y-87611776D01*
X123269730Y-87516017D01*
X122963607Y-87311472D01*
X122609796Y-87241094D01*
X122255985Y-87311472D01*
X121949862Y-87516017D01*
X121854103Y-87611776D01*
X121649557Y-87917900D01*
X121579179Y-88271711D01*
X120104879Y-88271711D01*
X120034501Y-87917900D01*
X119829955Y-87611776D01*
X119734196Y-87516017D01*
X119428073Y-87311472D01*
X119074262Y-87241094D01*
X118720451Y-87311472D01*
X118414328Y-87516017D01*
X118318569Y-87611776D01*
X118114023Y-87917900D01*
X118043645Y-88271711D01*
X115300000Y-88271711D01*
X115300000Y-86503944D01*
X116275878Y-86503944D01*
X116346256Y-86857754D01*
X116550802Y-87163878D01*
X116646561Y-87259637D01*
X116952685Y-87464183D01*
X117306496Y-87534560D01*
X117660306Y-87464183D01*
X117966429Y-87259637D01*
X118062188Y-87163878D01*
X118266734Y-86857754D01*
X118337112Y-86503944D01*
X119811412Y-86503944D01*
X119881790Y-86857754D01*
X120086336Y-87163878D01*
X120182095Y-87259637D01*
X120488218Y-87464183D01*
X120842029Y-87534560D01*
X121195840Y-87464183D01*
X121501963Y-87259637D01*
X121597722Y-87163878D01*
X121802268Y-86857754D01*
X121872646Y-86503944D01*
X123346946Y-86503944D01*
X123417324Y-86857754D01*
X123621870Y-87163878D01*
X123717629Y-87259637D01*
X124023752Y-87464183D01*
X124377563Y-87534560D01*
X124731373Y-87464183D01*
X125037497Y-87259637D01*
X125133256Y-87163878D01*
X125337802Y-86857754D01*
X125408180Y-86503944D01*
X126882480Y-86503944D01*
X126952858Y-86857754D01*
X127157403Y-87163878D01*
X127253163Y-87259637D01*
X127559286Y-87464183D01*
X127913097Y-87534560D01*
X128266907Y-87464183D01*
X128573031Y-87259637D01*
X128668790Y-87163878D01*
X128873336Y-86857754D01*
X128943714Y-86503944D01*
X130418014Y-86503944D01*
X130488392Y-86857754D01*
X130692937Y-87163878D01*
X130788696Y-87259637D01*
X131094820Y-87464183D01*
X131448631Y-87534560D01*
X131802441Y-87464183D01*
X132108565Y-87259637D01*
X132204324Y-87163878D01*
X132408870Y-86857754D01*
X132479248Y-86503944D01*
X133953548Y-86503944D01*
X134023926Y-86857754D01*
X134228471Y-87163878D01*
X134324230Y-87259637D01*
X134630354Y-87464183D01*
X134984165Y-87534560D01*
X135337975Y-87464183D01*
X135644099Y-87259637D01*
X135739858Y-87163878D01*
X135944404Y-86857754D01*
X136014781Y-86503944D01*
X137489082Y-86503944D01*
X137559459Y-86857754D01*
X137764005Y-87163878D01*
X137859764Y-87259637D01*
X138165888Y-87464183D01*
X138519698Y-87534560D01*
X138626000Y-87513415D01*
X138626000Y-85494471D01*
X138519699Y-85473327D01*
X138165888Y-85543705D01*
X137859764Y-85748250D01*
X137764005Y-85844009D01*
X137559459Y-86150133D01*
X137489082Y-86503944D01*
X136014781Y-86503944D01*
X135944404Y-86150133D01*
X135739858Y-85844009D01*
X135644099Y-85748250D01*
X135337975Y-85543705D01*
X134984165Y-85473327D01*
X134630354Y-85543705D01*
X134324230Y-85748250D01*
X134228471Y-85844009D01*
X134023926Y-86150133D01*
X133953548Y-86503944D01*
X132479248Y-86503944D01*
X132408870Y-86150133D01*
X132204324Y-85844009D01*
X132108565Y-85748250D01*
X131802441Y-85543705D01*
X131448631Y-85473327D01*
X131094820Y-85543705D01*
X130788696Y-85748250D01*
X130692937Y-85844009D01*
X130488392Y-86150133D01*
X130418014Y-86503944D01*
X128943714Y-86503944D01*
X128873336Y-86150133D01*
X128668790Y-85844009D01*
X128573031Y-85748250D01*
X128266907Y-85543705D01*
X127913097Y-85473327D01*
X127559286Y-85543705D01*
X127253163Y-85748250D01*
X127157403Y-85844009D01*
X126952858Y-86150133D01*
X126882480Y-86503944D01*
X125408180Y-86503944D01*
X125337802Y-86150133D01*
X125133256Y-85844009D01*
X125037497Y-85748250D01*
X124731373Y-85543705D01*
X124377563Y-85473327D01*
X124023752Y-85543705D01*
X123717629Y-85748250D01*
X123621870Y-85844009D01*
X123417324Y-86150133D01*
X123346946Y-86503944D01*
X121872646Y-86503944D01*
X121802268Y-86150133D01*
X121597722Y-85844009D01*
X121501963Y-85748250D01*
X121195840Y-85543705D01*
X120842029Y-85473327D01*
X120488218Y-85543705D01*
X120182095Y-85748250D01*
X120086336Y-85844009D01*
X119881790Y-86150133D01*
X119811412Y-86503944D01*
X118337112Y-86503944D01*
X118266734Y-86150133D01*
X118062188Y-85844009D01*
X117966429Y-85748250D01*
X117660306Y-85543705D01*
X117306496Y-85473327D01*
X116952685Y-85543705D01*
X116646561Y-85748250D01*
X116550802Y-85844009D01*
X116346256Y-86150133D01*
X116275878Y-86503944D01*
X115300000Y-86503944D01*
X115300000Y-84736177D01*
X118043645Y-84736177D01*
X118114023Y-85089987D01*
X118318569Y-85396111D01*
X118414328Y-85491870D01*
X118720451Y-85696416D01*
X119074262Y-85766794D01*
X119428073Y-85696416D01*
X119734196Y-85491870D01*
X119829955Y-85396111D01*
X120034501Y-85089987D01*
X120104879Y-84736177D01*
X121579179Y-84736177D01*
X121649557Y-85089987D01*
X121854103Y-85396111D01*
X121949862Y-85491870D01*
X122255985Y-85696416D01*
X122609796Y-85766794D01*
X122963607Y-85696416D01*
X123269730Y-85491870D01*
X123365489Y-85396111D01*
X123570035Y-85089987D01*
X123640413Y-84736177D01*
X125114713Y-84736177D01*
X125185091Y-85089987D01*
X125389637Y-85396111D01*
X125485396Y-85491870D01*
X125791519Y-85696416D01*
X126145330Y-85766794D01*
X126499140Y-85696416D01*
X126805264Y-85491870D01*
X126901023Y-85396111D01*
X127105569Y-85089987D01*
X127175947Y-84736177D01*
X128650247Y-84736177D01*
X128720625Y-85089987D01*
X128925170Y-85396111D01*
X129020929Y-85491870D01*
X129327053Y-85696416D01*
X129680864Y-85766794D01*
X130034674Y-85696416D01*
X130340798Y-85491870D01*
X130436557Y-85396111D01*
X130641103Y-85089987D01*
X130711481Y-84736177D01*
X132185781Y-84736177D01*
X132256159Y-85089987D01*
X132460704Y-85396111D01*
X132556463Y-85491870D01*
X132862587Y-85696416D01*
X133216398Y-85766794D01*
X133570208Y-85696416D01*
X133876332Y-85491870D01*
X133972091Y-85396111D01*
X134176637Y-85089987D01*
X134247014Y-84736177D01*
X135721315Y-84736177D01*
X135791692Y-85089987D01*
X135996238Y-85396111D01*
X136091997Y-85491870D01*
X136398121Y-85696416D01*
X136751932Y-85766794D01*
X137105742Y-85696416D01*
X137411866Y-85491870D01*
X137507625Y-85396111D01*
X137712171Y-85089987D01*
X137782548Y-84736177D01*
X137712171Y-84382366D01*
X137507625Y-84076242D01*
X137411866Y-83980483D01*
X137105742Y-83775938D01*
X136751932Y-83705560D01*
X136398121Y-83775938D01*
X136091997Y-83980483D01*
X135996238Y-84076242D01*
X135791692Y-84382366D01*
X135721315Y-84736177D01*
X134247014Y-84736177D01*
X134176637Y-84382366D01*
X133972091Y-84076242D01*
X133876332Y-83980483D01*
X133570208Y-83775938D01*
X133216398Y-83705560D01*
X132862587Y-83775938D01*
X132556463Y-83980483D01*
X132460704Y-84076242D01*
X132256159Y-84382366D01*
X132185781Y-84736177D01*
X130711481Y-84736177D01*
X130641103Y-84382366D01*
X130436557Y-84076242D01*
X130340798Y-83980483D01*
X130034674Y-83775938D01*
X129680864Y-83705560D01*
X129327053Y-83775938D01*
X129020929Y-83980483D01*
X128925170Y-84076242D01*
X128720625Y-84382366D01*
X128650247Y-84736177D01*
X127175947Y-84736177D01*
X127105569Y-84382366D01*
X126901023Y-84076242D01*
X126805264Y-83980483D01*
X126499140Y-83775938D01*
X126145330Y-83705560D01*
X125791519Y-83775938D01*
X125485396Y-83980483D01*
X125389637Y-84076242D01*
X125185091Y-84382366D01*
X125114713Y-84736177D01*
X123640413Y-84736177D01*
X123570035Y-84382366D01*
X123365489Y-84076242D01*
X123269730Y-83980483D01*
X122963607Y-83775938D01*
X122609796Y-83705560D01*
X122255985Y-83775938D01*
X121949862Y-83980483D01*
X121854103Y-84076242D01*
X121649557Y-84382366D01*
X121579179Y-84736177D01*
X120104879Y-84736177D01*
X120034501Y-84382366D01*
X119829955Y-84076242D01*
X119734196Y-83980483D01*
X119428073Y-83775938D01*
X119074262Y-83705560D01*
X118720451Y-83775938D01*
X118414328Y-83980483D01*
X118318569Y-84076242D01*
X118114023Y-84382366D01*
X118043645Y-84736177D01*
X115300000Y-84736177D01*
X115300000Y-82968410D01*
X116275878Y-82968410D01*
X116346256Y-83322220D01*
X116550802Y-83628344D01*
X116646561Y-83724103D01*
X116952685Y-83928649D01*
X117306496Y-83999027D01*
X117660306Y-83928649D01*
X117966429Y-83724103D01*
X118062188Y-83628344D01*
X118266734Y-83322220D01*
X118337112Y-82968410D01*
X119811412Y-82968410D01*
X119881790Y-83322220D01*
X120086336Y-83628344D01*
X120182095Y-83724103D01*
X120488218Y-83928649D01*
X120842029Y-83999027D01*
X121195840Y-83928649D01*
X121501963Y-83724103D01*
X121597722Y-83628344D01*
X121802268Y-83322220D01*
X121872646Y-82968410D01*
X123346946Y-82968410D01*
X123417324Y-83322220D01*
X123621870Y-83628344D01*
X123717629Y-83724103D01*
X124023752Y-83928649D01*
X124377563Y-83999027D01*
X124731373Y-83928649D01*
X125037497Y-83724103D01*
X125133256Y-83628344D01*
X125337802Y-83322220D01*
X125408180Y-82968410D01*
X126882480Y-82968410D01*
X126952858Y-83322220D01*
X127157403Y-83628344D01*
X127253163Y-83724103D01*
X127559286Y-83928649D01*
X127913097Y-83999027D01*
X128266907Y-83928649D01*
X128573031Y-83724103D01*
X128668790Y-83628344D01*
X128873336Y-83322220D01*
X128943714Y-82968410D01*
X130418014Y-82968410D01*
X130488392Y-83322220D01*
X130692937Y-83628344D01*
X130788696Y-83724103D01*
X131094820Y-83928649D01*
X131448631Y-83999027D01*
X131802441Y-83928649D01*
X132108565Y-83724103D01*
X132204324Y-83628344D01*
X132408870Y-83322220D01*
X132479248Y-82968410D01*
X133953548Y-82968410D01*
X134023926Y-83322220D01*
X134228471Y-83628344D01*
X134324230Y-83724103D01*
X134630354Y-83928649D01*
X134984165Y-83999027D01*
X135337975Y-83928649D01*
X135644099Y-83724103D01*
X135739858Y-83628344D01*
X135944404Y-83322220D01*
X136014781Y-82968410D01*
X137489082Y-82968410D01*
X137559459Y-83322220D01*
X137764005Y-83628344D01*
X137859764Y-83724103D01*
X138165888Y-83928649D01*
X138519698Y-83999027D01*
X138626000Y-83977882D01*
X138626000Y-81958937D01*
X138519699Y-81937793D01*
X138165888Y-82008171D01*
X137859764Y-82212716D01*
X137764005Y-82308475D01*
X137559459Y-82614599D01*
X137489082Y-82968410D01*
X136014781Y-82968410D01*
X135944404Y-82614599D01*
X135739858Y-82308475D01*
X135644099Y-82212716D01*
X135337975Y-82008171D01*
X134984165Y-81937793D01*
X134630354Y-82008171D01*
X134324230Y-82212716D01*
X134228471Y-82308475D01*
X134023926Y-82614599D01*
X133953548Y-82968410D01*
X132479248Y-82968410D01*
X132408870Y-82614599D01*
X132204324Y-82308475D01*
X132108565Y-82212716D01*
X131802441Y-82008171D01*
X131448631Y-81937793D01*
X131094820Y-82008171D01*
X130788696Y-82212716D01*
X130692937Y-82308475D01*
X130488392Y-82614599D01*
X130418014Y-82968410D01*
X128943714Y-82968410D01*
X128873336Y-82614599D01*
X128668790Y-82308475D01*
X128573031Y-82212716D01*
X128266907Y-82008171D01*
X127913097Y-81937793D01*
X127559286Y-82008171D01*
X127253163Y-82212716D01*
X127157403Y-82308475D01*
X126952858Y-82614599D01*
X126882480Y-82968410D01*
X125408180Y-82968410D01*
X125337802Y-82614599D01*
X125133256Y-82308475D01*
X125037497Y-82212716D01*
X124731373Y-82008171D01*
X124377563Y-81937793D01*
X124023752Y-82008171D01*
X123717629Y-82212716D01*
X123621870Y-82308475D01*
X123417324Y-82614599D01*
X123346946Y-82968410D01*
X121872646Y-82968410D01*
X121802268Y-82614599D01*
X121597722Y-82308475D01*
X121501963Y-82212716D01*
X121195840Y-82008171D01*
X120842029Y-81937793D01*
X120488218Y-82008171D01*
X120182095Y-82212716D01*
X120086336Y-82308475D01*
X119881790Y-82614599D01*
X119811412Y-82968410D01*
X118337112Y-82968410D01*
X118266734Y-82614599D01*
X118062188Y-82308475D01*
X117966429Y-82212716D01*
X117660306Y-82008171D01*
X117306496Y-81937793D01*
X116952685Y-82008171D01*
X116646561Y-82212716D01*
X116550802Y-82308475D01*
X116346256Y-82614599D01*
X116275878Y-82968410D01*
X115300000Y-82968410D01*
X115300000Y-81200643D01*
X118043645Y-81200643D01*
X118114023Y-81554453D01*
X118318569Y-81860577D01*
X118414328Y-81956336D01*
X118720451Y-82160882D01*
X119074262Y-82231260D01*
X119428073Y-82160882D01*
X119734196Y-81956336D01*
X119829955Y-81860577D01*
X120034501Y-81554453D01*
X120104879Y-81200643D01*
X121579179Y-81200643D01*
X121649557Y-81554453D01*
X121854103Y-81860577D01*
X121949862Y-81956336D01*
X122255985Y-82160882D01*
X122609796Y-82231260D01*
X122963607Y-82160882D01*
X123269730Y-81956336D01*
X123365489Y-81860577D01*
X123570035Y-81554453D01*
X123640413Y-81200643D01*
X125114713Y-81200643D01*
X125185091Y-81554453D01*
X125389637Y-81860577D01*
X125485396Y-81956336D01*
X125791519Y-82160882D01*
X126145330Y-82231260D01*
X126499140Y-82160882D01*
X126805264Y-81956336D01*
X126901023Y-81860577D01*
X127105569Y-81554453D01*
X127175947Y-81200643D01*
X128650247Y-81200643D01*
X128720625Y-81554453D01*
X128925170Y-81860577D01*
X129020929Y-81956336D01*
X129327053Y-82160882D01*
X129680864Y-82231260D01*
X130034674Y-82160882D01*
X130340798Y-81956336D01*
X130436557Y-81860577D01*
X130641103Y-81554453D01*
X130711481Y-81200643D01*
X132185781Y-81200643D01*
X132256159Y-81554453D01*
X132460704Y-81860577D01*
X132556463Y-81956336D01*
X132862587Y-82160882D01*
X133216398Y-82231260D01*
X133570208Y-82160882D01*
X133876332Y-81956336D01*
X133972091Y-81860577D01*
X134176637Y-81554453D01*
X134247014Y-81200643D01*
X135721315Y-81200643D01*
X135791692Y-81554453D01*
X135996238Y-81860577D01*
X136091997Y-81956336D01*
X136398121Y-82160882D01*
X136751932Y-82231260D01*
X137105742Y-82160882D01*
X137411866Y-81956336D01*
X137507625Y-81860577D01*
X137712171Y-81554453D01*
X137782548Y-81200643D01*
X137712171Y-80846832D01*
X137507625Y-80540708D01*
X137411866Y-80444949D01*
X137105742Y-80240404D01*
X136751932Y-80170026D01*
X136398121Y-80240404D01*
X136091997Y-80444949D01*
X135996238Y-80540708D01*
X135791692Y-80846832D01*
X135721315Y-81200643D01*
X134247014Y-81200643D01*
X134176637Y-80846832D01*
X133972091Y-80540708D01*
X133876332Y-80444949D01*
X133570208Y-80240404D01*
X133216398Y-80170026D01*
X132862587Y-80240404D01*
X132556463Y-80444949D01*
X132460704Y-80540708D01*
X132256159Y-80846832D01*
X132185781Y-81200643D01*
X130711481Y-81200643D01*
X130641103Y-80846832D01*
X130436557Y-80540708D01*
X130340798Y-80444949D01*
X130034674Y-80240404D01*
X129680864Y-80170026D01*
X129327053Y-80240404D01*
X129020929Y-80444949D01*
X128925170Y-80540708D01*
X128720625Y-80846832D01*
X128650247Y-81200643D01*
X127175947Y-81200643D01*
X127105569Y-80846832D01*
X126901023Y-80540708D01*
X126805264Y-80444949D01*
X126499140Y-80240404D01*
X126145330Y-80170026D01*
X125791519Y-80240404D01*
X125485396Y-80444949D01*
X125389637Y-80540708D01*
X125185091Y-80846832D01*
X125114713Y-81200643D01*
X123640413Y-81200643D01*
X123570035Y-80846832D01*
X123365489Y-80540708D01*
X123269730Y-80444949D01*
X122963607Y-80240404D01*
X122609796Y-80170026D01*
X122255985Y-80240404D01*
X121949862Y-80444949D01*
X121854103Y-80540708D01*
X121649557Y-80846832D01*
X121579179Y-81200643D01*
X120104879Y-81200643D01*
X120034501Y-80846832D01*
X119829955Y-80540708D01*
X119734196Y-80444949D01*
X119428073Y-80240404D01*
X119074262Y-80170026D01*
X118720451Y-80240404D01*
X118414328Y-80444949D01*
X118318569Y-80540708D01*
X118114023Y-80846832D01*
X118043645Y-81200643D01*
X115300000Y-81200643D01*
X115300000Y-79432876D01*
X116275878Y-79432876D01*
X116346256Y-79786686D01*
X116550802Y-80092810D01*
X116646561Y-80188569D01*
X116952685Y-80393115D01*
X117306496Y-80463493D01*
X117660306Y-80393115D01*
X117966429Y-80188569D01*
X118062188Y-80092810D01*
X118266734Y-79786686D01*
X118337112Y-79432876D01*
X119811412Y-79432876D01*
X119881790Y-79786686D01*
X120086336Y-80092810D01*
X120182095Y-80188569D01*
X120488218Y-80393115D01*
X120842029Y-80463493D01*
X121195840Y-80393115D01*
X121501963Y-80188569D01*
X121597722Y-80092810D01*
X121802268Y-79786686D01*
X121872646Y-79432876D01*
X123346946Y-79432876D01*
X123417324Y-79786686D01*
X123621870Y-80092810D01*
X123717629Y-80188569D01*
X124023752Y-80393115D01*
X124377563Y-80463493D01*
X124731373Y-80393115D01*
X125037497Y-80188569D01*
X125133256Y-80092810D01*
X125337802Y-79786686D01*
X125408180Y-79432876D01*
X126882480Y-79432876D01*
X126952858Y-79786686D01*
X127157403Y-80092810D01*
X127253163Y-80188569D01*
X127559286Y-80393115D01*
X127913097Y-80463493D01*
X128266907Y-80393115D01*
X128573031Y-80188569D01*
X128668790Y-80092810D01*
X128873336Y-79786686D01*
X128943714Y-79432876D01*
X130418014Y-79432876D01*
X130488392Y-79786686D01*
X130692937Y-80092810D01*
X130788696Y-80188569D01*
X131094820Y-80393115D01*
X131448631Y-80463493D01*
X131802441Y-80393115D01*
X132108565Y-80188569D01*
X132204324Y-80092810D01*
X132408870Y-79786686D01*
X132479248Y-79432876D01*
X133953548Y-79432876D01*
X134023926Y-79786686D01*
X134228471Y-80092810D01*
X134324230Y-80188569D01*
X134630354Y-80393115D01*
X134984165Y-80463493D01*
X135337975Y-80393115D01*
X135644099Y-80188569D01*
X135739858Y-80092810D01*
X135944404Y-79786686D01*
X136014781Y-79432876D01*
X137489082Y-79432876D01*
X137559459Y-79786686D01*
X137764005Y-80092810D01*
X137859764Y-80188569D01*
X138165888Y-80393115D01*
X138519698Y-80463493D01*
X138626000Y-80442348D01*
X138626000Y-78423403D01*
X138519699Y-78402259D01*
X138165888Y-78472637D01*
X137859764Y-78677183D01*
X137764005Y-78772942D01*
X137559459Y-79079065D01*
X137489082Y-79432876D01*
X136014781Y-79432876D01*
X135944404Y-79079065D01*
X135739858Y-78772942D01*
X135644099Y-78677183D01*
X135337975Y-78472637D01*
X134984165Y-78402259D01*
X134630354Y-78472637D01*
X134324230Y-78677183D01*
X134228471Y-78772942D01*
X134023926Y-79079065D01*
X133953548Y-79432876D01*
X132479248Y-79432876D01*
X132408870Y-79079065D01*
X132204324Y-78772942D01*
X132108565Y-78677183D01*
X131802441Y-78472637D01*
X131448631Y-78402259D01*
X131094820Y-78472637D01*
X130788696Y-78677183D01*
X130692937Y-78772942D01*
X130488392Y-79079065D01*
X130418014Y-79432876D01*
X128943714Y-79432876D01*
X128873336Y-79079065D01*
X128668790Y-78772942D01*
X128573031Y-78677183D01*
X128266907Y-78472637D01*
X127913097Y-78402259D01*
X127559286Y-78472637D01*
X127253163Y-78677183D01*
X127157403Y-78772942D01*
X126952858Y-79079065D01*
X126882480Y-79432876D01*
X125408180Y-79432876D01*
X125337802Y-79079065D01*
X125133256Y-78772942D01*
X125037497Y-78677183D01*
X124731373Y-78472637D01*
X124377563Y-78402259D01*
X124023752Y-78472637D01*
X123717629Y-78677183D01*
X123621870Y-78772942D01*
X123417324Y-79079065D01*
X123346946Y-79432876D01*
X121872646Y-79432876D01*
X121802268Y-79079065D01*
X121597722Y-78772942D01*
X121501963Y-78677183D01*
X121195840Y-78472637D01*
X120842029Y-78402259D01*
X120488218Y-78472637D01*
X120182095Y-78677183D01*
X120086336Y-78772942D01*
X119881790Y-79079065D01*
X119811412Y-79432876D01*
X118337112Y-79432876D01*
X118266734Y-79079065D01*
X118062188Y-78772942D01*
X117966429Y-78677183D01*
X117660306Y-78472637D01*
X117306496Y-78402259D01*
X116952685Y-78472637D01*
X116646561Y-78677183D01*
X116550802Y-78772942D01*
X116346256Y-79079065D01*
X116275878Y-79432876D01*
X115300000Y-79432876D01*
X115300000Y-77665109D01*
X118043645Y-77665109D01*
X118114023Y-78018919D01*
X118318569Y-78325043D01*
X118414328Y-78420802D01*
X118720451Y-78625348D01*
X119074262Y-78695726D01*
X119428073Y-78625348D01*
X119734196Y-78420802D01*
X119829955Y-78325043D01*
X120034501Y-78018919D01*
X120104879Y-77665109D01*
X121579179Y-77665109D01*
X121649557Y-78018919D01*
X121854103Y-78325043D01*
X121949862Y-78420802D01*
X122255985Y-78625348D01*
X122609796Y-78695726D01*
X122963607Y-78625348D01*
X123269730Y-78420802D01*
X123365489Y-78325043D01*
X123570035Y-78018919D01*
X123640413Y-77665109D01*
X125114713Y-77665109D01*
X125185091Y-78018919D01*
X125389637Y-78325043D01*
X125485396Y-78420802D01*
X125791519Y-78625348D01*
X126145330Y-78695726D01*
X126499140Y-78625348D01*
X126805264Y-78420802D01*
X126901023Y-78325043D01*
X127105569Y-78018919D01*
X127175947Y-77665109D01*
X128650247Y-77665109D01*
X128720625Y-78018919D01*
X128925170Y-78325043D01*
X129020929Y-78420802D01*
X129327053Y-78625348D01*
X129680864Y-78695726D01*
X130034674Y-78625348D01*
X130340798Y-78420802D01*
X130436557Y-78325043D01*
X130641103Y-78018919D01*
X130711481Y-77665109D01*
X132185781Y-77665109D01*
X132256159Y-78018919D01*
X132460704Y-78325043D01*
X132556463Y-78420802D01*
X132862587Y-78625348D01*
X133216398Y-78695726D01*
X133570208Y-78625348D01*
X133876332Y-78420802D01*
X133972091Y-78325043D01*
X134176637Y-78018919D01*
X134247014Y-77665109D01*
X135721315Y-77665109D01*
X135791692Y-78018919D01*
X135996238Y-78325043D01*
X136091997Y-78420802D01*
X136398121Y-78625348D01*
X136751932Y-78695726D01*
X137105742Y-78625348D01*
X137411866Y-78420802D01*
X137507625Y-78325043D01*
X137712171Y-78018919D01*
X137782548Y-77665109D01*
X137712171Y-77311298D01*
X137507625Y-77005175D01*
X137411866Y-76909416D01*
X137105742Y-76704870D01*
X136751932Y-76634492D01*
X136398121Y-76704870D01*
X136091997Y-76909416D01*
X135996238Y-77005175D01*
X135791692Y-77311298D01*
X135721315Y-77665109D01*
X134247014Y-77665109D01*
X134176637Y-77311298D01*
X133972091Y-77005175D01*
X133876332Y-76909416D01*
X133570208Y-76704870D01*
X133216398Y-76634492D01*
X132862587Y-76704870D01*
X132556463Y-76909416D01*
X132460704Y-77005175D01*
X132256159Y-77311298D01*
X132185781Y-77665109D01*
X130711481Y-77665109D01*
X130641103Y-77311298D01*
X130436557Y-77005175D01*
X130340798Y-76909416D01*
X130034674Y-76704870D01*
X129680864Y-76634492D01*
X129327053Y-76704870D01*
X129020929Y-76909416D01*
X128925170Y-77005175D01*
X128720625Y-77311298D01*
X128650247Y-77665109D01*
X127175947Y-77665109D01*
X127105569Y-77311298D01*
X126901023Y-77005175D01*
X126805264Y-76909416D01*
X126499140Y-76704870D01*
X126145330Y-76634492D01*
X125791519Y-76704870D01*
X125485396Y-76909416D01*
X125389637Y-77005175D01*
X125185091Y-77311298D01*
X125114713Y-77665109D01*
X123640413Y-77665109D01*
X123570035Y-77311298D01*
X123365489Y-77005175D01*
X123269730Y-76909416D01*
X122963607Y-76704870D01*
X122609796Y-76634492D01*
X122255985Y-76704870D01*
X121949862Y-76909416D01*
X121854103Y-77005175D01*
X121649557Y-77311298D01*
X121579179Y-77665109D01*
X120104879Y-77665109D01*
X120034501Y-77311298D01*
X119829955Y-77005175D01*
X119734196Y-76909416D01*
X119428073Y-76704870D01*
X119074262Y-76634492D01*
X118720451Y-76704870D01*
X118414328Y-76909416D01*
X118318569Y-77005175D01*
X118114023Y-77311298D01*
X118043645Y-77665109D01*
X115300000Y-77665109D01*
X115300000Y-75897342D01*
X116275878Y-75897342D01*
X116346256Y-76251152D01*
X116550802Y-76557276D01*
X116646561Y-76653035D01*
X116952685Y-76857581D01*
X117306496Y-76927959D01*
X117660306Y-76857581D01*
X117966429Y-76653035D01*
X118062188Y-76557276D01*
X118266734Y-76251152D01*
X118337112Y-75897342D01*
X119811412Y-75897342D01*
X119881790Y-76251152D01*
X120086336Y-76557276D01*
X120182095Y-76653035D01*
X120488218Y-76857581D01*
X120842029Y-76927959D01*
X121195840Y-76857581D01*
X121501963Y-76653035D01*
X121597722Y-76557276D01*
X121802268Y-76251152D01*
X121872646Y-75897342D01*
X123346946Y-75897342D01*
X123417324Y-76251152D01*
X123621870Y-76557276D01*
X123717629Y-76653035D01*
X124023752Y-76857581D01*
X124377563Y-76927959D01*
X124731373Y-76857581D01*
X125037497Y-76653035D01*
X125133256Y-76557276D01*
X125337802Y-76251152D01*
X125408180Y-75897342D01*
X126882480Y-75897342D01*
X126952858Y-76251152D01*
X127157403Y-76557276D01*
X127253163Y-76653035D01*
X127559286Y-76857581D01*
X127913097Y-76927959D01*
X128266907Y-76857581D01*
X128573031Y-76653035D01*
X128668790Y-76557276D01*
X128873336Y-76251152D01*
X128943714Y-75897342D01*
X130418014Y-75897342D01*
X130488392Y-76251152D01*
X130692937Y-76557276D01*
X130788696Y-76653035D01*
X131094820Y-76857581D01*
X131448631Y-76927959D01*
X131802441Y-76857581D01*
X132108565Y-76653035D01*
X132204324Y-76557276D01*
X132408870Y-76251152D01*
X132479248Y-75897342D01*
X133953548Y-75897342D01*
X134023926Y-76251152D01*
X134228471Y-76557276D01*
X134324230Y-76653035D01*
X134630354Y-76857581D01*
X134984165Y-76927959D01*
X135337975Y-76857581D01*
X135644099Y-76653035D01*
X135739858Y-76557276D01*
X135944404Y-76251152D01*
X136014781Y-75897342D01*
X137489082Y-75897342D01*
X137559459Y-76251152D01*
X137764005Y-76557276D01*
X137859764Y-76653035D01*
X138165888Y-76857581D01*
X138519698Y-76927959D01*
X138626000Y-76906814D01*
X138626000Y-74887869D01*
X138519699Y-74866725D01*
X138165888Y-74937103D01*
X137859764Y-75141649D01*
X137764005Y-75237408D01*
X137559459Y-75543531D01*
X137489082Y-75897342D01*
X136014781Y-75897342D01*
X135944404Y-75543531D01*
X135739858Y-75237408D01*
X135644099Y-75141649D01*
X135337975Y-74937103D01*
X134984165Y-74866725D01*
X134630354Y-74937103D01*
X134324230Y-75141649D01*
X134228471Y-75237408D01*
X134023926Y-75543531D01*
X133953548Y-75897342D01*
X132479248Y-75897342D01*
X132408870Y-75543531D01*
X132204324Y-75237408D01*
X132108565Y-75141649D01*
X131802441Y-74937103D01*
X131448631Y-74866725D01*
X131094820Y-74937103D01*
X130788696Y-75141649D01*
X130692937Y-75237408D01*
X130488392Y-75543531D01*
X130418014Y-75897342D01*
X128943714Y-75897342D01*
X128873336Y-75543531D01*
X128668790Y-75237408D01*
X128573031Y-75141649D01*
X128266907Y-74937103D01*
X127913097Y-74866725D01*
X127559286Y-74937103D01*
X127253163Y-75141649D01*
X127157403Y-75237408D01*
X126952858Y-75543531D01*
X126882480Y-75897342D01*
X125408180Y-75897342D01*
X125337802Y-75543531D01*
X125133256Y-75237408D01*
X125037497Y-75141649D01*
X124731373Y-74937103D01*
X124377563Y-74866725D01*
X124023752Y-74937103D01*
X123717629Y-75141649D01*
X123621870Y-75237408D01*
X123417324Y-75543531D01*
X123346946Y-75897342D01*
X121872646Y-75897342D01*
X121802268Y-75543531D01*
X121597722Y-75237408D01*
X121501963Y-75141649D01*
X121195840Y-74937103D01*
X120842029Y-74866725D01*
X120488218Y-74937103D01*
X120182095Y-75141649D01*
X120086336Y-75237408D01*
X119881790Y-75543531D01*
X119811412Y-75897342D01*
X118337112Y-75897342D01*
X118266734Y-75543531D01*
X118062188Y-75237408D01*
X117966429Y-75141649D01*
X117660306Y-74937103D01*
X117306496Y-74866725D01*
X116952685Y-74937103D01*
X116646561Y-75141649D01*
X116550802Y-75237408D01*
X116346256Y-75543531D01*
X116275878Y-75897342D01*
X115300000Y-75897342D01*
X115300000Y-74129575D01*
X118043645Y-74129575D01*
X118114023Y-74483386D01*
X118318569Y-74789509D01*
X118414328Y-74885268D01*
X118720451Y-75089814D01*
X119074262Y-75160192D01*
X119428073Y-75089814D01*
X119734196Y-74885268D01*
X119829955Y-74789509D01*
X120034501Y-74483386D01*
X120104879Y-74129575D01*
X121579179Y-74129575D01*
X121649557Y-74483386D01*
X121854103Y-74789509D01*
X121949862Y-74885268D01*
X122255985Y-75089814D01*
X122609796Y-75160192D01*
X122963607Y-75089814D01*
X123269730Y-74885268D01*
X123365489Y-74789509D01*
X123570035Y-74483386D01*
X123640413Y-74129575D01*
X125114713Y-74129575D01*
X125185091Y-74483386D01*
X125389637Y-74789509D01*
X125485396Y-74885268D01*
X125791519Y-75089814D01*
X126145330Y-75160192D01*
X126499140Y-75089814D01*
X126805264Y-74885268D01*
X126901023Y-74789509D01*
X127105569Y-74483386D01*
X127175947Y-74129575D01*
X128650247Y-74129575D01*
X128720625Y-74483386D01*
X128925170Y-74789509D01*
X129020929Y-74885268D01*
X129327053Y-75089814D01*
X129680864Y-75160192D01*
X130034674Y-75089814D01*
X130340798Y-74885268D01*
X130436557Y-74789509D01*
X130641103Y-74483386D01*
X130711481Y-74129575D01*
X132185781Y-74129575D01*
X132256159Y-74483386D01*
X132460704Y-74789509D01*
X132556463Y-74885268D01*
X132862587Y-75089814D01*
X133216398Y-75160192D01*
X133570208Y-75089814D01*
X133876332Y-74885268D01*
X133972091Y-74789509D01*
X134176637Y-74483386D01*
X134247014Y-74129575D01*
X135721315Y-74129575D01*
X135791692Y-74483386D01*
X135996238Y-74789509D01*
X136091997Y-74885268D01*
X136398121Y-75089814D01*
X136751932Y-75160192D01*
X137105742Y-75089814D01*
X137411866Y-74885268D01*
X137507625Y-74789509D01*
X137712171Y-74483386D01*
X137782548Y-74129575D01*
X137712171Y-73775764D01*
X137507625Y-73469641D01*
X137411866Y-73373882D01*
X137105742Y-73169336D01*
X136751932Y-73098958D01*
X136398121Y-73169336D01*
X136091997Y-73373882D01*
X135996238Y-73469641D01*
X135791692Y-73775764D01*
X135721315Y-74129575D01*
X134247014Y-74129575D01*
X134176637Y-73775764D01*
X133972091Y-73469641D01*
X133876332Y-73373882D01*
X133570208Y-73169336D01*
X133216398Y-73098958D01*
X132862587Y-73169336D01*
X132556463Y-73373882D01*
X132460704Y-73469641D01*
X132256159Y-73775764D01*
X132185781Y-74129575D01*
X130711481Y-74129575D01*
X130641103Y-73775764D01*
X130436557Y-73469641D01*
X130340798Y-73373882D01*
X130034674Y-73169336D01*
X129680864Y-73098958D01*
X129327053Y-73169336D01*
X129020929Y-73373882D01*
X128925170Y-73469641D01*
X128720625Y-73775764D01*
X128650247Y-74129575D01*
X127175947Y-74129575D01*
X127105569Y-73775764D01*
X126901023Y-73469641D01*
X126805264Y-73373882D01*
X126499140Y-73169336D01*
X126145330Y-73098958D01*
X125791519Y-73169336D01*
X125485396Y-73373882D01*
X125389637Y-73469641D01*
X125185091Y-73775764D01*
X125114713Y-74129575D01*
X123640413Y-74129575D01*
X123570035Y-73775764D01*
X123365489Y-73469641D01*
X123269730Y-73373882D01*
X122963607Y-73169336D01*
X122609796Y-73098958D01*
X122255985Y-73169336D01*
X121949862Y-73373882D01*
X121854103Y-73469641D01*
X121649557Y-73775764D01*
X121579179Y-74129575D01*
X120104879Y-74129575D01*
X120034501Y-73775764D01*
X119829955Y-73469641D01*
X119734196Y-73373882D01*
X119428073Y-73169336D01*
X119074262Y-73098958D01*
X118720451Y-73169336D01*
X118414328Y-73373882D01*
X118318569Y-73469641D01*
X118114023Y-73775764D01*
X118043645Y-74129575D01*
X115300000Y-74129575D01*
X115300000Y-72361808D01*
X116275878Y-72361808D01*
X116346256Y-72715619D01*
X116550802Y-73021742D01*
X116646561Y-73117501D01*
X116952685Y-73322047D01*
X117306496Y-73392425D01*
X117660306Y-73322047D01*
X117966429Y-73117501D01*
X118062188Y-73021742D01*
X118266734Y-72715619D01*
X118337112Y-72361808D01*
X119811412Y-72361808D01*
X119881790Y-72715619D01*
X120086336Y-73021742D01*
X120182095Y-73117501D01*
X120488218Y-73322047D01*
X120842029Y-73392425D01*
X121195840Y-73322047D01*
X121501963Y-73117501D01*
X121597722Y-73021742D01*
X121802268Y-72715619D01*
X121872646Y-72361808D01*
X123346946Y-72361808D01*
X123417324Y-72715619D01*
X123621870Y-73021742D01*
X123717629Y-73117501D01*
X124023752Y-73322047D01*
X124377563Y-73392425D01*
X124731373Y-73322047D01*
X125037497Y-73117501D01*
X125133256Y-73021742D01*
X125337802Y-72715619D01*
X125408180Y-72361808D01*
X126882480Y-72361808D01*
X126952858Y-72715619D01*
X127157403Y-73021742D01*
X127253163Y-73117501D01*
X127559286Y-73322047D01*
X127913097Y-73392425D01*
X128266907Y-73322047D01*
X128573031Y-73117501D01*
X128668790Y-73021742D01*
X128873336Y-72715619D01*
X128943714Y-72361808D01*
X130418014Y-72361808D01*
X130488392Y-72715619D01*
X130692937Y-73021742D01*
X130788696Y-73117501D01*
X131094820Y-73322047D01*
X131448631Y-73392425D01*
X131802441Y-73322047D01*
X132108565Y-73117501D01*
X132204324Y-73021742D01*
X132408870Y-72715619D01*
X132479248Y-72361808D01*
X133953548Y-72361808D01*
X134023926Y-72715619D01*
X134228471Y-73021742D01*
X134324230Y-73117501D01*
X134630354Y-73322047D01*
X134984165Y-73392425D01*
X135337975Y-73322047D01*
X135644099Y-73117501D01*
X135739858Y-73021742D01*
X135944404Y-72715619D01*
X136014781Y-72361808D01*
X137489082Y-72361808D01*
X137559459Y-72715619D01*
X137764005Y-73021742D01*
X137859764Y-73117501D01*
X138165888Y-73322047D01*
X138519698Y-73392425D01*
X138626000Y-73371280D01*
X138626000Y-71352335D01*
X138519699Y-71331191D01*
X138165888Y-71401569D01*
X137859764Y-71606115D01*
X137764005Y-71701874D01*
X137559459Y-72007997D01*
X137489082Y-72361808D01*
X136014781Y-72361808D01*
X135944404Y-72007997D01*
X135739858Y-71701874D01*
X135644099Y-71606115D01*
X135337975Y-71401569D01*
X134984165Y-71331191D01*
X134630354Y-71401569D01*
X134324230Y-71606115D01*
X134228471Y-71701874D01*
X134023926Y-72007997D01*
X133953548Y-72361808D01*
X132479248Y-72361808D01*
X132408870Y-72007997D01*
X132204324Y-71701874D01*
X132108565Y-71606115D01*
X131802441Y-71401569D01*
X131448631Y-71331191D01*
X131094820Y-71401569D01*
X130788696Y-71606115D01*
X130692937Y-71701874D01*
X130488392Y-72007997D01*
X130418014Y-72361808D01*
X128943714Y-72361808D01*
X128873336Y-72007997D01*
X128668790Y-71701874D01*
X128573031Y-71606115D01*
X128266907Y-71401569D01*
X127913097Y-71331191D01*
X127559286Y-71401569D01*
X127253163Y-71606115D01*
X127157403Y-71701874D01*
X126952858Y-72007997D01*
X126882480Y-72361808D01*
X125408180Y-72361808D01*
X125337802Y-72007997D01*
X125133256Y-71701874D01*
X125037497Y-71606115D01*
X124731373Y-71401569D01*
X124377563Y-71331191D01*
X124023752Y-71401569D01*
X123717629Y-71606115D01*
X123621870Y-71701874D01*
X123417324Y-72007997D01*
X123346946Y-72361808D01*
X121872646Y-72361808D01*
X121802268Y-72007997D01*
X121597722Y-71701874D01*
X121501963Y-71606115D01*
X121195840Y-71401569D01*
X120842029Y-71331191D01*
X120488218Y-71401569D01*
X120182095Y-71606115D01*
X120086336Y-71701874D01*
X119881790Y-72007997D01*
X119811412Y-72361808D01*
X118337112Y-72361808D01*
X118266734Y-72007997D01*
X118062188Y-71701874D01*
X117966429Y-71606115D01*
X117660306Y-71401569D01*
X117306496Y-71331191D01*
X116952685Y-71401569D01*
X116646561Y-71606115D01*
X116550802Y-71701874D01*
X116346256Y-72007997D01*
X116275878Y-72361808D01*
X115300000Y-72361808D01*
X115300000Y-70594041D01*
X118043645Y-70594041D01*
X118114023Y-70947852D01*
X118318569Y-71253975D01*
X118414328Y-71349734D01*
X118720451Y-71554280D01*
X119074262Y-71624658D01*
X119428073Y-71554280D01*
X119734196Y-71349734D01*
X119829955Y-71253975D01*
X120034501Y-70947852D01*
X120104879Y-70594041D01*
X121579179Y-70594041D01*
X121649557Y-70947852D01*
X121854103Y-71253975D01*
X121949862Y-71349734D01*
X122255985Y-71554280D01*
X122609796Y-71624658D01*
X122963607Y-71554280D01*
X123269730Y-71349734D01*
X123365489Y-71253975D01*
X123570035Y-70947852D01*
X123640413Y-70594041D01*
X125114713Y-70594041D01*
X125185091Y-70947852D01*
X125389637Y-71253975D01*
X125485396Y-71349734D01*
X125791519Y-71554280D01*
X126145330Y-71624658D01*
X126499140Y-71554280D01*
X126805264Y-71349734D01*
X126901023Y-71253975D01*
X127105569Y-70947852D01*
X127175947Y-70594041D01*
X128650247Y-70594041D01*
X128720625Y-70947852D01*
X128925170Y-71253975D01*
X129020929Y-71349734D01*
X129327053Y-71554280D01*
X129680864Y-71624658D01*
X130034674Y-71554280D01*
X130340798Y-71349734D01*
X130436557Y-71253975D01*
X130641103Y-70947852D01*
X130711481Y-70594041D01*
X132185781Y-70594041D01*
X132256159Y-70947852D01*
X132460704Y-71253975D01*
X132556463Y-71349734D01*
X132862587Y-71554280D01*
X133216398Y-71624658D01*
X133570208Y-71554280D01*
X133876332Y-71349734D01*
X133972091Y-71253975D01*
X134176637Y-70947852D01*
X134247014Y-70594041D01*
X135721315Y-70594041D01*
X135791692Y-70947852D01*
X135996238Y-71253975D01*
X136091997Y-71349734D01*
X136398121Y-71554280D01*
X136751932Y-71624658D01*
X137105742Y-71554280D01*
X137411866Y-71349734D01*
X137507625Y-71253975D01*
X137712171Y-70947852D01*
X137782548Y-70594041D01*
X137712171Y-70240230D01*
X137507625Y-69934107D01*
X137411866Y-69838348D01*
X137105742Y-69633802D01*
X136751932Y-69563424D01*
X136398121Y-69633802D01*
X136091997Y-69838348D01*
X135996238Y-69934107D01*
X135791692Y-70240230D01*
X135721315Y-70594041D01*
X134247014Y-70594041D01*
X134176637Y-70240230D01*
X133972091Y-69934107D01*
X133876332Y-69838348D01*
X133570208Y-69633802D01*
X133216398Y-69563424D01*
X132862587Y-69633802D01*
X132556463Y-69838348D01*
X132460704Y-69934107D01*
X132256159Y-70240230D01*
X132185781Y-70594041D01*
X130711481Y-70594041D01*
X130641103Y-70240230D01*
X130436557Y-69934107D01*
X130340798Y-69838348D01*
X130034674Y-69633802D01*
X129680864Y-69563424D01*
X129327053Y-69633802D01*
X129020929Y-69838348D01*
X128925170Y-69934107D01*
X128720625Y-70240230D01*
X128650247Y-70594041D01*
X127175947Y-70594041D01*
X127105569Y-70240230D01*
X126901023Y-69934107D01*
X126805264Y-69838348D01*
X126499140Y-69633802D01*
X126145330Y-69563424D01*
X125791519Y-69633802D01*
X125485396Y-69838348D01*
X125389637Y-69934107D01*
X125185091Y-70240230D01*
X125114713Y-70594041D01*
X123640413Y-70594041D01*
X123570035Y-70240230D01*
X123365489Y-69934107D01*
X123269730Y-69838348D01*
X122963607Y-69633802D01*
X122609796Y-69563424D01*
X122255985Y-69633802D01*
X121949862Y-69838348D01*
X121854103Y-69934107D01*
X121649557Y-70240230D01*
X121579179Y-70594041D01*
X120104879Y-70594041D01*
X120034501Y-70240230D01*
X119829955Y-69934107D01*
X119734196Y-69838348D01*
X119428073Y-69633802D01*
X119074262Y-69563424D01*
X118720451Y-69633802D01*
X118414328Y-69838348D01*
X118318569Y-69934107D01*
X118114023Y-70240230D01*
X118043645Y-70594041D01*
X115300000Y-70594041D01*
X115300000Y-68826275D01*
X116275878Y-68826275D01*
X116346256Y-69180085D01*
X116550802Y-69486208D01*
X116646561Y-69581967D01*
X116952685Y-69786513D01*
X117306496Y-69856891D01*
X117660306Y-69786513D01*
X117966429Y-69581967D01*
X118062188Y-69486208D01*
X118266734Y-69180085D01*
X118337112Y-68826275D01*
X119811412Y-68826275D01*
X119881790Y-69180085D01*
X120086336Y-69486208D01*
X120182095Y-69581967D01*
X120488218Y-69786513D01*
X120842029Y-69856891D01*
X121195840Y-69786513D01*
X121501963Y-69581967D01*
X121597722Y-69486208D01*
X121802268Y-69180085D01*
X121872646Y-68826275D01*
X123346946Y-68826275D01*
X123417324Y-69180085D01*
X123621870Y-69486208D01*
X123717629Y-69581967D01*
X124023752Y-69786513D01*
X124377563Y-69856891D01*
X124731373Y-69786513D01*
X125037497Y-69581967D01*
X125133256Y-69486208D01*
X125337802Y-69180085D01*
X125408180Y-68826275D01*
X126882480Y-68826275D01*
X126952858Y-69180085D01*
X127157403Y-69486208D01*
X127253163Y-69581967D01*
X127559286Y-69786513D01*
X127913097Y-69856891D01*
X128266907Y-69786513D01*
X128573031Y-69581967D01*
X128668790Y-69486208D01*
X128873336Y-69180085D01*
X128943714Y-68826275D01*
X130418014Y-68826275D01*
X130488392Y-69180085D01*
X130692937Y-69486208D01*
X130788696Y-69581967D01*
X131094820Y-69786513D01*
X131448631Y-69856891D01*
X131802441Y-69786513D01*
X132108565Y-69581967D01*
X132204324Y-69486208D01*
X132408870Y-69180085D01*
X132479248Y-68826275D01*
X133953548Y-68826275D01*
X134023926Y-69180085D01*
X134228471Y-69486208D01*
X134324230Y-69581967D01*
X134630354Y-69786513D01*
X134984165Y-69856891D01*
X135337975Y-69786513D01*
X135644099Y-69581967D01*
X135739858Y-69486208D01*
X135944404Y-69180085D01*
X136014781Y-68826275D01*
X137489082Y-68826275D01*
X137559459Y-69180085D01*
X137764005Y-69486208D01*
X137859764Y-69581967D01*
X138165888Y-69786513D01*
X138519698Y-69856891D01*
X138626000Y-69835746D01*
X138626000Y-67816801D01*
X138519699Y-67795657D01*
X138165888Y-67866035D01*
X137859764Y-68070581D01*
X137764005Y-68166340D01*
X137559459Y-68472464D01*
X137489082Y-68826275D01*
X136014781Y-68826275D01*
X135944404Y-68472464D01*
X135739858Y-68166340D01*
X135644099Y-68070581D01*
X135337975Y-67866035D01*
X134984165Y-67795657D01*
X134630354Y-67866035D01*
X134324230Y-68070581D01*
X134228471Y-68166340D01*
X134023926Y-68472464D01*
X133953548Y-68826275D01*
X132479248Y-68826275D01*
X132408870Y-68472464D01*
X132204324Y-68166340D01*
X132108565Y-68070581D01*
X131802441Y-67866035D01*
X131448631Y-67795657D01*
X131094820Y-67866035D01*
X130788696Y-68070581D01*
X130692937Y-68166340D01*
X130488392Y-68472464D01*
X130418014Y-68826275D01*
X128943714Y-68826275D01*
X128873336Y-68472464D01*
X128668790Y-68166340D01*
X128573031Y-68070581D01*
X128266907Y-67866035D01*
X127913097Y-67795657D01*
X127559286Y-67866035D01*
X127253163Y-68070581D01*
X127157403Y-68166340D01*
X126952858Y-68472464D01*
X126882480Y-68826275D01*
X125408180Y-68826275D01*
X125337802Y-68472464D01*
X125133256Y-68166340D01*
X125037497Y-68070581D01*
X124731373Y-67866035D01*
X124377563Y-67795657D01*
X124023752Y-67866035D01*
X123717629Y-68070581D01*
X123621870Y-68166340D01*
X123417324Y-68472464D01*
X123346946Y-68826275D01*
X121872646Y-68826275D01*
X121802268Y-68472464D01*
X121597722Y-68166340D01*
X121501963Y-68070581D01*
X121195840Y-67866035D01*
X120842029Y-67795657D01*
X120488218Y-67866035D01*
X120182095Y-68070581D01*
X120086336Y-68166340D01*
X119881790Y-68472464D01*
X119811412Y-68826275D01*
X118337112Y-68826275D01*
X118266734Y-68472464D01*
X118062188Y-68166340D01*
X117966429Y-68070581D01*
X117660306Y-67866035D01*
X117306496Y-67795657D01*
X116952685Y-67866035D01*
X116646561Y-68070581D01*
X116550802Y-68166340D01*
X116346256Y-68472464D01*
X116275878Y-68826275D01*
X115300000Y-68826275D01*
X115300000Y-67058508D01*
X118043645Y-67058508D01*
X118114023Y-67412318D01*
X118318569Y-67718441D01*
X118414328Y-67814200D01*
X118720451Y-68018746D01*
X119074262Y-68089124D01*
X119428073Y-68018746D01*
X119734196Y-67814200D01*
X119829955Y-67718441D01*
X120034501Y-67412318D01*
X120104879Y-67058508D01*
X121579179Y-67058508D01*
X121649557Y-67412318D01*
X121854103Y-67718441D01*
X121949862Y-67814200D01*
X122255985Y-68018746D01*
X122609796Y-68089124D01*
X122963607Y-68018746D01*
X123269730Y-67814200D01*
X123365489Y-67718441D01*
X123570035Y-67412318D01*
X123640413Y-67058508D01*
X125114713Y-67058508D01*
X125185091Y-67412318D01*
X125389637Y-67718441D01*
X125485396Y-67814200D01*
X125791519Y-68018746D01*
X126145330Y-68089124D01*
X126499140Y-68018746D01*
X126805264Y-67814200D01*
X126901023Y-67718441D01*
X127105569Y-67412318D01*
X127175947Y-67058508D01*
X128650247Y-67058508D01*
X128720625Y-67412318D01*
X128925170Y-67718441D01*
X129020929Y-67814200D01*
X129327053Y-68018746D01*
X129680864Y-68089124D01*
X130034674Y-68018746D01*
X130340798Y-67814200D01*
X130436557Y-67718441D01*
X130641103Y-67412318D01*
X130711481Y-67058508D01*
X132185781Y-67058508D01*
X132256159Y-67412318D01*
X132460704Y-67718441D01*
X132556463Y-67814200D01*
X132862587Y-68018746D01*
X133216398Y-68089124D01*
X133570208Y-68018746D01*
X133876332Y-67814200D01*
X133972091Y-67718441D01*
X134176637Y-67412318D01*
X134247014Y-67058508D01*
X135721315Y-67058508D01*
X135791692Y-67412318D01*
X135996238Y-67718441D01*
X136091997Y-67814200D01*
X136398121Y-68018746D01*
X136751932Y-68089124D01*
X137105742Y-68018746D01*
X137411866Y-67814200D01*
X137507625Y-67718441D01*
X137712171Y-67412318D01*
X137782548Y-67058508D01*
X137712171Y-66704697D01*
X137507625Y-66398573D01*
X137411866Y-66302814D01*
X137105742Y-66098268D01*
X136751932Y-66027890D01*
X136398121Y-66098268D01*
X136091997Y-66302814D01*
X135996238Y-66398573D01*
X135791692Y-66704697D01*
X135721315Y-67058508D01*
X134247014Y-67058508D01*
X134176637Y-66704697D01*
X133972091Y-66398573D01*
X133876332Y-66302814D01*
X133570208Y-66098268D01*
X133216398Y-66027890D01*
X132862587Y-66098268D01*
X132556463Y-66302814D01*
X132460704Y-66398573D01*
X132256159Y-66704697D01*
X132185781Y-67058508D01*
X130711481Y-67058508D01*
X130641103Y-66704697D01*
X130436557Y-66398573D01*
X130340798Y-66302814D01*
X130034674Y-66098268D01*
X129680864Y-66027890D01*
X129327053Y-66098268D01*
X129020929Y-66302814D01*
X128925170Y-66398573D01*
X128720625Y-66704697D01*
X128650247Y-67058508D01*
X127175947Y-67058508D01*
X127105569Y-66704697D01*
X126901023Y-66398573D01*
X126805264Y-66302814D01*
X126499140Y-66098268D01*
X126145330Y-66027890D01*
X125791519Y-66098268D01*
X125485396Y-66302814D01*
X125389637Y-66398573D01*
X125185091Y-66704697D01*
X125114713Y-67058508D01*
X123640413Y-67058508D01*
X123570035Y-66704697D01*
X123365489Y-66398573D01*
X123269730Y-66302814D01*
X122963607Y-66098268D01*
X122609796Y-66027890D01*
X122255985Y-66098268D01*
X121949862Y-66302814D01*
X121854103Y-66398573D01*
X121649557Y-66704697D01*
X121579179Y-67058508D01*
X120104879Y-67058508D01*
X120034501Y-66704697D01*
X119829955Y-66398573D01*
X119734196Y-66302814D01*
X119428073Y-66098268D01*
X119074262Y-66027890D01*
X118720451Y-66098268D01*
X118414328Y-66302814D01*
X118318569Y-66398573D01*
X118114023Y-66704697D01*
X118043645Y-67058508D01*
X115300000Y-67058508D01*
X115300000Y-65290741D01*
X116275878Y-65290741D01*
X116346256Y-65644551D01*
X116550802Y-65950674D01*
X116646561Y-66046434D01*
X116952685Y-66250979D01*
X117306496Y-66321357D01*
X117660306Y-66250979D01*
X117966429Y-66046434D01*
X118062188Y-65950674D01*
X118266734Y-65644551D01*
X118337112Y-65290741D01*
X119811412Y-65290741D01*
X119881790Y-65644551D01*
X120086336Y-65950674D01*
X120182095Y-66046434D01*
X120488218Y-66250979D01*
X120842029Y-66321357D01*
X121195840Y-66250979D01*
X121501963Y-66046434D01*
X121597722Y-65950674D01*
X121802268Y-65644551D01*
X121872646Y-65290741D01*
X123346946Y-65290741D01*
X123417324Y-65644551D01*
X123621870Y-65950674D01*
X123717629Y-66046434D01*
X124023752Y-66250979D01*
X124377563Y-66321357D01*
X124731373Y-66250979D01*
X125037497Y-66046434D01*
X125133256Y-65950674D01*
X125337802Y-65644551D01*
X125408180Y-65290741D01*
X126882480Y-65290741D01*
X126952858Y-65644551D01*
X127157403Y-65950674D01*
X127253163Y-66046434D01*
X127559286Y-66250979D01*
X127913097Y-66321357D01*
X128266907Y-66250979D01*
X128573031Y-66046434D01*
X128668790Y-65950674D01*
X128873336Y-65644551D01*
X128943714Y-65290741D01*
X130418014Y-65290741D01*
X130488392Y-65644551D01*
X130692937Y-65950674D01*
X130788696Y-66046434D01*
X131094820Y-66250979D01*
X131448631Y-66321357D01*
X131802441Y-66250979D01*
X132108565Y-66046434D01*
X132204324Y-65950674D01*
X132408870Y-65644551D01*
X132479248Y-65290741D01*
X133953548Y-65290741D01*
X134023926Y-65644551D01*
X134228471Y-65950674D01*
X134324230Y-66046434D01*
X134630354Y-66250979D01*
X134984165Y-66321357D01*
X135337975Y-66250979D01*
X135644099Y-66046434D01*
X135739858Y-65950674D01*
X135944404Y-65644551D01*
X136014781Y-65290741D01*
X137489082Y-65290741D01*
X137559459Y-65644551D01*
X137764005Y-65950674D01*
X137859764Y-66046434D01*
X138165888Y-66250979D01*
X138519698Y-66321357D01*
X138626000Y-66300212D01*
X138626000Y-64281267D01*
X138519699Y-64260123D01*
X138165888Y-64330501D01*
X137859764Y-64535047D01*
X137764005Y-64630806D01*
X137559459Y-64936930D01*
X137489082Y-65290741D01*
X136014781Y-65290741D01*
X135944404Y-64936930D01*
X135739858Y-64630806D01*
X135644099Y-64535047D01*
X135337975Y-64330501D01*
X134984165Y-64260123D01*
X134630354Y-64330501D01*
X134324230Y-64535047D01*
X134228471Y-64630806D01*
X134023926Y-64936930D01*
X133953548Y-65290741D01*
X132479248Y-65290741D01*
X132408870Y-64936930D01*
X132204324Y-64630806D01*
X132108565Y-64535047D01*
X131802441Y-64330501D01*
X131448631Y-64260123D01*
X131094820Y-64330501D01*
X130788696Y-64535047D01*
X130692937Y-64630806D01*
X130488392Y-64936930D01*
X130418014Y-65290741D01*
X128943714Y-65290741D01*
X128873336Y-64936930D01*
X128668790Y-64630806D01*
X128573031Y-64535047D01*
X128266907Y-64330501D01*
X127913097Y-64260123D01*
X127559286Y-64330501D01*
X127253163Y-64535047D01*
X127157403Y-64630806D01*
X126952858Y-64936930D01*
X126882480Y-65290741D01*
X125408180Y-65290741D01*
X125337802Y-64936930D01*
X125133256Y-64630806D01*
X125037497Y-64535047D01*
X124731373Y-64330501D01*
X124377563Y-64260123D01*
X124023752Y-64330501D01*
X123717629Y-64535047D01*
X123621870Y-64630806D01*
X123417324Y-64936930D01*
X123346946Y-65290741D01*
X121872646Y-65290741D01*
X121802268Y-64936930D01*
X121597722Y-64630806D01*
X121501963Y-64535047D01*
X121195840Y-64330501D01*
X120842029Y-64260123D01*
X120488218Y-64330501D01*
X120182095Y-64535047D01*
X120086336Y-64630806D01*
X119881790Y-64936930D01*
X119811412Y-65290741D01*
X118337112Y-65290741D01*
X118266734Y-64936930D01*
X118062188Y-64630806D01*
X117966429Y-64535047D01*
X117660306Y-64330501D01*
X117306496Y-64260123D01*
X116952685Y-64330501D01*
X116646561Y-64535047D01*
X116550802Y-64630806D01*
X116346256Y-64936930D01*
X116275878Y-65290741D01*
X115300000Y-65290741D01*
X115300000Y-63522974D01*
X118043645Y-63522974D01*
X118114023Y-63876784D01*
X118318569Y-64182908D01*
X118414328Y-64278667D01*
X118720451Y-64483212D01*
X119074262Y-64553590D01*
X119428073Y-64483212D01*
X119734196Y-64278667D01*
X119829955Y-64182908D01*
X120034501Y-63876784D01*
X120104879Y-63522974D01*
X121579179Y-63522974D01*
X121649557Y-63876784D01*
X121854103Y-64182908D01*
X121949862Y-64278667D01*
X122255985Y-64483212D01*
X122609796Y-64553590D01*
X122963607Y-64483212D01*
X123269730Y-64278667D01*
X123365489Y-64182908D01*
X123570035Y-63876784D01*
X123640413Y-63522974D01*
X125114713Y-63522974D01*
X125185091Y-63876784D01*
X125389637Y-64182908D01*
X125485396Y-64278667D01*
X125791519Y-64483212D01*
X126145330Y-64553590D01*
X126499140Y-64483212D01*
X126805264Y-64278667D01*
X126901023Y-64182908D01*
X127105569Y-63876784D01*
X127175947Y-63522974D01*
X128650247Y-63522974D01*
X128720625Y-63876784D01*
X128925170Y-64182908D01*
X129020929Y-64278667D01*
X129327053Y-64483212D01*
X129680864Y-64553590D01*
X130034674Y-64483212D01*
X130340798Y-64278667D01*
X130436557Y-64182908D01*
X130641103Y-63876784D01*
X130711481Y-63522974D01*
X132185781Y-63522974D01*
X132256159Y-63876784D01*
X132460704Y-64182908D01*
X132556463Y-64278667D01*
X132862587Y-64483212D01*
X133216398Y-64553590D01*
X133570208Y-64483212D01*
X133876332Y-64278667D01*
X133972091Y-64182908D01*
X134176637Y-63876783D01*
X134207892Y-63719651D01*
X133019718Y-62531477D01*
X132862587Y-62562734D01*
X132556463Y-62767280D01*
X132460704Y-62863039D01*
X132256159Y-63169163D01*
X132185781Y-63522974D01*
X130711481Y-63522974D01*
X130641103Y-63169163D01*
X130436557Y-62863039D01*
X130340798Y-62767280D01*
X130034674Y-62562734D01*
X129680864Y-62492356D01*
X129327053Y-62562734D01*
X129020929Y-62767280D01*
X128925170Y-62863039D01*
X128720625Y-63169163D01*
X128650247Y-63522974D01*
X127175947Y-63522974D01*
X127105569Y-63169163D01*
X126901023Y-62863039D01*
X126805264Y-62767280D01*
X126499140Y-62562734D01*
X126145330Y-62492356D01*
X125791519Y-62562734D01*
X125485396Y-62767280D01*
X125389637Y-62863039D01*
X125185091Y-63169163D01*
X125114713Y-63522974D01*
X123640413Y-63522974D01*
X123570035Y-63169163D01*
X123365489Y-62863039D01*
X123269730Y-62767280D01*
X122963607Y-62562734D01*
X122609796Y-62492356D01*
X122255985Y-62562734D01*
X121949862Y-62767280D01*
X121854103Y-62863039D01*
X121649557Y-63169163D01*
X121579179Y-63522974D01*
X120104879Y-63522974D01*
X120034501Y-63169163D01*
X119829955Y-62863039D01*
X119734196Y-62767280D01*
X119428073Y-62562734D01*
X119074262Y-62492356D01*
X118720451Y-62562734D01*
X118414328Y-62767280D01*
X118318569Y-62863039D01*
X118114023Y-63169163D01*
X118043645Y-63522974D01*
X115300000Y-63522974D01*
X115300000Y-61755207D01*
X116275878Y-61755207D01*
X116346256Y-62109017D01*
X116550802Y-62415141D01*
X116646561Y-62510900D01*
X116952685Y-62715445D01*
X117306496Y-62785823D01*
X117660306Y-62715445D01*
X117966429Y-62510900D01*
X118062188Y-62415141D01*
X118266734Y-62109017D01*
X118337112Y-61755207D01*
X119811412Y-61755207D01*
X119881790Y-62109017D01*
X120086336Y-62415141D01*
X120182095Y-62510900D01*
X120488218Y-62715445D01*
X120842029Y-62785823D01*
X121195840Y-62715445D01*
X121501963Y-62510900D01*
X121597722Y-62415141D01*
X121802268Y-62109017D01*
X121872646Y-61755207D01*
X123346946Y-61755207D01*
X123417324Y-62109017D01*
X123621870Y-62415141D01*
X123717629Y-62510900D01*
X124023752Y-62715445D01*
X124377563Y-62785823D01*
X124731373Y-62715445D01*
X125037497Y-62510900D01*
X125133256Y-62415141D01*
X125337802Y-62109017D01*
X125408180Y-61755207D01*
X126882480Y-61755207D01*
X126952858Y-62109017D01*
X127157403Y-62415141D01*
X127253163Y-62510900D01*
X127559286Y-62715445D01*
X127913097Y-62785823D01*
X128266907Y-62715445D01*
X128573031Y-62510900D01*
X128668790Y-62415141D01*
X128873336Y-62109017D01*
X128943714Y-61755207D01*
X130418014Y-61755207D01*
X130488392Y-62109017D01*
X130692937Y-62415141D01*
X130788696Y-62510900D01*
X131094820Y-62715445D01*
X131448631Y-62785823D01*
X131802441Y-62715445D01*
X132108565Y-62510900D01*
X132204324Y-62415141D01*
X132408870Y-62109016D01*
X132440125Y-61951884D01*
X131723794Y-61235553D01*
X131707753Y-61211545D01*
X131631633Y-61027774D01*
X131626000Y-60999456D01*
X131626000Y-60759870D01*
X131448631Y-60724589D01*
X131094820Y-60794967D01*
X130788696Y-60999513D01*
X130692937Y-61095272D01*
X130488392Y-61401396D01*
X130418014Y-61755207D01*
X128943714Y-61755207D01*
X128873336Y-61401396D01*
X128668790Y-61095272D01*
X128573031Y-60999513D01*
X128266907Y-60794967D01*
X127913097Y-60724589D01*
X127559286Y-60794967D01*
X127253163Y-60999513D01*
X127157403Y-61095272D01*
X126952858Y-61401396D01*
X126882480Y-61755207D01*
X125408180Y-61755207D01*
X125337802Y-61401396D01*
X125133256Y-61095272D01*
X125037497Y-60999513D01*
X124731373Y-60794967D01*
X124377563Y-60724589D01*
X124023752Y-60794967D01*
X123717629Y-60999513D01*
X123621870Y-61095272D01*
X123417324Y-61401396D01*
X123346946Y-61755207D01*
X121872646Y-61755207D01*
X121802268Y-61401396D01*
X121597722Y-61095272D01*
X121501963Y-60999513D01*
X121195840Y-60794967D01*
X120842029Y-60724589D01*
X120488218Y-60794967D01*
X120182095Y-60999513D01*
X120086336Y-61095272D01*
X119881790Y-61401396D01*
X119811412Y-61755207D01*
X118337112Y-61755207D01*
X118266734Y-61401396D01*
X118062188Y-61095272D01*
X117966429Y-60999513D01*
X117660306Y-60794967D01*
X117306496Y-60724589D01*
X116952685Y-60794967D01*
X116646561Y-60999513D01*
X116550802Y-61095272D01*
X116346256Y-61401396D01*
X116275878Y-61755207D01*
X115300000Y-61755207D01*
X115300000Y-59987440D01*
X118043645Y-59987440D01*
X118114023Y-60341250D01*
X118318569Y-60647374D01*
X118414328Y-60743133D01*
X118720451Y-60947678D01*
X119074262Y-61018056D01*
X119428073Y-60947678D01*
X119734196Y-60743133D01*
X119829955Y-60647374D01*
X120034501Y-60341250D01*
X120104879Y-59987440D01*
X121579179Y-59987440D01*
X121649557Y-60341250D01*
X121854103Y-60647374D01*
X121949862Y-60743133D01*
X122255985Y-60947678D01*
X122609796Y-61018056D01*
X122963607Y-60947678D01*
X123269730Y-60743133D01*
X123365489Y-60647374D01*
X123570035Y-60341250D01*
X123640413Y-59987440D01*
X125114713Y-59987440D01*
X125185091Y-60341250D01*
X125389637Y-60647374D01*
X125485396Y-60743133D01*
X125791519Y-60947678D01*
X126145330Y-61018056D01*
X126499140Y-60947678D01*
X126805264Y-60743133D01*
X126901023Y-60647374D01*
X127105569Y-60341250D01*
X127175947Y-59987440D01*
X128650247Y-59987440D01*
X128720625Y-60341250D01*
X128925170Y-60647374D01*
X129020929Y-60743133D01*
X129327053Y-60947678D01*
X129680864Y-61018056D01*
X130034674Y-60947678D01*
X130340798Y-60743133D01*
X130436557Y-60647374D01*
X130641103Y-60341250D01*
X130711481Y-59987440D01*
X130641103Y-59633629D01*
X130436557Y-59327505D01*
X130340798Y-59231746D01*
X130034674Y-59027200D01*
X129680864Y-58956823D01*
X129327053Y-59027200D01*
X129020929Y-59231746D01*
X128925170Y-59327505D01*
X128720625Y-59633629D01*
X128650247Y-59987440D01*
X127175947Y-59987440D01*
X127105569Y-59633629D01*
X126901023Y-59327505D01*
X126805264Y-59231746D01*
X126499140Y-59027200D01*
X126145330Y-58956823D01*
X125791519Y-59027200D01*
X125485396Y-59231746D01*
X125389637Y-59327505D01*
X125185091Y-59633629D01*
X125114713Y-59987440D01*
X123640413Y-59987440D01*
X123570035Y-59633629D01*
X123365489Y-59327505D01*
X123269730Y-59231746D01*
X122963607Y-59027200D01*
X122609796Y-58956823D01*
X122255985Y-59027200D01*
X121949862Y-59231746D01*
X121854103Y-59327505D01*
X121649557Y-59633629D01*
X121579179Y-59987440D01*
X120104879Y-59987440D01*
X120034501Y-59633629D01*
X119829955Y-59327505D01*
X119734196Y-59231746D01*
X119428073Y-59027200D01*
X119074262Y-58956823D01*
X118720451Y-59027200D01*
X118414328Y-59231746D01*
X118318569Y-59327505D01*
X118114023Y-59633629D01*
X118043645Y-59987440D01*
X115300000Y-59987440D01*
X115300000Y-59508124D01*
X115301762Y-59492071D01*
X115496732Y-58614702D01*
X115508754Y-58587743D01*
X115614308Y-58439968D01*
X116319697Y-58439968D01*
X116346256Y-58573483D01*
X116550802Y-58879607D01*
X116646561Y-58975366D01*
X116952685Y-59179911D01*
X117306496Y-59250289D01*
X117660306Y-59179911D01*
X117966429Y-58975366D01*
X118062188Y-58879607D01*
X118266734Y-58573483D01*
X118337112Y-58219673D01*
X119811412Y-58219673D01*
X119881790Y-58573483D01*
X120086336Y-58879607D01*
X120182095Y-58975366D01*
X120488218Y-59179911D01*
X120842029Y-59250289D01*
X121195840Y-59179911D01*
X121501963Y-58975366D01*
X121597722Y-58879607D01*
X121802268Y-58573483D01*
X121872646Y-58219673D01*
X123346946Y-58219673D01*
X123417324Y-58573483D01*
X123621870Y-58879607D01*
X123717629Y-58975366D01*
X124023752Y-59179911D01*
X124377563Y-59250289D01*
X124731373Y-59179911D01*
X125037497Y-58975366D01*
X125133256Y-58879607D01*
X125337802Y-58573483D01*
X125408180Y-58219673D01*
X126882480Y-58219673D01*
X126952858Y-58573483D01*
X127157403Y-58879607D01*
X127253163Y-58975366D01*
X127559286Y-59179911D01*
X127913097Y-59250289D01*
X128266907Y-59179911D01*
X128573031Y-58975366D01*
X128668790Y-58879607D01*
X128873336Y-58573483D01*
X128943714Y-58219673D01*
X130418014Y-58219673D01*
X130488392Y-58573483D01*
X130692937Y-58879607D01*
X130788696Y-58975366D01*
X131094820Y-59179911D01*
X131448630Y-59250289D01*
X131626000Y-59215007D01*
X131626000Y-57674000D01*
X130616591Y-57674000D01*
X130488392Y-57865862D01*
X130418014Y-58219673D01*
X128943714Y-58219673D01*
X128873336Y-57865862D01*
X128745138Y-57674000D01*
X127081057Y-57674000D01*
X126952858Y-57865862D01*
X126882480Y-58219673D01*
X125408180Y-58219673D01*
X125337802Y-57865862D01*
X125209604Y-57674000D01*
X123545523Y-57674000D01*
X123417324Y-57865862D01*
X123346946Y-58219673D01*
X121872646Y-58219673D01*
X121802268Y-57865862D01*
X121674070Y-57674000D01*
X120009989Y-57674000D01*
X119881790Y-57865862D01*
X119811412Y-58219673D01*
X118337112Y-58219673D01*
X118266734Y-57865862D01*
X118138536Y-57674000D01*
X117856836Y-57674000D01*
X117040240Y-57837318D01*
X116415456Y-58305906D01*
X116319697Y-58439968D01*
X115614308Y-58439968D01*
X115993344Y-57909317D01*
X116009160Y-57893129D01*
X116786571Y-57310071D01*
X116816458Y-57296708D01*
X117792815Y-57101437D01*
X117807328Y-57100000D01*
X132126000Y-57100000D01*
X132178326Y-57121674D01*
G37*
M02*
