%TF.GenerationSoftware,KiCad,Pcbnew,9.0.7*%
%TF.CreationDate,2026-05-24T23:03:32-04:00*%
%TF.ProjectId,POV-card-v1,504f562d-6361-4726-942d-76312e6b6963,rev?*%
%TF.SameCoordinates,Original*%
%TF.FileFunction,Legend,Bot*%
%TF.FilePolarity,Positive*%
%FSLAX46Y46*%
G04 Gerber Fmt 4.6, Leading zero omitted, Abs format (unit mm)*
G04 Created by KiCad (PCBNEW 9.0.7) date 2026-05-24 23:03:32*
%MOMM*%
%LPD*%
G01*
G04 APERTURE LIST*
%ADD10C,0.000000*%
%ADD11C,0.150000*%
G04 APERTURE END LIST*
D10*
G36*
X159744495Y-124715449D02*
G01*
X159827809Y-124718320D01*
X159905759Y-124722134D01*
X159978690Y-124726972D01*
X160046946Y-124732912D01*
X160110873Y-124740035D01*
X160170815Y-124748419D01*
X160227119Y-124758145D01*
X160280129Y-124769292D01*
X160330190Y-124781939D01*
X160377647Y-124796167D01*
X160422845Y-124812055D01*
X160466131Y-124829682D01*
X160507847Y-124849128D01*
X160548341Y-124870473D01*
X160587956Y-124893797D01*
X160627039Y-124919178D01*
X160657592Y-124941136D01*
X160687188Y-124964835D01*
X160715778Y-124990201D01*
X160743316Y-125017163D01*
X160769751Y-125045649D01*
X160795037Y-125075587D01*
X160819126Y-125106905D01*
X160841968Y-125139529D01*
X160863516Y-125173389D01*
X160883722Y-125208413D01*
X160902538Y-125244527D01*
X160919916Y-125281660D01*
X160935807Y-125319740D01*
X160950163Y-125358694D01*
X160962937Y-125398452D01*
X160974079Y-125438939D01*
X160982469Y-125478421D01*
X160988876Y-125533298D01*
X160996805Y-125757887D01*
X161000000Y-126250000D01*
X161000590Y-127146930D01*
X161000590Y-128749921D01*
X160968285Y-128867423D01*
X160960302Y-128895365D01*
X160951981Y-128922325D01*
X160943297Y-128948353D01*
X160934224Y-128973501D01*
X160924734Y-128997819D01*
X160914802Y-129021360D01*
X160904401Y-129044174D01*
X160893506Y-129066313D01*
X160882089Y-129087828D01*
X160870126Y-129108769D01*
X160857588Y-129129190D01*
X160844451Y-129149139D01*
X160830688Y-129168670D01*
X160816272Y-129187832D01*
X160801178Y-129206678D01*
X160785379Y-129225258D01*
X160753994Y-129259180D01*
X160720740Y-129291362D01*
X160685634Y-129321797D01*
X160648696Y-129350473D01*
X160609947Y-129377384D01*
X160569404Y-129402519D01*
X160527089Y-129425871D01*
X160483019Y-129447429D01*
X160437215Y-129467185D01*
X160389696Y-129485130D01*
X160340482Y-129501255D01*
X160289591Y-129515551D01*
X160237043Y-129528009D01*
X160182858Y-129538621D01*
X160127056Y-129547376D01*
X160069654Y-129554267D01*
X160043063Y-129556467D01*
X160007624Y-129558594D01*
X159916345Y-129562428D01*
X159808104Y-129565357D01*
X159695190Y-129566968D01*
X159425712Y-129568925D01*
X159425712Y-129158054D01*
X159425712Y-128747182D01*
X159599450Y-128738980D01*
X159636119Y-128736993D01*
X159669656Y-128734598D01*
X159700269Y-128731718D01*
X159728164Y-128728273D01*
X159741157Y-128726315D01*
X159753548Y-128724185D01*
X159765363Y-128721875D01*
X159776627Y-128719375D01*
X159787367Y-128716674D01*
X159797609Y-128713763D01*
X159807378Y-128710631D01*
X159816700Y-128707270D01*
X159825600Y-128703669D01*
X159834106Y-128699818D01*
X159842242Y-128695708D01*
X159850035Y-128691328D01*
X159857510Y-128686669D01*
X159864693Y-128681721D01*
X159871610Y-128676474D01*
X159878287Y-128670918D01*
X159884750Y-128665043D01*
X159891024Y-128658839D01*
X159897135Y-128652297D01*
X159903110Y-128645407D01*
X159908974Y-128638158D01*
X159914752Y-128630541D01*
X159920472Y-128622546D01*
X159926158Y-128614163D01*
X159964667Y-128555968D01*
X159964667Y-127140950D01*
X159964667Y-125725932D01*
X159930775Y-125675873D01*
X159919201Y-125659585D01*
X159907461Y-125644829D01*
X159895338Y-125631526D01*
X159882620Y-125619593D01*
X159869092Y-125608953D01*
X159854538Y-125599523D01*
X159838744Y-125591224D01*
X159821497Y-125583976D01*
X159802581Y-125577699D01*
X159781782Y-125572312D01*
X159758885Y-125567735D01*
X159733676Y-125563887D01*
X159705941Y-125560689D01*
X159675464Y-125558061D01*
X159642032Y-125555921D01*
X159605430Y-125554191D01*
X159425712Y-125546915D01*
X159425712Y-125126691D01*
X159425712Y-124706466D01*
X159744495Y-124715449D01*
G37*
G36*
X159131733Y-125126850D02*
G01*
X159131733Y-125547219D01*
X158953245Y-125553820D01*
X158906051Y-125556086D01*
X158863197Y-125559335D01*
X158824448Y-125563723D01*
X158806540Y-125566392D01*
X158789569Y-125569404D01*
X158773507Y-125572779D01*
X158758323Y-125576535D01*
X158743989Y-125580692D01*
X158730475Y-125585270D01*
X158717751Y-125590288D01*
X158705788Y-125595765D01*
X158694557Y-125601721D01*
X158684028Y-125608174D01*
X158674172Y-125615146D01*
X158664958Y-125622654D01*
X158656358Y-125630719D01*
X158648343Y-125639359D01*
X158640882Y-125648595D01*
X158633946Y-125658445D01*
X158627507Y-125668929D01*
X158621533Y-125680066D01*
X158615997Y-125691876D01*
X158610867Y-125704379D01*
X158606116Y-125717593D01*
X158601713Y-125731537D01*
X158597629Y-125746233D01*
X158593834Y-125761698D01*
X158586996Y-125795015D01*
X158580351Y-125938017D01*
X158575514Y-126247667D01*
X158571359Y-127144577D01*
X158574725Y-128041082D01*
X158579289Y-128350226D01*
X158585805Y-128492521D01*
X158592811Y-128525935D01*
X158600958Y-128556267D01*
X158610470Y-128583664D01*
X158621569Y-128608272D01*
X158627782Y-128619576D01*
X158634476Y-128630238D01*
X158641678Y-128640277D01*
X158649415Y-128649710D01*
X158657715Y-128658556D01*
X158666607Y-128666834D01*
X158676118Y-128674562D01*
X158686275Y-128681758D01*
X158697107Y-128688440D01*
X158708642Y-128694627D01*
X158720907Y-128700338D01*
X158733929Y-128705590D01*
X158762359Y-128714793D01*
X158794155Y-128722382D01*
X158829538Y-128728506D01*
X158868731Y-128733310D01*
X158911956Y-128736942D01*
X158959436Y-128739549D01*
X159131733Y-128746998D01*
X159131733Y-129159906D01*
X159131733Y-129572815D01*
X158792259Y-129565181D01*
X158662920Y-129561541D01*
X158606235Y-129559258D01*
X158554221Y-129556573D01*
X158506391Y-129553413D01*
X158462257Y-129549709D01*
X158421331Y-129545389D01*
X158383124Y-129540383D01*
X158347148Y-129534620D01*
X158312916Y-129528029D01*
X158279940Y-129520539D01*
X158247731Y-129512080D01*
X158215800Y-129502579D01*
X158183661Y-129491968D01*
X158150825Y-129480174D01*
X158116804Y-129467127D01*
X158065388Y-129445312D01*
X158016446Y-129421327D01*
X157969950Y-129395141D01*
X157925872Y-129366720D01*
X157884182Y-129336031D01*
X157844853Y-129303041D01*
X157807857Y-129267717D01*
X157773163Y-129230026D01*
X157740745Y-129189934D01*
X157710574Y-129147410D01*
X157682621Y-129102420D01*
X157656858Y-129054931D01*
X157633257Y-129004909D01*
X157611788Y-128952323D01*
X157592424Y-128897139D01*
X157575136Y-128839324D01*
X157542857Y-128721928D01*
X157542857Y-127153928D01*
X157542857Y-125585928D01*
X157576393Y-125452935D01*
X157596617Y-125381421D01*
X157620250Y-125313881D01*
X157647352Y-125250260D01*
X157677988Y-125190499D01*
X157712220Y-125134542D01*
X157750110Y-125082331D01*
X157791722Y-125033810D01*
X157837118Y-124988920D01*
X157886362Y-124947605D01*
X157939515Y-124909808D01*
X157996641Y-124875472D01*
X158057802Y-124844539D01*
X158123061Y-124816951D01*
X158192481Y-124792653D01*
X158266125Y-124771586D01*
X158344055Y-124753694D01*
X158384865Y-124746065D01*
X158427844Y-124739481D01*
X158474385Y-124733828D01*
X158525877Y-124728994D01*
X158583711Y-124724863D01*
X158649279Y-124721322D01*
X158723972Y-124718257D01*
X158809180Y-124715554D01*
X159131733Y-124706466D01*
X159131733Y-125126850D01*
G37*
G36*
X166200242Y-127132258D02*
G01*
X166193669Y-127405208D01*
X166173107Y-127675695D01*
X166138715Y-127943301D01*
X166090651Y-128207604D01*
X166029074Y-128468187D01*
X165954145Y-128724629D01*
X165866023Y-128976512D01*
X165764865Y-129223415D01*
X165650832Y-129464919D01*
X165524083Y-129700605D01*
X165384777Y-129930053D01*
X165233074Y-130152844D01*
X165069131Y-130368558D01*
X164893109Y-130576776D01*
X164705167Y-130777079D01*
X164536587Y-130939678D01*
X164360140Y-131094369D01*
X164176351Y-131240912D01*
X163985745Y-131379070D01*
X163788845Y-131508605D01*
X163586176Y-131629280D01*
X163378263Y-131740856D01*
X163165630Y-131843095D01*
X162948801Y-131935760D01*
X162728301Y-132018612D01*
X162504653Y-132091415D01*
X162278383Y-132153928D01*
X162050016Y-132205916D01*
X161820074Y-132247140D01*
X161589083Y-132277361D01*
X161357566Y-132296343D01*
X161190062Y-132305732D01*
X161092031Y-132310847D01*
X161052161Y-132310500D01*
X160979485Y-132308031D01*
X160884339Y-132303848D01*
X160777057Y-132298359D01*
X160549168Y-132280945D01*
X160324026Y-132253874D01*
X160101853Y-132217347D01*
X159882869Y-132171561D01*
X159667295Y-132116716D01*
X159455350Y-132053010D01*
X159247257Y-131980642D01*
X159043234Y-131899811D01*
X158843504Y-131810715D01*
X158648285Y-131713555D01*
X158457799Y-131608528D01*
X158272266Y-131495833D01*
X158091907Y-131375669D01*
X157916942Y-131248235D01*
X157747591Y-131113731D01*
X157584076Y-130972353D01*
X157426617Y-130824303D01*
X157275433Y-130669777D01*
X157130747Y-130508976D01*
X156992777Y-130342098D01*
X156861745Y-130169341D01*
X156737872Y-129990905D01*
X156621377Y-129806989D01*
X156512481Y-129617791D01*
X156411405Y-129423510D01*
X156318369Y-129224346D01*
X156233594Y-129020496D01*
X156157300Y-128812159D01*
X156089708Y-128599536D01*
X156031038Y-128382823D01*
X155981511Y-128162221D01*
X155941347Y-127937928D01*
X155929060Y-127852795D01*
X155916956Y-127756516D01*
X155905398Y-127652951D01*
X155894748Y-127545959D01*
X155885368Y-127439401D01*
X155877619Y-127337137D01*
X155871865Y-127243025D01*
X155868468Y-127160926D01*
X155869277Y-127102020D01*
X155871781Y-127054356D01*
X156312537Y-127054356D01*
X156313659Y-127282972D01*
X156326069Y-127512650D01*
X156349957Y-127743036D01*
X156385514Y-127973779D01*
X156432930Y-128204524D01*
X156492396Y-128434921D01*
X156546452Y-128611691D01*
X156606880Y-128785143D01*
X156673535Y-128955159D01*
X156746272Y-129121619D01*
X156824946Y-129284406D01*
X156909413Y-129443400D01*
X156999528Y-129598483D01*
X157095146Y-129749536D01*
X157196122Y-129896440D01*
X157302312Y-130039076D01*
X157413572Y-130177327D01*
X157529755Y-130311072D01*
X157650718Y-130440194D01*
X157776315Y-130564574D01*
X157906403Y-130684092D01*
X158040836Y-130798631D01*
X158179469Y-130908071D01*
X158322158Y-131012294D01*
X158468758Y-131111181D01*
X158619125Y-131204613D01*
X158773113Y-131292472D01*
X158930578Y-131374638D01*
X159091375Y-131450994D01*
X159255359Y-131521421D01*
X159422386Y-131585799D01*
X159592311Y-131644010D01*
X159764989Y-131695935D01*
X159940275Y-131741456D01*
X160118025Y-131780454D01*
X160298094Y-131812810D01*
X160480337Y-131838405D01*
X160664610Y-131857121D01*
X160773960Y-131865413D01*
X160875077Y-131871823D01*
X160956705Y-131875716D01*
X160986694Y-131876520D01*
X161007589Y-131876456D01*
X161123650Y-131871988D01*
X161294569Y-131864822D01*
X161411194Y-131858056D01*
X161528638Y-131847834D01*
X161646736Y-131834200D01*
X161765326Y-131817198D01*
X161884243Y-131796871D01*
X162003322Y-131773264D01*
X162122400Y-131746420D01*
X162241313Y-131716382D01*
X162359896Y-131683194D01*
X162477986Y-131646900D01*
X162595418Y-131607544D01*
X162712029Y-131565169D01*
X162827654Y-131519818D01*
X162942128Y-131471536D01*
X163055289Y-131420366D01*
X163166973Y-131366352D01*
X163346096Y-131271962D01*
X163519770Y-131170677D01*
X163687885Y-131062731D01*
X163850330Y-130948359D01*
X164006994Y-130827795D01*
X164157768Y-130701275D01*
X164302541Y-130569033D01*
X164441202Y-130431304D01*
X164573642Y-130288322D01*
X164699749Y-130140323D01*
X164819413Y-129987540D01*
X164932524Y-129830210D01*
X165038972Y-129668565D01*
X165138646Y-129502842D01*
X165231436Y-129333275D01*
X165317230Y-129160099D01*
X165395920Y-128983548D01*
X165467395Y-128803857D01*
X165531543Y-128621260D01*
X165588255Y-128435993D01*
X165637420Y-128248291D01*
X165678929Y-128058387D01*
X165712669Y-127866517D01*
X165738532Y-127672916D01*
X165756407Y-127477817D01*
X165766183Y-127281457D01*
X165767749Y-127084069D01*
X165760997Y-126885888D01*
X165745814Y-126687150D01*
X165722091Y-126488088D01*
X165689717Y-126288937D01*
X165648583Y-126089933D01*
X165563803Y-125770758D01*
X165458291Y-125461263D01*
X165332786Y-125162205D01*
X165188027Y-124874345D01*
X165024755Y-124598442D01*
X164843710Y-124335255D01*
X164645631Y-124085544D01*
X164431259Y-123850068D01*
X164201333Y-123629586D01*
X163956593Y-123424857D01*
X163697779Y-123236642D01*
X163425631Y-123065699D01*
X163140888Y-122912787D01*
X162844291Y-122778667D01*
X162536580Y-122664097D01*
X162218494Y-122569837D01*
X162058781Y-122531409D01*
X161897858Y-122498699D01*
X161735911Y-122471702D01*
X161573126Y-122450412D01*
X161409688Y-122434824D01*
X161245781Y-122424934D01*
X161081591Y-122420737D01*
X160917303Y-122422227D01*
X160753102Y-122429401D01*
X160589174Y-122442252D01*
X160425703Y-122460776D01*
X160262874Y-122484969D01*
X160100873Y-122514825D01*
X159939885Y-122550340D01*
X159780095Y-122591508D01*
X159621688Y-122638324D01*
X159396154Y-122715548D01*
X159176957Y-122803003D01*
X158964288Y-122900337D01*
X158758338Y-123007197D01*
X158559296Y-123123231D01*
X158367353Y-123248085D01*
X158182700Y-123381406D01*
X158005527Y-123522844D01*
X157836024Y-123672043D01*
X157674382Y-123828653D01*
X157520791Y-123992320D01*
X157375442Y-124162691D01*
X157238524Y-124339414D01*
X157110229Y-124522136D01*
X156990747Y-124710505D01*
X156880268Y-124904168D01*
X156778982Y-125102771D01*
X156687080Y-125305963D01*
X156604753Y-125513390D01*
X156532190Y-125724701D01*
X156469583Y-125939542D01*
X156417121Y-126157560D01*
X156374995Y-126378403D01*
X156343396Y-126601719D01*
X156322513Y-126827154D01*
X156312537Y-127054356D01*
X155871781Y-127054356D01*
X155873727Y-127017311D01*
X155881187Y-126913740D01*
X155891027Y-126798250D01*
X155915327Y-126559279D01*
X155928527Y-126449682D01*
X155941586Y-126355932D01*
X155990018Y-126088687D01*
X156052812Y-125824888D01*
X156129587Y-125565124D01*
X156219963Y-125309983D01*
X156323560Y-125060053D01*
X156439995Y-124815923D01*
X156568889Y-124578181D01*
X156709861Y-124347417D01*
X156862531Y-124124218D01*
X157026516Y-123909174D01*
X157201437Y-123702873D01*
X157386913Y-123505903D01*
X157582564Y-123318853D01*
X157788007Y-123142312D01*
X158002864Y-122976867D01*
X158226752Y-122823109D01*
X158461736Y-122679645D01*
X158702561Y-122549410D01*
X158948678Y-122432491D01*
X159199537Y-122328974D01*
X159454586Y-122238948D01*
X159713276Y-122162499D01*
X159975057Y-122099716D01*
X160239378Y-122050685D01*
X160505689Y-122015493D01*
X160773439Y-121994229D01*
X161042080Y-121986979D01*
X161311059Y-121993831D01*
X161579827Y-122014872D01*
X161847833Y-122050190D01*
X162114528Y-122099872D01*
X162379361Y-122164005D01*
X162579287Y-122222441D01*
X162775500Y-122288410D01*
X163156187Y-122442218D01*
X163520224Y-122623953D01*
X163866414Y-122832142D01*
X164193559Y-123065312D01*
X164500461Y-123321987D01*
X164785923Y-123600694D01*
X165048748Y-123899958D01*
X165287737Y-124218307D01*
X165501693Y-124554264D01*
X165689418Y-124906358D01*
X165849714Y-125273113D01*
X165981385Y-125653055D01*
X166083232Y-126044710D01*
X166154058Y-126446605D01*
X166177464Y-126650931D01*
X166192665Y-126857264D01*
X166198914Y-127084069D01*
X166200242Y-127132258D01*
G37*
G36*
X164615857Y-127143424D02*
G01*
X164619389Y-129568925D01*
X164094350Y-129568925D01*
X163569311Y-129568925D01*
X163572843Y-127143424D01*
X163576389Y-124717935D01*
X164094350Y-124717935D01*
X164612312Y-124717935D01*
X164615857Y-127143424D01*
G37*
G36*
X163275412Y-127146930D02*
G01*
X163275412Y-127524927D01*
X162582468Y-127524927D01*
X161889524Y-127524927D01*
X161889524Y-127146930D01*
X161889524Y-126768933D01*
X162582468Y-126768933D01*
X163275412Y-126768933D01*
X163275412Y-127146930D01*
G37*
G36*
X163275412Y-129155924D02*
G01*
X163275412Y-129568925D01*
X162415106Y-129568925D01*
X161554813Y-129568925D01*
X161547855Y-129523430D01*
X161546295Y-129510003D01*
X161544524Y-129489191D01*
X161540592Y-129429604D01*
X161536551Y-129353054D01*
X161532893Y-129267922D01*
X161524686Y-129073346D01*
X161516171Y-128900429D01*
X161507440Y-128742923D01*
X162391426Y-128742923D01*
X163275412Y-128742923D01*
X163275412Y-129155924D01*
G37*
G36*
X163275412Y-125130937D02*
G01*
X163275412Y-125550937D01*
X162393476Y-125550937D01*
X161511554Y-125550937D01*
X161511501Y-125519438D01*
X161516242Y-125376933D01*
X161527264Y-125135617D01*
X161539525Y-124898959D01*
X161547987Y-124770429D01*
X161555263Y-124710938D01*
X162415331Y-124710938D01*
X163275412Y-124710938D01*
X163275412Y-125130937D01*
G37*
D11*
G36*
X164760729Y-135883339D02*
G01*
X163503794Y-135883339D01*
X163503794Y-136634691D01*
X164760729Y-136634691D01*
X164760729Y-135883339D01*
G37*
G36*
X164760729Y-137864453D02*
G01*
X163162159Y-137864453D01*
X163196353Y-138684193D01*
X164760729Y-138684193D01*
X164760729Y-137864453D01*
G37*
G36*
X164760729Y-133834141D02*
G01*
X163196353Y-133834141D01*
X163162159Y-134653881D01*
X164760729Y-134653881D01*
X164760729Y-133834141D01*
G37*
G36*
X165040997Y-133834141D02*
G01*
X165040997Y-138684193D01*
X165976753Y-138684193D01*
X165976753Y-133834141D01*
X165040997Y-133834141D01*
G37*
G36*
X160898944Y-135763965D02*
G01*
X160516399Y-134824546D01*
X159505539Y-134862098D01*
X160328637Y-136771467D01*
X159505539Y-138680835D01*
X160516399Y-138718387D01*
X160898944Y-137778968D01*
X160898944Y-135763965D01*
G37*
G36*
X161155094Y-137765230D02*
G01*
X161691512Y-138718387D01*
X162699014Y-138680835D01*
X161725706Y-136771467D01*
X162699014Y-134862098D01*
X161691512Y-134824546D01*
X161155094Y-135777398D01*
X161155094Y-137765230D01*
G37*
G36*
X157675549Y-138684193D02*
G01*
X157842855Y-138684193D01*
X158205161Y-138657367D01*
X158484809Y-138584671D01*
X158698954Y-138474193D01*
X158860709Y-138328619D01*
X158977971Y-138144905D01*
X159052435Y-137914702D01*
X159079335Y-137625401D01*
X159079335Y-135917533D01*
X159052435Y-135628231D01*
X158977971Y-135398028D01*
X158860709Y-135214314D01*
X158698954Y-135068741D01*
X158484809Y-134958262D01*
X158205161Y-134885566D01*
X157842855Y-134858740D01*
X157675549Y-134858740D01*
X157675549Y-135678480D01*
X157906398Y-135709638D01*
X158043545Y-135774193D01*
X158118092Y-135864090D01*
X158143579Y-135985921D01*
X158143579Y-137557013D01*
X158118092Y-137678844D01*
X158043545Y-137768741D01*
X157906398Y-137833295D01*
X157675549Y-137864453D01*
X157675549Y-138684193D01*
G37*
G36*
X157385205Y-134858740D02*
G01*
X156401517Y-134858740D01*
X156435711Y-135678480D01*
X157385205Y-135678480D01*
X157385205Y-134858740D01*
G37*
G36*
X157385205Y-137864453D02*
G01*
X156435711Y-137864453D01*
X156401517Y-138684193D01*
X157385205Y-138684193D01*
X157385205Y-137864453D01*
G37*
G36*
X154578855Y-137092341D02*
G01*
X155002616Y-137109438D01*
X155002616Y-137488625D01*
X154977173Y-137660065D01*
X154909791Y-137771052D01*
X154800710Y-137838969D01*
X154633504Y-137864453D01*
X154578855Y-137864453D01*
X154578855Y-138684193D01*
X154804474Y-138684193D01*
X155126009Y-138657608D01*
X155377775Y-138584856D01*
X155574364Y-138472458D01*
X155726310Y-138321124D01*
X155838965Y-138125685D01*
X155911784Y-137875788D01*
X155938372Y-137557013D01*
X155938372Y-135917533D01*
X155911472Y-135628231D01*
X155837008Y-135398028D01*
X155719746Y-135214314D01*
X155557991Y-135068741D01*
X155343846Y-134958262D01*
X155064198Y-134885566D01*
X154701892Y-134858740D01*
X154578855Y-134858740D01*
X154578855Y-135644286D01*
X154785605Y-135680209D01*
X154910275Y-135745216D01*
X154979001Y-135833507D01*
X155002616Y-135951727D01*
X155002616Y-136385563D01*
X154578855Y-136361444D01*
X154578855Y-137092341D01*
G37*
G36*
X154333086Y-136351369D02*
G01*
X153991451Y-136330914D01*
X153991451Y-135951727D01*
X154011642Y-135838254D01*
X154069462Y-135752791D01*
X154170805Y-135688506D01*
X154333086Y-135647644D01*
X154333086Y-134858740D01*
X154257981Y-134858740D01*
X153907818Y-134885214D01*
X153636823Y-134957082D01*
X153428553Y-135066632D01*
X153270556Y-135211559D01*
X153155526Y-135395252D01*
X153082229Y-135626318D01*
X153055696Y-135917533D01*
X153055696Y-137044713D01*
X154333086Y-137082266D01*
X154333086Y-136351369D01*
G37*
G36*
X154333086Y-137864453D02*
G01*
X153294748Y-137864453D01*
X153328942Y-138684193D01*
X154333086Y-138684193D01*
X154333086Y-137864453D01*
G37*
G36*
X150679518Y-137557013D02*
G01*
X150713757Y-137397898D01*
X150815382Y-137276399D01*
X151004056Y-137184848D01*
X150997034Y-136406018D01*
X150593501Y-136495247D01*
X150290929Y-136631139D01*
X150068081Y-136807556D01*
X149910595Y-137025607D01*
X149812619Y-137293509D01*
X149777651Y-137625401D01*
X149803829Y-137902457D01*
X149876768Y-138125974D01*
X149992478Y-138307234D01*
X150153096Y-138453631D01*
X150366579Y-138567760D01*
X150645790Y-138647073D01*
X151007414Y-138684193D01*
X151004056Y-137847356D01*
X150809690Y-137776557D01*
X150711291Y-137680875D01*
X150679518Y-137557013D01*
G37*
G36*
X151266922Y-137146990D02*
G01*
X151321571Y-137146990D01*
X151688623Y-137088877D01*
X151975198Y-136989376D01*
X152196868Y-136854483D01*
X152365344Y-136685510D01*
X152487501Y-136478921D01*
X152564627Y-136226765D01*
X152592245Y-135917533D01*
X152565345Y-135628231D01*
X152490881Y-135398028D01*
X152373619Y-135214314D01*
X152211864Y-135068741D01*
X151997719Y-134958262D01*
X151718071Y-134885566D01*
X151355765Y-134858740D01*
X151266922Y-134858740D01*
X151266922Y-135678480D01*
X151473181Y-135712926D01*
X151597727Y-135777429D01*
X151666612Y-135866118D01*
X151690378Y-135985921D01*
X151664576Y-136138959D01*
X151591484Y-136253125D01*
X151465525Y-136338105D01*
X151266922Y-136392280D01*
X151266922Y-137146990D01*
G37*
G36*
X150997034Y-134858740D02*
G01*
X149945263Y-134858740D01*
X149982815Y-135678480D01*
X150997034Y-135678480D01*
X150997034Y-134858740D01*
G37*
G36*
X151266922Y-138684193D02*
G01*
X152592245Y-138684193D01*
X152554692Y-137864453D01*
X151266922Y-137864453D01*
X151266922Y-138684193D01*
G37*
G36*
X147401779Y-137557013D02*
G01*
X147436018Y-137397898D01*
X147537643Y-137276399D01*
X147726317Y-137184848D01*
X147719295Y-136406018D01*
X147315762Y-136495247D01*
X147013190Y-136631139D01*
X146790342Y-136807556D01*
X146632856Y-137025607D01*
X146534880Y-137293509D01*
X146499912Y-137625401D01*
X146526090Y-137902457D01*
X146599029Y-138125974D01*
X146714739Y-138307234D01*
X146875357Y-138453631D01*
X147088840Y-138567760D01*
X147368051Y-138647073D01*
X147729675Y-138684193D01*
X147726317Y-137847356D01*
X147531951Y-137776557D01*
X147433552Y-137680875D01*
X147401779Y-137557013D01*
G37*
G36*
X147989183Y-137146990D02*
G01*
X148043832Y-137146990D01*
X148410884Y-137088877D01*
X148697459Y-136989376D01*
X148919129Y-136854483D01*
X149087605Y-136685510D01*
X149209762Y-136478921D01*
X149286888Y-136226765D01*
X149314506Y-135917533D01*
X149287606Y-135628231D01*
X149213142Y-135398028D01*
X149095880Y-135214314D01*
X148934125Y-135068741D01*
X148719980Y-134958262D01*
X148440332Y-134885566D01*
X148078026Y-134858740D01*
X147989183Y-134858740D01*
X147989183Y-135678480D01*
X148195442Y-135712926D01*
X148319988Y-135777429D01*
X148388873Y-135866118D01*
X148412639Y-135985921D01*
X148386837Y-136138959D01*
X148313745Y-136253125D01*
X148187786Y-136338105D01*
X147989183Y-136392280D01*
X147989183Y-137146990D01*
G37*
G36*
X147719295Y-134858740D02*
G01*
X146667524Y-134858740D01*
X146705076Y-135678480D01*
X147719295Y-135678480D01*
X147719295Y-134858740D01*
G37*
G36*
X147989183Y-138684193D02*
G01*
X149314506Y-138684193D01*
X149276953Y-137864453D01*
X147989183Y-137864453D01*
X147989183Y-138684193D01*
G37*
G36*
X144998429Y-134858740D02*
G01*
X144998429Y-138684193D01*
X145934185Y-138684193D01*
X145934185Y-134892934D01*
X144998429Y-134858740D01*
G37*
G36*
X144930041Y-134039000D02*
G01*
X144948041Y-134182613D01*
X145000909Y-134309789D01*
X145090631Y-134424904D01*
X145205889Y-134514251D01*
X145335298Y-134567304D01*
X145483557Y-134585493D01*
X145631613Y-134567312D01*
X145760925Y-134514267D01*
X145876177Y-134424904D01*
X145965900Y-134309789D01*
X146018767Y-134182613D01*
X146036767Y-134039000D01*
X146018752Y-133895195D01*
X145965873Y-133768028D01*
X145876177Y-133653096D01*
X145760925Y-133563732D01*
X145631613Y-133510688D01*
X145483557Y-133492506D01*
X145335298Y-133510696D01*
X145205889Y-133563748D01*
X145090631Y-133653096D01*
X145000936Y-133768028D01*
X144948056Y-133895195D01*
X144930041Y-134039000D01*
G37*
G36*
X142545621Y-134858740D02*
G01*
X141609865Y-134896292D01*
X142549284Y-138684193D01*
X143485040Y-138684193D01*
X142545621Y-134858740D01*
G37*
G36*
X143809577Y-138684193D02*
G01*
X144782885Y-134896292D01*
X143812936Y-134858740D01*
X143283539Y-136962587D01*
X143727451Y-138684193D01*
X143809577Y-138684193D01*
G37*
G36*
X140105024Y-137092341D02*
G01*
X140528785Y-137109438D01*
X140528785Y-137488625D01*
X140503342Y-137660065D01*
X140435960Y-137771052D01*
X140326879Y-137838969D01*
X140159673Y-137864453D01*
X140105024Y-137864453D01*
X140105024Y-138684193D01*
X140330643Y-138684193D01*
X140652177Y-138657608D01*
X140903943Y-138584856D01*
X141100533Y-138472458D01*
X141252479Y-138321124D01*
X141365134Y-138125685D01*
X141437953Y-137875788D01*
X141464541Y-137557013D01*
X141464541Y-135917533D01*
X141437641Y-135628231D01*
X141363177Y-135398028D01*
X141245915Y-135214314D01*
X141084159Y-135068741D01*
X140870015Y-134958262D01*
X140590367Y-134885566D01*
X140228061Y-134858740D01*
X140105024Y-134858740D01*
X140105024Y-135644286D01*
X140311774Y-135680209D01*
X140436444Y-135745216D01*
X140505170Y-135833507D01*
X140528785Y-135951727D01*
X140528785Y-136385563D01*
X140105024Y-136361444D01*
X140105024Y-137092341D01*
G37*
G36*
X139859255Y-136351369D02*
G01*
X139517620Y-136330914D01*
X139517620Y-135951727D01*
X139537810Y-135838254D01*
X139595631Y-135752791D01*
X139696974Y-135688506D01*
X139859255Y-135647644D01*
X139859255Y-134858740D01*
X139784150Y-134858740D01*
X139433987Y-134885214D01*
X139162992Y-134957082D01*
X138954722Y-135066632D01*
X138796725Y-135211559D01*
X138681695Y-135395252D01*
X138608398Y-135626318D01*
X138581864Y-135917533D01*
X138581864Y-137044713D01*
X139859255Y-137082266D01*
X139859255Y-136351369D01*
G37*
G36*
X139859255Y-137864453D02*
G01*
X138820917Y-137864453D01*
X138855111Y-138684193D01*
X139859255Y-138684193D01*
X139859255Y-137864453D01*
G37*
G36*
X135662857Y-134653881D02*
G01*
X135860999Y-134653881D01*
X135997144Y-134674679D01*
X136086021Y-134730134D01*
X136140965Y-134820830D01*
X136161723Y-134961017D01*
X136161723Y-137557013D01*
X136140956Y-137697366D01*
X136085996Y-137788150D01*
X135997118Y-137843645D01*
X135860999Y-137864453D01*
X135662857Y-137864453D01*
X135662857Y-138684193D01*
X136031664Y-138684193D01*
X136377528Y-138650603D01*
X136637389Y-138559644D01*
X136831603Y-138418921D01*
X136972797Y-138225812D01*
X137063881Y-137967995D01*
X137097479Y-137625401D01*
X137097479Y-134892934D01*
X137063881Y-134550339D01*
X136972797Y-134292522D01*
X136831603Y-134099414D01*
X136637389Y-133958690D01*
X136377528Y-133867732D01*
X136031664Y-133834141D01*
X135662857Y-133834141D01*
X135662857Y-134653881D01*
G37*
G36*
X135386252Y-137864453D02*
G01*
X135178035Y-137864453D01*
X135041916Y-137843645D01*
X134953038Y-137788150D01*
X134898079Y-137697366D01*
X134877311Y-137557013D01*
X134877311Y-134961017D01*
X134898069Y-134820830D01*
X134953014Y-134730134D01*
X135041890Y-134674679D01*
X135178035Y-134653881D01*
X135386252Y-134653881D01*
X135386252Y-133834141D01*
X135007065Y-133834141D01*
X134661322Y-133867727D01*
X134401543Y-133958675D01*
X134207380Y-134099389D01*
X134066217Y-134292494D01*
X133975148Y-134550318D01*
X133941556Y-134892934D01*
X133941556Y-137625401D01*
X133975148Y-137968017D01*
X134066217Y-138225841D01*
X134207380Y-138418946D01*
X134401543Y-138559659D01*
X134661322Y-138650608D01*
X135007065Y-138684193D01*
X135386252Y-138684193D01*
X135386252Y-137864453D01*
G37*
G36*
X131554692Y-134858740D02*
G01*
X130618937Y-134896292D01*
X131558356Y-138684193D01*
X132494112Y-138684193D01*
X131554692Y-134858740D01*
G37*
G36*
X132818649Y-138684193D02*
G01*
X133791957Y-134896292D01*
X132822008Y-134858740D01*
X132292611Y-136962587D01*
X132736523Y-138684193D01*
X132818649Y-138684193D01*
G37*
G36*
X129114096Y-137092341D02*
G01*
X129537857Y-137109438D01*
X129537857Y-137488625D01*
X129512414Y-137660065D01*
X129445032Y-137771052D01*
X129335951Y-137838969D01*
X129168745Y-137864453D01*
X129114096Y-137864453D01*
X129114096Y-138684193D01*
X129339715Y-138684193D01*
X129661249Y-138657608D01*
X129913015Y-138584856D01*
X130109605Y-138472458D01*
X130261551Y-138321124D01*
X130374206Y-138125685D01*
X130447025Y-137875788D01*
X130473613Y-137557013D01*
X130473613Y-135917533D01*
X130446713Y-135628231D01*
X130372249Y-135398028D01*
X130254987Y-135214314D01*
X130093231Y-135068741D01*
X129879087Y-134958262D01*
X129599439Y-134885566D01*
X129237133Y-134858740D01*
X129114096Y-134858740D01*
X129114096Y-135644286D01*
X129320846Y-135680209D01*
X129445516Y-135745216D01*
X129514242Y-135833507D01*
X129537857Y-135951727D01*
X129537857Y-136385563D01*
X129114096Y-136361444D01*
X129114096Y-137092341D01*
G37*
G36*
X128868326Y-136351369D02*
G01*
X128526692Y-136330914D01*
X128526692Y-135951727D01*
X128546882Y-135838254D01*
X128604703Y-135752791D01*
X128706046Y-135688506D01*
X128868326Y-135647644D01*
X128868326Y-134858740D01*
X128793222Y-134858740D01*
X128443059Y-134885214D01*
X128172064Y-134957082D01*
X127963794Y-135066632D01*
X127805797Y-135211559D01*
X127690767Y-135395252D01*
X127617470Y-135626318D01*
X127590936Y-135917533D01*
X127590936Y-137044713D01*
X128868326Y-137082266D01*
X128868326Y-136351369D01*
G37*
G36*
X128868326Y-137864453D02*
G01*
X127829989Y-137864453D01*
X127864183Y-138684193D01*
X128868326Y-138684193D01*
X128868326Y-137864453D01*
G37*
G36*
X125973133Y-135012308D02*
G01*
X125675713Y-134920822D01*
X125376871Y-134866457D01*
X125074624Y-134848360D01*
X124791303Y-134862098D01*
X124825497Y-135678480D01*
X125247128Y-135696187D01*
X125628268Y-135747151D01*
X125973133Y-135828689D01*
X125973133Y-135012308D01*
G37*
G36*
X126191730Y-138684193D02*
G01*
X127127486Y-138684193D01*
X127127486Y-134892934D01*
X126191730Y-134858740D01*
X126191730Y-138684193D01*
G37*
G36*
X123358513Y-133868030D02*
G01*
X123358513Y-138650000D01*
X124328463Y-138684193D01*
X124328463Y-133834141D01*
X123358513Y-133868030D01*
G37*
G36*
X123139916Y-136201160D02*
G01*
X122262168Y-134824546D01*
X121179256Y-134862098D01*
X122497557Y-136839855D01*
X121175898Y-138680835D01*
X122262168Y-138718387D01*
X123139916Y-137437334D01*
X123139916Y-136201160D01*
G37*
G36*
X119704640Y-134858740D02*
G01*
X119704640Y-138684193D01*
X120640396Y-138684193D01*
X120640396Y-134892934D01*
X119704640Y-134858740D01*
G37*
G36*
X119636252Y-134039000D02*
G01*
X119654252Y-134182613D01*
X119707119Y-134309789D01*
X119796842Y-134424904D01*
X119912100Y-134514251D01*
X120041509Y-134567304D01*
X120189767Y-134585493D01*
X120337824Y-134567312D01*
X120467136Y-134514267D01*
X120582388Y-134424904D01*
X120672110Y-134309789D01*
X120724977Y-134182613D01*
X120742978Y-134039000D01*
X120724963Y-133895195D01*
X120672083Y-133768028D01*
X120582388Y-133653096D01*
X120467136Y-133563732D01*
X120337824Y-133510688D01*
X120189767Y-133492506D01*
X120041509Y-133510696D01*
X119912100Y-133563748D01*
X119796842Y-133653096D01*
X119707146Y-133768028D01*
X119654267Y-133895195D01*
X119636252Y-134039000D01*
G37*
G36*
X118239183Y-133799947D02*
G01*
X118239183Y-138684193D01*
X119174938Y-138684193D01*
X119174938Y-133834141D01*
X118239183Y-133799947D01*
G37*
G36*
X116842114Y-133799947D02*
G01*
X116842114Y-138684193D01*
X117777869Y-138684193D01*
X117777869Y-133834141D01*
X116842114Y-133799947D01*
G37*
M02*
