%TF.GenerationSoftware,KiCad,Pcbnew,9.0.7*%
%TF.CreationDate,2026-05-24T23:03:32-04:00*%
%TF.ProjectId,POV-card-v1,504f562d-6361-4726-942d-76312e6b6963,rev?*%
%TF.SameCoordinates,Original*%
%TF.FileFunction,Legend,Top*%
%TF.FilePolarity,Positive*%
%FSLAX46Y46*%
G04 Gerber Fmt 4.6, Leading zero omitted, Abs format (unit mm)*
G04 Created by KiCad (PCBNEW 9.0.7) date 2026-05-24 23:03:32*
%MOMM*%
%LPD*%
G01*
G04 APERTURE LIST*
%ADD10C,0.100000*%
%ADD11C,0.300000*%
%ADD12C,0.150000*%
%ADD13C,0.200000*%
%ADD14C,0.006250*%
%ADD15C,0.120000*%
%ADD16C,0.152400*%
%ADD17C,0.000000*%
G04 APERTURE END LIST*
D10*
X156628726Y-104000000D02*
X155357700Y-105000000D01*
X155357700Y-104250000D01*
X146357700Y-104250000D01*
X146357700Y-105000000D01*
X145141825Y-104000000D01*
X146357700Y-103000000D01*
X146357700Y-103750000D01*
X155357700Y-103750000D01*
X155357700Y-103000000D01*
X156628726Y-104000000D01*
G36*
X156628726Y-104000000D02*
G01*
X155357700Y-105000000D01*
X155357700Y-104250000D01*
X146357700Y-104250000D01*
X146357700Y-105000000D01*
X145141825Y-104000000D01*
X146357700Y-103000000D01*
X146357700Y-103750000D01*
X155357700Y-103750000D01*
X155357700Y-103000000D01*
X156628726Y-104000000D01*
G37*
D11*
G36*
X144335949Y-101866241D02*
G01*
X144670403Y-101833024D01*
X144699565Y-101938563D01*
X144740797Y-102017299D01*
X144792890Y-102074782D01*
X144858538Y-102116213D01*
X144940167Y-102142457D01*
X145042018Y-102151908D01*
X145150874Y-102142955D01*
X145232182Y-102118962D01*
X145292288Y-102082671D01*
X145340389Y-102032057D01*
X145367508Y-101978734D01*
X145376472Y-101920738D01*
X145367434Y-101865160D01*
X145341075Y-101819530D01*
X145296799Y-101783111D01*
X145217342Y-101746868D01*
X144942159Y-101671299D01*
X144759326Y-101615184D01*
X144634775Y-101557891D01*
X144554247Y-101500958D01*
X144484610Y-101424859D01*
X144436318Y-101343030D01*
X144407378Y-101254033D01*
X144397504Y-101155708D01*
X144405644Y-101070504D01*
X144429967Y-100989277D01*
X144471204Y-100910629D01*
X144526715Y-100841482D01*
X144596872Y-100783685D01*
X144683793Y-100736759D01*
X144778171Y-100704754D01*
X144888895Y-100684333D01*
X145018766Y-100677072D01*
X145181314Y-100687510D01*
X145312323Y-100716222D01*
X145417457Y-100760305D01*
X145501347Y-100818348D01*
X145572285Y-100894233D01*
X145623862Y-100980880D01*
X145657135Y-101080263D01*
X145671481Y-101195257D01*
X145327684Y-101208544D01*
X145305530Y-101124552D01*
X145273602Y-101063437D01*
X145233016Y-101020141D01*
X145181370Y-100990199D01*
X145110726Y-100970231D01*
X145015341Y-100962738D01*
X144917042Y-100970537D01*
X144840346Y-100991812D01*
X144780745Y-101024501D01*
X144750136Y-101054212D01*
X144732280Y-101088921D01*
X144726145Y-101130380D01*
X144738588Y-101185951D01*
X144777216Y-101234080D01*
X144826133Y-101264135D01*
X144923316Y-101302081D01*
X145093089Y-101348990D01*
X145326253Y-101415085D01*
X145464082Y-101472619D01*
X145539147Y-101520582D01*
X145601426Y-101578119D01*
X145652173Y-101645867D01*
X145688883Y-101721945D01*
X145711982Y-101811502D01*
X145720164Y-101917416D01*
X145711184Y-102012745D01*
X145684351Y-102103723D01*
X145638886Y-102191872D01*
X145577692Y-102269353D01*
X145501720Y-102332463D01*
X145408962Y-102382039D01*
X145307933Y-102415072D01*
X145185736Y-102436497D01*
X145038489Y-102444218D01*
X144875541Y-102433522D01*
X144741787Y-102403844D01*
X144632183Y-102357812D01*
X144542621Y-102296609D01*
X144467205Y-102217436D01*
X144407468Y-102121391D01*
X144363290Y-102005614D01*
X144335949Y-101866241D01*
G37*
G36*
X146010294Y-102411001D02*
G01*
X146010294Y-100703645D01*
X146354091Y-100703645D01*
X146354091Y-101374629D01*
X147027566Y-101374629D01*
X147027566Y-100703645D01*
X147371362Y-100703645D01*
X147371362Y-102411001D01*
X147027566Y-102411001D01*
X147027566Y-101660296D01*
X146354091Y-101660296D01*
X146354091Y-102411001D01*
X146010294Y-102411001D01*
G37*
G36*
X149261722Y-102411001D02*
G01*
X148887719Y-102411001D01*
X148739073Y-102025683D01*
X148058643Y-102025683D01*
X147918094Y-102411001D01*
X147553433Y-102411001D01*
X147814027Y-101740017D01*
X148164315Y-101740017D01*
X148628834Y-101740017D01*
X148394239Y-101102250D01*
X148164315Y-101740017D01*
X147814027Y-101740017D01*
X148216528Y-100703645D01*
X148580047Y-100703645D01*
X149261722Y-102411001D01*
G37*
G36*
X149448464Y-102411001D02*
G01*
X149448464Y-100703645D01*
X149792157Y-100703645D01*
X149792157Y-101457776D01*
X150486600Y-100703645D01*
X150948836Y-100703645D01*
X150307747Y-101367363D01*
X150983714Y-102411001D01*
X150538917Y-102411001D01*
X150070868Y-101610989D01*
X149792157Y-101896344D01*
X149792157Y-102411001D01*
X149448464Y-102411001D01*
G37*
G36*
X151161113Y-102411001D02*
G01*
X151161113Y-100703645D01*
X152423464Y-100703645D01*
X152423464Y-100989312D01*
X151504806Y-100989312D01*
X151504806Y-101367986D01*
X152359521Y-101367986D01*
X152359521Y-101653652D01*
X151504806Y-101653652D01*
X151504806Y-102125334D01*
X152455955Y-102125334D01*
X152455955Y-102411001D01*
X151161113Y-102411001D01*
G37*
G36*
X153403574Y-102411001D02*
G01*
X153403574Y-100703645D01*
X153918023Y-100703645D01*
X154226941Y-101868317D01*
X154532330Y-100703645D01*
X155048025Y-100703645D01*
X155048025Y-102411001D01*
X154728622Y-102411001D01*
X154728622Y-101067060D01*
X154390743Y-102411001D01*
X154059714Y-102411001D01*
X153722977Y-101067060D01*
X153722977Y-102411001D01*
X153403574Y-102411001D01*
G37*
G36*
X155389641Y-102411001D02*
G01*
X155389641Y-100703645D01*
X156651992Y-100703645D01*
X156651992Y-100989312D01*
X155733333Y-100989312D01*
X155733333Y-101367986D01*
X156588049Y-101367986D01*
X156588049Y-101653652D01*
X155733333Y-101653652D01*
X155733333Y-102125334D01*
X156684482Y-102125334D01*
X156684482Y-102411001D01*
X155389641Y-102411001D01*
G37*
G36*
X157101252Y-101972536D02*
G01*
X157016445Y-101104845D01*
X157016445Y-100703645D01*
X157369480Y-100703645D01*
X157369480Y-101104845D01*
X157285918Y-101972536D01*
X157101252Y-101972536D01*
G37*
G36*
X157030355Y-102411001D02*
G01*
X157030355Y-102085474D01*
X157356608Y-102085474D01*
X157356608Y-102411001D01*
X157030355Y-102411001D01*
G37*
G36*
X135340514Y-109918868D02*
G01*
X135481372Y-109949848D01*
X135606621Y-109999694D01*
X135718530Y-110068172D01*
X135818743Y-110156140D01*
X135901815Y-110258614D01*
X135967638Y-110376288D01*
X136016362Y-110511401D01*
X136047085Y-110666844D01*
X136057906Y-110846041D01*
X136047186Y-111023703D01*
X136016732Y-111178026D01*
X135968405Y-111312363D01*
X135903083Y-111429544D01*
X135820612Y-111531765D01*
X135721148Y-111619466D01*
X135609925Y-111687751D01*
X135485286Y-111737475D01*
X135344946Y-111768393D01*
X135186106Y-111779170D01*
X135025019Y-111768384D01*
X134883158Y-111737494D01*
X134757634Y-111687920D01*
X134646079Y-111620001D01*
X134546763Y-111532974D01*
X134464097Y-111431118D01*
X134398749Y-111314774D01*
X134350495Y-111181835D01*
X134320140Y-111029567D01*
X134309469Y-110854724D01*
X134310152Y-110842414D01*
X134684480Y-110842414D01*
X134694813Y-110998398D01*
X134723356Y-111125078D01*
X134767426Y-111227672D01*
X134825823Y-111310407D01*
X134901881Y-111380507D01*
X134985816Y-111429628D01*
X135079314Y-111459402D01*
X135184897Y-111469666D01*
X135290561Y-111459439D01*
X135383744Y-111429827D01*
X135467016Y-111381072D01*
X135542102Y-111311616D01*
X135599397Y-111229701D01*
X135642948Y-111126651D01*
X135671349Y-110997811D01*
X135681687Y-110837468D01*
X135671563Y-110678699D01*
X135643824Y-110551803D01*
X135601426Y-110450942D01*
X135545839Y-110371342D01*
X135472864Y-110304456D01*
X135389866Y-110256959D01*
X135294847Y-110227764D01*
X135184897Y-110217579D01*
X135075138Y-110227835D01*
X134979847Y-110257300D01*
X134896181Y-110305362D01*
X134822196Y-110373211D01*
X134765746Y-110453817D01*
X134722773Y-110555574D01*
X134694708Y-110683185D01*
X134684480Y-110842414D01*
X134310152Y-110842414D01*
X134319632Y-110671553D01*
X134347958Y-110518423D01*
X134391901Y-110390687D01*
X134464451Y-110259686D01*
X134559623Y-110142621D01*
X134634251Y-110074507D01*
X134711803Y-110020559D01*
X134792740Y-109979626D01*
X134907107Y-109940818D01*
X135035863Y-109916551D01*
X135181270Y-109908075D01*
X135340514Y-109918868D01*
G37*
G36*
X136345978Y-111744000D02*
G01*
X136345978Y-109936212D01*
X136700106Y-109936212D01*
X137437817Y-111146423D01*
X137437817Y-109936212D01*
X137776008Y-109936212D01*
X137776008Y-111744000D01*
X137410779Y-111744000D01*
X136684059Y-110551814D01*
X136684059Y-111744000D01*
X136345978Y-111744000D01*
G37*
D12*
X148826180Y-80014685D02*
X148588085Y-80014685D01*
X148683323Y-79776590D02*
X148588085Y-80014685D01*
X148588085Y-80014685D02*
X148683323Y-80252780D01*
X148397609Y-79871828D02*
X148588085Y-80014685D01*
X148588085Y-80014685D02*
X148397609Y-80157542D01*
X148826180Y-80014685D02*
X148588085Y-80014685D01*
X148683323Y-79776590D02*
X148588085Y-80014685D01*
X148588085Y-80014685D02*
X148683323Y-80252780D01*
X148397609Y-79871828D02*
X148588085Y-80014685D01*
X148588085Y-80014685D02*
X148397609Y-80157542D01*
X148826180Y-117365000D02*
X148588085Y-117365000D01*
X148683323Y-117126905D02*
X148588085Y-117365000D01*
X148588085Y-117365000D02*
X148683323Y-117603095D01*
X148397609Y-117222143D02*
X148588085Y-117365000D01*
X148588085Y-117365000D02*
X148397609Y-117507857D01*
X148826180Y-117365000D02*
X148588085Y-117365000D01*
X148683323Y-117126905D02*
X148588085Y-117365000D01*
X148588085Y-117365000D02*
X148683323Y-117603095D01*
X148397609Y-117222143D02*
X148588085Y-117365000D01*
X148588085Y-117365000D02*
X148397609Y-117507857D01*
D13*
%TO.C,REF\u002A\u002A*%
X147423975Y-131200000D02*
G75*
G02*
X144376025Y-131200000I-1523975J0D01*
G01*
X144376025Y-131200000D02*
G75*
G02*
X147423975Y-131200000I1523975J0D01*
G01*
D14*
X145170906Y-131983879D02*
X144843740Y-131983879D01*
X144843740Y-130439754D01*
X145170906Y-130439754D01*
X145170906Y-131983879D01*
G36*
X145170906Y-131983879D02*
G01*
X144843740Y-131983879D01*
X144843740Y-130439754D01*
X145170906Y-130439754D01*
X145170906Y-131983879D01*
G37*
X145828956Y-130700000D02*
X145268808Y-130700000D01*
X145268808Y-130439754D01*
X145816564Y-130439754D01*
X145828956Y-130700000D01*
G36*
X145828956Y-130700000D02*
G01*
X145268808Y-130700000D01*
X145268808Y-130439754D01*
X145816564Y-130439754D01*
X145828956Y-130700000D01*
G37*
X145708748Y-131330786D02*
X145268808Y-131330786D01*
X145268808Y-131091608D01*
X145708748Y-131091608D01*
X145708748Y-131330786D01*
G36*
X145708748Y-131330786D02*
G01*
X145268808Y-131330786D01*
X145268808Y-131091608D01*
X145708748Y-131091608D01*
X145708748Y-131330786D01*
G37*
X145816564Y-131983879D02*
X145268808Y-131983879D01*
X145268808Y-131722394D01*
X145828956Y-131722394D01*
X145816564Y-131983879D01*
G36*
X145816564Y-131983879D02*
G01*
X145268808Y-131983879D01*
X145268808Y-131722394D01*
X145828956Y-131722394D01*
X145816564Y-131983879D01*
G37*
X146493203Y-130700000D02*
X146423804Y-130700000D01*
X146414234Y-130700281D01*
X146405262Y-130701100D01*
X146396868Y-130702421D01*
X146389034Y-130704207D01*
X146381740Y-130706424D01*
X146374967Y-130709035D01*
X146368695Y-130712005D01*
X146362906Y-130715298D01*
X146357579Y-130718877D01*
X146348237Y-130726753D01*
X146340516Y-130735345D01*
X146334260Y-130744368D01*
X146329316Y-130753535D01*
X146325529Y-130762558D01*
X146322745Y-130771150D01*
X146320810Y-130779026D01*
X146319569Y-130785898D01*
X146318672Y-130793696D01*
X146318467Y-130797902D01*
X146318467Y-131624492D01*
X146318769Y-131633386D01*
X146319649Y-131641725D01*
X146321070Y-131649526D01*
X146322993Y-131656807D01*
X146325378Y-131663586D01*
X146328188Y-131669881D01*
X146331383Y-131675710D01*
X146334925Y-131681091D01*
X146338777Y-131686042D01*
X146347250Y-131694724D01*
X146356496Y-131701901D01*
X146366204Y-131707715D01*
X146376066Y-131712310D01*
X146385774Y-131715829D01*
X146395020Y-131718417D01*
X146403493Y-131720215D01*
X146410887Y-131721369D01*
X146419277Y-131722202D01*
X146423804Y-131722394D01*
X146493203Y-131722394D01*
X146493203Y-131983879D01*
X146364319Y-131983879D01*
X146330429Y-131982912D01*
X146298658Y-131980093D01*
X146268935Y-131975546D01*
X146241193Y-131969395D01*
X146215364Y-131961762D01*
X146191378Y-131952771D01*
X146169169Y-131942546D01*
X146148667Y-131931210D01*
X146129804Y-131918886D01*
X146112512Y-131905698D01*
X146096723Y-131891770D01*
X146082369Y-131877224D01*
X146069380Y-131862185D01*
X146057689Y-131846775D01*
X146047227Y-131831119D01*
X146037927Y-131815339D01*
X146029719Y-131799558D01*
X146022536Y-131783902D01*
X146016309Y-131768492D01*
X146010970Y-131753453D01*
X146006451Y-131738907D01*
X146002683Y-131724979D01*
X145999598Y-131711791D01*
X145997128Y-131699467D01*
X145995204Y-131688131D01*
X145993758Y-131677906D01*
X145992722Y-131668915D01*
X145992028Y-131661282D01*
X145991391Y-131650584D01*
X145991300Y-131646799D01*
X145991300Y-130776834D01*
X145992370Y-130746211D01*
X145995489Y-130717500D01*
X146000520Y-130690641D01*
X146007328Y-130665572D01*
X146015774Y-130642231D01*
X146025724Y-130620556D01*
X146037039Y-130600487D01*
X146049584Y-130581960D01*
X146063221Y-130564915D01*
X146077815Y-130549289D01*
X146093229Y-130535021D01*
X146109325Y-130522049D01*
X146125968Y-130510312D01*
X146143021Y-130499747D01*
X146160347Y-130490294D01*
X146177809Y-130481889D01*
X146195271Y-130474473D01*
X146212597Y-130467982D01*
X146229650Y-130462355D01*
X146246293Y-130457530D01*
X146262389Y-130453446D01*
X146277803Y-130450041D01*
X146292397Y-130447254D01*
X146306034Y-130445021D01*
X146318579Y-130443283D01*
X146329894Y-130441976D01*
X146339844Y-130441040D01*
X146348290Y-130440413D01*
X146355098Y-130440032D01*
X146363248Y-130439765D01*
X146364319Y-130439754D01*
X146493203Y-130439754D01*
X146493203Y-130700000D01*
G36*
X146493203Y-130700000D02*
G01*
X146423804Y-130700000D01*
X146414234Y-130700281D01*
X146405262Y-130701100D01*
X146396868Y-130702421D01*
X146389034Y-130704207D01*
X146381740Y-130706424D01*
X146374967Y-130709035D01*
X146368695Y-130712005D01*
X146362906Y-130715298D01*
X146357579Y-130718877D01*
X146348237Y-130726753D01*
X146340516Y-130735345D01*
X146334260Y-130744368D01*
X146329316Y-130753535D01*
X146325529Y-130762558D01*
X146322745Y-130771150D01*
X146320810Y-130779026D01*
X146319569Y-130785898D01*
X146318672Y-130793696D01*
X146318467Y-130797902D01*
X146318467Y-131624492D01*
X146318769Y-131633386D01*
X146319649Y-131641725D01*
X146321070Y-131649526D01*
X146322993Y-131656807D01*
X146325378Y-131663586D01*
X146328188Y-131669881D01*
X146331383Y-131675710D01*
X146334925Y-131681091D01*
X146338777Y-131686042D01*
X146347250Y-131694724D01*
X146356496Y-131701901D01*
X146366204Y-131707715D01*
X146376066Y-131712310D01*
X146385774Y-131715829D01*
X146395020Y-131718417D01*
X146403493Y-131720215D01*
X146410887Y-131721369D01*
X146419277Y-131722202D01*
X146423804Y-131722394D01*
X146493203Y-131722394D01*
X146493203Y-131983879D01*
X146364319Y-131983879D01*
X146330429Y-131982912D01*
X146298658Y-131980093D01*
X146268935Y-131975546D01*
X146241193Y-131969395D01*
X146215364Y-131961762D01*
X146191378Y-131952771D01*
X146169169Y-131942546D01*
X146148667Y-131931210D01*
X146129804Y-131918886D01*
X146112512Y-131905698D01*
X146096723Y-131891770D01*
X146082369Y-131877224D01*
X146069380Y-131862185D01*
X146057689Y-131846775D01*
X146047227Y-131831119D01*
X146037927Y-131815339D01*
X146029719Y-131799558D01*
X146022536Y-131783902D01*
X146016309Y-131768492D01*
X146010970Y-131753453D01*
X146006451Y-131738907D01*
X146002683Y-131724979D01*
X145999598Y-131711791D01*
X145997128Y-131699467D01*
X145995204Y-131688131D01*
X145993758Y-131677906D01*
X145992722Y-131668915D01*
X145992028Y-131661282D01*
X145991391Y-131650584D01*
X145991300Y-131646799D01*
X145991300Y-130776834D01*
X145992370Y-130746211D01*
X145995489Y-130717500D01*
X146000520Y-130690641D01*
X146007328Y-130665572D01*
X146015774Y-130642231D01*
X146025724Y-130620556D01*
X146037039Y-130600487D01*
X146049584Y-130581960D01*
X146063221Y-130564915D01*
X146077815Y-130549289D01*
X146093229Y-130535021D01*
X146109325Y-130522049D01*
X146125968Y-130510312D01*
X146143021Y-130499747D01*
X146160347Y-130490294D01*
X146177809Y-130481889D01*
X146195271Y-130474473D01*
X146212597Y-130467982D01*
X146229650Y-130462355D01*
X146246293Y-130457530D01*
X146262389Y-130453446D01*
X146277803Y-130450041D01*
X146292397Y-130447254D01*
X146306034Y-130445021D01*
X146318579Y-130443283D01*
X146329894Y-130441976D01*
X146339844Y-130441040D01*
X146348290Y-130440413D01*
X146355098Y-130440032D01*
X146363248Y-130439765D01*
X146364319Y-130439754D01*
X146493203Y-130439754D01*
X146493203Y-130700000D01*
G37*
X146756356Y-130440721D02*
X146788127Y-130443540D01*
X146817850Y-130448087D01*
X146845592Y-130454238D01*
X146871421Y-130461871D01*
X146895407Y-130470862D01*
X146917616Y-130481087D01*
X146938118Y-130492423D01*
X146956981Y-130504747D01*
X146974273Y-130517935D01*
X146990062Y-130531863D01*
X147004416Y-130546409D01*
X147017405Y-130561448D01*
X147029096Y-130576858D01*
X147039558Y-130592514D01*
X147048858Y-130608294D01*
X147057066Y-130624075D01*
X147064249Y-130639731D01*
X147070476Y-130655141D01*
X147075815Y-130670180D01*
X147080334Y-130684726D01*
X147084102Y-130698654D01*
X147087187Y-130711842D01*
X147089657Y-130724166D01*
X147091581Y-130735502D01*
X147093027Y-130745727D01*
X147094063Y-130754718D01*
X147094757Y-130762351D01*
X147095394Y-130773049D01*
X147095486Y-130776834D01*
X147095486Y-131646799D01*
X147094415Y-131677422D01*
X147091296Y-131706133D01*
X147086265Y-131732992D01*
X147079457Y-131758061D01*
X147071011Y-131781402D01*
X147061061Y-131803077D01*
X147049746Y-131823146D01*
X147037201Y-131841673D01*
X147023564Y-131858718D01*
X147008970Y-131874344D01*
X146993556Y-131888612D01*
X146977460Y-131901584D01*
X146960817Y-131913321D01*
X146943764Y-131923886D01*
X146926438Y-131933339D01*
X146908976Y-131941744D01*
X146891514Y-131949160D01*
X146874188Y-131955651D01*
X146857135Y-131961278D01*
X146840492Y-131966103D01*
X146824396Y-131970187D01*
X146808982Y-131973592D01*
X146794388Y-131976379D01*
X146780751Y-131978612D01*
X146768206Y-131980350D01*
X146756891Y-131981657D01*
X146746941Y-131982593D01*
X146738495Y-131983220D01*
X146731687Y-131983601D01*
X146723537Y-131983868D01*
X146722467Y-131983879D01*
X146589866Y-131983879D01*
X146589866Y-131722394D01*
X146662983Y-131722394D01*
X146672552Y-131722113D01*
X146681524Y-131721294D01*
X146689918Y-131719973D01*
X146697752Y-131718187D01*
X146705046Y-131715970D01*
X146711819Y-131713359D01*
X146718091Y-131710389D01*
X146723880Y-131707096D01*
X146729207Y-131703517D01*
X146738549Y-131695641D01*
X146746270Y-131687049D01*
X146752526Y-131678026D01*
X146757470Y-131668859D01*
X146761257Y-131659836D01*
X146764041Y-131651244D01*
X146765976Y-131643368D01*
X146767217Y-131636496D01*
X146768114Y-131628698D01*
X146768320Y-131624492D01*
X146768320Y-130797902D01*
X146768017Y-130789008D01*
X146767137Y-130780669D01*
X146765716Y-130772868D01*
X146763793Y-130765587D01*
X146761408Y-130758808D01*
X146758598Y-130752513D01*
X146755403Y-130746684D01*
X146751861Y-130741303D01*
X146748009Y-130736352D01*
X146739536Y-130727670D01*
X146730290Y-130720493D01*
X146720582Y-130714679D01*
X146710720Y-130710084D01*
X146701012Y-130706565D01*
X146691766Y-130703977D01*
X146683293Y-130702179D01*
X146675899Y-130701025D01*
X146667509Y-130700192D01*
X146662983Y-130700000D01*
X146589866Y-130700000D01*
X146589866Y-130439754D01*
X146722467Y-130439754D01*
X146756356Y-130440721D01*
G36*
X146756356Y-130440721D02*
G01*
X146788127Y-130443540D01*
X146817850Y-130448087D01*
X146845592Y-130454238D01*
X146871421Y-130461871D01*
X146895407Y-130470862D01*
X146917616Y-130481087D01*
X146938118Y-130492423D01*
X146956981Y-130504747D01*
X146974273Y-130517935D01*
X146990062Y-130531863D01*
X147004416Y-130546409D01*
X147017405Y-130561448D01*
X147029096Y-130576858D01*
X147039558Y-130592514D01*
X147048858Y-130608294D01*
X147057066Y-130624075D01*
X147064249Y-130639731D01*
X147070476Y-130655141D01*
X147075815Y-130670180D01*
X147080334Y-130684726D01*
X147084102Y-130698654D01*
X147087187Y-130711842D01*
X147089657Y-130724166D01*
X147091581Y-130735502D01*
X147093027Y-130745727D01*
X147094063Y-130754718D01*
X147094757Y-130762351D01*
X147095394Y-130773049D01*
X147095486Y-130776834D01*
X147095486Y-131646799D01*
X147094415Y-131677422D01*
X147091296Y-131706133D01*
X147086265Y-131732992D01*
X147079457Y-131758061D01*
X147071011Y-131781402D01*
X147061061Y-131803077D01*
X147049746Y-131823146D01*
X147037201Y-131841673D01*
X147023564Y-131858718D01*
X147008970Y-131874344D01*
X146993556Y-131888612D01*
X146977460Y-131901584D01*
X146960817Y-131913321D01*
X146943764Y-131923886D01*
X146926438Y-131933339D01*
X146908976Y-131941744D01*
X146891514Y-131949160D01*
X146874188Y-131955651D01*
X146857135Y-131961278D01*
X146840492Y-131966103D01*
X146824396Y-131970187D01*
X146808982Y-131973592D01*
X146794388Y-131976379D01*
X146780751Y-131978612D01*
X146768206Y-131980350D01*
X146756891Y-131981657D01*
X146746941Y-131982593D01*
X146738495Y-131983220D01*
X146731687Y-131983601D01*
X146723537Y-131983868D01*
X146722467Y-131983879D01*
X146589866Y-131983879D01*
X146589866Y-131722394D01*
X146662983Y-131722394D01*
X146672552Y-131722113D01*
X146681524Y-131721294D01*
X146689918Y-131719973D01*
X146697752Y-131718187D01*
X146705046Y-131715970D01*
X146711819Y-131713359D01*
X146718091Y-131710389D01*
X146723880Y-131707096D01*
X146729207Y-131703517D01*
X146738549Y-131695641D01*
X146746270Y-131687049D01*
X146752526Y-131678026D01*
X146757470Y-131668859D01*
X146761257Y-131659836D01*
X146764041Y-131651244D01*
X146765976Y-131643368D01*
X146767217Y-131636496D01*
X146768114Y-131628698D01*
X146768320Y-131624492D01*
X146768320Y-130797902D01*
X146768017Y-130789008D01*
X146767137Y-130780669D01*
X146765716Y-130772868D01*
X146763793Y-130765587D01*
X146761408Y-130758808D01*
X146758598Y-130752513D01*
X146755403Y-130746684D01*
X146751861Y-130741303D01*
X146748009Y-130736352D01*
X146739536Y-130727670D01*
X146730290Y-130720493D01*
X146720582Y-130714679D01*
X146710720Y-130710084D01*
X146701012Y-130706565D01*
X146691766Y-130703977D01*
X146683293Y-130702179D01*
X146675899Y-130701025D01*
X146667509Y-130700192D01*
X146662983Y-130700000D01*
X146589866Y-130700000D01*
X146589866Y-130439754D01*
X146722467Y-130439754D01*
X146756356Y-130440721D01*
G37*
D15*
%TO.C,D21*%
X140912500Y-113009180D02*
X143197500Y-113009180D01*
X143197500Y-111539180D02*
X140912500Y-111539180D01*
X143197500Y-113009180D02*
X143197500Y-111539180D01*
%TO.C,C4*%
X148340000Y-112392164D02*
X148340000Y-112607836D01*
X149060000Y-112392164D02*
X149060000Y-112607836D01*
%TO.C,D5*%
X140912500Y-75589836D02*
X143197500Y-75589836D01*
X143197500Y-74119836D02*
X140912500Y-74119836D01*
X143197500Y-75589836D02*
X143197500Y-74119836D01*
%TO.C,C11*%
X149340000Y-83187836D02*
X149340000Y-82972164D01*
X150060000Y-83187836D02*
X150060000Y-82972164D01*
%TO.C,R2*%
X132120000Y-137053641D02*
X132120000Y-136746359D01*
X132880000Y-137053641D02*
X132880000Y-136746359D01*
%TO.C,D30*%
X140912500Y-134057561D02*
X143197500Y-134057561D01*
X143197500Y-132587561D02*
X140912500Y-132587561D01*
X143197500Y-134057561D02*
X143197500Y-132587561D01*
%TO.C,R1*%
X146020000Y-125646359D02*
X146020000Y-125953641D01*
X146780000Y-125646359D02*
X146780000Y-125953641D01*
D16*
%TO.C,U3*%
X143944000Y-80593685D02*
X143944000Y-81331376D01*
X143944000Y-84767994D02*
X143944000Y-85505685D01*
X143944000Y-85505685D02*
X144682006Y-85505685D01*
X144682006Y-80593685D02*
X143944000Y-80593685D01*
X148117994Y-85505685D02*
X148856000Y-85505685D01*
X148856000Y-80593685D02*
X148117994Y-80593685D01*
X148856000Y-81331376D02*
X148856000Y-80593685D01*
X148856000Y-85505685D02*
X148856000Y-84767994D01*
D17*
G36*
X143746000Y-83490248D02*
G01*
X143492000Y-83490248D01*
X143492000Y-83109248D01*
X143746000Y-83109248D01*
X143746000Y-83490248D01*
G37*
G36*
X149308000Y-83990374D02*
G01*
X149054000Y-83990374D01*
X149054000Y-83609374D01*
X149308000Y-83609374D01*
X149308000Y-83990374D01*
G37*
D15*
%TO.C,D16*%
X140912500Y-101315635D02*
X143197500Y-101315635D01*
X143197500Y-99845635D02*
X140912500Y-99845635D01*
X143197500Y-101315635D02*
X143197500Y-99845635D01*
%TO.C,J1*%
X161014000Y-101455000D02*
X161649000Y-101455000D01*
X161014000Y-102090000D02*
X161014000Y-101455000D01*
%TO.C,D6*%
X140912500Y-77928545D02*
X143197500Y-77928545D01*
X143197500Y-76458545D02*
X140912500Y-76458545D01*
X143197500Y-77928545D02*
X143197500Y-76458545D01*
%TO.C,D32*%
X140912500Y-138735000D02*
X143197500Y-138735000D01*
X143197500Y-137265000D02*
X140912500Y-137265000D01*
X143197500Y-138735000D02*
X143197500Y-137265000D01*
%TO.C,D19*%
X140912500Y-108331762D02*
X143197500Y-108331762D01*
X143197500Y-106861762D02*
X140912500Y-106861762D01*
X143197500Y-108331762D02*
X143197500Y-106861762D01*
%TO.C,D28*%
X140912500Y-129380143D02*
X143197500Y-129380143D01*
X143197500Y-127910143D02*
X140912500Y-127910143D01*
X143197500Y-129380143D02*
X143197500Y-127910143D01*
%TO.C,D8*%
X140912500Y-82605963D02*
X143197500Y-82605963D01*
X143197500Y-81135963D02*
X140912500Y-81135963D01*
X143197500Y-82605963D02*
X143197500Y-81135963D01*
%TO.C,D12*%
X140912500Y-91960799D02*
X143197500Y-91960799D01*
X143197500Y-90490799D02*
X140912500Y-90490799D01*
X143197500Y-91960799D02*
X143197500Y-90490799D01*
%TO.C,R5*%
X138253641Y-129920000D02*
X137946359Y-129920000D01*
X138253641Y-130680000D02*
X137946359Y-130680000D01*
%TO.C,D3*%
X140912500Y-70912418D02*
X143197500Y-70912418D01*
X143197500Y-69442418D02*
X140912500Y-69442418D01*
X143197500Y-70912418D02*
X143197500Y-69442418D01*
%TO.C,D17*%
X140912500Y-103654344D02*
X143197500Y-103654344D01*
X143197500Y-102184344D02*
X140912500Y-102184344D01*
X143197500Y-103654344D02*
X143197500Y-102184344D01*
%TO.C,C3*%
X133457836Y-139360000D02*
X133242164Y-139360000D01*
X133457836Y-138640000D02*
X133242164Y-138640000D01*
%TO.C,D22*%
X140912500Y-115347889D02*
X143197500Y-115347889D01*
X143197500Y-113877889D02*
X140912500Y-113877889D01*
X143197500Y-115347889D02*
X143197500Y-113877889D01*
%TO.C,D31*%
X140912500Y-136396270D02*
X143197500Y-136396270D01*
X143197500Y-134926270D02*
X140912500Y-134926270D01*
X143197500Y-136396270D02*
X143197500Y-134926270D01*
%TO.C,D9*%
X140912500Y-84944672D02*
X143197500Y-84944672D01*
X143197500Y-83474672D02*
X140912500Y-83474672D01*
X143197500Y-84944672D02*
X143197500Y-83474672D01*
D13*
%TO.C,BT2*%
X147450000Y-126500000D02*
X147450000Y-129500000D01*
D10*
X155800000Y-115300000D02*
X159200000Y-115300000D01*
X155800000Y-118600000D02*
X155800000Y-115300000D01*
X155800000Y-140700000D02*
X155800000Y-137400000D01*
X159200000Y-115300000D02*
X159200000Y-118600000D01*
X159200000Y-137400000D02*
X159200000Y-140700000D01*
X159200000Y-140700000D02*
X155800000Y-140700000D01*
X166959387Y-128000000D02*
G75*
G02*
X148040613Y-128000000I-9459387J0D01*
G01*
X148040613Y-128000000D02*
G75*
G02*
X166959387Y-128000000I9459387J0D01*
G01*
D15*
%TO.C,U6*%
X149990000Y-110590000D02*
X150215000Y-110590000D01*
X149990000Y-110815000D02*
X149990000Y-110590000D01*
X149990000Y-114810000D02*
X149990000Y-114585000D01*
X150215000Y-114810000D02*
X149990000Y-114810000D01*
X153985000Y-110590000D02*
X154210000Y-110590000D01*
X154210000Y-110590000D02*
X154210000Y-110815000D01*
X154210000Y-114585000D02*
X154210000Y-114810000D01*
X154210000Y-114810000D02*
X153985000Y-114810000D01*
X149460000Y-111200000D02*
X149130000Y-111440000D01*
X149130000Y-110960000D01*
X149460000Y-111200000D01*
G36*
X149460000Y-111200000D02*
G01*
X149130000Y-111440000D01*
X149130000Y-110960000D01*
X149460000Y-111200000D01*
G37*
%TO.C,U1*%
X151300000Y-116072500D02*
X151300000Y-116072500D01*
X151300000Y-116572500D02*
X151300000Y-116272500D01*
X151300000Y-117772500D02*
X151300000Y-117772500D01*
X151300000Y-118272500D02*
X151300000Y-117772500D01*
X151800000Y-116072500D02*
X151500000Y-116072500D01*
X151800000Y-118272500D02*
X151300000Y-118272500D01*
X153000000Y-116072500D02*
X153500000Y-116072500D01*
X153000000Y-118272500D02*
X153000000Y-118272500D01*
X153500000Y-116072500D02*
X153500000Y-116572500D01*
X153500000Y-116572500D02*
X153500000Y-116572500D01*
X153500000Y-117772500D02*
X153500000Y-118272500D01*
X153500000Y-118272500D02*
X153000000Y-118272500D01*
X151300000Y-116072500D02*
X150940000Y-116072500D01*
X151300000Y-115712500D01*
X151300000Y-116072500D01*
G36*
X151300000Y-116072500D02*
G01*
X150940000Y-116072500D01*
X151300000Y-115712500D01*
X151300000Y-116072500D01*
G37*
%TO.C,C2*%
X147292164Y-133360000D02*
X147507836Y-133360000D01*
X147292164Y-132640000D02*
X147507836Y-132640000D01*
D13*
%TO.C,REF\u002A\u002A*%
X165723975Y-112500000D02*
G75*
G02*
X162676025Y-112500000I-1523975J0D01*
G01*
X162676025Y-112500000D02*
G75*
G02*
X165723975Y-112500000I1523975J0D01*
G01*
D14*
X163470906Y-113283879D02*
X163143740Y-113283879D01*
X163143740Y-111739754D01*
X163470906Y-111739754D01*
X163470906Y-113283879D01*
G36*
X163470906Y-113283879D02*
G01*
X163143740Y-113283879D01*
X163143740Y-111739754D01*
X163470906Y-111739754D01*
X163470906Y-113283879D01*
G37*
X164128956Y-112000000D02*
X163568808Y-112000000D01*
X163568808Y-111739754D01*
X164116564Y-111739754D01*
X164128956Y-112000000D01*
G36*
X164128956Y-112000000D02*
G01*
X163568808Y-112000000D01*
X163568808Y-111739754D01*
X164116564Y-111739754D01*
X164128956Y-112000000D01*
G37*
X164008748Y-112630786D02*
X163568808Y-112630786D01*
X163568808Y-112391608D01*
X164008748Y-112391608D01*
X164008748Y-112630786D01*
G36*
X164008748Y-112630786D02*
G01*
X163568808Y-112630786D01*
X163568808Y-112391608D01*
X164008748Y-112391608D01*
X164008748Y-112630786D01*
G37*
X164116564Y-113283879D02*
X163568808Y-113283879D01*
X163568808Y-113022394D01*
X164128956Y-113022394D01*
X164116564Y-113283879D01*
G36*
X164116564Y-113283879D02*
G01*
X163568808Y-113283879D01*
X163568808Y-113022394D01*
X164128956Y-113022394D01*
X164116564Y-113283879D01*
G37*
X164793203Y-112000000D02*
X164723804Y-112000000D01*
X164714234Y-112000281D01*
X164705262Y-112001100D01*
X164696868Y-112002421D01*
X164689034Y-112004207D01*
X164681740Y-112006424D01*
X164674967Y-112009035D01*
X164668695Y-112012005D01*
X164662906Y-112015298D01*
X164657579Y-112018877D01*
X164648237Y-112026753D01*
X164640516Y-112035345D01*
X164634260Y-112044368D01*
X164629316Y-112053535D01*
X164625529Y-112062558D01*
X164622745Y-112071150D01*
X164620810Y-112079026D01*
X164619569Y-112085898D01*
X164618672Y-112093696D01*
X164618467Y-112097902D01*
X164618467Y-112924492D01*
X164618769Y-112933386D01*
X164619649Y-112941725D01*
X164621070Y-112949526D01*
X164622993Y-112956807D01*
X164625378Y-112963586D01*
X164628188Y-112969881D01*
X164631383Y-112975710D01*
X164634925Y-112981091D01*
X164638777Y-112986042D01*
X164647250Y-112994724D01*
X164656496Y-113001901D01*
X164666204Y-113007715D01*
X164676066Y-113012310D01*
X164685774Y-113015829D01*
X164695020Y-113018417D01*
X164703493Y-113020215D01*
X164710887Y-113021369D01*
X164719277Y-113022202D01*
X164723804Y-113022394D01*
X164793203Y-113022394D01*
X164793203Y-113283879D01*
X164664319Y-113283879D01*
X164630429Y-113282912D01*
X164598658Y-113280093D01*
X164568935Y-113275546D01*
X164541193Y-113269395D01*
X164515364Y-113261762D01*
X164491378Y-113252771D01*
X164469169Y-113242546D01*
X164448667Y-113231210D01*
X164429804Y-113218886D01*
X164412512Y-113205698D01*
X164396723Y-113191770D01*
X164382369Y-113177224D01*
X164369380Y-113162185D01*
X164357689Y-113146775D01*
X164347227Y-113131119D01*
X164337927Y-113115339D01*
X164329719Y-113099558D01*
X164322536Y-113083902D01*
X164316309Y-113068492D01*
X164310970Y-113053453D01*
X164306451Y-113038907D01*
X164302683Y-113024979D01*
X164299598Y-113011791D01*
X164297128Y-112999467D01*
X164295204Y-112988131D01*
X164293758Y-112977906D01*
X164292722Y-112968915D01*
X164292028Y-112961282D01*
X164291391Y-112950584D01*
X164291300Y-112946799D01*
X164291300Y-112076834D01*
X164292370Y-112046211D01*
X164295489Y-112017500D01*
X164300520Y-111990641D01*
X164307328Y-111965572D01*
X164315774Y-111942231D01*
X164325724Y-111920556D01*
X164337039Y-111900487D01*
X164349584Y-111881960D01*
X164363221Y-111864915D01*
X164377815Y-111849289D01*
X164393229Y-111835021D01*
X164409325Y-111822049D01*
X164425968Y-111810312D01*
X164443021Y-111799747D01*
X164460347Y-111790294D01*
X164477809Y-111781889D01*
X164495271Y-111774473D01*
X164512597Y-111767982D01*
X164529650Y-111762355D01*
X164546293Y-111757530D01*
X164562389Y-111753446D01*
X164577803Y-111750041D01*
X164592397Y-111747254D01*
X164606034Y-111745021D01*
X164618579Y-111743283D01*
X164629894Y-111741976D01*
X164639844Y-111741040D01*
X164648290Y-111740413D01*
X164655098Y-111740032D01*
X164663248Y-111739765D01*
X164664319Y-111739754D01*
X164793203Y-111739754D01*
X164793203Y-112000000D01*
G36*
X164793203Y-112000000D02*
G01*
X164723804Y-112000000D01*
X164714234Y-112000281D01*
X164705262Y-112001100D01*
X164696868Y-112002421D01*
X164689034Y-112004207D01*
X164681740Y-112006424D01*
X164674967Y-112009035D01*
X164668695Y-112012005D01*
X164662906Y-112015298D01*
X164657579Y-112018877D01*
X164648237Y-112026753D01*
X164640516Y-112035345D01*
X164634260Y-112044368D01*
X164629316Y-112053535D01*
X164625529Y-112062558D01*
X164622745Y-112071150D01*
X164620810Y-112079026D01*
X164619569Y-112085898D01*
X164618672Y-112093696D01*
X164618467Y-112097902D01*
X164618467Y-112924492D01*
X164618769Y-112933386D01*
X164619649Y-112941725D01*
X164621070Y-112949526D01*
X164622993Y-112956807D01*
X164625378Y-112963586D01*
X164628188Y-112969881D01*
X164631383Y-112975710D01*
X164634925Y-112981091D01*
X164638777Y-112986042D01*
X164647250Y-112994724D01*
X164656496Y-113001901D01*
X164666204Y-113007715D01*
X164676066Y-113012310D01*
X164685774Y-113015829D01*
X164695020Y-113018417D01*
X164703493Y-113020215D01*
X164710887Y-113021369D01*
X164719277Y-113022202D01*
X164723804Y-113022394D01*
X164793203Y-113022394D01*
X164793203Y-113283879D01*
X164664319Y-113283879D01*
X164630429Y-113282912D01*
X164598658Y-113280093D01*
X164568935Y-113275546D01*
X164541193Y-113269395D01*
X164515364Y-113261762D01*
X164491378Y-113252771D01*
X164469169Y-113242546D01*
X164448667Y-113231210D01*
X164429804Y-113218886D01*
X164412512Y-113205698D01*
X164396723Y-113191770D01*
X164382369Y-113177224D01*
X164369380Y-113162185D01*
X164357689Y-113146775D01*
X164347227Y-113131119D01*
X164337927Y-113115339D01*
X164329719Y-113099558D01*
X164322536Y-113083902D01*
X164316309Y-113068492D01*
X164310970Y-113053453D01*
X164306451Y-113038907D01*
X164302683Y-113024979D01*
X164299598Y-113011791D01*
X164297128Y-112999467D01*
X164295204Y-112988131D01*
X164293758Y-112977906D01*
X164292722Y-112968915D01*
X164292028Y-112961282D01*
X164291391Y-112950584D01*
X164291300Y-112946799D01*
X164291300Y-112076834D01*
X164292370Y-112046211D01*
X164295489Y-112017500D01*
X164300520Y-111990641D01*
X164307328Y-111965572D01*
X164315774Y-111942231D01*
X164325724Y-111920556D01*
X164337039Y-111900487D01*
X164349584Y-111881960D01*
X164363221Y-111864915D01*
X164377815Y-111849289D01*
X164393229Y-111835021D01*
X164409325Y-111822049D01*
X164425968Y-111810312D01*
X164443021Y-111799747D01*
X164460347Y-111790294D01*
X164477809Y-111781889D01*
X164495271Y-111774473D01*
X164512597Y-111767982D01*
X164529650Y-111762355D01*
X164546293Y-111757530D01*
X164562389Y-111753446D01*
X164577803Y-111750041D01*
X164592397Y-111747254D01*
X164606034Y-111745021D01*
X164618579Y-111743283D01*
X164629894Y-111741976D01*
X164639844Y-111741040D01*
X164648290Y-111740413D01*
X164655098Y-111740032D01*
X164663248Y-111739765D01*
X164664319Y-111739754D01*
X164793203Y-111739754D01*
X164793203Y-112000000D01*
G37*
X165056356Y-111740721D02*
X165088127Y-111743540D01*
X165117850Y-111748087D01*
X165145592Y-111754238D01*
X165171421Y-111761871D01*
X165195407Y-111770862D01*
X165217616Y-111781087D01*
X165238118Y-111792423D01*
X165256981Y-111804747D01*
X165274273Y-111817935D01*
X165290062Y-111831863D01*
X165304416Y-111846409D01*
X165317405Y-111861448D01*
X165329096Y-111876858D01*
X165339558Y-111892514D01*
X165348858Y-111908294D01*
X165357066Y-111924075D01*
X165364249Y-111939731D01*
X165370476Y-111955141D01*
X165375815Y-111970180D01*
X165380334Y-111984726D01*
X165384102Y-111998654D01*
X165387187Y-112011842D01*
X165389657Y-112024166D01*
X165391581Y-112035502D01*
X165393027Y-112045727D01*
X165394063Y-112054718D01*
X165394757Y-112062351D01*
X165395394Y-112073049D01*
X165395486Y-112076834D01*
X165395486Y-112946799D01*
X165394415Y-112977422D01*
X165391296Y-113006133D01*
X165386265Y-113032992D01*
X165379457Y-113058061D01*
X165371011Y-113081402D01*
X165361061Y-113103077D01*
X165349746Y-113123146D01*
X165337201Y-113141673D01*
X165323564Y-113158718D01*
X165308970Y-113174344D01*
X165293556Y-113188612D01*
X165277460Y-113201584D01*
X165260817Y-113213321D01*
X165243764Y-113223886D01*
X165226438Y-113233339D01*
X165208976Y-113241744D01*
X165191514Y-113249160D01*
X165174188Y-113255651D01*
X165157135Y-113261278D01*
X165140492Y-113266103D01*
X165124396Y-113270187D01*
X165108982Y-113273592D01*
X165094388Y-113276379D01*
X165080751Y-113278612D01*
X165068206Y-113280350D01*
X165056891Y-113281657D01*
X165046941Y-113282593D01*
X165038495Y-113283220D01*
X165031687Y-113283601D01*
X165023537Y-113283868D01*
X165022467Y-113283879D01*
X164889866Y-113283879D01*
X164889866Y-113022394D01*
X164962983Y-113022394D01*
X164972552Y-113022113D01*
X164981524Y-113021294D01*
X164989918Y-113019973D01*
X164997752Y-113018187D01*
X165005046Y-113015970D01*
X165011819Y-113013359D01*
X165018091Y-113010389D01*
X165023880Y-113007096D01*
X165029207Y-113003517D01*
X165038549Y-112995641D01*
X165046270Y-112987049D01*
X165052526Y-112978026D01*
X165057470Y-112968859D01*
X165061257Y-112959836D01*
X165064041Y-112951244D01*
X165065976Y-112943368D01*
X165067217Y-112936496D01*
X165068114Y-112928698D01*
X165068320Y-112924492D01*
X165068320Y-112097902D01*
X165068017Y-112089008D01*
X165067137Y-112080669D01*
X165065716Y-112072868D01*
X165063793Y-112065587D01*
X165061408Y-112058808D01*
X165058598Y-112052513D01*
X165055403Y-112046684D01*
X165051861Y-112041303D01*
X165048009Y-112036352D01*
X165039536Y-112027670D01*
X165030290Y-112020493D01*
X165020582Y-112014679D01*
X165010720Y-112010084D01*
X165001012Y-112006565D01*
X164991766Y-112003977D01*
X164983293Y-112002179D01*
X164975899Y-112001025D01*
X164967509Y-112000192D01*
X164962983Y-112000000D01*
X164889866Y-112000000D01*
X164889866Y-111739754D01*
X165022467Y-111739754D01*
X165056356Y-111740721D01*
G36*
X165056356Y-111740721D02*
G01*
X165088127Y-111743540D01*
X165117850Y-111748087D01*
X165145592Y-111754238D01*
X165171421Y-111761871D01*
X165195407Y-111770862D01*
X165217616Y-111781087D01*
X165238118Y-111792423D01*
X165256981Y-111804747D01*
X165274273Y-111817935D01*
X165290062Y-111831863D01*
X165304416Y-111846409D01*
X165317405Y-111861448D01*
X165329096Y-111876858D01*
X165339558Y-111892514D01*
X165348858Y-111908294D01*
X165357066Y-111924075D01*
X165364249Y-111939731D01*
X165370476Y-111955141D01*
X165375815Y-111970180D01*
X165380334Y-111984726D01*
X165384102Y-111998654D01*
X165387187Y-112011842D01*
X165389657Y-112024166D01*
X165391581Y-112035502D01*
X165393027Y-112045727D01*
X165394063Y-112054718D01*
X165394757Y-112062351D01*
X165395394Y-112073049D01*
X165395486Y-112076834D01*
X165395486Y-112946799D01*
X165394415Y-112977422D01*
X165391296Y-113006133D01*
X165386265Y-113032992D01*
X165379457Y-113058061D01*
X165371011Y-113081402D01*
X165361061Y-113103077D01*
X165349746Y-113123146D01*
X165337201Y-113141673D01*
X165323564Y-113158718D01*
X165308970Y-113174344D01*
X165293556Y-113188612D01*
X165277460Y-113201584D01*
X165260817Y-113213321D01*
X165243764Y-113223886D01*
X165226438Y-113233339D01*
X165208976Y-113241744D01*
X165191514Y-113249160D01*
X165174188Y-113255651D01*
X165157135Y-113261278D01*
X165140492Y-113266103D01*
X165124396Y-113270187D01*
X165108982Y-113273592D01*
X165094388Y-113276379D01*
X165080751Y-113278612D01*
X165068206Y-113280350D01*
X165056891Y-113281657D01*
X165046941Y-113282593D01*
X165038495Y-113283220D01*
X165031687Y-113283601D01*
X165023537Y-113283868D01*
X165022467Y-113283879D01*
X164889866Y-113283879D01*
X164889866Y-113022394D01*
X164962983Y-113022394D01*
X164972552Y-113022113D01*
X164981524Y-113021294D01*
X164989918Y-113019973D01*
X164997752Y-113018187D01*
X165005046Y-113015970D01*
X165011819Y-113013359D01*
X165018091Y-113010389D01*
X165023880Y-113007096D01*
X165029207Y-113003517D01*
X165038549Y-112995641D01*
X165046270Y-112987049D01*
X165052526Y-112978026D01*
X165057470Y-112968859D01*
X165061257Y-112959836D01*
X165064041Y-112951244D01*
X165065976Y-112943368D01*
X165067217Y-112936496D01*
X165068114Y-112928698D01*
X165068320Y-112924492D01*
X165068320Y-112097902D01*
X165068017Y-112089008D01*
X165067137Y-112080669D01*
X165065716Y-112072868D01*
X165063793Y-112065587D01*
X165061408Y-112058808D01*
X165058598Y-112052513D01*
X165055403Y-112046684D01*
X165051861Y-112041303D01*
X165048009Y-112036352D01*
X165039536Y-112027670D01*
X165030290Y-112020493D01*
X165020582Y-112014679D01*
X165010720Y-112010084D01*
X165001012Y-112006565D01*
X164991766Y-112003977D01*
X164983293Y-112002179D01*
X164975899Y-112001025D01*
X164967509Y-112000192D01*
X164962983Y-112000000D01*
X164889866Y-112000000D01*
X164889866Y-111739754D01*
X165022467Y-111739754D01*
X165056356Y-111740721D01*
G37*
D15*
%TO.C,C7*%
X154807836Y-117060000D02*
X154592164Y-117060000D01*
X154807836Y-116340000D02*
X154592164Y-116340000D01*
%TO.C,D26*%
X140912500Y-124702725D02*
X143197500Y-124702725D01*
X143197500Y-123232725D02*
X140912500Y-123232725D01*
X143197500Y-124702725D02*
X143197500Y-123232725D01*
%TO.C,C1*%
X149540000Y-137492164D02*
X149540000Y-137707836D01*
X150260000Y-137492164D02*
X150260000Y-137707836D01*
%TO.C,R3*%
X134746359Y-134020000D02*
X135053641Y-134020000D01*
X134746359Y-134780000D02*
X135053641Y-134780000D01*
%TO.C,D25*%
X140912500Y-122364016D02*
X143197500Y-122364016D01*
X143197500Y-120894016D02*
X140912500Y-120894016D01*
X143197500Y-122364016D02*
X143197500Y-120894016D01*
%TO.C,SW1*%
X133450000Y-113900000D02*
X133450000Y-115900000D01*
X134450000Y-112600000D02*
X134900000Y-112150000D01*
X134450000Y-117200000D02*
X134900000Y-117650000D01*
X134900000Y-112150000D02*
X137500000Y-112150000D01*
X134900000Y-117650000D02*
X137500000Y-117650000D01*
X137950000Y-112600000D02*
X137500000Y-112150000D01*
X137950000Y-117200000D02*
X137500000Y-117650000D01*
X138950000Y-113900000D02*
X138950000Y-115900000D01*
%TO.C,Q1*%
X136200000Y-135840000D02*
X135550000Y-135840000D01*
X136200000Y-135840000D02*
X136850000Y-135840000D01*
X136200000Y-138960000D02*
X135550000Y-138960000D01*
X136200000Y-138960000D02*
X136850000Y-138960000D01*
X135037500Y-135890000D02*
X134797500Y-135560000D01*
X135277500Y-135560000D01*
X135037500Y-135890000D01*
G36*
X135037500Y-135890000D02*
G01*
X134797500Y-135560000D01*
X135277500Y-135560000D01*
X135037500Y-135890000D01*
G37*
%TO.C,D4*%
X140912500Y-73251127D02*
X143197500Y-73251127D01*
X143197500Y-71781127D02*
X140912500Y-71781127D01*
X143197500Y-73251127D02*
X143197500Y-71781127D01*
%TO.C,U4*%
X156290000Y-110840000D02*
X158110000Y-110840000D01*
X156290000Y-110890000D02*
X156290000Y-110840000D01*
X156290000Y-113960000D02*
X156290000Y-113910000D01*
X158110000Y-110840000D02*
X158110000Y-110890000D01*
X158110000Y-113910000D02*
X158110000Y-113960000D01*
X158110000Y-113960000D02*
X156290000Y-113960000D01*
X158890000Y-114240000D02*
X158410000Y-114240000D01*
X158650000Y-113910000D01*
X158890000Y-114240000D01*
G36*
X158890000Y-114240000D02*
G01*
X158410000Y-114240000D01*
X158650000Y-113910000D01*
X158890000Y-114240000D01*
G37*
D16*
%TO.C,U5*%
X143944000Y-117944000D02*
X143944000Y-118681691D01*
X143944000Y-122118309D02*
X143944000Y-122856000D01*
X143944000Y-122856000D02*
X144682006Y-122856000D01*
X144682006Y-117944000D02*
X143944000Y-117944000D01*
X148117994Y-122856000D02*
X148856000Y-122856000D01*
X148856000Y-117944000D02*
X148117994Y-117944000D01*
X148856000Y-118681691D02*
X148856000Y-117944000D01*
X148856000Y-122856000D02*
X148856000Y-122118309D01*
D17*
G36*
X143746000Y-120840563D02*
G01*
X143492000Y-120840563D01*
X143492000Y-120459563D01*
X143746000Y-120459563D01*
X143746000Y-120840563D01*
G37*
G36*
X149308000Y-121340689D02*
G01*
X149054000Y-121340689D01*
X149054000Y-120959689D01*
X149308000Y-120959689D01*
X149308000Y-121340689D01*
G37*
D15*
%TO.C,D11*%
X140912500Y-89622090D02*
X143197500Y-89622090D01*
X143197500Y-88152090D02*
X140912500Y-88152090D01*
X143197500Y-89622090D02*
X143197500Y-88152090D01*
%TO.C,D1*%
X140912500Y-66235000D02*
X143197500Y-66235000D01*
X143197500Y-64765000D02*
X140912500Y-64765000D01*
X143197500Y-66235000D02*
X143197500Y-64765000D01*
%TO.C,C6*%
X133240000Y-137007836D02*
X133240000Y-136792164D01*
X133960000Y-137007836D02*
X133960000Y-136792164D01*
%TO.C,U2*%
X153340000Y-107090000D02*
X153390000Y-107090000D01*
X153340000Y-108910000D02*
X153340000Y-107090000D01*
X153390000Y-108910000D02*
X153340000Y-108910000D01*
X156410000Y-107090000D02*
X156460000Y-107090000D01*
X156460000Y-107090000D02*
X156460000Y-108910000D01*
X156460000Y-108910000D02*
X156410000Y-108910000D01*
X156740000Y-106790000D02*
X156410000Y-106550000D01*
X156740000Y-106310000D01*
X156740000Y-106790000D01*
G36*
X156740000Y-106790000D02*
G01*
X156410000Y-106550000D01*
X156740000Y-106310000D01*
X156740000Y-106790000D01*
G37*
%TO.C,D18*%
X140912500Y-105993053D02*
X143197500Y-105993053D01*
X143197500Y-104523053D02*
X140912500Y-104523053D01*
X143197500Y-105993053D02*
X143197500Y-104523053D01*
%TO.C,C9*%
X158092164Y-108040000D02*
X158307836Y-108040000D01*
X158092164Y-108760000D02*
X158307836Y-108760000D01*
%TO.C,D7*%
X140912500Y-80267254D02*
X143197500Y-80267254D01*
X143197500Y-78797254D02*
X140912500Y-78797254D01*
X143197500Y-80267254D02*
X143197500Y-78797254D01*
%TO.C,C8*%
X149240000Y-120007836D02*
X149240000Y-119792164D01*
X149960000Y-120007836D02*
X149960000Y-119792164D01*
%TO.C,D27*%
X140912500Y-127041434D02*
X143197500Y-127041434D01*
X143197500Y-125571434D02*
X140912500Y-125571434D01*
X143197500Y-127041434D02*
X143197500Y-125571434D01*
%TO.C,D10*%
X140912500Y-87283381D02*
X143197500Y-87283381D01*
X143197500Y-85813381D02*
X140912500Y-85813381D01*
X143197500Y-87283381D02*
X143197500Y-85813381D01*
%TO.C,D13*%
X140912500Y-94299508D02*
X143197500Y-94299508D01*
X143197500Y-92829508D02*
X140912500Y-92829508D01*
X143197500Y-94299508D02*
X143197500Y-92829508D01*
%TO.C,C10*%
X157907836Y-109740000D02*
X157692164Y-109740000D01*
X157907836Y-110460000D02*
X157692164Y-110460000D01*
%TO.C,D20*%
X140912500Y-110670471D02*
X143197500Y-110670471D01*
X143197500Y-109200471D02*
X140912500Y-109200471D01*
X143197500Y-110670471D02*
X143197500Y-109200471D01*
%TO.C,R4*%
X149946359Y-84120000D02*
X150253641Y-84120000D01*
X149946359Y-84880000D02*
X150253641Y-84880000D01*
%TO.C,D23*%
X140912500Y-117686598D02*
X143197500Y-117686598D01*
X143197500Y-116216598D02*
X140912500Y-116216598D01*
X143197500Y-117686598D02*
X143197500Y-116216598D01*
%TO.C,Q2*%
X136140000Y-132900000D02*
X136140000Y-132250000D01*
X136140000Y-132900000D02*
X136140000Y-133550000D01*
X139260000Y-132900000D02*
X139260000Y-132250000D01*
X139260000Y-132900000D02*
X139260000Y-133550000D01*
X139540000Y-131977500D02*
X139210000Y-131737500D01*
X139540000Y-131497500D01*
X139540000Y-131977500D01*
G36*
X139540000Y-131977500D02*
G01*
X139210000Y-131737500D01*
X139540000Y-131497500D01*
X139540000Y-131977500D01*
G37*
%TO.C,D14*%
X140912500Y-96638217D02*
X143197500Y-96638217D01*
X143197500Y-95168217D02*
X140912500Y-95168217D01*
X143197500Y-96638217D02*
X143197500Y-95168217D01*
%TO.C,U7*%
X145140000Y-133702500D02*
X147860000Y-133702500D01*
X145140000Y-134682500D02*
X145140000Y-133702500D01*
X145140000Y-137442500D02*
X145140000Y-138422500D01*
X147720000Y-138422500D02*
X145140000Y-138422500D01*
X148510000Y-138602500D02*
X148030000Y-138602500D01*
X148270000Y-138272500D01*
X148510000Y-138602500D01*
G36*
X148510000Y-138602500D02*
G01*
X148030000Y-138602500D01*
X148270000Y-138272500D01*
X148510000Y-138602500D01*
G37*
%TO.C,D15*%
X140912500Y-98976926D02*
X143197500Y-98976926D01*
X143197500Y-97506926D02*
X140912500Y-97506926D01*
X143197500Y-98976926D02*
X143197500Y-97506926D01*
%TO.C,C5*%
X150090000Y-117542164D02*
X150090000Y-117757836D01*
X150810000Y-117542164D02*
X150810000Y-117757836D01*
%TO.C,D2*%
X140912500Y-68573709D02*
X143197500Y-68573709D01*
X143197500Y-67103709D02*
X140912500Y-67103709D01*
X143197500Y-68573709D02*
X143197500Y-67103709D01*
D10*
%TO.C,BT1*%
X123800000Y-115300000D02*
X127200000Y-115300000D01*
X123800000Y-118600000D02*
X123800000Y-115300000D01*
X123800000Y-140700000D02*
X123800000Y-137400000D01*
X127200000Y-115300000D02*
X127200000Y-118600000D01*
X127200000Y-137400000D02*
X127200000Y-140700000D01*
X127200000Y-140700000D02*
X123800000Y-140700000D01*
D13*
X135550000Y-129500000D02*
X135550000Y-126500000D01*
D10*
X134959387Y-128000000D02*
G75*
G02*
X116040613Y-128000000I-9459387J0D01*
G01*
X116040613Y-128000000D02*
G75*
G02*
X134959387Y-128000000I9459387J0D01*
G01*
D15*
%TO.C,J2*%
X162350000Y-117080000D02*
X164270000Y-117080000D01*
X164270000Y-107920000D02*
X162350000Y-107920000D01*
X166280000Y-107920000D02*
X167985000Y-107920000D01*
X167985000Y-107920000D02*
X167985000Y-117080000D01*
X167985000Y-117080000D02*
X166280000Y-117080000D01*
%TO.C,D29*%
X140912500Y-131718852D02*
X143197500Y-131718852D01*
X143197500Y-130248852D02*
X140912500Y-130248852D01*
X143197500Y-131718852D02*
X143197500Y-130248852D01*
%TO.C,D24*%
X140912500Y-120025307D02*
X143197500Y-120025307D01*
X143197500Y-118555307D02*
X140912500Y-118555307D01*
X143197500Y-120025307D02*
X143197500Y-118555307D01*
%TD*%
M02*
