%TF.GenerationSoftware,KiCad,Pcbnew,9.0.7*%
%TF.CreationDate,2026-05-24T23:03:32-04:00*%
%TF.ProjectId,POV-card-v1,504f562d-6361-4726-942d-76312e6b6963,rev?*%
%TF.SameCoordinates,Original*%
%TF.FileFunction,Copper,L2,Bot*%
%TF.FilePolarity,Positive*%
%FSLAX46Y46*%
G04 Gerber Fmt 4.6, Leading zero omitted, Abs format (unit mm)*
G04 Created by KiCad (PCBNEW 9.0.7) date 2026-05-24 23:03:32*
%MOMM*%
%LPD*%
G01*
G04 APERTURE LIST*
%TA.AperFunction,Conductor*%
%ADD10C,1.000000*%
%TD*%
%ADD11C,0.300000*%
%TA.AperFunction,NonConductor*%
%ADD12C,0.300000*%
%TD*%
%TA.AperFunction,NonConductor*%
%ADD13C,0.200000*%
%TD*%
%TA.AperFunction,HeatsinkPad*%
%ADD14O,2.200000X1.100000*%
%TD*%
%TA.AperFunction,HeatsinkPad*%
%ADD15O,2.500000X1.100000*%
%TD*%
%TA.AperFunction,ViaPad*%
%ADD16C,0.600000*%
%TD*%
%TA.AperFunction,Conductor*%
%ADD17C,0.200000*%
%TD*%
%TA.AperFunction,Conductor*%
%ADD18C,0.500000*%
%TD*%
%TA.AperFunction,Conductor*%
%ADD19C,0.250000*%
%TD*%
G04 APERTURE END LIST*
D10*
%TO.N,GND*%
X138321267Y-121121267D02*
G75*
G02*
X135478733Y-121121267I-1421267J0D01*
G01*
X135478733Y-121121267D02*
G75*
G02*
X138321267Y-121121267I1421267J0D01*
G01*
X147921267Y-66978733D02*
G75*
G02*
X145078733Y-66978733I-1421267J0D01*
G01*
X145078733Y-66978733D02*
G75*
G02*
X147921267Y-66978733I1421267J0D01*
G01*
X162142534Y-62300000D02*
G75*
G02*
X159300000Y-62300000I-1421267J0D01*
G01*
X159300000Y-62300000D02*
G75*
G02*
X162142534Y-62300000I1421267J0D01*
G01*
X164321267Y-86978733D02*
G75*
G02*
X161478733Y-86978733I-1421267J0D01*
G01*
X161478733Y-86978733D02*
G75*
G02*
X164321267Y-86978733I1421267J0D01*
G01*
X122721267Y-74278733D02*
G75*
G02*
X119878733Y-74278733I-1421267J0D01*
G01*
X119878733Y-74278733D02*
G75*
G02*
X122721267Y-74278733I1421267J0D01*
G01*
D11*
G36*
X165220921Y-119895535D02*
G01*
X165257925Y-119932539D01*
X165311104Y-120038898D01*
X165374060Y-120290720D01*
X165374060Y-120610936D01*
X165311104Y-120862757D01*
X165257924Y-120969117D01*
X165220921Y-121006121D01*
X165131508Y-121050828D01*
X165059470Y-121050828D01*
X164970057Y-121006122D01*
X164933053Y-120969118D01*
X164879873Y-120862758D01*
X164816917Y-120610934D01*
X164816917Y-120290721D01*
X164879873Y-120038897D01*
X164933053Y-119932538D01*
X164970057Y-119895534D01*
X165059470Y-119850828D01*
X165131507Y-119850828D01*
X165220921Y-119895535D01*
G37*
G36*
X167053403Y-121517495D02*
G01*
X162207393Y-121517495D01*
X162207393Y-119986542D01*
X162374060Y-119986542D01*
X162374060Y-120129400D01*
X162375518Y-120144211D01*
X162375238Y-120148161D01*
X162376419Y-120153355D01*
X162376942Y-120158664D01*
X162378458Y-120162325D01*
X162381758Y-120176835D01*
X162453187Y-120391119D01*
X162465175Y-120417970D01*
X162468705Y-120422040D01*
X162470768Y-120427020D01*
X162489423Y-120449751D01*
X163090500Y-121050828D01*
X162524060Y-121050828D01*
X162494796Y-121053710D01*
X162440724Y-121076108D01*
X162399340Y-121117492D01*
X162376942Y-121171564D01*
X162376942Y-121230092D01*
X162399340Y-121284164D01*
X162440724Y-121325548D01*
X162494796Y-121347946D01*
X162524060Y-121350828D01*
X163452632Y-121350828D01*
X163481896Y-121347946D01*
X163513169Y-121334992D01*
X163535967Y-121325549D01*
X163577353Y-121284163D01*
X163596739Y-121237361D01*
X163599750Y-121230092D01*
X163599750Y-121171564D01*
X163590974Y-121150377D01*
X163577353Y-121117492D01*
X163563110Y-121100138D01*
X163805514Y-121100138D01*
X163805514Y-121158664D01*
X163807740Y-121164037D01*
X163827911Y-121212735D01*
X163827912Y-121212736D01*
X163846567Y-121235467D01*
X163917996Y-121306895D01*
X163940725Y-121325548D01*
X163940726Y-121325549D01*
X163963524Y-121334992D01*
X163994797Y-121347946D01*
X163994798Y-121347946D01*
X163994799Y-121347946D01*
X164053324Y-121347946D01*
X164053325Y-121347946D01*
X164084598Y-121334992D01*
X164107396Y-121325549D01*
X164130127Y-121306894D01*
X164201555Y-121235466D01*
X164220210Y-121212736D01*
X164242606Y-121158663D01*
X164242606Y-121132254D01*
X164242607Y-121100138D01*
X164220210Y-121046065D01*
X164201556Y-121023335D01*
X164130128Y-120951906D01*
X164107397Y-120933251D01*
X164107396Y-120933250D01*
X164075722Y-120920130D01*
X164053325Y-120910853D01*
X163994797Y-120910853D01*
X163972400Y-120920130D01*
X163940726Y-120933250D01*
X163917995Y-120951905D01*
X163846566Y-121023334D01*
X163827911Y-121046065D01*
X163807741Y-121094762D01*
X163805514Y-121100138D01*
X163563110Y-121100138D01*
X163558698Y-121094762D01*
X162736193Y-120272257D01*
X164516917Y-120272257D01*
X164516917Y-120629400D01*
X164517419Y-120634503D01*
X164517094Y-120636691D01*
X164518713Y-120647642D01*
X164519799Y-120658664D01*
X164520645Y-120660708D01*
X164521396Y-120665781D01*
X164592825Y-120951494D01*
X164593596Y-120953652D01*
X164593673Y-120954733D01*
X164598331Y-120966907D01*
X164602718Y-120979185D01*
X164603362Y-120980055D01*
X164604182Y-120982196D01*
X164675611Y-121125053D01*
X164683539Y-121137648D01*
X164685054Y-121141305D01*
X164688433Y-121145422D01*
X164691276Y-121149939D01*
X164694270Y-121152536D01*
X164703708Y-121164036D01*
X164775136Y-121235465D01*
X164786641Y-121244907D01*
X164789236Y-121247899D01*
X164793746Y-121250738D01*
X164797867Y-121254120D01*
X164801526Y-121255635D01*
X164814121Y-121263564D01*
X164956979Y-121334992D01*
X164984442Y-121345502D01*
X164989817Y-121345883D01*
X164994796Y-121347946D01*
X165024060Y-121350828D01*
X165166917Y-121350828D01*
X165196181Y-121347946D01*
X165201159Y-121345883D01*
X165206535Y-121345502D01*
X165233998Y-121334992D01*
X165376857Y-121263564D01*
X165389451Y-121255635D01*
X165393111Y-121254120D01*
X165397231Y-121250738D01*
X165401742Y-121247899D01*
X165404336Y-121244907D01*
X165415842Y-121235465D01*
X165487270Y-121164036D01*
X165496708Y-121152535D01*
X165499702Y-121149939D01*
X165502542Y-121145426D01*
X165505924Y-121141306D01*
X165507439Y-121137646D01*
X165515367Y-121125053D01*
X165586796Y-120982197D01*
X165587615Y-120980054D01*
X165588260Y-120979185D01*
X165592644Y-120966913D01*
X165597305Y-120954733D01*
X165597381Y-120953652D01*
X165598153Y-120951494D01*
X165669581Y-120665780D01*
X165670330Y-120660708D01*
X165671178Y-120658664D01*
X165672263Y-120647641D01*
X165673883Y-120636691D01*
X165673557Y-120634503D01*
X165674060Y-120629400D01*
X165674060Y-120272257D01*
X165673557Y-120267153D01*
X165673883Y-120264966D01*
X165672263Y-120254015D01*
X165671178Y-120242993D01*
X165670330Y-120240948D01*
X165669581Y-120235877D01*
X165666299Y-120222750D01*
X165875670Y-120222750D01*
X165882799Y-120251278D01*
X166239942Y-121251278D01*
X166252498Y-121277868D01*
X166257551Y-121283450D01*
X166260774Y-121290253D01*
X166277046Y-121304984D01*
X166291778Y-121321257D01*
X166298580Y-121324479D01*
X166304163Y-121329533D01*
X166324837Y-121336916D01*
X166344670Y-121346311D01*
X166352188Y-121346684D01*
X166359281Y-121349218D01*
X166381203Y-121348127D01*
X166403125Y-121349218D01*
X166410217Y-121346684D01*
X166417736Y-121346311D01*
X166437568Y-121336916D01*
X166458243Y-121329533D01*
X166463825Y-121324479D01*
X166470628Y-121321257D01*
X166485359Y-121304984D01*
X166501632Y-121290253D01*
X166504854Y-121283450D01*
X166509908Y-121277868D01*
X166522464Y-121251278D01*
X166879607Y-120251279D01*
X166886736Y-120222750D01*
X166883829Y-120164295D01*
X166858775Y-120111403D01*
X166815386Y-120072123D01*
X166760268Y-120052438D01*
X166701813Y-120055345D01*
X166648921Y-120080399D01*
X166609641Y-120123788D01*
X166597085Y-120150378D01*
X166381203Y-120754847D01*
X166165321Y-120150378D01*
X166152765Y-120123788D01*
X166113485Y-120080399D01*
X166060593Y-120055345D01*
X166002138Y-120052438D01*
X165947020Y-120072123D01*
X165903631Y-120111403D01*
X165878577Y-120164295D01*
X165875670Y-120222750D01*
X165666299Y-120222750D01*
X165598153Y-119950162D01*
X165597381Y-119948003D01*
X165597305Y-119946923D01*
X165592644Y-119934742D01*
X165588260Y-119922471D01*
X165587615Y-119921601D01*
X165586796Y-119919459D01*
X165515367Y-119776603D01*
X165507440Y-119764011D01*
X165505924Y-119760349D01*
X165502540Y-119756226D01*
X165499702Y-119751717D01*
X165496709Y-119749121D01*
X165487269Y-119737619D01*
X165415841Y-119666191D01*
X165404339Y-119656751D01*
X165401743Y-119653758D01*
X165397229Y-119650917D01*
X165393110Y-119647536D01*
X165389450Y-119646020D01*
X165376857Y-119638093D01*
X165233999Y-119566664D01*
X165206536Y-119556154D01*
X165201158Y-119555771D01*
X165196181Y-119553710D01*
X165166917Y-119550828D01*
X165024060Y-119550828D01*
X164994796Y-119553710D01*
X164989815Y-119555773D01*
X164984441Y-119556155D01*
X164956977Y-119566664D01*
X164814121Y-119638093D01*
X164801529Y-119646019D01*
X164797867Y-119647536D01*
X164793744Y-119650919D01*
X164789235Y-119653758D01*
X164786639Y-119656750D01*
X164775137Y-119666191D01*
X164703709Y-119737619D01*
X164694269Y-119749120D01*
X164691276Y-119751717D01*
X164688435Y-119756230D01*
X164685054Y-119760350D01*
X164683538Y-119764009D01*
X164675611Y-119776603D01*
X164604182Y-119919460D01*
X164603362Y-119921600D01*
X164602718Y-119922471D01*
X164598331Y-119934748D01*
X164593673Y-119946923D01*
X164593596Y-119948003D01*
X164592825Y-119950162D01*
X164521396Y-120235877D01*
X164520646Y-120240948D01*
X164519799Y-120242993D01*
X164518713Y-120254015D01*
X164517094Y-120264966D01*
X164517419Y-120267153D01*
X164516917Y-120272257D01*
X162736193Y-120272257D01*
X162726593Y-120262657D01*
X162674060Y-120105058D01*
X162674060Y-120021952D01*
X162718767Y-119932538D01*
X162755771Y-119895535D01*
X162845185Y-119850828D01*
X163131508Y-119850828D01*
X163220921Y-119895535D01*
X163275137Y-119949751D01*
X163297867Y-119968406D01*
X163351940Y-119990802D01*
X163410466Y-119990802D01*
X163464538Y-119968406D01*
X163505924Y-119927020D01*
X163528320Y-119872948D01*
X163528320Y-119814422D01*
X163505924Y-119760349D01*
X163487269Y-119737619D01*
X163415841Y-119666191D01*
X163404339Y-119656751D01*
X163401743Y-119653758D01*
X163397229Y-119650917D01*
X163393110Y-119647536D01*
X163389450Y-119646020D01*
X163376857Y-119638093D01*
X163234000Y-119566664D01*
X163206537Y-119556155D01*
X163201162Y-119555773D01*
X163196182Y-119553710D01*
X163166918Y-119550828D01*
X162809775Y-119550828D01*
X162780511Y-119553710D01*
X162775530Y-119555773D01*
X162770156Y-119556155D01*
X162742692Y-119566664D01*
X162599836Y-119638093D01*
X162587242Y-119646020D01*
X162583583Y-119647536D01*
X162579462Y-119650917D01*
X162574950Y-119653758D01*
X162572353Y-119656751D01*
X162560853Y-119666190D01*
X162489424Y-119737618D01*
X162479984Y-119749120D01*
X162476990Y-119751717D01*
X162474148Y-119756231D01*
X162470769Y-119760349D01*
X162469253Y-119764007D01*
X162461325Y-119776603D01*
X162389896Y-119919460D01*
X162379387Y-119946923D01*
X162379005Y-119952297D01*
X162376942Y-119957278D01*
X162374060Y-119986542D01*
X162207393Y-119986542D01*
X162207393Y-119384161D01*
X167053403Y-119384161D01*
X167053403Y-121517495D01*
G37*
D12*
X147642855Y-49428328D02*
X148357141Y-49428328D01*
X148357141Y-49428328D02*
X148428569Y-50142614D01*
X148428569Y-50142614D02*
X148357141Y-50071185D01*
X148357141Y-50071185D02*
X148214284Y-49999757D01*
X148214284Y-49999757D02*
X147857141Y-49999757D01*
X147857141Y-49999757D02*
X147714284Y-50071185D01*
X147714284Y-50071185D02*
X147642855Y-50142614D01*
X147642855Y-50142614D02*
X147571426Y-50285471D01*
X147571426Y-50285471D02*
X147571426Y-50642614D01*
X147571426Y-50642614D02*
X147642855Y-50785471D01*
X147642855Y-50785471D02*
X147714284Y-50856900D01*
X147714284Y-50856900D02*
X147857141Y-50928328D01*
X147857141Y-50928328D02*
X148214284Y-50928328D01*
X148214284Y-50928328D02*
X148357141Y-50856900D01*
X148357141Y-50856900D02*
X148428569Y-50785471D01*
X147071427Y-49428328D02*
X146142855Y-49428328D01*
X146142855Y-49428328D02*
X146642855Y-49999757D01*
X146642855Y-49999757D02*
X146428570Y-49999757D01*
X146428570Y-49999757D02*
X146285713Y-50071185D01*
X146285713Y-50071185D02*
X146214284Y-50142614D01*
X146214284Y-50142614D02*
X146142855Y-50285471D01*
X146142855Y-50285471D02*
X146142855Y-50642614D01*
X146142855Y-50642614D02*
X146214284Y-50785471D01*
X146214284Y-50785471D02*
X146285713Y-50856900D01*
X146285713Y-50856900D02*
X146428570Y-50928328D01*
X146428570Y-50928328D02*
X146857141Y-50928328D01*
X146857141Y-50928328D02*
X146999998Y-50856900D01*
X146999998Y-50856900D02*
X147071427Y-50785471D01*
X145499999Y-50785471D02*
X145428570Y-50856900D01*
X145428570Y-50856900D02*
X145499999Y-50928328D01*
X145499999Y-50928328D02*
X145571427Y-50856900D01*
X145571427Y-50856900D02*
X145499999Y-50785471D01*
X145499999Y-50785471D02*
X145499999Y-50928328D01*
X144142856Y-49928328D02*
X144142856Y-50928328D01*
X144499998Y-49356900D02*
X144857141Y-50428328D01*
X144857141Y-50428328D02*
X143928570Y-50428328D01*
X143071427Y-49428328D02*
X142928570Y-49428328D01*
X142928570Y-49428328D02*
X142785713Y-49499757D01*
X142785713Y-49499757D02*
X142714285Y-49571185D01*
X142714285Y-49571185D02*
X142642856Y-49714042D01*
X142642856Y-49714042D02*
X142571427Y-49999757D01*
X142571427Y-49999757D02*
X142571427Y-50356900D01*
X142571427Y-50356900D02*
X142642856Y-50642614D01*
X142642856Y-50642614D02*
X142714285Y-50785471D01*
X142714285Y-50785471D02*
X142785713Y-50856900D01*
X142785713Y-50856900D02*
X142928570Y-50928328D01*
X142928570Y-50928328D02*
X143071427Y-50928328D01*
X143071427Y-50928328D02*
X143214285Y-50856900D01*
X143214285Y-50856900D02*
X143285713Y-50785471D01*
X143285713Y-50785471D02*
X143357142Y-50642614D01*
X143357142Y-50642614D02*
X143428570Y-50356900D01*
X143428570Y-50356900D02*
X143428570Y-49999757D01*
X143428570Y-49999757D02*
X143357142Y-49714042D01*
X143357142Y-49714042D02*
X143285713Y-49571185D01*
X143285713Y-49571185D02*
X143214285Y-49499757D01*
X143214285Y-49499757D02*
X143071427Y-49428328D01*
X141642856Y-49428328D02*
X141499999Y-49428328D01*
X141499999Y-49428328D02*
X141357142Y-49499757D01*
X141357142Y-49499757D02*
X141285714Y-49571185D01*
X141285714Y-49571185D02*
X141214285Y-49714042D01*
X141214285Y-49714042D02*
X141142856Y-49999757D01*
X141142856Y-49999757D02*
X141142856Y-50356900D01*
X141142856Y-50356900D02*
X141214285Y-50642614D01*
X141214285Y-50642614D02*
X141285714Y-50785471D01*
X141285714Y-50785471D02*
X141357142Y-50856900D01*
X141357142Y-50856900D02*
X141499999Y-50928328D01*
X141499999Y-50928328D02*
X141642856Y-50928328D01*
X141642856Y-50928328D02*
X141785714Y-50856900D01*
X141785714Y-50856900D02*
X141857142Y-50785471D01*
X141857142Y-50785471D02*
X141928571Y-50642614D01*
X141928571Y-50642614D02*
X141999999Y-50356900D01*
X141999999Y-50356900D02*
X141999999Y-49999757D01*
X141999999Y-49999757D02*
X141928571Y-49714042D01*
X141928571Y-49714042D02*
X141857142Y-49571185D01*
X141857142Y-49571185D02*
X141785714Y-49499757D01*
X141785714Y-49499757D02*
X141642856Y-49428328D01*
X140214285Y-49428328D02*
X140071428Y-49428328D01*
X140071428Y-49428328D02*
X139928571Y-49499757D01*
X139928571Y-49499757D02*
X139857143Y-49571185D01*
X139857143Y-49571185D02*
X139785714Y-49714042D01*
X139785714Y-49714042D02*
X139714285Y-49999757D01*
X139714285Y-49999757D02*
X139714285Y-50356900D01*
X139714285Y-50356900D02*
X139785714Y-50642614D01*
X139785714Y-50642614D02*
X139857143Y-50785471D01*
X139857143Y-50785471D02*
X139928571Y-50856900D01*
X139928571Y-50856900D02*
X140071428Y-50928328D01*
X140071428Y-50928328D02*
X140214285Y-50928328D01*
X140214285Y-50928328D02*
X140357143Y-50856900D01*
X140357143Y-50856900D02*
X140428571Y-50785471D01*
X140428571Y-50785471D02*
X140500000Y-50642614D01*
X140500000Y-50642614D02*
X140571428Y-50356900D01*
X140571428Y-50356900D02*
X140571428Y-49999757D01*
X140571428Y-49999757D02*
X140500000Y-49714042D01*
X140500000Y-49714042D02*
X140428571Y-49571185D01*
X140428571Y-49571185D02*
X140357143Y-49499757D01*
X140357143Y-49499757D02*
X140214285Y-49428328D01*
X137928572Y-50928328D02*
X137928572Y-49928328D01*
X137928572Y-50071185D02*
X137857143Y-49999757D01*
X137857143Y-49999757D02*
X137714286Y-49928328D01*
X137714286Y-49928328D02*
X137500000Y-49928328D01*
X137500000Y-49928328D02*
X137357143Y-49999757D01*
X137357143Y-49999757D02*
X137285715Y-50142614D01*
X137285715Y-50142614D02*
X137285715Y-50928328D01*
X137285715Y-50142614D02*
X137214286Y-49999757D01*
X137214286Y-49999757D02*
X137071429Y-49928328D01*
X137071429Y-49928328D02*
X136857143Y-49928328D01*
X136857143Y-49928328D02*
X136714286Y-49999757D01*
X136714286Y-49999757D02*
X136642857Y-50142614D01*
X136642857Y-50142614D02*
X136642857Y-50928328D01*
X135928572Y-50928328D02*
X135928572Y-49928328D01*
X135928572Y-50071185D02*
X135857143Y-49999757D01*
X135857143Y-49999757D02*
X135714286Y-49928328D01*
X135714286Y-49928328D02*
X135500000Y-49928328D01*
X135500000Y-49928328D02*
X135357143Y-49999757D01*
X135357143Y-49999757D02*
X135285715Y-50142614D01*
X135285715Y-50142614D02*
X135285715Y-50928328D01*
X135285715Y-50142614D02*
X135214286Y-49999757D01*
X135214286Y-49999757D02*
X135071429Y-49928328D01*
X135071429Y-49928328D02*
X134857143Y-49928328D01*
X134857143Y-49928328D02*
X134714286Y-49999757D01*
X134714286Y-49999757D02*
X134642857Y-50142614D01*
X134642857Y-50142614D02*
X134642857Y-50928328D01*
D13*
X114800000Y-61000000D02*
X114800000Y-51463580D01*
X168200000Y-51463580D02*
X168200000Y-60550000D01*
X114800000Y-52050000D02*
X168200000Y-52050000D01*
X114800000Y-52050000D02*
X115926504Y-51463579D01*
X114800000Y-52050000D02*
X115926504Y-52636421D01*
X168200000Y-52050000D02*
X167073496Y-52636421D01*
X168200000Y-52050000D02*
X167073496Y-51463579D01*
D11*
D12*
X108521185Y-92157144D02*
X108449757Y-92014287D01*
X108449757Y-92014287D02*
X108378328Y-91942858D01*
X108378328Y-91942858D02*
X108235471Y-91871430D01*
X108235471Y-91871430D02*
X108164042Y-91871430D01*
X108164042Y-91871430D02*
X108021185Y-91942858D01*
X108021185Y-91942858D02*
X107949757Y-92014287D01*
X107949757Y-92014287D02*
X107878328Y-92157144D01*
X107878328Y-92157144D02*
X107878328Y-92442858D01*
X107878328Y-92442858D02*
X107949757Y-92585716D01*
X107949757Y-92585716D02*
X108021185Y-92657144D01*
X108021185Y-92657144D02*
X108164042Y-92728573D01*
X108164042Y-92728573D02*
X108235471Y-92728573D01*
X108235471Y-92728573D02*
X108378328Y-92657144D01*
X108378328Y-92657144D02*
X108449757Y-92585716D01*
X108449757Y-92585716D02*
X108521185Y-92442858D01*
X108521185Y-92442858D02*
X108521185Y-92157144D01*
X108521185Y-92157144D02*
X108592614Y-92014287D01*
X108592614Y-92014287D02*
X108664042Y-91942858D01*
X108664042Y-91942858D02*
X108806900Y-91871430D01*
X108806900Y-91871430D02*
X109092614Y-91871430D01*
X109092614Y-91871430D02*
X109235471Y-91942858D01*
X109235471Y-91942858D02*
X109306900Y-92014287D01*
X109306900Y-92014287D02*
X109378328Y-92157144D01*
X109378328Y-92157144D02*
X109378328Y-92442858D01*
X109378328Y-92442858D02*
X109306900Y-92585716D01*
X109306900Y-92585716D02*
X109235471Y-92657144D01*
X109235471Y-92657144D02*
X109092614Y-92728573D01*
X109092614Y-92728573D02*
X108806900Y-92728573D01*
X108806900Y-92728573D02*
X108664042Y-92657144D01*
X108664042Y-92657144D02*
X108592614Y-92585716D01*
X108592614Y-92585716D02*
X108521185Y-92442858D01*
X108378328Y-94014287D02*
X109378328Y-94014287D01*
X107806900Y-93657144D02*
X108878328Y-93300001D01*
X108878328Y-93300001D02*
X108878328Y-94228572D01*
X109235471Y-94800000D02*
X109306900Y-94871429D01*
X109306900Y-94871429D02*
X109378328Y-94800000D01*
X109378328Y-94800000D02*
X109306900Y-94728572D01*
X109306900Y-94728572D02*
X109235471Y-94800000D01*
X109235471Y-94800000D02*
X109378328Y-94800000D01*
X108378328Y-96157144D02*
X109378328Y-96157144D01*
X107806900Y-95800001D02*
X108878328Y-95442858D01*
X108878328Y-95442858D02*
X108878328Y-96371429D01*
X107878328Y-97228572D02*
X107878328Y-97371429D01*
X107878328Y-97371429D02*
X107949757Y-97514286D01*
X107949757Y-97514286D02*
X108021185Y-97585715D01*
X108021185Y-97585715D02*
X108164042Y-97657143D01*
X108164042Y-97657143D02*
X108449757Y-97728572D01*
X108449757Y-97728572D02*
X108806900Y-97728572D01*
X108806900Y-97728572D02*
X109092614Y-97657143D01*
X109092614Y-97657143D02*
X109235471Y-97585715D01*
X109235471Y-97585715D02*
X109306900Y-97514286D01*
X109306900Y-97514286D02*
X109378328Y-97371429D01*
X109378328Y-97371429D02*
X109378328Y-97228572D01*
X109378328Y-97228572D02*
X109306900Y-97085715D01*
X109306900Y-97085715D02*
X109235471Y-97014286D01*
X109235471Y-97014286D02*
X109092614Y-96942857D01*
X109092614Y-96942857D02*
X108806900Y-96871429D01*
X108806900Y-96871429D02*
X108449757Y-96871429D01*
X108449757Y-96871429D02*
X108164042Y-96942857D01*
X108164042Y-96942857D02*
X108021185Y-97014286D01*
X108021185Y-97014286D02*
X107949757Y-97085715D01*
X107949757Y-97085715D02*
X107878328Y-97228572D01*
X107878328Y-98657143D02*
X107878328Y-98800000D01*
X107878328Y-98800000D02*
X107949757Y-98942857D01*
X107949757Y-98942857D02*
X108021185Y-99014286D01*
X108021185Y-99014286D02*
X108164042Y-99085714D01*
X108164042Y-99085714D02*
X108449757Y-99157143D01*
X108449757Y-99157143D02*
X108806900Y-99157143D01*
X108806900Y-99157143D02*
X109092614Y-99085714D01*
X109092614Y-99085714D02*
X109235471Y-99014286D01*
X109235471Y-99014286D02*
X109306900Y-98942857D01*
X109306900Y-98942857D02*
X109378328Y-98800000D01*
X109378328Y-98800000D02*
X109378328Y-98657143D01*
X109378328Y-98657143D02*
X109306900Y-98514286D01*
X109306900Y-98514286D02*
X109235471Y-98442857D01*
X109235471Y-98442857D02*
X109092614Y-98371428D01*
X109092614Y-98371428D02*
X108806900Y-98300000D01*
X108806900Y-98300000D02*
X108449757Y-98300000D01*
X108449757Y-98300000D02*
X108164042Y-98371428D01*
X108164042Y-98371428D02*
X108021185Y-98442857D01*
X108021185Y-98442857D02*
X107949757Y-98514286D01*
X107949757Y-98514286D02*
X107878328Y-98657143D01*
X107878328Y-100085714D02*
X107878328Y-100228571D01*
X107878328Y-100228571D02*
X107949757Y-100371428D01*
X107949757Y-100371428D02*
X108021185Y-100442857D01*
X108021185Y-100442857D02*
X108164042Y-100514285D01*
X108164042Y-100514285D02*
X108449757Y-100585714D01*
X108449757Y-100585714D02*
X108806900Y-100585714D01*
X108806900Y-100585714D02*
X109092614Y-100514285D01*
X109092614Y-100514285D02*
X109235471Y-100442857D01*
X109235471Y-100442857D02*
X109306900Y-100371428D01*
X109306900Y-100371428D02*
X109378328Y-100228571D01*
X109378328Y-100228571D02*
X109378328Y-100085714D01*
X109378328Y-100085714D02*
X109306900Y-99942857D01*
X109306900Y-99942857D02*
X109235471Y-99871428D01*
X109235471Y-99871428D02*
X109092614Y-99799999D01*
X109092614Y-99799999D02*
X108806900Y-99728571D01*
X108806900Y-99728571D02*
X108449757Y-99728571D01*
X108449757Y-99728571D02*
X108164042Y-99799999D01*
X108164042Y-99799999D02*
X108021185Y-99871428D01*
X108021185Y-99871428D02*
X107949757Y-99942857D01*
X107949757Y-99942857D02*
X107878328Y-100085714D01*
X109378328Y-102371427D02*
X108378328Y-102371427D01*
X108521185Y-102371427D02*
X108449757Y-102442856D01*
X108449757Y-102442856D02*
X108378328Y-102585713D01*
X108378328Y-102585713D02*
X108378328Y-102799999D01*
X108378328Y-102799999D02*
X108449757Y-102942856D01*
X108449757Y-102942856D02*
X108592614Y-103014285D01*
X108592614Y-103014285D02*
X109378328Y-103014285D01*
X108592614Y-103014285D02*
X108449757Y-103085713D01*
X108449757Y-103085713D02*
X108378328Y-103228570D01*
X108378328Y-103228570D02*
X108378328Y-103442856D01*
X108378328Y-103442856D02*
X108449757Y-103585713D01*
X108449757Y-103585713D02*
X108592614Y-103657142D01*
X108592614Y-103657142D02*
X109378328Y-103657142D01*
X109378328Y-104371427D02*
X108378328Y-104371427D01*
X108521185Y-104371427D02*
X108449757Y-104442856D01*
X108449757Y-104442856D02*
X108378328Y-104585713D01*
X108378328Y-104585713D02*
X108378328Y-104799999D01*
X108378328Y-104799999D02*
X108449757Y-104942856D01*
X108449757Y-104942856D02*
X108592614Y-105014285D01*
X108592614Y-105014285D02*
X109378328Y-105014285D01*
X108592614Y-105014285D02*
X108449757Y-105085713D01*
X108449757Y-105085713D02*
X108378328Y-105228570D01*
X108378328Y-105228570D02*
X108378328Y-105442856D01*
X108378328Y-105442856D02*
X108449757Y-105585713D01*
X108449757Y-105585713D02*
X108592614Y-105657142D01*
X108592614Y-105657142D02*
X109378328Y-105657142D01*
D13*
X118000000Y-56600000D02*
X109913580Y-56600000D01*
X109913580Y-141000000D02*
X117950000Y-141000000D01*
X110500000Y-56600000D02*
X110500000Y-141000000D01*
X110500000Y-56600000D02*
X111086421Y-57726504D01*
X110500000Y-56600000D02*
X109913579Y-57726504D01*
X110500000Y-141000000D02*
X109913579Y-139873496D01*
X110500000Y-141000000D02*
X111086421Y-139873496D01*
%TD*%
D14*
%TO.P,J2,S1,SHIELD*%
%TO.N,GND*%
X165275000Y-116820000D03*
D15*
X161075000Y-116820000D03*
X161075000Y-108180000D03*
D14*
X165275000Y-108180000D03*
%TD*%
D16*
%TO.N,GND*%
X134300000Y-113050000D03*
X138150000Y-113050000D03*
X132248762Y-138520000D03*
%TO.N,+BATT*%
X133600000Y-138350000D03*
%TO.N,+3.3V*%
X149350000Y-108550000D03*
X149350000Y-110750000D03*
%TO.N,KEEP_POWER_ON*%
X152150788Y-113780000D03*
X149621000Y-121766915D03*
X144250000Y-133650000D03*
X138650000Y-133850000D03*
%TO.N,GND*%
X148650000Y-133000000D03*
%TO.N,+BATT*%
X129500000Y-139000000D03*
%TO.N,GND*%
X151400000Y-137400000D03*
X145800000Y-83600000D03*
X150500000Y-82600000D03*
X157300000Y-112400000D03*
X147000000Y-83600000D03*
X145800000Y-82500000D03*
X147000000Y-119900000D03*
X145800000Y-121000000D03*
X151050000Y-118650000D03*
X153800000Y-117200000D03*
X148700000Y-113600000D03*
X150200000Y-85300000D03*
X158207795Y-109010730D03*
X160100000Y-105800000D03*
X136700000Y-130500000D03*
X146400000Y-127050000D03*
X156973820Y-110773820D03*
X150400000Y-119550000D03*
X151400000Y-136600000D03*
X147000000Y-121000000D03*
X145800000Y-119900000D03*
X154917696Y-105817696D03*
X147000000Y-82500000D03*
%TO.N,+3.3V*%
X152600000Y-136200000D03*
X150600000Y-83600000D03*
X144300000Y-134500000D03*
X150600000Y-134600000D03*
X152520000Y-83600000D03*
X139700000Y-134500000D03*
%TO.N,NRESET*%
X156950000Y-108350000D03*
X153100000Y-111700000D03*
X157300000Y-106580000D03*
%TO.N,ACCEL_INT1*%
X152130000Y-118550000D03*
X154200000Y-115900000D03*
%TO.N,ACCEL_SCK*%
X151375735Y-115575735D03*
X152806983Y-115728408D03*
%TO.N,ACCEL_INT2*%
X154843990Y-115578005D03*
X151650000Y-119100000D03*
%TO.N,LED_BLANK*%
X148154294Y-122210314D03*
X147382304Y-116517696D03*
X149243848Y-114620000D03*
%TO.N,LED_CLK*%
X149900000Y-110200000D03*
X148913948Y-115720893D03*
X148400000Y-118200000D03*
X149900000Y-109080000D03*
%TO.N,LED_LATCH*%
X147567696Y-108532304D03*
X147432304Y-115632304D03*
X146332304Y-109767696D03*
X151000000Y-113550000D03*
%TD*%
D17*
%TO.N,ACCEL_INT2*%
X154877000Y-117646108D02*
X154877000Y-115611015D01*
X153423108Y-119100000D02*
X154877000Y-117646108D01*
X151650000Y-119100000D02*
X153423108Y-119100000D01*
X154877000Y-115611015D02*
X154843990Y-115578005D01*
%TO.N,ACCEL_INT1*%
X154426000Y-117459298D02*
X154426000Y-116126000D01*
X154426000Y-116126000D02*
X154200000Y-115900000D01*
X153285298Y-118600000D02*
X154426000Y-117459298D01*
X152180000Y-118600000D02*
X153285298Y-118600000D01*
X152130000Y-118550000D02*
X152180000Y-118600000D01*
%TO.N,ACCEL_SCK*%
X152539171Y-115575735D02*
X151375735Y-115575735D01*
X152691844Y-115728408D02*
X152539171Y-115575735D01*
X152806983Y-115728408D02*
X152691844Y-115728408D01*
D18*
%TO.N,+BATT*%
X133100000Y-137850000D02*
X133600000Y-138350000D01*
X129500000Y-139000000D02*
X130800000Y-139000000D01*
X130800000Y-139000000D02*
X131950000Y-137850000D01*
X131950000Y-137850000D02*
X133100000Y-137850000D01*
D17*
%TO.N,+3.3V*%
X149350000Y-110750000D02*
X149350000Y-108550000D01*
%TO.N,KEEP_POWER_ON*%
X149621000Y-116559000D02*
X149621000Y-121766915D01*
X150045000Y-115555000D02*
X150045000Y-116135000D01*
X150045000Y-116135000D02*
X149621000Y-116559000D01*
X151939786Y-114060214D02*
X151450000Y-114550000D01*
X151450000Y-114550000D02*
X151050000Y-114550000D01*
X151050000Y-114550000D02*
X150045000Y-115555000D01*
X151939786Y-113893792D02*
X151939786Y-114060214D01*
X152150788Y-113780000D02*
X152053578Y-113780000D01*
X152053578Y-113780000D02*
X151939786Y-113893792D01*
%TO.N,LED_LATCH*%
X148950000Y-114100000D02*
X147432304Y-115617696D01*
X147432304Y-115617696D02*
X147432304Y-115632304D01*
X149900000Y-114100000D02*
X148950000Y-114100000D01*
X150300000Y-113700000D02*
X149900000Y-114100000D01*
X150850000Y-113700000D02*
X150300000Y-113700000D01*
X151000000Y-113550000D02*
X150850000Y-113700000D01*
%TO.N,LED_BLANK*%
X149167696Y-114620000D02*
X147953304Y-115834392D01*
X149243848Y-114620000D02*
X149167696Y-114620000D01*
X147953304Y-115834392D02*
X147953304Y-115946696D01*
X147953304Y-115946696D02*
X147382304Y-116517696D01*
%TO.N,LED_CLK*%
X148962850Y-115792304D02*
X149000000Y-115829454D01*
X148962850Y-115769795D02*
X148962850Y-115792304D01*
X148913948Y-115720893D02*
X148962850Y-115769795D01*
X148400000Y-116300000D02*
X148400000Y-118200000D01*
X149000000Y-115829454D02*
X148870546Y-115829454D01*
X148870546Y-115829454D02*
X148400000Y-116300000D01*
%TO.N,KEEP_POWER_ON*%
X144050000Y-133850000D02*
X144250000Y-133650000D01*
X138650000Y-133850000D02*
X144050000Y-133850000D01*
D10*
%TO.N,GND*%
X120300000Y-87000000D02*
X115801000Y-87000000D01*
X121300000Y-80300000D02*
X115801000Y-80300000D01*
X124100000Y-87100000D02*
X124100000Y-83100000D01*
X153450000Y-113400000D02*
X167200000Y-113400000D01*
X128600000Y-91600000D02*
X127400000Y-90400000D01*
X154300000Y-62400000D02*
X154300000Y-57600000D01*
X132900000Y-67400000D02*
X127200000Y-61700000D01*
X131100000Y-102400000D02*
X122900000Y-102400000D01*
X130600000Y-91600000D02*
X128600000Y-91600000D01*
X148700000Y-84100000D02*
X148700000Y-69300000D01*
X124100000Y-83100000D02*
X121300000Y-80300000D01*
X151000000Y-89000000D02*
X154300000Y-85700000D01*
X141800000Y-108200000D02*
X141800000Y-113200000D01*
X132900000Y-68100000D02*
X132900000Y-67400000D01*
X130300000Y-100800000D02*
X122100000Y-100800000D01*
X119700000Y-105600000D02*
X115801000Y-105600000D01*
X131400000Y-82750000D02*
X131400000Y-67900000D01*
X141800000Y-113200000D02*
X136900000Y-118100000D01*
X157200000Y-96100000D02*
X161000000Y-92300000D01*
X134900000Y-86250000D02*
X131400000Y-82750000D01*
X162900000Y-92300000D02*
X167199000Y-92300000D01*
X153500000Y-96100000D02*
X157200000Y-96100000D01*
X136200000Y-85500000D02*
X132900000Y-82200000D01*
X148700000Y-69300000D02*
X147600000Y-68200000D01*
X129700000Y-94000000D02*
X127300000Y-94000000D01*
X161000000Y-92300000D02*
X162900000Y-92300000D01*
X131400000Y-67900000D02*
X126500000Y-63000000D01*
X137700000Y-84900000D02*
X134400000Y-81600000D01*
X153500000Y-97500000D02*
X157800000Y-97500000D01*
X127200000Y-61700000D02*
X127000000Y-61500000D01*
X126500000Y-63000000D02*
X115801000Y-63000000D01*
X127400000Y-90400000D02*
X124100000Y-87100000D01*
X154400000Y-62300000D02*
X159300000Y-62300000D01*
X149800000Y-104700000D02*
X151600000Y-106500000D01*
X129800000Y-99200000D02*
X121200000Y-99200000D01*
X154300000Y-85700000D02*
X154300000Y-62400000D01*
X126300000Y-114300000D02*
X115801000Y-114300000D01*
X136100000Y-107000000D02*
X127100000Y-116000000D01*
X161600000Y-93700000D02*
X167199000Y-93700000D01*
X151600000Y-111550000D02*
X153450000Y-113400000D01*
X147100000Y-85700000D02*
X148700000Y-84100000D01*
X134400000Y-66800000D02*
X127600000Y-60000000D01*
X162900000Y-92300000D02*
X162900000Y-88400000D01*
X152500000Y-91600000D02*
X157600000Y-86500000D01*
X127000000Y-61500000D02*
X115801000Y-61500000D01*
X160500000Y-68300000D02*
X167199000Y-68300000D01*
X134400000Y-81600000D02*
X134400000Y-66800000D01*
X121300000Y-80300000D02*
X121300000Y-75700000D01*
X122100000Y-100800000D02*
X118900000Y-104000000D01*
X127600000Y-60000000D02*
X115801000Y-60000000D01*
X132900000Y-82200000D02*
X132900000Y-68100000D01*
X121200000Y-99200000D02*
X118000000Y-102400000D01*
X136900000Y-118100000D02*
X136900000Y-119536466D01*
X127300000Y-94000000D02*
X120300000Y-87000000D01*
X127100000Y-116000000D02*
X115801000Y-116000000D01*
X157600000Y-71200000D02*
X160500000Y-68300000D01*
X122900000Y-102400000D02*
X119700000Y-105600000D01*
X118900000Y-104000000D02*
X115801000Y-104000000D01*
X157600000Y-86500000D02*
X157600000Y-71200000D01*
X154300000Y-62400000D02*
X154400000Y-62300000D01*
X151600000Y-106500000D02*
X151600000Y-111550000D01*
X134600000Y-106000000D02*
X126300000Y-114300000D01*
X118000000Y-102400000D02*
X115800000Y-102400000D01*
X157800000Y-97500000D02*
X161600000Y-93700000D01*
D19*
%TO.N,+3.3V*%
X152600000Y-136200000D02*
X152200000Y-136200000D01*
X144300000Y-134500000D02*
X139700000Y-134500000D01*
X152200000Y-136200000D02*
X150600000Y-134600000D01*
D17*
X150600000Y-83600000D02*
X152520000Y-83600000D01*
%TO.N,NRESET*%
X156950000Y-108350000D02*
X155350000Y-108350000D01*
X153100000Y-110600000D02*
X153100000Y-111700000D01*
X156950000Y-106930000D02*
X157300000Y-106580000D01*
X155350000Y-108350000D02*
X153100000Y-110600000D01*
X156950000Y-108350000D02*
X156950000Y-106930000D01*
%TO.N,LED_BLANK*%
X147879000Y-121935020D02*
X148154294Y-122210314D01*
X147382304Y-116517696D02*
X147282304Y-116617696D01*
X147482304Y-116617696D02*
X147879000Y-117014392D01*
X147879000Y-117014392D02*
X147879000Y-121935020D01*
X147282304Y-116617696D02*
X147482304Y-116617696D01*
%TO.N,LED_CLK*%
X149900000Y-109080000D02*
X149900000Y-110200000D01*
%TO.N,LED_LATCH*%
X146332304Y-109767696D02*
X147435392Y-108664608D01*
X147700000Y-108664608D02*
X147567696Y-108532304D01*
X147435392Y-108664608D02*
X147700000Y-108664608D01*
%TD*%
%TA.AperFunction,Conductor*%
%TO.N,GND*%
G36*
X132178326Y-57122174D02*
G01*
X132200000Y-57174500D01*
X132200000Y-60925000D01*
X134775000Y-63500000D01*
X148225000Y-63500000D01*
X150800000Y-60925000D01*
X150800000Y-57174500D01*
X150821674Y-57122174D01*
X150874000Y-57100500D01*
X165134108Y-57100500D01*
X165197764Y-57100500D01*
X165202231Y-57100634D01*
X165496821Y-57118454D01*
X165505673Y-57119528D01*
X165793784Y-57172327D01*
X165802435Y-57174460D01*
X166082062Y-57261595D01*
X166090401Y-57264757D01*
X166357497Y-57384967D01*
X166365409Y-57389120D01*
X166616046Y-57540636D01*
X166623400Y-57545712D01*
X166853951Y-57726336D01*
X166860640Y-57732262D01*
X167067737Y-57939359D01*
X167073663Y-57946048D01*
X167254287Y-58176599D01*
X167259363Y-58183953D01*
X167410879Y-58434590D01*
X167415032Y-58442502D01*
X167535239Y-58709590D01*
X167538407Y-58717946D01*
X167625536Y-58997552D01*
X167627675Y-59006228D01*
X167680469Y-59294317D01*
X167681546Y-59303188D01*
X167699365Y-59597768D01*
X167699500Y-59602236D01*
X167699500Y-137997763D01*
X167699365Y-138002231D01*
X167681546Y-138296811D01*
X167680469Y-138305682D01*
X167627675Y-138593771D01*
X167625536Y-138602447D01*
X167538407Y-138882053D01*
X167535239Y-138890409D01*
X167415032Y-139157497D01*
X167410879Y-139165409D01*
X167259363Y-139416046D01*
X167254287Y-139423400D01*
X167073663Y-139653951D01*
X167067737Y-139660640D01*
X166860640Y-139867737D01*
X166853951Y-139873663D01*
X166623400Y-140054287D01*
X166616046Y-140059363D01*
X166365409Y-140210879D01*
X166357497Y-140215032D01*
X166090409Y-140335239D01*
X166082053Y-140338407D01*
X165802447Y-140425536D01*
X165793771Y-140427675D01*
X165505682Y-140480469D01*
X165496811Y-140481546D01*
X165202232Y-140499365D01*
X165197764Y-140499500D01*
X117802236Y-140499500D01*
X117797768Y-140499365D01*
X117503188Y-140481546D01*
X117494317Y-140480469D01*
X117206228Y-140427675D01*
X117197552Y-140425536D01*
X116917946Y-140338407D01*
X116909590Y-140335239D01*
X116642502Y-140215032D01*
X116634590Y-140210879D01*
X116383953Y-140059363D01*
X116376599Y-140054287D01*
X116146048Y-139873663D01*
X116139359Y-139867737D01*
X115932262Y-139660640D01*
X115926336Y-139653951D01*
X115745712Y-139423400D01*
X115740636Y-139416046D01*
X115589120Y-139165409D01*
X115584967Y-139157497D01*
X115540776Y-139059309D01*
X115487389Y-138940688D01*
X129049500Y-138940688D01*
X129049500Y-139059311D01*
X129080199Y-139173882D01*
X129080201Y-139173887D01*
X129139508Y-139276609D01*
X129139509Y-139276610D01*
X129139511Y-139276613D01*
X129223387Y-139360489D01*
X129223389Y-139360490D01*
X129223390Y-139360491D01*
X129326112Y-139419798D01*
X129326114Y-139419799D01*
X129326115Y-139419799D01*
X129326117Y-139419800D01*
X129383402Y-139435149D01*
X129440688Y-139450499D01*
X129440689Y-139450500D01*
X129440691Y-139450500D01*
X129559311Y-139450500D01*
X129559311Y-139450499D01*
X129673886Y-139419799D01*
X129673888Y-139419797D01*
X129673890Y-139419797D01*
X129690140Y-139410415D01*
X129727141Y-139400500D01*
X130852726Y-139400500D01*
X130852727Y-139400500D01*
X130954588Y-139373207D01*
X131045913Y-139320480D01*
X132094218Y-138272173D01*
X132146544Y-138250500D01*
X132903455Y-138250500D01*
X132955781Y-138272174D01*
X133156190Y-138472582D01*
X133175342Y-138505754D01*
X133180200Y-138523883D01*
X133180201Y-138523887D01*
X133239508Y-138626609D01*
X133239509Y-138626610D01*
X133239511Y-138626613D01*
X133323387Y-138710489D01*
X133323389Y-138710490D01*
X133323390Y-138710491D01*
X133345732Y-138723390D01*
X133426114Y-138769799D01*
X133426115Y-138769799D01*
X133426117Y-138769800D01*
X133483402Y-138785149D01*
X133540688Y-138800499D01*
X133540689Y-138800500D01*
X133540691Y-138800500D01*
X133659311Y-138800500D01*
X133659311Y-138800499D01*
X133773886Y-138769799D01*
X133876613Y-138710489D01*
X133960489Y-138626613D01*
X134019799Y-138523886D01*
X134050499Y-138409311D01*
X134050500Y-138409311D01*
X134050500Y-138290689D01*
X134050499Y-138290688D01*
X134019800Y-138176117D01*
X134019798Y-138176112D01*
X133960491Y-138073390D01*
X133960490Y-138073389D01*
X133960489Y-138073387D01*
X133876613Y-137989511D01*
X133876610Y-137989509D01*
X133876609Y-137989508D01*
X133773887Y-137930201D01*
X133773883Y-137930200D01*
X133755754Y-137925342D01*
X133722582Y-137906190D01*
X133345913Y-137529520D01*
X133345910Y-137529518D01*
X133345909Y-137529517D01*
X133254592Y-137476795D01*
X133254588Y-137476793D01*
X133254581Y-137476791D01*
X133152727Y-137449500D01*
X133152726Y-137449500D01*
X132007273Y-137449500D01*
X132007257Y-137449499D01*
X132002727Y-137449499D01*
X131897273Y-137449499D01*
X131897271Y-137449499D01*
X131795416Y-137476791D01*
X131795411Y-137476793D01*
X131704086Y-137529520D01*
X130655781Y-138577826D01*
X130603455Y-138599500D01*
X129727141Y-138599500D01*
X129690140Y-138589585D01*
X129673890Y-138580202D01*
X129673882Y-138580199D01*
X129559311Y-138549500D01*
X129559309Y-138549500D01*
X129440691Y-138549500D01*
X129440689Y-138549500D01*
X129326117Y-138580199D01*
X129326112Y-138580201D01*
X129223390Y-138639508D01*
X129139508Y-138723390D01*
X129080201Y-138826112D01*
X129080199Y-138826117D01*
X129049500Y-138940688D01*
X115487389Y-138940688D01*
X115464759Y-138890406D01*
X115461595Y-138882062D01*
X115374460Y-138602435D01*
X115372327Y-138593784D01*
X115319528Y-138305673D01*
X115318454Y-138296821D01*
X115300635Y-138002231D01*
X115300500Y-137997763D01*
X115300500Y-133790688D01*
X138199500Y-133790688D01*
X138199500Y-133909311D01*
X138230199Y-134023882D01*
X138230201Y-134023887D01*
X138289508Y-134126609D01*
X138289509Y-134126610D01*
X138289511Y-134126613D01*
X138373387Y-134210489D01*
X138373389Y-134210490D01*
X138373390Y-134210491D01*
X138423649Y-134239508D01*
X138476114Y-134269799D01*
X138476115Y-134269799D01*
X138476117Y-134269800D01*
X138533402Y-134285149D01*
X138590688Y-134300499D01*
X138590689Y-134300500D01*
X138590691Y-134300500D01*
X138709311Y-134300500D01*
X138709311Y-134300499D01*
X138823886Y-134269799D01*
X138926613Y-134210489D01*
X139010489Y-134126613D01*
X139010489Y-134126612D01*
X139013919Y-134123183D01*
X139015842Y-134125106D01*
X139057349Y-134101134D01*
X139067019Y-134100500D01*
X139283749Y-134100500D01*
X139336075Y-134122174D01*
X139357749Y-134174500D01*
X139342452Y-134219555D01*
X139339509Y-134223389D01*
X139280201Y-134326112D01*
X139280199Y-134326117D01*
X139249500Y-134440688D01*
X139249500Y-134559311D01*
X139280199Y-134673882D01*
X139280201Y-134673887D01*
X139339508Y-134776609D01*
X139339509Y-134776610D01*
X139339511Y-134776613D01*
X139423387Y-134860489D01*
X139526114Y-134919799D01*
X139526115Y-134919799D01*
X139526117Y-134919800D01*
X139583402Y-134935149D01*
X139640688Y-134950499D01*
X139640689Y-134950500D01*
X139640691Y-134950500D01*
X139759311Y-134950500D01*
X139759311Y-134950499D01*
X139873886Y-134919799D01*
X139976613Y-134860489D01*
X140039928Y-134797174D01*
X140092254Y-134775500D01*
X143907746Y-134775500D01*
X143960072Y-134797174D01*
X144023387Y-134860489D01*
X144126114Y-134919799D01*
X144126115Y-134919799D01*
X144126117Y-134919800D01*
X144183402Y-134935149D01*
X144240688Y-134950499D01*
X144240689Y-134950500D01*
X144240691Y-134950500D01*
X144359311Y-134950500D01*
X144359311Y-134950499D01*
X144473886Y-134919799D01*
X144576613Y-134860489D01*
X144660489Y-134776613D01*
X144719799Y-134673886D01*
X144750499Y-134559311D01*
X144750500Y-134559311D01*
X144750500Y-134540688D01*
X150149500Y-134540688D01*
X150149500Y-134659311D01*
X150180199Y-134773882D01*
X150180201Y-134773887D01*
X150239508Y-134876609D01*
X150239509Y-134876610D01*
X150239511Y-134876613D01*
X150323387Y-134960489D01*
X150426114Y-135019799D01*
X150426115Y-135019799D01*
X150426117Y-135019800D01*
X150483402Y-135035149D01*
X150540688Y-135050499D01*
X150540689Y-135050500D01*
X150630233Y-135050500D01*
X150682558Y-135072173D01*
X152043942Y-136433558D01*
X152145200Y-136475500D01*
X152207746Y-136475500D01*
X152260072Y-136497174D01*
X152323387Y-136560489D01*
X152426114Y-136619799D01*
X152426115Y-136619799D01*
X152426117Y-136619800D01*
X152483402Y-136635149D01*
X152540688Y-136650499D01*
X152540689Y-136650500D01*
X152540691Y-136650500D01*
X152659311Y-136650500D01*
X152659311Y-136650499D01*
X152773886Y-136619799D01*
X152876613Y-136560489D01*
X152960489Y-136476613D01*
X153019799Y-136373886D01*
X153050499Y-136259311D01*
X153050500Y-136259311D01*
X153050500Y-136140689D01*
X153050499Y-136140688D01*
X153019800Y-136026117D01*
X153019798Y-136026112D01*
X152960491Y-135923390D01*
X152960490Y-135923389D01*
X152960489Y-135923387D01*
X152876613Y-135839511D01*
X152876610Y-135839509D01*
X152876609Y-135839508D01*
X152773887Y-135780201D01*
X152773882Y-135780199D01*
X152659311Y-135749500D01*
X152659309Y-135749500D01*
X152540691Y-135749500D01*
X152540689Y-135749500D01*
X152426117Y-135780199D01*
X152426112Y-135780201D01*
X152323377Y-135839516D01*
X152321523Y-135840939D01*
X152320387Y-135841243D01*
X152319187Y-135841936D01*
X152319001Y-135841614D01*
X152266813Y-135855586D01*
X152224162Y-135834547D01*
X151072174Y-134682559D01*
X151050500Y-134630233D01*
X151050500Y-134540689D01*
X151050499Y-134540688D01*
X151019800Y-134426117D01*
X151019798Y-134426112D01*
X150960491Y-134323390D01*
X150960490Y-134323389D01*
X150960489Y-134323387D01*
X150876613Y-134239511D01*
X150876610Y-134239509D01*
X150876609Y-134239508D01*
X150773887Y-134180201D01*
X150773882Y-134180199D01*
X150659311Y-134149500D01*
X150659309Y-134149500D01*
X150540691Y-134149500D01*
X150540689Y-134149500D01*
X150426117Y-134180199D01*
X150426112Y-134180201D01*
X150323390Y-134239508D01*
X150239508Y-134323390D01*
X150180201Y-134426112D01*
X150180199Y-134426117D01*
X150149500Y-134540688D01*
X144750500Y-134540688D01*
X144750500Y-134440689D01*
X144750499Y-134440688D01*
X144746593Y-134426112D01*
X144719799Y-134326114D01*
X144687285Y-134269798D01*
X144660491Y-134223390D01*
X144660490Y-134223389D01*
X144660489Y-134223387D01*
X144576613Y-134139511D01*
X144576610Y-134139509D01*
X144576609Y-134139508D01*
X144546636Y-134122203D01*
X144512157Y-134077269D01*
X144519550Y-134021117D01*
X144531306Y-134005795D01*
X144610489Y-133926613D01*
X144669799Y-133823886D01*
X144700499Y-133709311D01*
X144700500Y-133709311D01*
X144700500Y-133590689D01*
X144700499Y-133590688D01*
X144669800Y-133476117D01*
X144669798Y-133476112D01*
X144610491Y-133373390D01*
X144610490Y-133373389D01*
X144610489Y-133373387D01*
X144526613Y-133289511D01*
X144526610Y-133289509D01*
X144526609Y-133289508D01*
X144423887Y-133230201D01*
X144423882Y-133230199D01*
X144309311Y-133199500D01*
X144309309Y-133199500D01*
X144190691Y-133199500D01*
X144190689Y-133199500D01*
X144076117Y-133230199D01*
X144076112Y-133230201D01*
X143973390Y-133289508D01*
X143889508Y-133373390D01*
X143830201Y-133476112D01*
X143830199Y-133476117D01*
X143811835Y-133544653D01*
X143777356Y-133589586D01*
X143740357Y-133599500D01*
X139067019Y-133599500D01*
X139014693Y-133577826D01*
X139013019Y-133575917D01*
X138981755Y-133544653D01*
X138926613Y-133489511D01*
X138926610Y-133489509D01*
X138926609Y-133489508D01*
X138823887Y-133430201D01*
X138823882Y-133430199D01*
X138709311Y-133399500D01*
X138709309Y-133399500D01*
X138590691Y-133399500D01*
X138590689Y-133399500D01*
X138476117Y-133430199D01*
X138476112Y-133430201D01*
X138373390Y-133489508D01*
X138289508Y-133573390D01*
X138230201Y-133676112D01*
X138230199Y-133676117D01*
X138199500Y-133790688D01*
X115300500Y-133790688D01*
X115300500Y-116458384D01*
X146931804Y-116458384D01*
X146931804Y-116577007D01*
X146962503Y-116691578D01*
X146962505Y-116691583D01*
X147021812Y-116794305D01*
X147021813Y-116794306D01*
X147021815Y-116794309D01*
X147105691Y-116878185D01*
X147208418Y-116937495D01*
X147208419Y-116937495D01*
X147208421Y-116937496D01*
X147265706Y-116952845D01*
X147322992Y-116968195D01*
X147322993Y-116968196D01*
X147446464Y-116968196D01*
X147446464Y-116970928D01*
X147492728Y-116983286D01*
X147500051Y-116989703D01*
X147606826Y-117096478D01*
X147628500Y-117148804D01*
X147628500Y-121984849D01*
X147666634Y-122076914D01*
X147666637Y-122076918D01*
X147682286Y-122092567D01*
X147703960Y-122144893D01*
X147703794Y-122147427D01*
X147703794Y-122269625D01*
X147734493Y-122384196D01*
X147734495Y-122384201D01*
X147793802Y-122486923D01*
X147793803Y-122486924D01*
X147793805Y-122486927D01*
X147877681Y-122570803D01*
X147980408Y-122630113D01*
X147980409Y-122630113D01*
X147980411Y-122630114D01*
X148037696Y-122645463D01*
X148094982Y-122660813D01*
X148094983Y-122660814D01*
X148094985Y-122660814D01*
X148213605Y-122660814D01*
X148213605Y-122660813D01*
X148328180Y-122630113D01*
X148430907Y-122570803D01*
X148514783Y-122486927D01*
X148574093Y-122384200D01*
X148604793Y-122269625D01*
X148604794Y-122269625D01*
X148604794Y-122151003D01*
X148604793Y-122151002D01*
X148574094Y-122036431D01*
X148574092Y-122036426D01*
X148514785Y-121933704D01*
X148514784Y-121933703D01*
X148514783Y-121933701D01*
X148430907Y-121849825D01*
X148430904Y-121849823D01*
X148430903Y-121849822D01*
X148328181Y-121790515D01*
X148328176Y-121790513D01*
X148269601Y-121774818D01*
X148269589Y-121774815D01*
X148213603Y-121759814D01*
X148196029Y-121759814D01*
X148188713Y-121758322D01*
X148170960Y-121746335D01*
X148151174Y-121738140D01*
X148148204Y-121730971D01*
X148141773Y-121726629D01*
X148138084Y-121707603D01*
X149170500Y-121707603D01*
X149170500Y-121826226D01*
X149201199Y-121940797D01*
X149201201Y-121940802D01*
X149260508Y-122043524D01*
X149260509Y-122043525D01*
X149260511Y-122043528D01*
X149344387Y-122127404D01*
X149344389Y-122127405D01*
X149344390Y-122127406D01*
X149447112Y-122186713D01*
X149447114Y-122186714D01*
X149447115Y-122186714D01*
X149447117Y-122186715D01*
X149504402Y-122202064D01*
X149561688Y-122217414D01*
X149561689Y-122217415D01*
X149561691Y-122217415D01*
X149680311Y-122217415D01*
X149680311Y-122217414D01*
X149794886Y-122186714D01*
X149897613Y-122127404D01*
X149981489Y-122043528D01*
X150040799Y-121940801D01*
X150071499Y-121826226D01*
X150071500Y-121826226D01*
X150071500Y-121707604D01*
X150071499Y-121707603D01*
X150040800Y-121593032D01*
X150040798Y-121593027D01*
X149981491Y-121490305D01*
X149981490Y-121490304D01*
X149981489Y-121490302D01*
X149897613Y-121406426D01*
X149897612Y-121406425D01*
X149894184Y-121402997D01*
X149896105Y-121401075D01*
X149872133Y-121359555D01*
X149872002Y-121357553D01*
X162367335Y-121357553D01*
X166894637Y-121357553D01*
X166894637Y-119544103D01*
X162367335Y-119544103D01*
X162367335Y-121357553D01*
X149872002Y-121357553D01*
X149871500Y-121349896D01*
X149871500Y-119040688D01*
X151199500Y-119040688D01*
X151199500Y-119159311D01*
X151230199Y-119273882D01*
X151230201Y-119273887D01*
X151289508Y-119376609D01*
X151289509Y-119376610D01*
X151289511Y-119376613D01*
X151373387Y-119460489D01*
X151373389Y-119460490D01*
X151373390Y-119460491D01*
X151476112Y-119519798D01*
X151476114Y-119519799D01*
X151476115Y-119519799D01*
X151476117Y-119519800D01*
X151533402Y-119535149D01*
X151590688Y-119550499D01*
X151590689Y-119550500D01*
X151590691Y-119550500D01*
X151709311Y-119550500D01*
X151709311Y-119550499D01*
X151823886Y-119519799D01*
X151926613Y-119460489D01*
X152010489Y-119376613D01*
X152010796Y-119376080D01*
X152014624Y-119372243D01*
X152036669Y-119363077D01*
X152057349Y-119351134D01*
X152066903Y-119350507D01*
X152066922Y-119350500D01*
X152066935Y-119350505D01*
X152067019Y-119350500D01*
X153472935Y-119350500D01*
X153472936Y-119350500D01*
X153565005Y-119312364D01*
X155008488Y-117868878D01*
X155008491Y-117868877D01*
X155018896Y-117858472D01*
X155018897Y-117858472D01*
X155089364Y-117788005D01*
X155105313Y-117749500D01*
X155127501Y-117695936D01*
X155127501Y-117596280D01*
X155127501Y-117590322D01*
X155127500Y-117590308D01*
X155127500Y-116569999D01*
X159354156Y-116569999D01*
X159354157Y-116570000D01*
X160358012Y-116570000D01*
X160340795Y-116579940D01*
X160284940Y-116635795D01*
X160245444Y-116704204D01*
X160225000Y-116780504D01*
X160225000Y-116859496D01*
X160245444Y-116935796D01*
X160284940Y-117004205D01*
X160340795Y-117060060D01*
X160358012Y-117070000D01*
X159354157Y-117070000D01*
X159365348Y-117126267D01*
X159365350Y-117126274D01*
X159444500Y-117317358D01*
X159559410Y-117489335D01*
X159705664Y-117635589D01*
X159877641Y-117750499D01*
X160068725Y-117829649D01*
X160068732Y-117829651D01*
X160271584Y-117870000D01*
X160825000Y-117870000D01*
X160825000Y-117120000D01*
X161325000Y-117120000D01*
X161325000Y-117870000D01*
X161878416Y-117870000D01*
X162081267Y-117829651D01*
X162081274Y-117829649D01*
X162272358Y-117750499D01*
X162444335Y-117635589D01*
X162444337Y-117635588D01*
X162590588Y-117489337D01*
X162590589Y-117489335D01*
X162705499Y-117317358D01*
X162784649Y-117126274D01*
X162784651Y-117126267D01*
X162795843Y-117070000D01*
X161791988Y-117070000D01*
X161809205Y-117060060D01*
X161865060Y-117004205D01*
X161904556Y-116935796D01*
X161925000Y-116859496D01*
X161925000Y-116780504D01*
X161904556Y-116704204D01*
X161865060Y-116635795D01*
X161809205Y-116579940D01*
X161791988Y-116570000D01*
X162795843Y-116570000D01*
X162795843Y-116569999D01*
X163704156Y-116569999D01*
X163704157Y-116570000D01*
X164708012Y-116570000D01*
X164690795Y-116579940D01*
X164634940Y-116635795D01*
X164595444Y-116704204D01*
X164575000Y-116780504D01*
X164575000Y-116859496D01*
X164595444Y-116935796D01*
X164634940Y-117004205D01*
X164690795Y-117060060D01*
X164708012Y-117070000D01*
X163704157Y-117070000D01*
X163715348Y-117126267D01*
X163715350Y-117126274D01*
X163794500Y-117317358D01*
X163909410Y-117489335D01*
X164055664Y-117635589D01*
X164227641Y-117750499D01*
X164418725Y-117829649D01*
X164418732Y-117829651D01*
X164621584Y-117870000D01*
X165025000Y-117870000D01*
X165025000Y-117120000D01*
X165525000Y-117120000D01*
X165525000Y-117870000D01*
X165928416Y-117870000D01*
X166131267Y-117829651D01*
X166131274Y-117829649D01*
X166322358Y-117750499D01*
X166494335Y-117635589D01*
X166494337Y-117635588D01*
X166640588Y-117489337D01*
X166640589Y-117489335D01*
X166755499Y-117317358D01*
X166834649Y-117126274D01*
X166834651Y-117126267D01*
X166845843Y-117070000D01*
X165841988Y-117070000D01*
X165859205Y-117060060D01*
X165915060Y-117004205D01*
X165954556Y-116935796D01*
X165975000Y-116859496D01*
X165975000Y-116780504D01*
X165954556Y-116704204D01*
X165915060Y-116635795D01*
X165859205Y-116579940D01*
X165841988Y-116570000D01*
X166845843Y-116570000D01*
X166845843Y-116569999D01*
X166834651Y-116513732D01*
X166834649Y-116513725D01*
X166755499Y-116322641D01*
X166640589Y-116150664D01*
X166494335Y-116004410D01*
X166322358Y-115889500D01*
X166131274Y-115810350D01*
X166131267Y-115810348D01*
X165928416Y-115770000D01*
X165525000Y-115770000D01*
X165525000Y-116520000D01*
X165025000Y-116520000D01*
X165025000Y-115770000D01*
X164621584Y-115770000D01*
X164418732Y-115810348D01*
X164418725Y-115810350D01*
X164227641Y-115889500D01*
X164055664Y-116004410D01*
X164055663Y-116004412D01*
X163909412Y-116150663D01*
X163909410Y-116150664D01*
X163794500Y-116322641D01*
X163715350Y-116513725D01*
X163715348Y-116513732D01*
X163704156Y-116569999D01*
X162795843Y-116569999D01*
X162784651Y-116513732D01*
X162784649Y-116513725D01*
X162705499Y-116322641D01*
X162590589Y-116150664D01*
X162444335Y-116004410D01*
X162272358Y-115889500D01*
X162107233Y-115821103D01*
X162067185Y-115781054D01*
X162067185Y-115724417D01*
X162071462Y-115715744D01*
X162131281Y-115612135D01*
X162170499Y-115465768D01*
X162170500Y-115465768D01*
X162170500Y-115314232D01*
X162170499Y-115314231D01*
X162166978Y-115301092D01*
X162131281Y-115167865D01*
X162055515Y-115036635D01*
X161948365Y-114929485D01*
X161948362Y-114929483D01*
X161817139Y-114853721D01*
X161817130Y-114853717D01*
X161670768Y-114814500D01*
X161670766Y-114814500D01*
X161519234Y-114814500D01*
X161519232Y-114814500D01*
X161372869Y-114853717D01*
X161372860Y-114853721D01*
X161241637Y-114929483D01*
X161134483Y-115036637D01*
X161058721Y-115167860D01*
X161058717Y-115167869D01*
X161019500Y-115314231D01*
X161019500Y-115465768D01*
X161058717Y-115612130D01*
X161058721Y-115612139D01*
X161103335Y-115689412D01*
X161134485Y-115743365D01*
X161241635Y-115850515D01*
X161241637Y-115850516D01*
X161241638Y-115850517D01*
X161259305Y-115860717D01*
X161287999Y-115877283D01*
X161322478Y-115922216D01*
X161325000Y-115941369D01*
X161325000Y-116520000D01*
X160825000Y-116520000D01*
X160825000Y-115770000D01*
X160271584Y-115770000D01*
X160068732Y-115810348D01*
X160068725Y-115810350D01*
X159877641Y-115889500D01*
X159705664Y-116004410D01*
X159705663Y-116004412D01*
X159559412Y-116150663D01*
X159559410Y-116150664D01*
X159444500Y-116322641D01*
X159365350Y-116513725D01*
X159365348Y-116513732D01*
X159354156Y-116569999D01*
X155127500Y-116569999D01*
X155127500Y-115962248D01*
X155149173Y-115909923D01*
X155204479Y-115854618D01*
X155263789Y-115751891D01*
X155294489Y-115637316D01*
X155294490Y-115637316D01*
X155294490Y-115518694D01*
X155294489Y-115518693D01*
X155288183Y-115495160D01*
X155263789Y-115404119D01*
X155262480Y-115401852D01*
X155230456Y-115346384D01*
X155204481Y-115301395D01*
X155204480Y-115301394D01*
X155204479Y-115301392D01*
X155120603Y-115217516D01*
X155120600Y-115217514D01*
X155120599Y-115217513D01*
X155017877Y-115158206D01*
X155017872Y-115158204D01*
X154903301Y-115127505D01*
X154903299Y-115127505D01*
X154784681Y-115127505D01*
X154784679Y-115127505D01*
X154670107Y-115158204D01*
X154670102Y-115158206D01*
X154567380Y-115217513D01*
X154483498Y-115301395D01*
X154424191Y-115404117D01*
X154424189Y-115404123D01*
X154420951Y-115416206D01*
X154386470Y-115461137D01*
X154330321Y-115468527D01*
X154259311Y-115449500D01*
X154259309Y-115449500D01*
X154140691Y-115449500D01*
X154140689Y-115449500D01*
X154026117Y-115480199D01*
X154026112Y-115480201D01*
X153923390Y-115539508D01*
X153839508Y-115623390D01*
X153780201Y-115726112D01*
X153780199Y-115726117D01*
X153749500Y-115840688D01*
X153749500Y-115959311D01*
X153780199Y-116073882D01*
X153780201Y-116073887D01*
X153839508Y-116176609D01*
X153839509Y-116176610D01*
X153839511Y-116176613D01*
X153923387Y-116260489D01*
X154026114Y-116319799D01*
X154120654Y-116345131D01*
X154165586Y-116379609D01*
X154175500Y-116416609D01*
X154175500Y-117324885D01*
X154153826Y-117377211D01*
X153203211Y-118327826D01*
X153150885Y-118349500D01*
X152577157Y-118349500D01*
X152524831Y-118327826D01*
X152513071Y-118312500D01*
X152511690Y-118310109D01*
X152490489Y-118273387D01*
X152406613Y-118189511D01*
X152406610Y-118189509D01*
X152406609Y-118189508D01*
X152303887Y-118130201D01*
X152303882Y-118130199D01*
X152189311Y-118099500D01*
X152189309Y-118099500D01*
X152070691Y-118099500D01*
X152070689Y-118099500D01*
X151956117Y-118130199D01*
X151956112Y-118130201D01*
X151853390Y-118189508D01*
X151769508Y-118273390D01*
X151710201Y-118376112D01*
X151710199Y-118376117D01*
X151679500Y-118490688D01*
X151679500Y-118575500D01*
X151657826Y-118627826D01*
X151605500Y-118649500D01*
X151590689Y-118649500D01*
X151476117Y-118680199D01*
X151476112Y-118680201D01*
X151373390Y-118739508D01*
X151289508Y-118823390D01*
X151230201Y-118926112D01*
X151230199Y-118926117D01*
X151199500Y-119040688D01*
X149871500Y-119040688D01*
X149871500Y-116693411D01*
X149893173Y-116641086D01*
X150176488Y-116357770D01*
X150176491Y-116357769D01*
X150186896Y-116347364D01*
X150186897Y-116347364D01*
X150257364Y-116276897D01*
X150290377Y-116197196D01*
X150295501Y-116184827D01*
X150295501Y-116085172D01*
X150295500Y-116085169D01*
X150295500Y-115689412D01*
X150317174Y-115637086D01*
X150437837Y-115516423D01*
X150925235Y-115516423D01*
X150925235Y-115635046D01*
X150955934Y-115749617D01*
X150955936Y-115749622D01*
X151015243Y-115852344D01*
X151015244Y-115852345D01*
X151015246Y-115852348D01*
X151099122Y-115936224D01*
X151099124Y-115936225D01*
X151099125Y-115936226D01*
X151201847Y-115995533D01*
X151201849Y-115995534D01*
X151201850Y-115995534D01*
X151201852Y-115995535D01*
X151259137Y-116010884D01*
X151316423Y-116026234D01*
X151316424Y-116026235D01*
X151316426Y-116026235D01*
X151435046Y-116026235D01*
X151435046Y-116026234D01*
X151549621Y-115995534D01*
X151652348Y-115936224D01*
X151736224Y-115852348D01*
X151736224Y-115852347D01*
X151739654Y-115848918D01*
X151741577Y-115850841D01*
X151783084Y-115826869D01*
X151792754Y-115826235D01*
X152310022Y-115826235D01*
X152362348Y-115847909D01*
X152381501Y-115881083D01*
X152387184Y-115902295D01*
X152446491Y-116005017D01*
X152446492Y-116005018D01*
X152446494Y-116005021D01*
X152530370Y-116088897D01*
X152530372Y-116088898D01*
X152530373Y-116088899D01*
X152620082Y-116140693D01*
X152633097Y-116148207D01*
X152633098Y-116148207D01*
X152633100Y-116148208D01*
X152690385Y-116163557D01*
X152747671Y-116178907D01*
X152747672Y-116178908D01*
X152747674Y-116178908D01*
X152866294Y-116178908D01*
X152866294Y-116178907D01*
X152980869Y-116148207D01*
X153083596Y-116088897D01*
X153167472Y-116005021D01*
X153226782Y-115902294D01*
X153257482Y-115787719D01*
X153257483Y-115787719D01*
X153257483Y-115669097D01*
X153257482Y-115669096D01*
X153255468Y-115661581D01*
X153226782Y-115554522D01*
X153204787Y-115516426D01*
X153167474Y-115451798D01*
X153167473Y-115451797D01*
X153167472Y-115451795D01*
X153083596Y-115367919D01*
X153083593Y-115367917D01*
X153083592Y-115367916D01*
X152980870Y-115308609D01*
X152980865Y-115308607D01*
X152866294Y-115277908D01*
X152866292Y-115277908D01*
X152747674Y-115277908D01*
X152747672Y-115277908D01*
X152633101Y-115308607D01*
X152633097Y-115308609D01*
X152621470Y-115315321D01*
X152584472Y-115325235D01*
X151792754Y-115325235D01*
X151740428Y-115303561D01*
X151738754Y-115301652D01*
X151700025Y-115262923D01*
X151652348Y-115215246D01*
X151652345Y-115215244D01*
X151652344Y-115215243D01*
X151549622Y-115155936D01*
X151549617Y-115155934D01*
X151435046Y-115125235D01*
X151435044Y-115125235D01*
X151316426Y-115125235D01*
X151316424Y-115125235D01*
X151201852Y-115155934D01*
X151201847Y-115155936D01*
X151099125Y-115215243D01*
X151015243Y-115299125D01*
X150955936Y-115401847D01*
X150955934Y-115401852D01*
X150925235Y-115516423D01*
X150437837Y-115516423D01*
X151132086Y-114822174D01*
X151184412Y-114800500D01*
X151499827Y-114800500D01*
X151499828Y-114800500D01*
X151591897Y-114762364D01*
X152102087Y-114252174D01*
X152154413Y-114230500D01*
X152210099Y-114230500D01*
X152210099Y-114230499D01*
X152324674Y-114199799D01*
X152427401Y-114140489D01*
X152511277Y-114056613D01*
X152570587Y-113953886D01*
X152601287Y-113839311D01*
X152601288Y-113839311D01*
X152601288Y-113720689D01*
X152601287Y-113720688D01*
X152570588Y-113606117D01*
X152570586Y-113606112D01*
X152511279Y-113503390D01*
X152511278Y-113503389D01*
X152511277Y-113503387D01*
X152427401Y-113419511D01*
X152427398Y-113419509D01*
X152427397Y-113419508D01*
X152324675Y-113360201D01*
X152324670Y-113360199D01*
X152210099Y-113329500D01*
X152210097Y-113329500D01*
X152091479Y-113329500D01*
X152091477Y-113329500D01*
X151976905Y-113360199D01*
X151976900Y-113360201D01*
X151874178Y-113419508D01*
X151790296Y-113503390D01*
X151730989Y-113606112D01*
X151730987Y-113606117D01*
X151700288Y-113720688D01*
X151700288Y-113802683D01*
X151699994Y-113809269D01*
X151698986Y-113820544D01*
X151689286Y-113843964D01*
X151689286Y-113929096D01*
X151688992Y-113932387D01*
X151677283Y-113954778D01*
X151667612Y-113978127D01*
X151367913Y-114277826D01*
X151315587Y-114299500D01*
X151108448Y-114299500D01*
X151108440Y-114299499D01*
X151099828Y-114299499D01*
X151000173Y-114299499D01*
X150969115Y-114312364D01*
X150908103Y-114337635D01*
X150908102Y-114337637D01*
X150837635Y-114408104D01*
X149892695Y-115353043D01*
X149832637Y-115413101D01*
X149832634Y-115413105D01*
X149794500Y-115505170D01*
X149794500Y-116000586D01*
X149772826Y-116052912D01*
X149408637Y-116417101D01*
X149408634Y-116417105D01*
X149370500Y-116509170D01*
X149370500Y-121349896D01*
X149348826Y-121402222D01*
X149346917Y-121403895D01*
X149260508Y-121490305D01*
X149201201Y-121593027D01*
X149201199Y-121593032D01*
X149170500Y-121707603D01*
X148138084Y-121707603D01*
X148137695Y-121705599D01*
X148129500Y-121685814D01*
X148129500Y-118690349D01*
X148151174Y-118638023D01*
X148203500Y-118616349D01*
X148222653Y-118618871D01*
X148226112Y-118619797D01*
X148226114Y-118619799D01*
X148340688Y-118650499D01*
X148340689Y-118650500D01*
X148340691Y-118650500D01*
X148459311Y-118650500D01*
X148459311Y-118650499D01*
X148573886Y-118619799D01*
X148676613Y-118560489D01*
X148760489Y-118476613D01*
X148819799Y-118373886D01*
X148850499Y-118259311D01*
X148850500Y-118259311D01*
X148850500Y-118140689D01*
X148850499Y-118140688D01*
X148847688Y-118130199D01*
X148819799Y-118026114D01*
X148760489Y-117923387D01*
X148676613Y-117839511D01*
X148676612Y-117839510D01*
X148673184Y-117836082D01*
X148675105Y-117834160D01*
X148651133Y-117792640D01*
X148650500Y-117782981D01*
X148650500Y-116434412D01*
X148672174Y-116382086D01*
X148861193Y-116193067D01*
X148913519Y-116171393D01*
X148973259Y-116171393D01*
X148973259Y-116171392D01*
X149087834Y-116140692D01*
X149190561Y-116081382D01*
X149274437Y-115997506D01*
X149333747Y-115894779D01*
X149364447Y-115780204D01*
X149364448Y-115780204D01*
X149364448Y-115661582D01*
X149364447Y-115661581D01*
X149357336Y-115635044D01*
X149340710Y-115572992D01*
X149333748Y-115547010D01*
X149333746Y-115547005D01*
X149274439Y-115444283D01*
X149274438Y-115444282D01*
X149274437Y-115444280D01*
X149190561Y-115360404D01*
X149190558Y-115360402D01*
X149190557Y-115360401D01*
X149087835Y-115301094D01*
X149087830Y-115301092D01*
X149016857Y-115282075D01*
X149001532Y-115270315D01*
X148983684Y-115262923D01*
X148979857Y-115253684D01*
X148971924Y-115247597D01*
X148969402Y-115228444D01*
X148962010Y-115210597D01*
X148965837Y-115201357D01*
X148964532Y-115191444D01*
X148983684Y-115158271D01*
X149016720Y-115125235D01*
X149065143Y-115076811D01*
X149117468Y-115055138D01*
X149136619Y-115057659D01*
X149162377Y-115064561D01*
X149184538Y-115070500D01*
X149184539Y-115070500D01*
X149303159Y-115070500D01*
X149303159Y-115070499D01*
X149417734Y-115039799D01*
X149520461Y-114980489D01*
X149604337Y-114896613D01*
X149663647Y-114793886D01*
X149694347Y-114679311D01*
X149694348Y-114679311D01*
X149694348Y-114560689D01*
X149694347Y-114560688D01*
X149662988Y-114443653D01*
X149670380Y-114387500D01*
X149715313Y-114353022D01*
X149734466Y-114350500D01*
X149949827Y-114350500D01*
X149949828Y-114350500D01*
X150041897Y-114312364D01*
X150382087Y-113972174D01*
X150434413Y-113950500D01*
X150772859Y-113950500D01*
X150809860Y-113960415D01*
X150826109Y-113969797D01*
X150826117Y-113969800D01*
X150857194Y-113978127D01*
X150940688Y-114000499D01*
X150940689Y-114000500D01*
X150940691Y-114000500D01*
X151059311Y-114000500D01*
X151059311Y-114000499D01*
X151173886Y-113969799D01*
X151276613Y-113910489D01*
X151360489Y-113826613D01*
X151419799Y-113723886D01*
X151450499Y-113609311D01*
X151450500Y-113609311D01*
X151450500Y-113490689D01*
X151450499Y-113490688D01*
X151419800Y-113376117D01*
X151419798Y-113376112D01*
X151360491Y-113273390D01*
X151360490Y-113273389D01*
X151360489Y-113273387D01*
X151276613Y-113189511D01*
X151276610Y-113189509D01*
X151276609Y-113189508D01*
X151173887Y-113130201D01*
X151173882Y-113130199D01*
X151059311Y-113099500D01*
X151059309Y-113099500D01*
X150940691Y-113099500D01*
X150940689Y-113099500D01*
X150826117Y-113130199D01*
X150826112Y-113130201D01*
X150723390Y-113189508D01*
X150639508Y-113273390D01*
X150580201Y-113376112D01*
X150580199Y-113376117D01*
X150575233Y-113394653D01*
X150540755Y-113439586D01*
X150503755Y-113449500D01*
X150250172Y-113449500D01*
X150158105Y-113487634D01*
X149817913Y-113827826D01*
X149765587Y-113849500D01*
X148900172Y-113849500D01*
X148808105Y-113887634D01*
X148808101Y-113887637D01*
X147535608Y-115160130D01*
X147483282Y-115181804D01*
X147372993Y-115181804D01*
X147258421Y-115212503D01*
X147258416Y-115212505D01*
X147155694Y-115271812D01*
X147071812Y-115355694D01*
X147012505Y-115458416D01*
X147012503Y-115458421D01*
X146981804Y-115572992D01*
X146981804Y-115691615D01*
X147012503Y-115806186D01*
X147012505Y-115806191D01*
X147071812Y-115908913D01*
X147071813Y-115908914D01*
X147071815Y-115908917D01*
X147155691Y-115992793D01*
X147155693Y-115992794D01*
X147155695Y-115992796D01*
X147162077Y-115996481D01*
X147196555Y-116041414D01*
X147189161Y-116097567D01*
X147162077Y-116124652D01*
X147105693Y-116157205D01*
X147021812Y-116241086D01*
X146962505Y-116343808D01*
X146962503Y-116343813D01*
X146931804Y-116458384D01*
X115300500Y-116458384D01*
X115300500Y-111640688D01*
X152649500Y-111640688D01*
X152649500Y-111759311D01*
X152680199Y-111873882D01*
X152680201Y-111873887D01*
X152739508Y-111976609D01*
X152739509Y-111976610D01*
X152739511Y-111976613D01*
X152823387Y-112060489D01*
X152926114Y-112119799D01*
X152926115Y-112119799D01*
X152926117Y-112119800D01*
X152983402Y-112135149D01*
X153040688Y-112150499D01*
X153040689Y-112150500D01*
X153040691Y-112150500D01*
X153159311Y-112150500D01*
X153159311Y-112150499D01*
X153273886Y-112119799D01*
X153376613Y-112060489D01*
X153460489Y-111976613D01*
X153519799Y-111873886D01*
X153550499Y-111759311D01*
X153550500Y-111759311D01*
X153550500Y-111640689D01*
X153550499Y-111640688D01*
X153519800Y-111526117D01*
X153519798Y-111526112D01*
X153460491Y-111423390D01*
X153460490Y-111423389D01*
X153460489Y-111423387D01*
X153376613Y-111339511D01*
X153376612Y-111339510D01*
X153373184Y-111336082D01*
X153375105Y-111334160D01*
X153351133Y-111292640D01*
X153350500Y-111282981D01*
X153350500Y-110734412D01*
X153372174Y-110682086D01*
X155432086Y-108622174D01*
X155484412Y-108600500D01*
X156532981Y-108600500D01*
X156585307Y-108622174D01*
X156586980Y-108624082D01*
X156589510Y-108626612D01*
X156589511Y-108626613D01*
X156673387Y-108710489D01*
X156673389Y-108710490D01*
X156673390Y-108710491D01*
X156776112Y-108769798D01*
X156776114Y-108769799D01*
X156776115Y-108769799D01*
X156776117Y-108769800D01*
X156833402Y-108785149D01*
X156890688Y-108800499D01*
X156890689Y-108800500D01*
X156890691Y-108800500D01*
X157009311Y-108800500D01*
X157009311Y-108800499D01*
X157123886Y-108769799D01*
X157226613Y-108710489D01*
X157310489Y-108626613D01*
X157369799Y-108523886D01*
X157400499Y-108409311D01*
X157400500Y-108409311D01*
X157400500Y-108290689D01*
X157400499Y-108290688D01*
X157391122Y-108255694D01*
X157378371Y-108208104D01*
X157369800Y-108176117D01*
X157369798Y-108176112D01*
X157310491Y-108073390D01*
X157310490Y-108073389D01*
X157310489Y-108073387D01*
X157226613Y-107989511D01*
X157226179Y-107989260D01*
X157222536Y-107985667D01*
X157213168Y-107963486D01*
X157201133Y-107942640D01*
X157200539Y-107933580D01*
X157200502Y-107933492D01*
X157200529Y-107933425D01*
X157200500Y-107932981D01*
X157200500Y-107929999D01*
X159354156Y-107929999D01*
X159354157Y-107930000D01*
X160358012Y-107930000D01*
X160340795Y-107939940D01*
X160284940Y-107995795D01*
X160245444Y-108064204D01*
X160225000Y-108140504D01*
X160225000Y-108219496D01*
X160245444Y-108295796D01*
X160284940Y-108364205D01*
X160340795Y-108420060D01*
X160358012Y-108430000D01*
X159354157Y-108430000D01*
X159365348Y-108486267D01*
X159365350Y-108486274D01*
X159444500Y-108677358D01*
X159559410Y-108849335D01*
X159705664Y-108995589D01*
X159877641Y-109110499D01*
X160068725Y-109189649D01*
X160068732Y-109189651D01*
X160271584Y-109230000D01*
X160825000Y-109230000D01*
X160825000Y-108480000D01*
X161325000Y-108480000D01*
X161325000Y-109058629D01*
X161303326Y-109110955D01*
X161288002Y-109122714D01*
X161241636Y-109149484D01*
X161134483Y-109256637D01*
X161058721Y-109387860D01*
X161058717Y-109387869D01*
X161019500Y-109534231D01*
X161019500Y-109685768D01*
X161058717Y-109832130D01*
X161058721Y-109832139D01*
X161121909Y-109941583D01*
X161134485Y-109963365D01*
X161241635Y-110070515D01*
X161372865Y-110146281D01*
X161519231Y-110185499D01*
X161519232Y-110185500D01*
X161519234Y-110185500D01*
X161670768Y-110185500D01*
X161670768Y-110185499D01*
X161817135Y-110146281D01*
X161948365Y-110070515D01*
X162055515Y-109963365D01*
X162131281Y-109832135D01*
X162170499Y-109685768D01*
X162170500Y-109685768D01*
X162170500Y-109534232D01*
X162170499Y-109534231D01*
X162131282Y-109387869D01*
X162131281Y-109387865D01*
X162071465Y-109284262D01*
X162064073Y-109228111D01*
X162098552Y-109183177D01*
X162107234Y-109178896D01*
X162272357Y-109110500D01*
X162444335Y-108995589D01*
X162444337Y-108995588D01*
X162590588Y-108849337D01*
X162590589Y-108849335D01*
X162705499Y-108677358D01*
X162784649Y-108486274D01*
X162784651Y-108486267D01*
X162795843Y-108430000D01*
X161791988Y-108430000D01*
X161809205Y-108420060D01*
X161865060Y-108364205D01*
X161904556Y-108295796D01*
X161925000Y-108219496D01*
X161925000Y-108140504D01*
X161904556Y-108064204D01*
X161865060Y-107995795D01*
X161809205Y-107939940D01*
X161791988Y-107930000D01*
X162795843Y-107930000D01*
X162795843Y-107929999D01*
X163704156Y-107929999D01*
X163704157Y-107930000D01*
X164708012Y-107930000D01*
X164690795Y-107939940D01*
X164634940Y-107995795D01*
X164595444Y-108064204D01*
X164575000Y-108140504D01*
X164575000Y-108219496D01*
X164595444Y-108295796D01*
X164634940Y-108364205D01*
X164690795Y-108420060D01*
X164708012Y-108430000D01*
X163704157Y-108430000D01*
X163715348Y-108486267D01*
X163715350Y-108486274D01*
X163794500Y-108677358D01*
X163909410Y-108849335D01*
X164055664Y-108995589D01*
X164227641Y-109110499D01*
X164418725Y-109189649D01*
X164418732Y-109189651D01*
X164621584Y-109230000D01*
X165025000Y-109230000D01*
X165025000Y-108480000D01*
X165525000Y-108480000D01*
X165525000Y-109230000D01*
X165928416Y-109230000D01*
X166131267Y-109189651D01*
X166131274Y-109189649D01*
X166322358Y-109110499D01*
X166494335Y-108995589D01*
X166494337Y-108995588D01*
X166640588Y-108849337D01*
X166640589Y-108849335D01*
X166755499Y-108677358D01*
X166834649Y-108486274D01*
X166834651Y-108486267D01*
X166845843Y-108430000D01*
X165841988Y-108430000D01*
X165859205Y-108420060D01*
X165915060Y-108364205D01*
X165954556Y-108295796D01*
X165975000Y-108219496D01*
X165975000Y-108140504D01*
X165954556Y-108064204D01*
X165915060Y-107995795D01*
X165859205Y-107939940D01*
X165841988Y-107930000D01*
X166845843Y-107930000D01*
X166845843Y-107929999D01*
X166834651Y-107873732D01*
X166834649Y-107873725D01*
X166755499Y-107682641D01*
X166640589Y-107510664D01*
X166494335Y-107364410D01*
X166322358Y-107249500D01*
X166131274Y-107170350D01*
X166131267Y-107170348D01*
X165928416Y-107130000D01*
X165525000Y-107130000D01*
X165525000Y-107880000D01*
X165025000Y-107880000D01*
X165025000Y-107130000D01*
X164621584Y-107130000D01*
X164418732Y-107170348D01*
X164418725Y-107170350D01*
X164227641Y-107249500D01*
X164055664Y-107364410D01*
X164055663Y-107364412D01*
X163909412Y-107510663D01*
X163909410Y-107510664D01*
X163794500Y-107682641D01*
X163715350Y-107873725D01*
X163715348Y-107873732D01*
X163704156Y-107929999D01*
X162795843Y-107929999D01*
X162784651Y-107873732D01*
X162784649Y-107873725D01*
X162705499Y-107682641D01*
X162590589Y-107510664D01*
X162444335Y-107364410D01*
X162272358Y-107249500D01*
X162081274Y-107170350D01*
X162081267Y-107170348D01*
X161878416Y-107130000D01*
X161325000Y-107130000D01*
X161325000Y-107880000D01*
X160825000Y-107880000D01*
X160825000Y-107130000D01*
X160271584Y-107130000D01*
X160068732Y-107170348D01*
X160068725Y-107170350D01*
X159877641Y-107249500D01*
X159705664Y-107364410D01*
X159705663Y-107364412D01*
X159559412Y-107510663D01*
X159559410Y-107510664D01*
X159444500Y-107682641D01*
X159365350Y-107873725D01*
X159365348Y-107873732D01*
X159354156Y-107929999D01*
X157200500Y-107929999D01*
X157200500Y-107104500D01*
X157222174Y-107052174D01*
X157274500Y-107030500D01*
X157359311Y-107030500D01*
X157359311Y-107030499D01*
X157473886Y-106999799D01*
X157576613Y-106940489D01*
X157660489Y-106856613D01*
X157719799Y-106753886D01*
X157750499Y-106639311D01*
X157750500Y-106639311D01*
X157750500Y-106520689D01*
X157750499Y-106520688D01*
X157739409Y-106479301D01*
X157719799Y-106406114D01*
X157702078Y-106375420D01*
X157660491Y-106303390D01*
X157660490Y-106303389D01*
X157660489Y-106303387D01*
X157576613Y-106219511D01*
X157576610Y-106219509D01*
X157576609Y-106219508D01*
X157473887Y-106160201D01*
X157473882Y-106160199D01*
X157359311Y-106129500D01*
X157359309Y-106129500D01*
X157240691Y-106129500D01*
X157240689Y-106129500D01*
X157126117Y-106160199D01*
X157126112Y-106160201D01*
X157023390Y-106219508D01*
X156939508Y-106303390D01*
X156880201Y-106406112D01*
X156880199Y-106406117D01*
X156849500Y-106520688D01*
X156849500Y-106644159D01*
X156849143Y-106644159D01*
X156849665Y-106645419D01*
X156840533Y-106667465D01*
X156834338Y-106690515D01*
X156827992Y-106697745D01*
X156797696Y-106728042D01*
X156737637Y-106788101D01*
X156737634Y-106788105D01*
X156699500Y-106880170D01*
X156699500Y-107932981D01*
X156677826Y-107985307D01*
X156673943Y-107989189D01*
X156673387Y-107989511D01*
X156589511Y-108073387D01*
X156589190Y-108073942D01*
X156585307Y-108077826D01*
X156563291Y-108086945D01*
X156542651Y-108098866D01*
X156532981Y-108099500D01*
X155408448Y-108099500D01*
X155408440Y-108099499D01*
X155399828Y-108099499D01*
X155300173Y-108099499D01*
X155246239Y-108121838D01*
X155246240Y-108121839D01*
X155208104Y-108137635D01*
X155137635Y-108208104D01*
X152947695Y-110398043D01*
X152887637Y-110458101D01*
X152887634Y-110458105D01*
X152849500Y-110550170D01*
X152849500Y-111282981D01*
X152827826Y-111335307D01*
X152825917Y-111336980D01*
X152739508Y-111423390D01*
X152680201Y-111526112D01*
X152680199Y-111526117D01*
X152649500Y-111640688D01*
X115300500Y-111640688D01*
X115300500Y-109708384D01*
X145881804Y-109708384D01*
X145881804Y-109827007D01*
X145912503Y-109941578D01*
X145912505Y-109941583D01*
X145971812Y-110044305D01*
X145971813Y-110044306D01*
X145971815Y-110044309D01*
X146055691Y-110128185D01*
X146055693Y-110128186D01*
X146055694Y-110128187D01*
X146158416Y-110187494D01*
X146158418Y-110187495D01*
X146158419Y-110187495D01*
X146158421Y-110187496D01*
X146215706Y-110202845D01*
X146272992Y-110218195D01*
X146272993Y-110218196D01*
X146272995Y-110218196D01*
X146391615Y-110218196D01*
X146391615Y-110218195D01*
X146506190Y-110187495D01*
X146608917Y-110128185D01*
X146692793Y-110044309D01*
X146752103Y-109941582D01*
X146782803Y-109827007D01*
X146782804Y-109827007D01*
X146782804Y-109703536D01*
X146785534Y-109703536D01*
X146797899Y-109657265D01*
X146804303Y-109649956D01*
X147449949Y-109004310D01*
X147502274Y-108982637D01*
X147504807Y-108982804D01*
X147508387Y-108982804D01*
X147627007Y-108982804D01*
X147627007Y-108982803D01*
X147741582Y-108952103D01*
X147844309Y-108892793D01*
X147928185Y-108808917D01*
X147987495Y-108706190D01*
X148018195Y-108591615D01*
X148018196Y-108591615D01*
X148018196Y-108490688D01*
X148899500Y-108490688D01*
X148899500Y-108609311D01*
X148930199Y-108723882D01*
X148930201Y-108723887D01*
X148989508Y-108826609D01*
X148989509Y-108826610D01*
X148989511Y-108826613D01*
X149055691Y-108892793D01*
X149076817Y-108913919D01*
X149074893Y-108915842D01*
X149098866Y-108957349D01*
X149099500Y-108967019D01*
X149099500Y-110332981D01*
X149077826Y-110385307D01*
X149075917Y-110386980D01*
X148989508Y-110473390D01*
X148930201Y-110576112D01*
X148930199Y-110576117D01*
X148899500Y-110690688D01*
X148899500Y-110809311D01*
X148930199Y-110923882D01*
X148930201Y-110923887D01*
X148989508Y-111026609D01*
X148989509Y-111026610D01*
X148989511Y-111026613D01*
X149073387Y-111110489D01*
X149176114Y-111169799D01*
X149176115Y-111169799D01*
X149176117Y-111169800D01*
X149233402Y-111185149D01*
X149290688Y-111200499D01*
X149290689Y-111200500D01*
X149290691Y-111200500D01*
X149409311Y-111200500D01*
X149409311Y-111200499D01*
X149523886Y-111169799D01*
X149626613Y-111110489D01*
X149710489Y-111026613D01*
X149769799Y-110923886D01*
X149800499Y-110809311D01*
X149800500Y-110809311D01*
X149800500Y-110724500D01*
X149822174Y-110672174D01*
X149874500Y-110650500D01*
X149959311Y-110650500D01*
X149959311Y-110650499D01*
X150073886Y-110619799D01*
X150176613Y-110560489D01*
X150260489Y-110476613D01*
X150319799Y-110373886D01*
X150350499Y-110259311D01*
X150350500Y-110259311D01*
X150350500Y-110140689D01*
X150350499Y-110140688D01*
X150347149Y-110128187D01*
X150319799Y-110026114D01*
X150260489Y-109923387D01*
X150176613Y-109839511D01*
X150176612Y-109839510D01*
X150173184Y-109836082D01*
X150175105Y-109834160D01*
X150151133Y-109792640D01*
X150150500Y-109782981D01*
X150150500Y-109497019D01*
X150172174Y-109444693D01*
X150174082Y-109443019D01*
X150176610Y-109440490D01*
X150176613Y-109440489D01*
X150260489Y-109356613D01*
X150319799Y-109253886D01*
X150350499Y-109139311D01*
X150350500Y-109139311D01*
X150350500Y-109020689D01*
X150350499Y-109020688D01*
X150319800Y-108906117D01*
X150319798Y-108906112D01*
X150260491Y-108803390D01*
X150260490Y-108803389D01*
X150260489Y-108803387D01*
X150176613Y-108719511D01*
X150176610Y-108719509D01*
X150176609Y-108719508D01*
X150073887Y-108660201D01*
X150073882Y-108660199D01*
X149959311Y-108629500D01*
X149959309Y-108629500D01*
X149874500Y-108629500D01*
X149822174Y-108607826D01*
X149800500Y-108555500D01*
X149800500Y-108490689D01*
X149800499Y-108490688D01*
X149799314Y-108486267D01*
X149769799Y-108376114D01*
X149720480Y-108290691D01*
X149710491Y-108273390D01*
X149710490Y-108273389D01*
X149710489Y-108273387D01*
X149626613Y-108189511D01*
X149626610Y-108189509D01*
X149626609Y-108189508D01*
X149523887Y-108130201D01*
X149523882Y-108130199D01*
X149409311Y-108099500D01*
X149409309Y-108099500D01*
X149290691Y-108099500D01*
X149290689Y-108099500D01*
X149176117Y-108130199D01*
X149176112Y-108130201D01*
X149073390Y-108189508D01*
X148989508Y-108273390D01*
X148930201Y-108376112D01*
X148930199Y-108376117D01*
X148899500Y-108490688D01*
X148018196Y-108490688D01*
X148018196Y-108472993D01*
X148018195Y-108472992D01*
X147987496Y-108358421D01*
X147987494Y-108358416D01*
X147928187Y-108255694D01*
X147928186Y-108255693D01*
X147928185Y-108255691D01*
X147844309Y-108171815D01*
X147844306Y-108171813D01*
X147844305Y-108171812D01*
X147741583Y-108112505D01*
X147741578Y-108112503D01*
X147627007Y-108081804D01*
X147627005Y-108081804D01*
X147508387Y-108081804D01*
X147508385Y-108081804D01*
X147393813Y-108112503D01*
X147393808Y-108112505D01*
X147291086Y-108171812D01*
X147207204Y-108255694D01*
X147147897Y-108358416D01*
X147147895Y-108358421D01*
X147117196Y-108472992D01*
X147117196Y-108596463D01*
X147114494Y-108596463D01*
X147102034Y-108642819D01*
X147095687Y-108650050D01*
X146450050Y-109295687D01*
X146397724Y-109317361D01*
X146395189Y-109317196D01*
X146391613Y-109317196D01*
X146272995Y-109317196D01*
X146272993Y-109317196D01*
X146158421Y-109347895D01*
X146158416Y-109347897D01*
X146055694Y-109407204D01*
X145971812Y-109491086D01*
X145912505Y-109593808D01*
X145912503Y-109593813D01*
X145881804Y-109708384D01*
X115300500Y-109708384D01*
X115300500Y-105826545D01*
X160522200Y-105826545D01*
X160522200Y-105973454D01*
X160550858Y-106117535D01*
X160550861Y-106117546D01*
X160607078Y-106253266D01*
X160607079Y-106253268D01*
X160607080Y-106253269D01*
X160688699Y-106375420D01*
X160792580Y-106479301D01*
X160914731Y-106560920D01*
X161050458Y-106617140D01*
X161194545Y-106645800D01*
X161341455Y-106645800D01*
X161485542Y-106617140D01*
X161621269Y-106560920D01*
X161743420Y-106479301D01*
X161847301Y-106375420D01*
X161928920Y-106253269D01*
X161985140Y-106117542D01*
X162013800Y-105973455D01*
X162013800Y-105826545D01*
X162554200Y-105826545D01*
X162554200Y-105973454D01*
X162582858Y-106117535D01*
X162582861Y-106117546D01*
X162639078Y-106253266D01*
X162639079Y-106253268D01*
X162639080Y-106253269D01*
X162720699Y-106375420D01*
X162824580Y-106479301D01*
X162946731Y-106560920D01*
X163082458Y-106617140D01*
X163226545Y-106645800D01*
X163373455Y-106645800D01*
X163517542Y-106617140D01*
X163653269Y-106560920D01*
X163775420Y-106479301D01*
X163879301Y-106375420D01*
X163960920Y-106253269D01*
X164017140Y-106117542D01*
X164045800Y-105973455D01*
X164045800Y-105826545D01*
X164017140Y-105682458D01*
X163960920Y-105546731D01*
X163879301Y-105424580D01*
X163775420Y-105320699D01*
X163653269Y-105239080D01*
X163653268Y-105239079D01*
X163653266Y-105239078D01*
X163517546Y-105182861D01*
X163517535Y-105182858D01*
X163373455Y-105154200D01*
X163226545Y-105154200D01*
X163082464Y-105182858D01*
X163082453Y-105182861D01*
X162946733Y-105239078D01*
X162824583Y-105320696D01*
X162720696Y-105424583D01*
X162639078Y-105546733D01*
X162582861Y-105682453D01*
X162582858Y-105682464D01*
X162554200Y-105826545D01*
X162013800Y-105826545D01*
X161985140Y-105682458D01*
X161928920Y-105546731D01*
X161847301Y-105424580D01*
X161743420Y-105320699D01*
X161621269Y-105239080D01*
X161621268Y-105239079D01*
X161621266Y-105239078D01*
X161485546Y-105182861D01*
X161485535Y-105182858D01*
X161341455Y-105154200D01*
X161194545Y-105154200D01*
X161050464Y-105182858D01*
X161050453Y-105182861D01*
X160914733Y-105239078D01*
X160792583Y-105320696D01*
X160688696Y-105424583D01*
X160607078Y-105546733D01*
X160550861Y-105682453D01*
X160550858Y-105682464D01*
X160522200Y-105826545D01*
X115300500Y-105826545D01*
X115300500Y-103881830D01*
X158306050Y-103881830D01*
X158306050Y-104108169D01*
X158341458Y-104331720D01*
X158341460Y-104331731D01*
X158411397Y-104546975D01*
X158514154Y-104748650D01*
X158647189Y-104931756D01*
X158647193Y-104931761D01*
X158807239Y-105091807D01*
X158807242Y-105091809D01*
X158807243Y-105091810D01*
X158990349Y-105224845D01*
X159087552Y-105274372D01*
X159192019Y-105327600D01*
X159192021Y-105327600D01*
X159192024Y-105327602D01*
X159407268Y-105397539D01*
X159407272Y-105397539D01*
X159407279Y-105397542D01*
X159600263Y-105428108D01*
X159630830Y-105432950D01*
X159630831Y-105432950D01*
X159857170Y-105432950D01*
X159884059Y-105428690D01*
X160080721Y-105397542D01*
X160080729Y-105397539D01*
X160080731Y-105397539D01*
X160295975Y-105327602D01*
X160295975Y-105327601D01*
X160295981Y-105327600D01*
X160497650Y-105224845D01*
X160680761Y-105091807D01*
X160840807Y-104931761D01*
X160973845Y-104748650D01*
X161076600Y-104546981D01*
X161146542Y-104331721D01*
X161181950Y-104108169D01*
X161181950Y-103881831D01*
X161181950Y-103881830D01*
X163386050Y-103881830D01*
X163386050Y-104108169D01*
X163421458Y-104331720D01*
X163421460Y-104331731D01*
X163491397Y-104546975D01*
X163594154Y-104748650D01*
X163727189Y-104931756D01*
X163727193Y-104931761D01*
X163887239Y-105091807D01*
X163887242Y-105091809D01*
X163887243Y-105091810D01*
X164070349Y-105224845D01*
X164167552Y-105274372D01*
X164272019Y-105327600D01*
X164272021Y-105327600D01*
X164272024Y-105327602D01*
X164487268Y-105397539D01*
X164487272Y-105397539D01*
X164487279Y-105397542D01*
X164680263Y-105428108D01*
X164710830Y-105432950D01*
X164710831Y-105432950D01*
X164937170Y-105432950D01*
X164964059Y-105428690D01*
X165160721Y-105397542D01*
X165160729Y-105397539D01*
X165160731Y-105397539D01*
X165375975Y-105327602D01*
X165375975Y-105327601D01*
X165375981Y-105327600D01*
X165577650Y-105224845D01*
X165760761Y-105091807D01*
X165920807Y-104931761D01*
X166053845Y-104748650D01*
X166156600Y-104546981D01*
X166226542Y-104331721D01*
X166261950Y-104108169D01*
X166261950Y-103881831D01*
X166226542Y-103658279D01*
X166226539Y-103658272D01*
X166226539Y-103658268D01*
X166156602Y-103443024D01*
X166156600Y-103443021D01*
X166156600Y-103443019D01*
X166103372Y-103338552D01*
X166053845Y-103241349D01*
X165920810Y-103058243D01*
X165920809Y-103058242D01*
X165920807Y-103058239D01*
X165760761Y-102898193D01*
X165760758Y-102898190D01*
X165760756Y-102898189D01*
X165577650Y-102765154D01*
X165375975Y-102662397D01*
X165160731Y-102592460D01*
X165160722Y-102592458D01*
X165160721Y-102592458D01*
X165048945Y-102574754D01*
X164937170Y-102557050D01*
X164937169Y-102557050D01*
X164710831Y-102557050D01*
X164710830Y-102557050D01*
X164487279Y-102592458D01*
X164487268Y-102592460D01*
X164272024Y-102662397D01*
X164070349Y-102765154D01*
X163887243Y-102898189D01*
X163727189Y-103058243D01*
X163594154Y-103241349D01*
X163491397Y-103443024D01*
X163421460Y-103658268D01*
X163421458Y-103658279D01*
X163386050Y-103881830D01*
X161181950Y-103881830D01*
X161146542Y-103658279D01*
X161146539Y-103658272D01*
X161146539Y-103658268D01*
X161076602Y-103443024D01*
X161076600Y-103443021D01*
X161076600Y-103443019D01*
X161023372Y-103338552D01*
X160973845Y-103241349D01*
X160840810Y-103058243D01*
X160840809Y-103058242D01*
X160840807Y-103058239D01*
X160680761Y-102898193D01*
X160680758Y-102898190D01*
X160680756Y-102898189D01*
X160497650Y-102765154D01*
X160295975Y-102662397D01*
X160080731Y-102592460D01*
X160080722Y-102592458D01*
X160080721Y-102592458D01*
X159968945Y-102574754D01*
X159857170Y-102557050D01*
X159857169Y-102557050D01*
X159630831Y-102557050D01*
X159630830Y-102557050D01*
X159407279Y-102592458D01*
X159407268Y-102592460D01*
X159192024Y-102662397D01*
X158990349Y-102765154D01*
X158807243Y-102898189D01*
X158647189Y-103058243D01*
X158514154Y-103241349D01*
X158411397Y-103443024D01*
X158341460Y-103658268D01*
X158341458Y-103658279D01*
X158306050Y-103881830D01*
X115300500Y-103881830D01*
X115300500Y-100706831D01*
X158306050Y-100706831D01*
X158306050Y-100933169D01*
X158322581Y-101037542D01*
X158341458Y-101156720D01*
X158341460Y-101156731D01*
X158411397Y-101371975D01*
X158514154Y-101573650D01*
X158647189Y-101756756D01*
X158647193Y-101756761D01*
X158807239Y-101916807D01*
X158807242Y-101916809D01*
X158807243Y-101916810D01*
X158990349Y-102049845D01*
X159087552Y-102099372D01*
X159192019Y-102152600D01*
X159192021Y-102152600D01*
X159192024Y-102152602D01*
X159407268Y-102222539D01*
X159407272Y-102222539D01*
X159407279Y-102222542D01*
X159600263Y-102253108D01*
X159630830Y-102257950D01*
X159630831Y-102257950D01*
X159857170Y-102257950D01*
X159884059Y-102253690D01*
X160080721Y-102222542D01*
X160080729Y-102222539D01*
X160080731Y-102222539D01*
X160295975Y-102152602D01*
X160295975Y-102152601D01*
X160295981Y-102152600D01*
X160497650Y-102049845D01*
X160680761Y-101916807D01*
X160840807Y-101756761D01*
X160973845Y-101573650D01*
X161076600Y-101371981D01*
X161101476Y-101295420D01*
X161146539Y-101156731D01*
X161146539Y-101156729D01*
X161146542Y-101156721D01*
X161181950Y-100933169D01*
X161181950Y-100746545D01*
X161538200Y-100746545D01*
X161538200Y-100893454D01*
X161566858Y-101037535D01*
X161566861Y-101037546D01*
X161623078Y-101173266D01*
X161623079Y-101173268D01*
X161623080Y-101173269D01*
X161704699Y-101295420D01*
X161808580Y-101399301D01*
X161930731Y-101480920D01*
X162066458Y-101537140D01*
X162210545Y-101565800D01*
X162357455Y-101565800D01*
X162501542Y-101537140D01*
X162637269Y-101480920D01*
X162759420Y-101399301D01*
X162863301Y-101295420D01*
X162944920Y-101173269D01*
X163001140Y-101037542D01*
X163029800Y-100893455D01*
X163029800Y-100746545D01*
X163029800Y-100746544D01*
X163024194Y-100718358D01*
X163021901Y-100706831D01*
X163386050Y-100706831D01*
X163386050Y-100933169D01*
X163402581Y-101037542D01*
X163421458Y-101156720D01*
X163421460Y-101156731D01*
X163491397Y-101371975D01*
X163594154Y-101573650D01*
X163727189Y-101756756D01*
X163727193Y-101756761D01*
X163887239Y-101916807D01*
X163887242Y-101916809D01*
X163887243Y-101916810D01*
X164070349Y-102049845D01*
X164167552Y-102099372D01*
X164272019Y-102152600D01*
X164272021Y-102152600D01*
X164272024Y-102152602D01*
X164487268Y-102222539D01*
X164487272Y-102222539D01*
X164487279Y-102222542D01*
X164680263Y-102253108D01*
X164710830Y-102257950D01*
X164710831Y-102257950D01*
X164937170Y-102257950D01*
X164964059Y-102253690D01*
X165160721Y-102222542D01*
X165160729Y-102222539D01*
X165160731Y-102222539D01*
X165375975Y-102152602D01*
X165375975Y-102152601D01*
X165375981Y-102152600D01*
X165577650Y-102049845D01*
X165760761Y-101916807D01*
X165920807Y-101756761D01*
X166053845Y-101573650D01*
X166156600Y-101371981D01*
X166181476Y-101295420D01*
X166226539Y-101156731D01*
X166226539Y-101156729D01*
X166226542Y-101156721D01*
X166261950Y-100933169D01*
X166261950Y-100706831D01*
X166226542Y-100483279D01*
X166226539Y-100483272D01*
X166226539Y-100483268D01*
X166156602Y-100268024D01*
X166156600Y-100268021D01*
X166156600Y-100268019D01*
X166101092Y-100159078D01*
X166053845Y-100066349D01*
X165920810Y-99883243D01*
X165920809Y-99883242D01*
X165920807Y-99883239D01*
X165760761Y-99723193D01*
X165760758Y-99723190D01*
X165760756Y-99723189D01*
X165577650Y-99590154D01*
X165375975Y-99487397D01*
X165160731Y-99417460D01*
X165160722Y-99417458D01*
X165160721Y-99417458D01*
X165048945Y-99399754D01*
X164937170Y-99382050D01*
X164937169Y-99382050D01*
X164710831Y-99382050D01*
X164710830Y-99382050D01*
X164487279Y-99417458D01*
X164487268Y-99417460D01*
X164272024Y-99487397D01*
X164070349Y-99590154D01*
X163887243Y-99723189D01*
X163727189Y-99883243D01*
X163594154Y-100066349D01*
X163491397Y-100268024D01*
X163421460Y-100483268D01*
X163421458Y-100483279D01*
X163402581Y-100602464D01*
X163386050Y-100706831D01*
X163021901Y-100706831D01*
X163001141Y-100602464D01*
X163001140Y-100602458D01*
X163001138Y-100602453D01*
X162944921Y-100466733D01*
X162863303Y-100344583D01*
X162863301Y-100344580D01*
X162759420Y-100240699D01*
X162637269Y-100159080D01*
X162637268Y-100159079D01*
X162637266Y-100159078D01*
X162501546Y-100102861D01*
X162501535Y-100102858D01*
X162357455Y-100074200D01*
X162210545Y-100074200D01*
X162066464Y-100102858D01*
X162066453Y-100102861D01*
X161930733Y-100159078D01*
X161808583Y-100240696D01*
X161704696Y-100344583D01*
X161623078Y-100466733D01*
X161566861Y-100602453D01*
X161566858Y-100602464D01*
X161538200Y-100746545D01*
X161181950Y-100746545D01*
X161181950Y-100706831D01*
X161146542Y-100483279D01*
X161146539Y-100483272D01*
X161146539Y-100483268D01*
X161076602Y-100268024D01*
X161076600Y-100268021D01*
X161076600Y-100268019D01*
X161021092Y-100159078D01*
X160973845Y-100066349D01*
X160840810Y-99883243D01*
X160840809Y-99883242D01*
X160840807Y-99883239D01*
X160680761Y-99723193D01*
X160680758Y-99723190D01*
X160680756Y-99723189D01*
X160497650Y-99590154D01*
X160295975Y-99487397D01*
X160080731Y-99417460D01*
X160080722Y-99417458D01*
X160080721Y-99417458D01*
X159968945Y-99399754D01*
X159857170Y-99382050D01*
X159857169Y-99382050D01*
X159630831Y-99382050D01*
X159630830Y-99382050D01*
X159407279Y-99417458D01*
X159407268Y-99417460D01*
X159192024Y-99487397D01*
X158990349Y-99590154D01*
X158807243Y-99723189D01*
X158647189Y-99883243D01*
X158514154Y-100066349D01*
X158411397Y-100268024D01*
X158341460Y-100483268D01*
X158341458Y-100483279D01*
X158322581Y-100602464D01*
X158306050Y-100706831D01*
X115300500Y-100706831D01*
X115300500Y-83540688D01*
X150149500Y-83540688D01*
X150149500Y-83659311D01*
X150180199Y-83773882D01*
X150180201Y-83773887D01*
X150239508Y-83876609D01*
X150239509Y-83876610D01*
X150239511Y-83876613D01*
X150323387Y-83960489D01*
X150426114Y-84019799D01*
X150426115Y-84019799D01*
X150426117Y-84019800D01*
X150483402Y-84035149D01*
X150540688Y-84050499D01*
X150540689Y-84050500D01*
X150540691Y-84050500D01*
X150659311Y-84050500D01*
X150659311Y-84050499D01*
X150773886Y-84019799D01*
X150876613Y-83960489D01*
X150960489Y-83876613D01*
X150960489Y-83876612D01*
X150963919Y-83873183D01*
X150965842Y-83875106D01*
X151007349Y-83851134D01*
X151017019Y-83850500D01*
X152102981Y-83850500D01*
X152155307Y-83872174D01*
X152156980Y-83874082D01*
X152159510Y-83876612D01*
X152159511Y-83876613D01*
X152243387Y-83960489D01*
X152346114Y-84019799D01*
X152346115Y-84019799D01*
X152346117Y-84019800D01*
X152403402Y-84035149D01*
X152460688Y-84050499D01*
X152460689Y-84050500D01*
X152460691Y-84050500D01*
X152579311Y-84050500D01*
X152579311Y-84050499D01*
X152693886Y-84019799D01*
X152796613Y-83960489D01*
X152880489Y-83876613D01*
X152939799Y-83773886D01*
X152970499Y-83659311D01*
X152970500Y-83659311D01*
X152970500Y-83540689D01*
X152970499Y-83540688D01*
X152939800Y-83426117D01*
X152939798Y-83426112D01*
X152880491Y-83323390D01*
X152880490Y-83323389D01*
X152880489Y-83323387D01*
X152796613Y-83239511D01*
X152796610Y-83239509D01*
X152796609Y-83239508D01*
X152693887Y-83180201D01*
X152693882Y-83180199D01*
X152579311Y-83149500D01*
X152579309Y-83149500D01*
X152460691Y-83149500D01*
X152460689Y-83149500D01*
X152346117Y-83180199D01*
X152346112Y-83180201D01*
X152243390Y-83239508D01*
X152156081Y-83326817D01*
X152154157Y-83324893D01*
X152112651Y-83348866D01*
X152102981Y-83349500D01*
X151017019Y-83349500D01*
X150964693Y-83327826D01*
X150963019Y-83325917D01*
X150960489Y-83323387D01*
X150876613Y-83239511D01*
X150876610Y-83239509D01*
X150876609Y-83239508D01*
X150773887Y-83180201D01*
X150773882Y-83180199D01*
X150659311Y-83149500D01*
X150659309Y-83149500D01*
X150540691Y-83149500D01*
X150540689Y-83149500D01*
X150426117Y-83180199D01*
X150426112Y-83180201D01*
X150323390Y-83239508D01*
X150239508Y-83323390D01*
X150180201Y-83426112D01*
X150180199Y-83426117D01*
X150149500Y-83540688D01*
X115300500Y-83540688D01*
X115300500Y-59602236D01*
X115300635Y-59597768D01*
X115310902Y-59428031D01*
X115318454Y-59303176D01*
X115319528Y-59294328D01*
X115372328Y-59006211D01*
X115374458Y-58997568D01*
X115461597Y-58717931D01*
X115464754Y-58709604D01*
X115584971Y-58442493D01*
X115589115Y-58434599D01*
X115740636Y-58183952D01*
X115745712Y-58176599D01*
X115926343Y-57946039D01*
X115932254Y-57939367D01*
X116139367Y-57732254D01*
X116146039Y-57726343D01*
X116376599Y-57545711D01*
X116383953Y-57540636D01*
X116634599Y-57389115D01*
X116642493Y-57384971D01*
X116909604Y-57264754D01*
X116917931Y-57261597D01*
X117197568Y-57174458D01*
X117206211Y-57172328D01*
X117494328Y-57119528D01*
X117503176Y-57118454D01*
X117797768Y-57100634D01*
X117802236Y-57100500D01*
X117865892Y-57100500D01*
X132126000Y-57100500D01*
X132178326Y-57122174D01*
G37*
%TD.AperFunction*%
%TD*%
M02*
