%TF.GenerationSoftware,KiCad,Pcbnew,9.0.7*%
%TF.CreationDate,2026-05-24T23:03:32-04:00*%
%TF.ProjectId,POV-card-v1,504f562d-6361-4726-942d-76312e6b6963,rev?*%
%TF.SameCoordinates,Original*%
%TF.FileFunction,Soldermask,Bot*%
%TF.FilePolarity,Negative*%
%FSLAX46Y46*%
G04 Gerber Fmt 4.6, Leading zero omitted, Abs format (unit mm)*
G04 Created by KiCad (PCBNEW 9.0.7) date 2026-05-24 23:03:32*
%MOMM*%
%LPD*%
G01*
G04 APERTURE LIST*
%ADD10C,1.000000*%
%ADD11C,0.000000*%
%ADD12C,0.300000*%
%ADD13C,2.374900*%
%ADD14C,0.990600*%
%ADD15O,2.200000X1.100000*%
%ADD16O,2.500000X1.100000*%
%ADD17C,0.650000*%
G04 APERTURE END LIST*
D10*
X138321267Y-121121267D02*
G75*
G02*
X135478733Y-121121267I-1421267J0D01*
G01*
X135478733Y-121121267D02*
G75*
G02*
X138321267Y-121121267I1421267J0D01*
G01*
X147921267Y-66978733D02*
G75*
G02*
X145078733Y-66978733I-1421267J0D01*
G01*
X145078733Y-66978733D02*
G75*
G02*
X147921267Y-66978733I1421267J0D01*
G01*
X162142534Y-62300000D02*
G75*
G02*
X159300000Y-62300000I-1421267J0D01*
G01*
X159300000Y-62300000D02*
G75*
G02*
X162142534Y-62300000I1421267J0D01*
G01*
X164321267Y-86978733D02*
G75*
G02*
X161478733Y-86978733I-1421267J0D01*
G01*
X161478733Y-86978733D02*
G75*
G02*
X164321267Y-86978733I1421267J0D01*
G01*
X122721267Y-74278733D02*
G75*
G02*
X119878733Y-74278733I-1421267J0D01*
G01*
X119878733Y-74278733D02*
G75*
G02*
X122721267Y-74278733I1421267J0D01*
G01*
G36*
X166200000Y-93200000D02*
G01*
X167700000Y-93200000D01*
X167700000Y-94200000D01*
X166200000Y-94200000D01*
X166200000Y-93200000D01*
G37*
D11*
G36*
X68709725Y-107534623D02*
G01*
X68935554Y-107537844D01*
X69152036Y-107543701D01*
X69334595Y-107551370D01*
X69405473Y-107555625D01*
X69458654Y-107560023D01*
X69573457Y-107573805D01*
X69685063Y-107591316D01*
X69793433Y-107612539D01*
X69898528Y-107637456D01*
X70000310Y-107666048D01*
X70098739Y-107698298D01*
X70193777Y-107734189D01*
X70285385Y-107773701D01*
X70373524Y-107816817D01*
X70458155Y-107863519D01*
X70539239Y-107913790D01*
X70616739Y-107967611D01*
X70690613Y-108024965D01*
X70760825Y-108085833D01*
X70827335Y-108150198D01*
X70890104Y-108218042D01*
X70921702Y-108255202D01*
X70951890Y-108292894D01*
X70980722Y-108331219D01*
X71008248Y-108370280D01*
X71034522Y-108410179D01*
X71059597Y-108451019D01*
X71083525Y-108492903D01*
X71106357Y-108535932D01*
X71128148Y-108580209D01*
X71148950Y-108625838D01*
X71168814Y-108672919D01*
X71187793Y-108721557D01*
X71205941Y-108771852D01*
X71223309Y-108823909D01*
X71239950Y-108877828D01*
X71255916Y-108933713D01*
X71320527Y-109168716D01*
X71320527Y-112374699D01*
X71319345Y-114168558D01*
X71312957Y-115152783D01*
X71297098Y-115601961D01*
X71284285Y-115711716D01*
X71267505Y-115790680D01*
X71245220Y-115871655D01*
X71219672Y-115951169D01*
X71190960Y-116029078D01*
X71159178Y-116105238D01*
X71124423Y-116179504D01*
X71086791Y-116251733D01*
X71046379Y-116321779D01*
X71003282Y-116389499D01*
X70957597Y-116454749D01*
X70909421Y-116517384D01*
X70858849Y-116577259D01*
X70805977Y-116634231D01*
X70750903Y-116688156D01*
X70693722Y-116738889D01*
X70634530Y-116786285D01*
X70573423Y-116830202D01*
X70495258Y-116880964D01*
X70416028Y-116927611D01*
X70335041Y-116970301D01*
X70251607Y-117009194D01*
X70165037Y-117044449D01*
X70074640Y-117076224D01*
X69979725Y-117104680D01*
X69879603Y-117129975D01*
X69773584Y-117152269D01*
X69660977Y-117171720D01*
X69541091Y-117188489D01*
X69413238Y-117202734D01*
X69276725Y-117214614D01*
X69130864Y-117224289D01*
X68974964Y-117231918D01*
X68808335Y-117237660D01*
X68170770Y-117255626D01*
X68170770Y-116415176D01*
X68170770Y-115574728D01*
X68530206Y-115560176D01*
X68603410Y-115556715D01*
X68670274Y-115552436D01*
X68731227Y-115547179D01*
X68786698Y-115540784D01*
X68837116Y-115533089D01*
X68882909Y-115523934D01*
X68924507Y-115513160D01*
X68962340Y-115500605D01*
X68996835Y-115486109D01*
X69028421Y-115469512D01*
X69057529Y-115450653D01*
X69084587Y-115429371D01*
X69110023Y-115405507D01*
X69134267Y-115378899D01*
X69157748Y-115349388D01*
X69180895Y-115316812D01*
X69248681Y-115216695D01*
X69248681Y-112386658D01*
X69248681Y-109556622D01*
X69171661Y-109440231D01*
X69160290Y-109423466D01*
X69148851Y-109407476D01*
X69137294Y-109392242D01*
X69125566Y-109377745D01*
X69113617Y-109363964D01*
X69101394Y-109350880D01*
X69088846Y-109338473D01*
X69075920Y-109326723D01*
X69062566Y-109315610D01*
X69048732Y-109305116D01*
X69034366Y-109295219D01*
X69019416Y-109285901D01*
X69003831Y-109277142D01*
X68987558Y-109268921D01*
X68970547Y-109261220D01*
X68952745Y-109254018D01*
X68934102Y-109247295D01*
X68914564Y-109241033D01*
X68894081Y-109235210D01*
X68872601Y-109229809D01*
X68850072Y-109224808D01*
X68826442Y-109220187D01*
X68801660Y-109215928D01*
X68775674Y-109212011D01*
X68719884Y-109205122D01*
X68658659Y-109199362D01*
X68591584Y-109194573D01*
X68518246Y-109190598D01*
X68170770Y-109174194D01*
X68170770Y-108352450D01*
X68170770Y-107530707D01*
X68709725Y-107534623D01*
G37*
G36*
X115300000Y-113800000D02*
G01*
X116800000Y-113800000D01*
X116800000Y-114800000D01*
X115300000Y-114800000D01*
X115300000Y-113800000D01*
G37*
G36*
X166200000Y-91800000D02*
G01*
X167700000Y-91800000D01*
X167700000Y-92800000D01*
X166200000Y-92800000D01*
X166200000Y-91800000D01*
G37*
G36*
X153800000Y-57100000D02*
G01*
X154800000Y-57100000D01*
X154800000Y-58600000D01*
X153800000Y-58600000D01*
X153800000Y-57100000D01*
G37*
G36*
X115300000Y-103500000D02*
G01*
X116800000Y-103500000D01*
X116800000Y-104500000D01*
X115300000Y-104500000D01*
X115300000Y-103500000D01*
G37*
G36*
X75870170Y-116406685D02*
G01*
X75870170Y-117246683D01*
X74150008Y-117246683D01*
X72429872Y-117246683D01*
X72415321Y-117127699D01*
X72398397Y-116870641D01*
X72373873Y-116397324D01*
X72351830Y-115914691D01*
X72342349Y-115629683D01*
X72342455Y-115566684D01*
X74106298Y-115566684D01*
X75870170Y-115566684D01*
X75870170Y-116406685D01*
G37*
G36*
X153957832Y-96210026D02*
G01*
X153942058Y-96865107D01*
X153892709Y-97514277D01*
X153810167Y-98156530D01*
X153694814Y-98790859D01*
X153547031Y-99416258D01*
X153367201Y-100031719D01*
X153155707Y-100636237D01*
X152912929Y-101228804D01*
X152639250Y-101808414D01*
X152335053Y-102374060D01*
X152000718Y-102924735D01*
X151636629Y-103459433D01*
X151243167Y-103977148D01*
X150820715Y-104476871D01*
X150369654Y-104957598D01*
X149965061Y-105347836D01*
X149541589Y-105719093D01*
X149100495Y-106070797D01*
X148643040Y-106402377D01*
X148170480Y-106713262D01*
X147684075Y-107002881D01*
X147185084Y-107270663D01*
X146674764Y-107516037D01*
X146154374Y-107738433D01*
X145625174Y-107937278D01*
X145088420Y-108112003D01*
X144545373Y-108262036D01*
X143997290Y-108386807D01*
X143445429Y-108485743D01*
X142891051Y-108558275D01*
X142335412Y-108603831D01*
X141933402Y-108626364D01*
X141698126Y-108638641D01*
X141602438Y-108637809D01*
X141428017Y-108631883D01*
X141199667Y-108621843D01*
X140942190Y-108608670D01*
X140395254Y-108566876D01*
X139854914Y-108501907D01*
X139321699Y-108414241D01*
X138796138Y-108304355D01*
X138278759Y-108172726D01*
X137770093Y-108019831D01*
X137270669Y-107846148D01*
X136781015Y-107652154D01*
X136301661Y-107438325D01*
X135833136Y-107205140D01*
X135375970Y-106953075D01*
X134930691Y-106682607D01*
X134497829Y-106394214D01*
X134077913Y-106088374D01*
X133671472Y-105765562D01*
X133279035Y-105426256D01*
X132901132Y-105070935D01*
X132538292Y-104700074D01*
X132191044Y-104314151D01*
X131859917Y-103913643D01*
X131545441Y-103499027D01*
X131248144Y-103070781D01*
X130968556Y-102629382D01*
X130707207Y-102175307D01*
X130464624Y-101709033D01*
X130241339Y-101231038D01*
X130037878Y-100741798D01*
X129854773Y-100241791D01*
X129692552Y-99731494D01*
X129551745Y-99211384D01*
X129432880Y-98681939D01*
X129336486Y-98143635D01*
X129306997Y-97939316D01*
X129277948Y-97708246D01*
X129250208Y-97459690D01*
X129224648Y-97202911D01*
X129202135Y-96947172D01*
X129183539Y-96701737D01*
X129169729Y-96475869D01*
X129161575Y-96278831D01*
X129163518Y-96137456D01*
X129169527Y-96023063D01*
X130227342Y-96023063D01*
X130230034Y-96571742D01*
X130259818Y-97122968D01*
X130317149Y-97675895D01*
X130402486Y-98229677D01*
X130516285Y-98783467D01*
X130659002Y-99336419D01*
X130788737Y-99760667D01*
X130933764Y-100176952D01*
X131093736Y-100584989D01*
X131268304Y-100984495D01*
X131457122Y-101375183D01*
X131659843Y-101756769D01*
X131876119Y-102128968D01*
X132105602Y-102491494D01*
X132347946Y-102844064D01*
X132602802Y-103186392D01*
X132869824Y-103518193D01*
X133148664Y-103839182D01*
X133438975Y-104149074D01*
X133740409Y-104447585D01*
X134052619Y-104734429D01*
X134375258Y-105009322D01*
X134707978Y-105271978D01*
X135050432Y-105522113D01*
X135402273Y-105759442D01*
X135763152Y-105983679D01*
X136132724Y-106194541D01*
X136510639Y-106391741D01*
X136896552Y-106574995D01*
X137290115Y-106744018D01*
X137690979Y-106898526D01*
X138098799Y-107038232D01*
X138513226Y-107162853D01*
X138933913Y-107272103D01*
X139360513Y-107365698D01*
X139792678Y-107443352D01*
X140230061Y-107504781D01*
X140672315Y-107549700D01*
X140934757Y-107569599D01*
X141177438Y-107584985D01*
X141373345Y-107594328D01*
X141445317Y-107596257D01*
X141495466Y-107596102D01*
X141774013Y-107585380D01*
X142184219Y-107568181D01*
X142464118Y-107551942D01*
X142745983Y-107527409D01*
X143029420Y-107494688D01*
X143314035Y-107453883D01*
X143599435Y-107405100D01*
X143885225Y-107348443D01*
X144171013Y-107284016D01*
X144456403Y-107211925D01*
X144741003Y-107132275D01*
X145024419Y-107045169D01*
X145306256Y-106950714D01*
X145586121Y-106849013D01*
X145863621Y-106740172D01*
X146138361Y-106624295D01*
X146409947Y-106501488D01*
X146677986Y-106371854D01*
X147107883Y-106145318D01*
X147524701Y-105902233D01*
X147928176Y-105643162D01*
X148318044Y-105368669D01*
X148694039Y-105079316D01*
X149055896Y-104775668D01*
X149403351Y-104458287D01*
X149736138Y-104127737D01*
X150053993Y-103784581D01*
X150356650Y-103429383D01*
X150643844Y-103062705D01*
X150915311Y-102685111D01*
X151170786Y-102297165D01*
X151410003Y-101899430D01*
X151632698Y-101492469D01*
X151838606Y-101076845D01*
X152027461Y-100653123D01*
X152198999Y-100221864D01*
X152352955Y-99783633D01*
X152489064Y-99338993D01*
X152607061Y-98888506D01*
X152706681Y-98432738D01*
X152787659Y-97972250D01*
X152849730Y-97507606D01*
X152892629Y-97039370D01*
X152916091Y-96568105D01*
X152919851Y-96094374D01*
X152903644Y-95618740D01*
X152867206Y-95141767D01*
X152810271Y-94664019D01*
X152732574Y-94186057D01*
X152633851Y-93708447D01*
X152430381Y-92942428D01*
X152177151Y-92199639D01*
X151875938Y-91481901D01*
X151528518Y-90791037D01*
X151136665Y-90128870D01*
X150702157Y-89497221D01*
X150226768Y-88897914D01*
X149712274Y-88332771D01*
X149160451Y-87803614D01*
X148573075Y-87312266D01*
X147951921Y-86860549D01*
X147298766Y-86450285D01*
X146615384Y-86083298D01*
X145903552Y-85761409D01*
X145165045Y-85486441D01*
X144401639Y-85260216D01*
X144018326Y-85167991D01*
X143632111Y-85089487D01*
X143243440Y-85024693D01*
X142852756Y-84973596D01*
X142460503Y-84936186D01*
X142067127Y-84912450D01*
X141673071Y-84902376D01*
X141278780Y-84905954D01*
X140884698Y-84923170D01*
X140491269Y-84954013D01*
X140098939Y-84998472D01*
X139708150Y-85056535D01*
X139319348Y-85128189D01*
X138932977Y-85213424D01*
X138549480Y-85312227D01*
X138169304Y-85424586D01*
X137628021Y-85609924D01*
X137101949Y-85819816D01*
X136591544Y-86053418D01*
X136097262Y-86309882D01*
X135619562Y-86588362D01*
X135158900Y-86888011D01*
X134715732Y-87207984D01*
X134290517Y-87547433D01*
X133883710Y-87905513D01*
X133495769Y-88281376D01*
X133127151Y-88674176D01*
X132778312Y-89083067D01*
X132449711Y-89507203D01*
X132141802Y-89945736D01*
X131855045Y-90397821D01*
X131589895Y-90862611D01*
X131346809Y-91339259D01*
X131126245Y-91826919D01*
X130928660Y-92324745D01*
X130754510Y-92831891D01*
X130604252Y-93347508D01*
X130478343Y-93870753D01*
X130377241Y-94400777D01*
X130301402Y-94936734D01*
X130251283Y-95477778D01*
X130227342Y-96023063D01*
X129169527Y-96023063D01*
X129174198Y-95934154D01*
X129192102Y-95685585D01*
X129215718Y-95408409D01*
X129274037Y-94834878D01*
X129305716Y-94571844D01*
X129337059Y-94346844D01*
X129453295Y-93705458D01*
X129604001Y-93072341D01*
X129788262Y-92448906D01*
X130005165Y-91836567D01*
X130253796Y-91236735D01*
X130533241Y-90650822D01*
X130842587Y-90080243D01*
X131180920Y-89526409D01*
X131547326Y-88990732D01*
X131940891Y-88474626D01*
X132360702Y-87979503D01*
X132805845Y-87506775D01*
X133275405Y-87057855D01*
X133768470Y-86634156D01*
X134284126Y-86237090D01*
X134821458Y-85868070D01*
X135385419Y-85523758D01*
X135963399Y-85211193D01*
X136554080Y-84930586D01*
X137156140Y-84682146D01*
X137768259Y-84466083D01*
X138389115Y-84282607D01*
X139017389Y-84131926D01*
X139651759Y-84014251D01*
X140290906Y-83929792D01*
X140933507Y-83878758D01*
X141578243Y-83861358D01*
X142223793Y-83877803D01*
X142868836Y-83928302D01*
X143512052Y-84013065D01*
X144152120Y-84132302D01*
X144787719Y-84286221D01*
X145267541Y-84426466D01*
X145738452Y-84584793D01*
X146652100Y-84953931D01*
X147525789Y-85390095D01*
X148356645Y-85889750D01*
X149141793Y-86449356D01*
X149878359Y-87065376D01*
X150563468Y-87734273D01*
X151194247Y-88452508D01*
X151767820Y-89216544D01*
X152281315Y-90022843D01*
X152731855Y-90867867D01*
X153116567Y-91748079D01*
X153432577Y-92659940D01*
X153677010Y-93599912D01*
X153846992Y-94564459D01*
X153903165Y-95054842D01*
X153939648Y-95550042D01*
X153954646Y-96094374D01*
X153957832Y-96210026D01*
G37*
G36*
X81704676Y-112954030D02*
G01*
X81674273Y-113366696D01*
X81627462Y-113775349D01*
X81485811Y-114579138D01*
X81282116Y-115362449D01*
X81018775Y-116122333D01*
X80698181Y-116855842D01*
X80322731Y-117560029D01*
X79894819Y-118231945D01*
X79416841Y-118868641D01*
X78891193Y-119467171D01*
X78320268Y-120024585D01*
X77706463Y-120537935D01*
X77052173Y-121004274D01*
X76359793Y-121420652D01*
X75631719Y-121784123D01*
X74870345Y-122091737D01*
X74477920Y-122223677D01*
X74078068Y-122340547D01*
X73548402Y-122468814D01*
X73015012Y-122568177D01*
X72478999Y-122638813D01*
X71941463Y-122680896D01*
X71403505Y-122694600D01*
X70866225Y-122680100D01*
X70330724Y-122637572D01*
X69798102Y-122567189D01*
X69269460Y-122469127D01*
X68745898Y-122343560D01*
X68228518Y-122190662D01*
X67718419Y-122010610D01*
X67216702Y-121803576D01*
X66724468Y-121569737D01*
X66242818Y-121309267D01*
X65772851Y-121022340D01*
X65325074Y-120714823D01*
X64895361Y-120383935D01*
X64484473Y-120030852D01*
X64093173Y-119656752D01*
X63722221Y-119262812D01*
X63372378Y-118850210D01*
X63044407Y-118420121D01*
X62739069Y-117973724D01*
X62457125Y-117512196D01*
X62199337Y-117036713D01*
X61966465Y-116548453D01*
X61759273Y-116048593D01*
X61578521Y-115538310D01*
X61424970Y-115018781D01*
X61299382Y-114491184D01*
X61202519Y-113956695D01*
X61176399Y-113769195D01*
X61150000Y-113550000D01*
X61101400Y-113072058D01*
X61081721Y-112841078D01*
X61066801Y-112633937D01*
X61062909Y-112559846D01*
X61944420Y-112559846D01*
X61964372Y-113014250D01*
X62006137Y-113465120D01*
X62069336Y-113911751D01*
X62153588Y-114353438D01*
X62258512Y-114789475D01*
X62383727Y-115219156D01*
X62528852Y-115641777D01*
X62693507Y-116056632D01*
X62877310Y-116463016D01*
X63079881Y-116860223D01*
X63300840Y-117247548D01*
X63539804Y-117624285D01*
X63796395Y-117989730D01*
X64070229Y-118343176D01*
X64360928Y-118683918D01*
X64668110Y-119011252D01*
X64991394Y-119324471D01*
X65330400Y-119622871D01*
X65684746Y-119905745D01*
X66054052Y-120172389D01*
X66437937Y-120422097D01*
X66836021Y-120654163D01*
X67247922Y-120867883D01*
X67673260Y-121062551D01*
X68111653Y-121237462D01*
X68562722Y-121391910D01*
X68879536Y-121485543D01*
X69199116Y-121567879D01*
X69521092Y-121638907D01*
X69845094Y-121698620D01*
X70170751Y-121747005D01*
X70497694Y-121784054D01*
X70825551Y-121809757D01*
X71153952Y-121824104D01*
X71482528Y-121827085D01*
X71810908Y-121818690D01*
X72138722Y-121798910D01*
X72465599Y-121767735D01*
X72791169Y-121725154D01*
X73115062Y-121671159D01*
X73436907Y-121605739D01*
X73756335Y-121528885D01*
X74392506Y-121340364D01*
X75007929Y-121111224D01*
X75601122Y-120842983D01*
X76170607Y-120537161D01*
X76714903Y-120195274D01*
X77232531Y-119818843D01*
X77722012Y-119409387D01*
X78181864Y-118968422D01*
X78610609Y-118497470D01*
X79006766Y-117998047D01*
X79368857Y-117471673D01*
X79695400Y-116919867D01*
X79984918Y-116344147D01*
X80235928Y-115746033D01*
X80446953Y-115127041D01*
X80616512Y-114488692D01*
X80698781Y-114090684D01*
X80763528Y-113692383D01*
X80810974Y-113294259D01*
X80841339Y-112896782D01*
X80854845Y-112500420D01*
X80851711Y-112105644D01*
X80832159Y-111712923D01*
X80796410Y-111322726D01*
X80744685Y-110935523D01*
X80677203Y-110551783D01*
X80594187Y-110171976D01*
X80495856Y-109796571D01*
X80382432Y-109426038D01*
X80254135Y-109060845D01*
X80111186Y-108701463D01*
X79953807Y-108348360D01*
X79782217Y-108002007D01*
X79596638Y-107662873D01*
X79397290Y-107331427D01*
X79184395Y-107008139D01*
X78958172Y-106693478D01*
X78718844Y-106387913D01*
X78466630Y-106091914D01*
X78201751Y-105805951D01*
X77924428Y-105530492D01*
X77634883Y-105266008D01*
X77333335Y-105012968D01*
X77020006Y-104771841D01*
X76695116Y-104543096D01*
X76358886Y-104327204D01*
X76011538Y-104124633D01*
X75653291Y-103935853D01*
X75429925Y-103827825D01*
X75203603Y-103725486D01*
X74974653Y-103628922D01*
X74743403Y-103538221D01*
X74510182Y-103453470D01*
X74275318Y-103374757D01*
X74039138Y-103302169D01*
X73801972Y-103235794D01*
X73564146Y-103175718D01*
X73325990Y-103122029D01*
X73087831Y-103074815D01*
X72849998Y-103034162D01*
X72612819Y-103000158D01*
X72376621Y-102972891D01*
X72141734Y-102952447D01*
X71908485Y-102938914D01*
X71566646Y-102924581D01*
X71334524Y-102915647D01*
X71292733Y-102915518D01*
X71232756Y-102917125D01*
X71069501Y-102924911D01*
X70867267Y-102937732D01*
X70648565Y-102954315D01*
X70280020Y-102991747D01*
X69915534Y-103042938D01*
X69555396Y-103107650D01*
X69199896Y-103185645D01*
X68849324Y-103276687D01*
X68503968Y-103380538D01*
X68164118Y-103496960D01*
X67830064Y-103625716D01*
X67502096Y-103766569D01*
X67180502Y-103919281D01*
X66865572Y-104083615D01*
X66557596Y-104259332D01*
X66256863Y-104446197D01*
X65963663Y-104643971D01*
X65678284Y-104852416D01*
X65401017Y-105071297D01*
X65132152Y-105300374D01*
X64871977Y-105539411D01*
X64620781Y-105788170D01*
X64378856Y-106046413D01*
X64146489Y-106313904D01*
X63923971Y-106590405D01*
X63711590Y-106875678D01*
X63509637Y-107169486D01*
X63318401Y-107471592D01*
X63138172Y-107781758D01*
X62969238Y-108099746D01*
X62811889Y-108425319D01*
X62666415Y-108758240D01*
X62533106Y-109098272D01*
X62412250Y-109445176D01*
X62304138Y-109798716D01*
X62185206Y-110259509D01*
X62090374Y-110721001D01*
X62019260Y-111182486D01*
X61971484Y-111643259D01*
X61946664Y-112102614D01*
X61944420Y-112559846D01*
X61062909Y-112559846D01*
X61057901Y-112464518D01*
X61056281Y-112346706D01*
X61063077Y-112182508D01*
X61074585Y-111994285D01*
X61090082Y-111789755D01*
X61108842Y-111576639D01*
X61130143Y-111362657D01*
X61153259Y-111155527D01*
X61177466Y-110962969D01*
X61202041Y-110792702D01*
X61282369Y-110344116D01*
X61381423Y-109902912D01*
X61498763Y-109469487D01*
X61633947Y-109044239D01*
X61786534Y-108627567D01*
X61956085Y-108219867D01*
X62142156Y-107821537D01*
X62344308Y-107432976D01*
X62562099Y-107054580D01*
X62795089Y-106686747D01*
X63042836Y-106329876D01*
X63304900Y-105984363D01*
X63580839Y-105650606D01*
X63870212Y-105329004D01*
X64172579Y-105019953D01*
X64487498Y-104723851D01*
X64814529Y-104441097D01*
X65153230Y-104172087D01*
X65503160Y-103917220D01*
X65863878Y-103676892D01*
X66234944Y-103451503D01*
X66615916Y-103241449D01*
X67006353Y-103047127D01*
X67405815Y-102868937D01*
X67813860Y-102707275D01*
X68230047Y-102562539D01*
X68653935Y-102435127D01*
X69085084Y-102325436D01*
X69523052Y-102233864D01*
X69967398Y-102160809D01*
X70417681Y-102106669D01*
X70873461Y-102071840D01*
X71088025Y-102060862D01*
X71278317Y-102052496D01*
X71423668Y-102047558D01*
X71503407Y-102046864D01*
X71699470Y-102057095D01*
X72034479Y-102075872D01*
X72497511Y-102113836D01*
X72959494Y-102174279D01*
X73419377Y-102256726D01*
X73876113Y-102360701D01*
X74328653Y-102485729D01*
X74775947Y-102631333D01*
X75216948Y-102797038D01*
X75650606Y-102982367D01*
X76075872Y-103186846D01*
X76491698Y-103409998D01*
X76897036Y-103651347D01*
X77290835Y-103910418D01*
X77672048Y-104186734D01*
X78039626Y-104479821D01*
X78392520Y-104789201D01*
X78729681Y-105114400D01*
X79105565Y-105515005D01*
X79457608Y-105931442D01*
X79785493Y-106362870D01*
X80088901Y-106808452D01*
X80367513Y-107267349D01*
X80621011Y-107738720D01*
X80849076Y-108221729D01*
X81051391Y-108715534D01*
X81227637Y-109219299D01*
X81377495Y-109732184D01*
X81500647Y-110253349D01*
X81596775Y-110781957D01*
X81665560Y-111317168D01*
X81706684Y-111858143D01*
X81719829Y-112404043D01*
X81717174Y-112500420D01*
X81704676Y-112954030D01*
G37*
G36*
X115300000Y-59500000D02*
G01*
X116000000Y-59500000D01*
X116000000Y-60500000D01*
X115300000Y-60500000D01*
X115300000Y-59500000D01*
G37*
G36*
X78551060Y-112381711D02*
G01*
X78543969Y-117232687D01*
X77508046Y-117232687D01*
X76472123Y-117232687D01*
X76465033Y-112381711D01*
X76457968Y-107530707D01*
X77508046Y-107530707D01*
X78558125Y-107530707D01*
X78551060Y-112381711D01*
G37*
G36*
X146938241Y-101066826D02*
G01*
X146938241Y-102058029D01*
X144873507Y-102058029D01*
X142808804Y-102058029D01*
X142792104Y-101948841D01*
X142788360Y-101916615D01*
X142784109Y-101866666D01*
X142774673Y-101723658D01*
X142764975Y-101539937D01*
X142756195Y-101335622D01*
X142736498Y-100868639D01*
X142716063Y-100453639D01*
X142695108Y-100075623D01*
X144816674Y-100075623D01*
X146938241Y-100075623D01*
X146938241Y-101066826D01*
G37*
G36*
X146938241Y-91406856D02*
G01*
X146938241Y-92414857D01*
X144821595Y-92414857D01*
X142704983Y-92414857D01*
X142704855Y-92339259D01*
X142716234Y-91997248D01*
X142742685Y-91418089D01*
X142772114Y-90850109D01*
X142792422Y-90541639D01*
X142809884Y-90398859D01*
X144874046Y-90398859D01*
X146938241Y-90398859D01*
X146938241Y-91406856D01*
G37*
G36*
X166200000Y-67800000D02*
G01*
X167700000Y-67800000D01*
X167700000Y-68800000D01*
X166200000Y-68800000D01*
X166200000Y-67800000D01*
G37*
G36*
X115300000Y-101900000D02*
G01*
X116800000Y-101900000D01*
X116800000Y-102900000D01*
X115300000Y-102900000D01*
X115300000Y-101900000D01*
G37*
G36*
X115300000Y-62500000D02*
G01*
X116000000Y-62500000D01*
X116000000Y-63500000D01*
X115300000Y-63500000D01*
X115300000Y-62500000D01*
G37*
G36*
X115300000Y-105100000D02*
G01*
X116800000Y-105100000D01*
X116800000Y-106100000D01*
X115300000Y-106100000D01*
X115300000Y-105100000D01*
G37*
G36*
X146938241Y-96245240D02*
G01*
X146938241Y-97152432D01*
X145275177Y-97152432D01*
X143612111Y-97152432D01*
X143612111Y-96245240D01*
X143612111Y-95338047D01*
X145275177Y-95338047D01*
X146938241Y-95338047D01*
X146938241Y-96245240D01*
G37*
G36*
X166200000Y-112900000D02*
G01*
X167700000Y-112900000D01*
X167700000Y-113900000D01*
X166200000Y-113900000D01*
X166200000Y-112900000D01*
G37*
G36*
X115300000Y-61000000D02*
G01*
X116100000Y-61000000D01*
X116100000Y-62000000D01*
X115300000Y-62000000D01*
X115300000Y-61000000D01*
G37*
G36*
X75870170Y-112374699D02*
G01*
X75870170Y-113130692D01*
X74484283Y-113130692D01*
X73098395Y-113130692D01*
X73098395Y-112374699D01*
X73098395Y-111618705D01*
X74484283Y-111618705D01*
X75870170Y-111618705D01*
X75870170Y-112374699D01*
G37*
G36*
X75870170Y-108356710D02*
G01*
X75870170Y-109182713D01*
X74102197Y-109182713D01*
X72334226Y-109182713D01*
X72351688Y-108867699D01*
X72368717Y-108521866D01*
X72385131Y-108132714D01*
X72392448Y-107962451D01*
X72400530Y-107809350D01*
X72408393Y-107690177D01*
X72411936Y-107648553D01*
X72415056Y-107621697D01*
X72428973Y-107530707D01*
X74149558Y-107530707D01*
X75870170Y-107530707D01*
X75870170Y-108356710D01*
G37*
G36*
X136993411Y-91397047D02*
G01*
X136993411Y-92405935D01*
X136565040Y-92421777D01*
X136451774Y-92427215D01*
X136348925Y-92435012D01*
X136255928Y-92445543D01*
X136212948Y-92451949D01*
X136172218Y-92459179D01*
X136133668Y-92467278D01*
X136097228Y-92476292D01*
X136062826Y-92486270D01*
X136030392Y-92497257D01*
X135999855Y-92509299D01*
X135971144Y-92522444D01*
X135944190Y-92536738D01*
X135918920Y-92552227D01*
X135895264Y-92568958D01*
X135873152Y-92586978D01*
X135852513Y-92606333D01*
X135833275Y-92627070D01*
X135815369Y-92649235D01*
X135798724Y-92672876D01*
X135783268Y-92698037D01*
X135768932Y-92724767D01*
X135755644Y-92753111D01*
X135743334Y-92783117D01*
X135731930Y-92814830D01*
X135721363Y-92848298D01*
X135711561Y-92883567D01*
X135702455Y-92920683D01*
X135686042Y-93000645D01*
X135670095Y-93343850D01*
X135658485Y-94087009D01*
X135648513Y-96239593D01*
X135656592Y-98391206D01*
X135667545Y-99133152D01*
X135683186Y-99474659D01*
X135699999Y-99554853D01*
X135719552Y-99627649D01*
X135742381Y-99693401D01*
X135769017Y-99752460D01*
X135783930Y-99779591D01*
X135799995Y-99805180D01*
X135817278Y-99829272D01*
X135835848Y-99851912D01*
X135855769Y-99873144D01*
X135877109Y-99893010D01*
X135899935Y-99911557D01*
X135924313Y-99928827D01*
X135950310Y-99944864D01*
X135977993Y-99959714D01*
X136007428Y-99973419D01*
X136038683Y-99986024D01*
X136106915Y-100008111D01*
X136183224Y-100026326D01*
X136268143Y-100041022D01*
X136362207Y-100052553D01*
X136465947Y-100061270D01*
X136579899Y-100067526D01*
X136993411Y-100085403D01*
X136993411Y-101076383D01*
X136993411Y-102067364D01*
X136178674Y-102049044D01*
X135868261Y-102040307D01*
X135732216Y-102034828D01*
X135607383Y-102028383D01*
X135492592Y-102020800D01*
X135386670Y-102011910D01*
X135288446Y-102001543D01*
X135196750Y-101989529D01*
X135110409Y-101975697D01*
X135028252Y-101959879D01*
X134949108Y-101941903D01*
X134871806Y-101921599D01*
X134795173Y-101898799D01*
X134718040Y-101873331D01*
X134639233Y-101845026D01*
X134557583Y-101813713D01*
X134434184Y-101761356D01*
X134316724Y-101703794D01*
X134205134Y-101640948D01*
X134099345Y-101572737D01*
X133999290Y-101499083D01*
X133904901Y-101419907D01*
X133816108Y-101335129D01*
X133732845Y-101244670D01*
X133655041Y-101148451D01*
X133582630Y-101046393D01*
X133515543Y-100938416D01*
X133453712Y-100824442D01*
X133397068Y-100704391D01*
X133345543Y-100578184D01*
X133299070Y-100445742D01*
X133257578Y-100306985D01*
X133180108Y-100025235D01*
X133180108Y-96262035D01*
X133180108Y-92498835D01*
X133260596Y-92179653D01*
X133309134Y-92008018D01*
X133365851Y-91845923D01*
X133430897Y-91693232D01*
X133504423Y-91549806D01*
X133586579Y-91415509D01*
X133677516Y-91290203D01*
X133777385Y-91173752D01*
X133886336Y-91066017D01*
X134004520Y-90966862D01*
X134132088Y-90876149D01*
X134269190Y-90793741D01*
X134415977Y-90719501D01*
X134572599Y-90653291D01*
X134739207Y-90594975D01*
X134915952Y-90544416D01*
X135102985Y-90501475D01*
X135200928Y-90483163D01*
X135304079Y-90467362D01*
X135415776Y-90453796D01*
X135539356Y-90442193D01*
X135678159Y-90432280D01*
X135835522Y-90423782D01*
X136014784Y-90416426D01*
X136219284Y-90409938D01*
X136993411Y-90388127D01*
X136993411Y-91397047D01*
G37*
G36*
X115300000Y-86500000D02*
G01*
X116200000Y-86500000D01*
X116200000Y-87500000D01*
X115300000Y-87500000D01*
X115300000Y-86500000D01*
G37*
G36*
X115300000Y-79800000D02*
G01*
X116000000Y-79800000D01*
X116000000Y-80800000D01*
X115300000Y-80800000D01*
X115300000Y-79800000D01*
G37*
G36*
X138464039Y-90409686D02*
G01*
X138663994Y-90416576D01*
X138851074Y-90425731D01*
X139026108Y-90437341D01*
X139189922Y-90451598D01*
X139343347Y-90468691D01*
X139487209Y-90488814D01*
X139622338Y-90512156D01*
X139749561Y-90538908D01*
X139869707Y-90569262D01*
X139983605Y-90603409D01*
X140092081Y-90641540D01*
X140195966Y-90683845D01*
X140296086Y-90730516D01*
X140393270Y-90781745D01*
X140488347Y-90837721D01*
X140582145Y-90898636D01*
X140655473Y-90951335D01*
X140726503Y-91008211D01*
X140795121Y-91069091D01*
X140861210Y-91133800D01*
X140924656Y-91202167D01*
X140985342Y-91274018D01*
X141043154Y-91349179D01*
X141097976Y-91427479D01*
X141149692Y-91508743D01*
X141198186Y-91592798D01*
X141243344Y-91679473D01*
X141285050Y-91768592D01*
X141323189Y-91859984D01*
X141357644Y-91953475D01*
X141388301Y-92048892D01*
X141415043Y-92146062D01*
X141435179Y-92240819D01*
X141450555Y-92372525D01*
X141469585Y-92911538D01*
X141477251Y-94092608D01*
X141478670Y-96245240D01*
X141478670Y-100092418D01*
X141401136Y-100374423D01*
X141381977Y-100441485D01*
X141362008Y-100506188D01*
X141341166Y-100568655D01*
X141319389Y-100629010D01*
X141296614Y-100687375D01*
X141272777Y-100743873D01*
X141247815Y-100798627D01*
X141221666Y-100851760D01*
X141194267Y-100903395D01*
X141165554Y-100953655D01*
X141135464Y-101002663D01*
X141103935Y-101050543D01*
X141070903Y-101097416D01*
X141036306Y-101143406D01*
X141000080Y-101188635D01*
X140962162Y-101233228D01*
X140886839Y-101314640D01*
X140807027Y-101391878D01*
X140722773Y-101464920D01*
X140634123Y-101533745D01*
X140541124Y-101598330D01*
X140443823Y-101658655D01*
X140342266Y-101714698D01*
X140236499Y-101766437D01*
X140126569Y-101813852D01*
X140012524Y-101856920D01*
X139894409Y-101895620D01*
X139772271Y-101929931D01*
X139646157Y-101959831D01*
X139516113Y-101985298D01*
X139382186Y-102006312D01*
X139244422Y-102022850D01*
X139180605Y-102028128D01*
X139095551Y-102033234D01*
X138876480Y-102042436D01*
X138616702Y-102049466D01*
X138345708Y-102053330D01*
X137698961Y-102058029D01*
X137698961Y-101071938D01*
X137698961Y-100085846D01*
X138115932Y-100066161D01*
X138203938Y-100061391D01*
X138284428Y-100055644D01*
X138357899Y-100048732D01*
X138424846Y-100040465D01*
X138456029Y-100035764D01*
X138485768Y-100030653D01*
X138514123Y-100025109D01*
X138541158Y-100019108D01*
X138566934Y-100012625D01*
X138591514Y-100005639D01*
X138614959Y-99998124D01*
X138637332Y-99990057D01*
X138658693Y-99981414D01*
X138679107Y-99972172D01*
X138698634Y-99962308D01*
X138717336Y-99951796D01*
X138735276Y-99940615D01*
X138752516Y-99928739D01*
X138769117Y-99916146D01*
X138785142Y-99902811D01*
X138800652Y-99888711D01*
X138815710Y-99873822D01*
X138830377Y-99858121D01*
X138844717Y-99841584D01*
X138858790Y-99824187D01*
X138872658Y-99805907D01*
X138886385Y-99786719D01*
X138900031Y-99766600D01*
X138992454Y-99626932D01*
X138992454Y-96230889D01*
X138992454Y-92834844D01*
X138911112Y-92714703D01*
X138883335Y-92675613D01*
X138855158Y-92640199D01*
X138826065Y-92608270D01*
X138795541Y-92579633D01*
X138763072Y-92554095D01*
X138728143Y-92531464D01*
X138690239Y-92511547D01*
X138648845Y-92494152D01*
X138603446Y-92479086D01*
X138553528Y-92466157D01*
X138498576Y-92455171D01*
X138438075Y-92445938D01*
X138371510Y-92438263D01*
X138298366Y-92431954D01*
X138218129Y-92426820D01*
X138130284Y-92422667D01*
X137698961Y-92405204D01*
X137698961Y-91396666D01*
X137698961Y-90388127D01*
X138464039Y-90409686D01*
G37*
G36*
X150155310Y-96236825D02*
G01*
X150163787Y-102058029D01*
X148903693Y-102058029D01*
X147643599Y-102058029D01*
X147652076Y-96236825D01*
X147660585Y-90415653D01*
X148903693Y-90415653D01*
X150146801Y-90415653D01*
X150155310Y-96236825D01*
G37*
G36*
X115300000Y-115500000D02*
G01*
X116800000Y-115500000D01*
X116800000Y-116500000D01*
X115300000Y-116500000D01*
X115300000Y-115500000D01*
G37*
G36*
X67582812Y-108348746D02*
G01*
X67582812Y-109174563D01*
X67238218Y-109189460D01*
X67143258Y-109194673D01*
X67056808Y-109201938D01*
X66978422Y-109211546D01*
X66907656Y-109223793D01*
X66844065Y-109238973D01*
X66787204Y-109257378D01*
X66761159Y-109267883D01*
X66736630Y-109279304D01*
X66713561Y-109291678D01*
X66691897Y-109305043D01*
X66671582Y-109319434D01*
X66652560Y-109334890D01*
X66634777Y-109351445D01*
X66618175Y-109369138D01*
X66602701Y-109388005D01*
X66588298Y-109408082D01*
X66574910Y-109429406D01*
X66562483Y-109452015D01*
X66540286Y-109501231D01*
X66521263Y-109556024D01*
X66504968Y-109616687D01*
X66490957Y-109683516D01*
X66477923Y-109968105D01*
X66468796Y-110586393D01*
X66462064Y-112379405D01*
X66470373Y-114173224D01*
X66480048Y-114792523D01*
X66493337Y-115078528D01*
X66507014Y-115145162D01*
X66514604Y-115176092D01*
X66522772Y-115205483D01*
X66531578Y-115233373D01*
X66541080Y-115259801D01*
X66551339Y-115284806D01*
X66562412Y-115308426D01*
X66574359Y-115330701D01*
X66587239Y-115351669D01*
X66601110Y-115371369D01*
X66616032Y-115389840D01*
X66632063Y-115407121D01*
X66649262Y-115423250D01*
X66667689Y-115438267D01*
X66687402Y-115452209D01*
X66708460Y-115465117D01*
X66730923Y-115477028D01*
X66754848Y-115487982D01*
X66780295Y-115498018D01*
X66807324Y-115507173D01*
X66835992Y-115515488D01*
X66866359Y-115523000D01*
X66898484Y-115529749D01*
X66932426Y-115535774D01*
X66968243Y-115541113D01*
X67045740Y-115549888D01*
X67131447Y-115556386D01*
X67225836Y-115560918D01*
X67582812Y-115574120D01*
X67582812Y-116414859D01*
X67582812Y-117255626D01*
X66937705Y-117237450D01*
X66767289Y-117232044D01*
X66617904Y-117225914D01*
X66486768Y-117218832D01*
X66371099Y-117210570D01*
X66268115Y-117200901D01*
X66175035Y-117189597D01*
X66089076Y-117176429D01*
X66007456Y-117161169D01*
X65851596Y-117125385D01*
X65704308Y-117083252D01*
X65565468Y-117034655D01*
X65434950Y-116979481D01*
X65312627Y-116917614D01*
X65198376Y-116848941D01*
X65092069Y-116773347D01*
X64993583Y-116690718D01*
X64902790Y-116600939D01*
X64819566Y-116503896D01*
X64743785Y-116399474D01*
X64675322Y-116287560D01*
X64614050Y-116168038D01*
X64559845Y-116040795D01*
X64512581Y-115905717D01*
X64472132Y-115762688D01*
X64405059Y-115496703D01*
X64405059Y-112360702D01*
X64405059Y-109224702D01*
X64469618Y-108989911D01*
X64504194Y-108874280D01*
X64542922Y-108763912D01*
X64585859Y-108658739D01*
X64633062Y-108558697D01*
X64684589Y-108463718D01*
X64740494Y-108373738D01*
X64800837Y-108288689D01*
X64865673Y-108208507D01*
X64935059Y-108133125D01*
X65009053Y-108062476D01*
X65087711Y-107996496D01*
X65171090Y-107935118D01*
X65259247Y-107878275D01*
X65352239Y-107825903D01*
X65450123Y-107777935D01*
X65552955Y-107734304D01*
X65620997Y-107708210D01*
X65686669Y-107684623D01*
X65750947Y-107663399D01*
X65814807Y-107644399D01*
X65879226Y-107627479D01*
X65945179Y-107612500D01*
X66013643Y-107599317D01*
X66085594Y-107587791D01*
X66162007Y-107577779D01*
X66243860Y-107569140D01*
X66332129Y-107561732D01*
X66427788Y-107555413D01*
X66531816Y-107550041D01*
X66645187Y-107545476D01*
X66903864Y-107538195D01*
X67582812Y-107522929D01*
X67582812Y-108348746D01*
G37*
D12*
X147745489Y-129550828D02*
X147745489Y-128050828D01*
X147745489Y-128050828D02*
X147388346Y-128050828D01*
X147388346Y-128050828D02*
X147174060Y-128122257D01*
X147174060Y-128122257D02*
X147031203Y-128265114D01*
X147031203Y-128265114D02*
X146959774Y-128407971D01*
X146959774Y-128407971D02*
X146888346Y-128693685D01*
X146888346Y-128693685D02*
X146888346Y-128907971D01*
X146888346Y-128907971D02*
X146959774Y-129193685D01*
X146959774Y-129193685D02*
X147031203Y-129336542D01*
X147031203Y-129336542D02*
X147174060Y-129479400D01*
X147174060Y-129479400D02*
X147388346Y-129550828D01*
X147388346Y-129550828D02*
X147745489Y-129550828D01*
X145674060Y-129479400D02*
X145816917Y-129550828D01*
X145816917Y-129550828D02*
X146102632Y-129550828D01*
X146102632Y-129550828D02*
X146245489Y-129479400D01*
X146245489Y-129479400D02*
X146316917Y-129336542D01*
X146316917Y-129336542D02*
X146316917Y-128765114D01*
X146316917Y-128765114D02*
X146245489Y-128622257D01*
X146245489Y-128622257D02*
X146102632Y-128550828D01*
X146102632Y-128550828D02*
X145816917Y-128550828D01*
X145816917Y-128550828D02*
X145674060Y-128622257D01*
X145674060Y-128622257D02*
X145602632Y-128765114D01*
X145602632Y-128765114D02*
X145602632Y-128907971D01*
X145602632Y-128907971D02*
X146316917Y-129050828D01*
X145102632Y-128550828D02*
X144745489Y-129550828D01*
X144745489Y-129550828D02*
X144388346Y-128550828D01*
X143245489Y-129479400D02*
X143388346Y-129550828D01*
X143388346Y-129550828D02*
X143674061Y-129550828D01*
X143674061Y-129550828D02*
X143816918Y-129479400D01*
X143816918Y-129479400D02*
X143888346Y-129336542D01*
X143888346Y-129336542D02*
X143888346Y-128765114D01*
X143888346Y-128765114D02*
X143816918Y-128622257D01*
X143816918Y-128622257D02*
X143674061Y-128550828D01*
X143674061Y-128550828D02*
X143388346Y-128550828D01*
X143388346Y-128550828D02*
X143245489Y-128622257D01*
X143245489Y-128622257D02*
X143174061Y-128765114D01*
X143174061Y-128765114D02*
X143174061Y-128907971D01*
X143174061Y-128907971D02*
X143888346Y-129050828D01*
X142316918Y-129550828D02*
X142459775Y-129479400D01*
X142459775Y-129479400D02*
X142531204Y-129336542D01*
X142531204Y-129336542D02*
X142531204Y-128050828D01*
X141531204Y-129550828D02*
X141674061Y-129479400D01*
X141674061Y-129479400D02*
X141745490Y-129407971D01*
X141745490Y-129407971D02*
X141816918Y-129265114D01*
X141816918Y-129265114D02*
X141816918Y-128836542D01*
X141816918Y-128836542D02*
X141745490Y-128693685D01*
X141745490Y-128693685D02*
X141674061Y-128622257D01*
X141674061Y-128622257D02*
X141531204Y-128550828D01*
X141531204Y-128550828D02*
X141316918Y-128550828D01*
X141316918Y-128550828D02*
X141174061Y-128622257D01*
X141174061Y-128622257D02*
X141102633Y-128693685D01*
X141102633Y-128693685D02*
X141031204Y-128836542D01*
X141031204Y-128836542D02*
X141031204Y-129265114D01*
X141031204Y-129265114D02*
X141102633Y-129407971D01*
X141102633Y-129407971D02*
X141174061Y-129479400D01*
X141174061Y-129479400D02*
X141316918Y-129550828D01*
X141316918Y-129550828D02*
X141531204Y-129550828D01*
X140388347Y-128550828D02*
X140388347Y-130050828D01*
X140388347Y-128622257D02*
X140245490Y-128550828D01*
X140245490Y-128550828D02*
X139959775Y-128550828D01*
X139959775Y-128550828D02*
X139816918Y-128622257D01*
X139816918Y-128622257D02*
X139745490Y-128693685D01*
X139745490Y-128693685D02*
X139674061Y-128836542D01*
X139674061Y-128836542D02*
X139674061Y-129265114D01*
X139674061Y-129265114D02*
X139745490Y-129407971D01*
X139745490Y-129407971D02*
X139816918Y-129479400D01*
X139816918Y-129479400D02*
X139959775Y-129550828D01*
X139959775Y-129550828D02*
X140245490Y-129550828D01*
X140245490Y-129550828D02*
X140388347Y-129479400D01*
X139031204Y-129550828D02*
X139031204Y-128550828D01*
X139031204Y-128693685D02*
X138959775Y-128622257D01*
X138959775Y-128622257D02*
X138816918Y-128550828D01*
X138816918Y-128550828D02*
X138602632Y-128550828D01*
X138602632Y-128550828D02*
X138459775Y-128622257D01*
X138459775Y-128622257D02*
X138388347Y-128765114D01*
X138388347Y-128765114D02*
X138388347Y-129550828D01*
X138388347Y-128765114D02*
X138316918Y-128622257D01*
X138316918Y-128622257D02*
X138174061Y-128550828D01*
X138174061Y-128550828D02*
X137959775Y-128550828D01*
X137959775Y-128550828D02*
X137816918Y-128622257D01*
X137816918Y-128622257D02*
X137745489Y-128765114D01*
X137745489Y-128765114D02*
X137745489Y-129550828D01*
X136459775Y-129479400D02*
X136602632Y-129550828D01*
X136602632Y-129550828D02*
X136888347Y-129550828D01*
X136888347Y-129550828D02*
X137031204Y-129479400D01*
X137031204Y-129479400D02*
X137102632Y-129336542D01*
X137102632Y-129336542D02*
X137102632Y-128765114D01*
X137102632Y-128765114D02*
X137031204Y-128622257D01*
X137031204Y-128622257D02*
X136888347Y-128550828D01*
X136888347Y-128550828D02*
X136602632Y-128550828D01*
X136602632Y-128550828D02*
X136459775Y-128622257D01*
X136459775Y-128622257D02*
X136388347Y-128765114D01*
X136388347Y-128765114D02*
X136388347Y-128907971D01*
X136388347Y-128907971D02*
X137102632Y-129050828D01*
X135745490Y-128550828D02*
X135745490Y-129550828D01*
X135745490Y-128693685D02*
X135674061Y-128622257D01*
X135674061Y-128622257D02*
X135531204Y-128550828D01*
X135531204Y-128550828D02*
X135316918Y-128550828D01*
X135316918Y-128550828D02*
X135174061Y-128622257D01*
X135174061Y-128622257D02*
X135102633Y-128765114D01*
X135102633Y-128765114D02*
X135102633Y-129550828D01*
X134602632Y-128550828D02*
X134031204Y-128550828D01*
X134388347Y-128050828D02*
X134388347Y-129336542D01*
X134388347Y-129336542D02*
X134316918Y-129479400D01*
X134316918Y-129479400D02*
X134174061Y-129550828D01*
X134174061Y-129550828D02*
X134031204Y-129550828D01*
X132388347Y-128765114D02*
X131888347Y-128765114D01*
X131674061Y-129550828D02*
X132388347Y-129550828D01*
X132388347Y-129550828D02*
X132388347Y-128050828D01*
X132388347Y-128050828D02*
X131674061Y-128050828D01*
X130388347Y-129550828D02*
X130388347Y-128050828D01*
X130388347Y-129479400D02*
X130531204Y-129550828D01*
X130531204Y-129550828D02*
X130816918Y-129550828D01*
X130816918Y-129550828D02*
X130959775Y-129479400D01*
X130959775Y-129479400D02*
X131031204Y-129407971D01*
X131031204Y-129407971D02*
X131102632Y-129265114D01*
X131102632Y-129265114D02*
X131102632Y-128836542D01*
X131102632Y-128836542D02*
X131031204Y-128693685D01*
X131031204Y-128693685D02*
X130959775Y-128622257D01*
X130959775Y-128622257D02*
X130816918Y-128550828D01*
X130816918Y-128550828D02*
X130531204Y-128550828D01*
X130531204Y-128550828D02*
X130388347Y-128622257D01*
X129674061Y-129550828D02*
X129674061Y-128550828D01*
X129674061Y-128050828D02*
X129745489Y-128122257D01*
X129745489Y-128122257D02*
X129674061Y-128193685D01*
X129674061Y-128193685D02*
X129602632Y-128122257D01*
X129602632Y-128122257D02*
X129674061Y-128050828D01*
X129674061Y-128050828D02*
X129674061Y-128193685D01*
X129174060Y-128550828D02*
X128602632Y-128550828D01*
X128959775Y-128050828D02*
X128959775Y-129336542D01*
X128959775Y-129336542D02*
X128888346Y-129479400D01*
X128888346Y-129479400D02*
X128745489Y-129550828D01*
X128745489Y-129550828D02*
X128602632Y-129550828D01*
X128102632Y-129550828D02*
X128102632Y-128550828D01*
X128102632Y-128050828D02*
X128174060Y-128122257D01*
X128174060Y-128122257D02*
X128102632Y-128193685D01*
X128102632Y-128193685D02*
X128031203Y-128122257D01*
X128031203Y-128122257D02*
X128102632Y-128050828D01*
X128102632Y-128050828D02*
X128102632Y-128193685D01*
X127174060Y-129550828D02*
X127316917Y-129479400D01*
X127316917Y-129479400D02*
X127388346Y-129407971D01*
X127388346Y-129407971D02*
X127459774Y-129265114D01*
X127459774Y-129265114D02*
X127459774Y-128836542D01*
X127459774Y-128836542D02*
X127388346Y-128693685D01*
X127388346Y-128693685D02*
X127316917Y-128622257D01*
X127316917Y-128622257D02*
X127174060Y-128550828D01*
X127174060Y-128550828D02*
X126959774Y-128550828D01*
X126959774Y-128550828D02*
X126816917Y-128622257D01*
X126816917Y-128622257D02*
X126745489Y-128693685D01*
X126745489Y-128693685D02*
X126674060Y-128836542D01*
X126674060Y-128836542D02*
X126674060Y-129265114D01*
X126674060Y-129265114D02*
X126745489Y-129407971D01*
X126745489Y-129407971D02*
X126816917Y-129479400D01*
X126816917Y-129479400D02*
X126959774Y-129550828D01*
X126959774Y-129550828D02*
X127174060Y-129550828D01*
X126031203Y-128550828D02*
X126031203Y-129550828D01*
X126031203Y-128693685D02*
X125959774Y-128622257D01*
X125959774Y-128622257D02*
X125816917Y-128550828D01*
X125816917Y-128550828D02*
X125602631Y-128550828D01*
X125602631Y-128550828D02*
X125459774Y-128622257D01*
X125459774Y-128622257D02*
X125388346Y-128765114D01*
X125388346Y-128765114D02*
X125388346Y-129550828D01*
D13*
%TO.C,J1*%
X164824000Y-100820000D03*
D14*
X162284000Y-100820000D03*
D13*
X159744000Y-100820000D03*
X164824000Y-103995000D03*
X159744000Y-103995000D03*
D14*
X163300000Y-105900000D03*
X161268000Y-105900000D03*
%TD*%
D15*
%TO.C,J2*%
X165275000Y-116820000D03*
D16*
X161075000Y-116820000D03*
D17*
X161595000Y-115390000D03*
X161595000Y-109610000D03*
D16*
X161075000Y-108180000D03*
D15*
X165275000Y-108180000D03*
%TD*%
D10*
X120300000Y-87000000D02*
X115801000Y-87000000D01*
X121300000Y-80300000D02*
X115801000Y-80300000D01*
X124100000Y-87100000D02*
X124100000Y-83100000D01*
X153450000Y-113400000D02*
X167200000Y-113400000D01*
X128600000Y-91600000D02*
X127400000Y-90400000D01*
X154300000Y-62400000D02*
X154300000Y-57600000D01*
X132900000Y-67400000D02*
X127200000Y-61700000D01*
X131100000Y-102400000D02*
X122900000Y-102400000D01*
X130600000Y-91600000D02*
X128600000Y-91600000D01*
X148700000Y-84100000D02*
X148700000Y-69300000D01*
X124100000Y-83100000D02*
X121300000Y-80300000D01*
X151000000Y-89000000D02*
X154300000Y-85700000D01*
X141800000Y-108200000D02*
X141800000Y-113200000D01*
X132900000Y-68100000D02*
X132900000Y-67400000D01*
X130300000Y-100800000D02*
X122100000Y-100800000D01*
X119700000Y-105600000D02*
X115801000Y-105600000D01*
X131400000Y-82750000D02*
X131400000Y-67900000D01*
X141800000Y-113200000D02*
X136900000Y-118100000D01*
X157200000Y-96100000D02*
X161000000Y-92300000D01*
X134900000Y-86250000D02*
X131400000Y-82750000D01*
X162900000Y-92300000D02*
X167199000Y-92300000D01*
X153500000Y-96100000D02*
X157200000Y-96100000D01*
X136200000Y-85500000D02*
X132900000Y-82200000D01*
X148700000Y-69300000D02*
X147600000Y-68200000D01*
X129700000Y-94000000D02*
X127300000Y-94000000D01*
X161000000Y-92300000D02*
X162900000Y-92300000D01*
X131400000Y-67900000D02*
X126500000Y-63000000D01*
X137700000Y-84900000D02*
X134400000Y-81600000D01*
X153500000Y-97500000D02*
X157800000Y-97500000D01*
X127200000Y-61700000D02*
X127000000Y-61500000D01*
X126500000Y-63000000D02*
X115801000Y-63000000D01*
X127400000Y-90400000D02*
X124100000Y-87100000D01*
X154400000Y-62300000D02*
X159300000Y-62300000D01*
X149800000Y-104700000D02*
X151600000Y-106500000D01*
X129800000Y-99200000D02*
X121200000Y-99200000D01*
X154300000Y-85700000D02*
X154300000Y-62400000D01*
X126300000Y-114300000D02*
X115801000Y-114300000D01*
X136100000Y-107000000D02*
X127100000Y-116000000D01*
X161600000Y-93700000D02*
X167199000Y-93700000D01*
X151600000Y-111550000D02*
X153450000Y-113400000D01*
X147100000Y-85700000D02*
X148700000Y-84100000D01*
X134400000Y-66800000D02*
X127600000Y-60000000D01*
X162900000Y-92300000D02*
X162900000Y-88400000D01*
X152500000Y-91600000D02*
X157600000Y-86500000D01*
X127000000Y-61500000D02*
X115801000Y-61500000D01*
X160500000Y-68300000D02*
X167199000Y-68300000D01*
X134400000Y-81600000D02*
X134400000Y-66800000D01*
X121300000Y-80300000D02*
X121300000Y-75700000D01*
X122100000Y-100800000D02*
X118900000Y-104000000D01*
X127600000Y-60000000D02*
X115801000Y-60000000D01*
X132900000Y-82200000D02*
X132900000Y-68100000D01*
X121200000Y-99200000D02*
X118000000Y-102400000D01*
X136900000Y-118100000D02*
X136900000Y-119536466D01*
X127300000Y-94000000D02*
X120300000Y-87000000D01*
X127100000Y-116000000D02*
X115801000Y-116000000D01*
X157600000Y-71200000D02*
X160500000Y-68300000D01*
X122900000Y-102400000D02*
X119700000Y-105600000D01*
X118900000Y-104000000D02*
X115801000Y-104000000D01*
X157600000Y-86500000D02*
X157600000Y-71200000D01*
X151600000Y-106500000D02*
X151600000Y-111550000D01*
X134600000Y-106000000D02*
X126300000Y-114300000D01*
X118000000Y-102400000D02*
X115800000Y-102400000D01*
X157800000Y-97500000D02*
X161600000Y-93700000D01*
M02*
