M48
; DRILL file {KiCad 9.0.7} date 2026-05-24T23:03:35-0400
; FORMAT={-:-/ absolute / inch / decimal}
; #@! TF.CreationDate,2026-05-24T23:03:35-04:00
; #@! TF.GenerationSoftware,Kicad,Pcbnew,9.0.7
; #@! TF.FileFunction,Plated,1,2,PTH
FMAT,2
INCH
; #@! TA.AperFunction,Plated,PTH,ViaDrill
T1C0.0118
; #@! TA.AperFunction,Plated,PTH,ComponentDrill
T2C0.0236
%
G90
G05
T1
X5.0984Y-5.4724
X5.2066Y-5.4535
X5.2598Y-5.4469
X5.2874Y-4.4508
X5.3819Y-5.1378
X5.439Y-4.4508
X5.4587Y-5.2697
X5.5Y-5.2953
X5.6791Y-5.2618
X5.6811Y-5.2953
X5.7402Y-3.248
X5.7402Y-3.2913
X5.7402Y-4.7205
X5.7402Y-4.7638
X5.7611Y-4.3216
X5.7638Y-5.002
X5.7874Y-3.248
X5.7874Y-3.2913
X5.7874Y-4.7205
X5.7874Y-4.7638
X5.8025Y-4.5873
X5.8044Y-4.5525
X5.8098Y-4.2729
X5.8328Y-4.8114
X5.8425Y-4.6535
X5.8524Y-5.2362
X5.8543Y-4.4724
X5.8628Y-4.5559
X5.8757Y-4.5126
X5.8799Y-4.2736
X5.8799Y-4.3602
X5.8906Y-4.794
X5.9016Y-4.2945
X5.9016Y-4.3386
X5.9134Y-3.3583
X5.9213Y-4.7067
X5.9252Y-3.252
X5.9291Y-3.2913
X5.9291Y-5.2992
X5.9449Y-4.4705
X5.9469Y-4.6713
X5.9597Y-4.5502
X5.9606Y-5.378
X5.9606Y-5.4094
X5.9705Y-4.689
X5.9894Y-4.6673
X5.9902Y-4.4795
X6.0047Y-3.2913
X6.0079Y-5.3622
X6.016Y-4.5562
X6.0276Y-4.3976
X6.0551Y-4.6142
X6.0709Y-4.563
X6.0962Y-4.5503
X6.0991Y-4.1661
X6.1791Y-4.2657
X6.1801Y-4.3612
X6.1929Y-4.1961
X6.1929Y-4.4252
X6.2287Y-4.2918
X6.3031Y-4.1654
T2
G00X6.3199Y-4.2591
M15
G01X6.3632Y-4.2591
M16
G05
G00X6.3199Y-4.5992
M15
G01X6.3632Y-4.5992
M16
G05
G00X6.4911Y-4.2591
M15
G01X6.5226Y-4.2591
M16
G05
G00X6.4911Y-4.5992
M15
G01X6.5226Y-4.5992
M16
G05
M30
